<?xml version="1.0" encoding="UTF-8" standalone="no"?>
<!-- Created with Inkscape (http://www.inkscape.org/) -->

<svg
   width="500px"
   height="200px"
   viewBox="0 0 500 200"
   version="1.1"
   id="svg5"
   inkscape:version="1.1.1 (c3084ef, 2021-09-22)"
   sodipodi:docname="header.svg"
   xmlns:inkscape="http://www.inkscape.org/namespaces/inkscape"
   xmlns:sodipodi="http://sodipodi.sourceforge.net/DTD/sodipodi-0.dtd"
   xmlns="http://www.w3.org/2000/svg"
   xmlns:svg="http://www.w3.org/2000/svg">
  <sodipodi:namedview
     id="namedview7"
     pagecolor="#ffffff"
     bordercolor="#666666"
     borderopacity="1.0"
     inkscape:pageshadow="2"
     inkscape:pageopacity="0.0"
     inkscape:pagecheckerboard="0"
     inkscape:document-units="px"
     showgrid="false"
     width="512px"
     inkscape:zoom="1.1487449"
     inkscape:cx="317.30281"
     inkscape:cy="168.87996"
     inkscape:window-width="1512"
     inkscape:window-height="916"
     inkscape:window-x="197"
     inkscape:window-y="1118"
     inkscape:window-maximized="0"
     inkscape:current-layer="layer1" />
  <defs
     id="defs2" />
  <g
     inkscape:label="Layer 1"
     inkscape:groupmode="layer"
     id="layer1">
    <rect
       style="fill:#ffffff;stroke-width:0.368908"
       id="rect846"
       width="500"
       height="200"
       x="0"
       y="0"
       rx="15" />
    <g
       id="g1034"
       transform="matrix(3.4486775,0,0,3.4486775,-653.32204,-244.86775)">
      <g
         style="fill:none"
         id="g937"
         transform="matrix(0.26458333,0,0,0.26458333,235.49071,93.61825)">
        <path
           d="m 30.552,4.76 v 27.264 c 0,4.9067 -1.3653,8.7467 -4.096,11.52 -2.688,2.7307 -6.4427,4.096 -11.264,4.096 -5.1627,0 -8.896,-1.408 -11.2,-4.224 C 1.688,40.6 0.941333,36.8667 1.752,32.216 L 8.344,31 c -0.512,3.6693 -0.23467,6.3787 0.832,8.128 1.0667,1.7067 3.072,2.56 6.016,2.56 3.2,0 5.3973,-0.9173 6.592,-2.752 1.2373,-1.8347 1.856,-4.5653 1.856,-8.192 V 4.76 Z m 21.2605,9.6 c 3.1147,0 5.8667,0.6613 8.256,1.984 2.3893,1.3227 4.2453,3.2427 5.568,5.76 1.3653,2.4747 2.048,5.44 2.048,8.896 0,3.456 -0.6827,6.4427 -2.048,8.96 -1.3227,2.4747 -3.1787,4.3733 -5.568,5.696 -2.3893,1.3227 -5.1413,1.984 -8.256,1.984 -3.1147,0 -5.8667,-0.6613 -8.256,-1.984 -2.3893,-1.3227 -4.2667,-3.2213 -5.632,-5.696 -1.3653,-2.5173 -2.048,-5.504 -2.048,-8.96 0,-3.456 0.6827,-6.4213 2.048,-8.896 1.3653,-2.5173 3.2427,-4.4373 5.632,-5.76 2.3893,-1.3227 5.1413,-1.984 8.256,-1.984 z m 0,5.376 c -2.816,0 -5.0347,0.9813 -6.656,2.944 -1.6213,1.92 -2.432,4.6933 -2.432,8.32 0,3.6267 0.8107,6.4213 2.432,8.384 1.6213,1.92 3.84,2.88 6.656,2.88 2.816,0 5.0133,-0.96 6.592,-2.88 1.6213,-1.9627 2.432,-4.7573 2.432,-8.384 0,-3.6267 -0.8107,-6.4 -2.432,-8.32 -1.5787,-1.9627 -3.776,-2.944 -6.592,-2.944 z M 76.5555,9.624 c -1.4933,0 -2.6453,-0.36267 -3.456,-1.088 -0.768,-0.768 -1.152,-1.83467 -1.152,-3.2 0,-1.36534 0.384,-2.41067 1.152,-3.136 0.8107,-0.72533 1.9627,-1.088 3.456,-1.088 1.4507,0 2.56,0.36267 3.328,1.088 0.8107,0.72533 1.216,1.77066 1.216,3.136 0,1.36533 -0.4053,2.432 -1.216,3.2 -0.768,0.72533 -1.8773,1.088 -3.328,1.088 z M 79.9475,15 v 32 h -6.848 V 15 Z M 87.462,47 V 15 h 6.08 l 0.32,5.504 c 1.0667,-2.1333 2.5387,-3.6907 4.416,-4.672 1.92,-0.9813 4.053,-1.472 6.4,-1.472 2.261,0 4.288,0.448 6.08,1.344 1.835,0.8533 3.285,2.176 4.352,3.968 1.067,1.7493 1.6,3.9467 1.6,6.592 V 47 h -6.848 V 28.376 c 0,-3.1573 -0.661,-5.3333 -1.984,-6.528 -1.28,-1.2373 -2.901,-1.856 -4.864,-1.856 -1.408,0 -2.773,0.32 -4.096,0.96 -1.3227,0.64 -2.432,1.7067 -3.328,3.2 -0.8533,1.4507 -1.28,3.392 -1.28,5.824 V 47 Z M 167.797,4.76 V 47 h -6.272 V 22.552 l 0.448,-11.648 h -0.064 L 149.045,47 h -5.696 L 130.485,10.904 h -0.064 l 0.512,11.648 V 47 h -6.336 V 4.76 h 10.176 l 8.512,24.448 2.944,10.048 h 0.128 l 3.008,-10.048 8.448,-24.448 z m 26.574,21.696 c 0,-2.1333 -0.598,-3.776 -1.792,-4.928 -1.152,-1.1947 -2.752,-1.792 -4.8,-1.792 -1.92,0 -3.584,0.448 -4.992,1.344 -1.366,0.896 -2.347,2.3467 -2.944,4.352 L 174.083,23 c 0.81,-2.6027 2.389,-4.6933 4.736,-6.272 2.389,-1.5787 5.461,-2.368 9.216,-2.368 2.517,0 4.757,0.4267 6.72,1.28 2.005,0.8107 3.562,2.0693 4.672,3.776 1.152,1.664 1.728,3.776 1.728,6.336 v 14.272 c 0,1.5787 0.789,2.368 2.368,2.368 0.768,0 1.514,-0.1067 2.24,-0.32 l -0.384,4.736 c -0.982,0.4693 -2.219,0.704 -3.712,0.704 -1.707,0 -3.179,-0.384 -4.416,-1.152 -1.238,-0.768 -2.07,-1.92 -2.496,-3.456 -1.024,1.5787 -2.496,2.7733 -4.416,3.584 -1.92,0.768 -3.84,1.152 -5.76,1.152 -3.03,0 -5.547,-0.7253 -7.552,-2.176 -2.006,-1.4507 -3.008,-3.6267 -3.008,-6.528 0,-2.3467 0.768,-4.288 2.304,-5.824 1.578,-1.536 3.797,-2.6027 6.656,-3.2 l 11.392,-2.24 z m -13.44,11.968 c 0,1.1947 0.448,2.1547 1.344,2.88 0.938,0.6827 2.176,1.024 3.712,1.024 1.45,0 2.816,-0.2347 4.096,-0.704 1.28,-0.4693 2.304,-1.2373 3.072,-2.304 0.81,-1.0667 1.216,-2.4533 1.216,-4.16 v -2.688 l -8.064,1.664 c -1.835,0.3413 -3.2,0.832 -4.096,1.472 -0.854,0.64 -1.28,1.5787 -1.28,2.816 z M 209.175,47 V 15 h 5.824 l 0.64,5.76 c 1.749,-4.2667 5.098,-6.4 10.048,-6.4 0.64,0 1.28,0.064 1.92,0.192 0.64,0.0853 1.173,0.2347 1.6,0.448 l -0.96,6.016 c -0.47,-0.1707 -1.003,-0.2987 -1.6,-0.384 -0.555,-0.128 -1.323,-0.192 -2.304,-0.192 -1.366,0 -2.688,0.3627 -3.968,1.088 -1.238,0.6827 -2.283,1.7493 -3.136,3.2 -0.811,1.408 -1.216,3.1787 -1.216,5.312 V 47 Z M 262.683,15 250.459,27.544 263.451,47 h -7.936 l -9.856,-15.04 -6.336,6.528 V 47 h -6.848 V 0.599998 h 6.848 V 30.616 L 254.555,15 Z m 16.609,32.64 c -3.2,0 -6.016,-0.6613 -8.448,-1.984 -2.389,-1.3227 -4.267,-3.2213 -5.632,-5.696 -1.365,-2.5173 -2.048,-5.504 -2.048,-8.96 0,-3.456 0.661,-6.4213 1.984,-8.896 1.365,-2.5173 3.221,-4.4373 5.568,-5.76 2.389,-1.3227 5.12,-1.984 8.192,-1.984 3.115,0 5.76,0.64 7.936,1.92 2.176,1.28 3.84,3.0293 4.992,5.248 1.152,2.2187 1.728,4.736 1.728,7.552 0,0.8107 -0.021,1.5573 -0.064,2.24 -0.043,0.6827 -0.107,1.2587 -0.192,1.728 h -23.424 c 0.299,2.9867 1.259,5.2693 2.88,6.848 1.664,1.536 3.797,2.304 6.4,2.304 2.133,0 3.861,-0.4053 5.184,-1.216 1.323,-0.8107 2.368,-1.9413 3.136,-3.392 l 5.44,2.56 c -1.109,2.3467 -2.88,4.1813 -5.312,5.504 -2.389,1.3227 -5.163,1.984 -8.32,1.984 z M 278.78,19.8 c -2.347,0 -4.288,0.6827 -5.824,2.048 -1.493,1.3653 -2.453,3.3493 -2.88,5.952 h 16.832 c -0.171,-2.56 -0.981,-4.5227 -2.432,-5.888 C 283.025,20.504 281.127,19.8 278.78,19.8 Z M 318.614,15 v 5.376 H 307.606 V 37.4 c 0,1.536 0.427,2.688 1.28,3.456 0.853,0.7253 1.963,1.088 3.328,1.088 1.195,0 2.197,-0.1707 3.008,-0.512 0.853,-0.384 1.643,-0.896 2.368,-1.536 l 1.536,4.992 c -0.981,0.8533 -2.197,1.536 -3.648,2.048 -1.408,0.4693 -2.987,0.704 -4.736,0.704 -2.816,0 -5.184,-0.6827 -7.104,-2.048 -1.92,-1.408 -2.88,-3.7547 -2.88,-7.04 V 20.376 h -6.144 V 15 h 6.144 V 7.512 l 6.848,-1.92 V 15 Z"
           fill="#000000"
           id="path928" />
      </g>
      <g
         style="fill:none"
         id="g948"
         transform="matrix(0.26458333,0,0,0.26458333,203.93964,86.50625)">
        <path
           fill-rule="evenodd"
           clip-rule="evenodd"
           d="m 101,50.9998 -0.001,0.25 -0.002,0.25 -0.005,0.2499 -0.006,0.25 -0.007,0.2498 -0.009,0.2498 -0.012,0.2498 -0.012,0.2496 -0.015,0.2495 -0.016,0.2495 -0.017,0.2492 -0.02,0.2492 -0.021,0.249 -0.023,0.2488 -0.024,0.2486 -0.027,0.2485 -0.027,0.2482 -0.03,0.2481 -0.031,0.2478 -0.033,0.2475 -0.035,0.2473 -0.036,0.247 -0.038,0.2468 -0.039,0.2464 -0.042,0.2462 -0.042,0.2458 -0.045,0.2455 -0.046,0.2451 -0.048,0.2448 -0.05,0.2444 -0.051,0.2441 -0.052,0.2436 -0.055,0.2432 -0.056,0.2428 -0.0575,0.2424 -0.0593,0.242 -0.0609,0.2415 -0.0625,0.241 -0.0642,0.2405 -0.0657,0.2401 -0.0673,0.2395 -0.0689,0.239 -0.0706,0.2385 -0.0721,0.238 -0.0737,0.2374 -0.0752,0.2368 -0.0769,0.2363 -0.0784,0.2357 -0.08,0.2351 -0.0815,0.2344 -0.0831,0.2339 -0.0846,0.2332 -0.0862,0.2326 -0.0877,0.2319 -0.0892,0.2312 -0.0907,0.2306 -0.0923,0.2299 -0.0938,0.2292 -0.0952,0.2285 -0.0968,0.2277 -0.0983,0.2271 -0.0997,0.2262 -0.1012,0.2256 -0.1027,0.2247 -0.1042,0.224 -0.1056,0.2232 -0.107,0.2224 -0.1085,0.2216 -0.11,0.2208 -0.1113,0.2199 -0.1128,0.2192 -0.1142,0.2182 -0.1156,0.2174 -0.1169,0.2166 -0.1184,0.2157 -0.1198,0.2147 -0.1211,0.2139 -0.1225,0.213 -0.1239,0.2121 -0.1252,0.2111 -0.1265,0.2102 -0.1279,0.2092 -0.1291,0.2084 -0.1305,0.2073 -0.1319,0.2064 -0.1331,0.2054 -0.1344,0.2044 -0.1356,0.2034 -0.137,0.2024 -0.1382,0.2013 -0.1395,0.2004 -0.1407,0.1993 -0.1419,0.1983 -0.1432,0.1973 -0.1444,0.1962 -0.1456,0.1951 -0.1467,0.194 -0.148,0.193 -0.1492,0.1919 -0.1503,0.1908 -0.1515,0.1897 -0.1526,0.1885 -0.1538,0.1875 -0.1549,0.1863 -0.156,0.1852 -0.1571,0.1841 -0.1582,0.1829 -0.1594,0.1817 -0.1603,0.1807 -0.1615,0.1794 -0.1625,0.1782 -0.1636,0.1771 -0.1646,0.1759 -0.1657,0.1747 -0.1666,0.1735 -0.1677,0.1723 -0.1686,0.1711 -0.1697,0.1699 -0.1706,0.1687 -0.1716,0.1674 -0.1726,0.1662 -0.1734,0.165 -0.1745,0.1637 -0.1753,0.1625 -0.1763,0.1612 -0.1771,0.1599 -0.1781,0.1587 -0.1789,0.1574 -0.1798,0.1562 -0.1806,0.1549 -0.1815,0.1536 -0.1824,0.1523 -0.1831,0.151 -0.184,0.1497 -0.1848,0.1484 -0.1855,0.1471 -0.1864,0.1459 -0.1871,0.1445 -0.1879,0.1432 -0.1886,0.1418 -0.1893,0.1406 -0.1901,0.1392 -0.1908,0.1379 -0.1915,0.1366 -0.1922,0.1352 -0.1929,0.1339 -0.1935,0.1326 -0.1942,0.1312 -0.1948,0.1299 -0.1955,0.1286 -0.1961,0.1272 -0.1967,0.1258 -0.1973,0.1245 -0.1979,0.1231 -0.1985,0.1218 -0.1991,0.1204 -0.1996,0.1191 -0.2001,0.1177 -0.2007,0.1163 -0.2012,0.115 -0.2017,0.1136 -0.2023,0.1123 -0.2027,0.1108 -0.2032,0.1096 -0.2036,0.1081 -0.2041,0.1068 -0.2046,0.1054 -0.205,0.104 -0.2054,0.1027 -0.2058,0.1013 -0.2062,0.0999 -0.2066,0.0985 -0.207,0.0972 -0.2074,0.0958 -0.2077,0.0945 -0.2081,0.093 -0.2084,0.0917 -0.2087,0.0904 -0.209,0.0889 -0.2093,0.0876 -0.2097,0.0863 -0.2099,0.0848 -0.2102,0.0835 -0.2104,0.0821 -0.2107,0.0808 -0.2109,0.0794 -0.2111,0.0781 -0.2114,0.0767 -0.2116,0.0753 -0.2118,0.074 -0.2119,0.0726 -0.2121,0.0713 -0.2123,0.0699 -0.2125,0.0686 -0.2126,0.0673 -0.2127,0.0659 -0.2128,0.0645 -0.213,0.0633 -0.2131,0.0618 -0.2131,0.0606 -0.2133,0.0592 -0.2133,0.0579 -0.2134,0.0566 -0.2134,0.0553 -0.2135,0.0539 -0.2135,0.0526 -0.2135,0.0513 -0.2135,0.0501 -0.2136,0.0487 -0.2135,0.0474 -0.2136,0.0461 -0.2135,0.0448 -0.2135,0.0435 -0.2134,0.0423 -0.2134,0.0409 -0.2133,0.0397 -0.2133,0.0384 -0.2132,0.0372 -0.2131,0.0358 -0.213,0.0346 -0.2129,0.0334 -0.2128,0.0321 -0.2126,0.0309 -0.2125,0.0296 -0.2124,0.0284 -0.2123,0.0271 -0.2121,0.0259 -0.2119,0.0247 -0.2117,0.0235 -0.2116,0.0222 -0.2114,0.0211 -0.2112,0.0198 -0.2109,0.0187 -0.2108,0.0174 -0.2106,0.0163 -0.2103,0.0151 -0.21,0.0139 -0.2099,0.0127 -0.2096,0.0116 -0.2093,0.0104 -0.2091,0.0093 -0.2087,0.0081 -0.2086,0.0069 -0.2082,0.0059 -0.2079,0.0047 -0.2076,0.0035 -0.2073,0.0025 -0.207,0.0013 -0.2067,3e-4 -0.2063,-9e-4 -0.2061,-0.002 -0.2056,-0.003 -0.2053,-0.0042 -0.205,-0.0052 -0.2046,-0.0063 -0.2043,-0.0073 -0.2038,-0.0084 -0.2035,-0.0095 -0.2031,-0.0105 -0.2027,-0.0115 -0.2023,-0.0126 -0.2019,-0.0136 -0.2016,-0.0146 -0.201,-0.0156 L 60.2596,87.9099 60.0593,87.8922 59.8595,87.8736 59.6601,87.854 59.4612,87.8334 59.2627,87.8119 59.0646,87.7894 58.867,87.7659 58.6699,87.7415 58.4732,87.7161 58.277,87.6898 58.0813,87.6626 57.886,87.6344 57.6912,87.6054 57.4969,87.5754 57.3031,87.5445 57.1098,87.5127 56.917,87.4801 56.7247,87.4465 56.5328,87.4121 56.3415,87.3768 56.1507,87.3407 55.9605,87.3037 55.7707,87.2659 55.5815,87.2272 55.3927,87.1877 55.2046,87.1474 55.0169,87.1062 54.8298,87.0643 54.6432,87.0215 54.4572,86.978 54.2717,86.9336 54.0867,86.8885 53.9023,86.8426 53.7184,86.796 53.5351,86.7486 53.3524,86.7004 53.1702,86.6515 52.9885,86.6018 52.8074,86.5515 52.6269,86.5003 52.447,86.4485 52.2676,86.396 52.0888,86.3428 51.9105,86.2888 51.7328,86.2342 51.5557,86.1789 51.3792,86.1229 51.2033,86.0663 51.0279,86.009 50.8531,85.951 50.6788,85.8924 50.5052,85.8332 50.3321,85.7733 50.1597,85.7128 49.9877,85.6517 49.8164,85.59 49.6457,85.5276 49.4755,85.4647 49.306,85.4011 49.137,85.337 48.9686,85.2723 48.8007,85.207 48.6335,85.1412 48.4669,85.0748 48.3008,85.0078 48.1353,84.9403 47.9704,84.8723 47.8061,84.8037 47.6424,84.7346 47.4792,84.665 47.3166,84.5949 47.1547,84.5242 46.9932,84.4531 46.8324,84.3814 46.6722,84.3093 46.5125,84.2367 46.3534,84.1636 46.1949,84.09 46.037,84.016 45.8796,83.9415 45.7228,83.8665 45.5666,83.7911 45.411,83.7153 45.2559,83.639 l -0.1545,-0.0767 -0.1539,-0.0772 -0.1534,-0.0775 -0.1528,-0.078 -0.1523,-0.0784 -0.1516,-0.0788 -0.1512,-0.0791 -0.1505,-0.0796 -0.15,-0.08 -0.1495,-0.0804 -0.1489,-0.0807 -0.1484,-0.0811 -0.1478,-0.0815 -0.1472,-0.0818 -0.1468,-0.0822 -0.1462,-0.0825 -0.1456,-0.0829 -0.1451,-0.0833 -0.1446,-0.0835 -0.144,-0.0839 -0.1435,-0.0843 -0.143,-0.0845 -0.1425,-0.0849 -0.1419,-0.0852 -0.1414,-0.0855 -0.1409,-0.0859 -0.1404,-0.0861 -0.1399,-0.0864 -0.1394,-0.0867 -0.1389,-0.087 -0.1383,-0.0873 -0.1379,-0.0876 -0.1374,-0.0879 -0.1368,-0.0881 -0.1364,-0.0884 -0.1359,-0.0887 -0.1354,-0.089 -0.135,-0.0892 -0.1344,-0.0895 -0.134,-0.0897 -0.1335,-0.09 -0.133,-0.0902 -0.1326,-0.0905 -0.1321,-0.0907 -0.1317,-0.0909 -0.1311,-0.0912 -0.1308,-0.0914 -0.1303,-0.0917 -0.1298,-0.0919 -0.1294,-0.0921 -0.129,-0.0923 -0.1285,-0.0926 -0.1281,-0.0927 -0.1276,-0.093 -0.1273,-0.0932 -0.1268,-0.0935 -0.1264,-0.0936 -0.126,-0.0938 -0.1255,-0.094 -0.1252,-0.0943 -0.1247,-0.0944 -0.1244,-0.0947 -0.1239,-0.0948 -0.1236,-0.095 -0.1231,-0.0953 -0.1228,-0.0954 -0.1224,-0.0956 -0.122,-0.0958 -0.1216,-0.096 -0.1213,-0.0962 -0.1209,-0.0964 -0.1205,-0.0965 -0.1201,-0.0968 -0.1198,-0.0969 -0.1195,-0.0971 -0.1191,-0.0973 -0.1187,-0.0975 -0.1184,-0.0976 -0.118,-0.0978 -0.1177,-0.098 -0.1174,-0.0982 -0.117,-0.0984 -0.1167,-0.0985 -0.1164,-0.0988 -0.1161,-0.0989 -0.1157,-0.099 -0.1154,-0.0993 -0.1151,-0.0994 -0.1148,-0.0996 -0.1145,-0.0998 -0.1142,-0.1 -0.1139,-0.1001 -0.1136,-0.1004 -0.1133,-0.1005 -0.113,-0.1007 -0.1127,-0.1008 -0.1124,-0.1011 -0.1122,-0.1012 -0.1119,-0.1014 -0.1115,-0.1016 -0.1114,-0.1017 -0.111,-0.102 -0.1108,-0.1021 -0.1105,-0.1023 -0.1103,-0.1026 -0.11,-0.1027 L 31.4295,73.8054 31.32,73.7023 31.2108,73.599 31.1018,73.4955 30.993,73.3919 30.8845,73.288 30.7762,73.184 30.6682,73.0797 30.5604,72.9753 30.4528,72.8706 30.3455,72.7658 30.2384,72.6607 30.1315,72.5554 30.0248,72.4499 29.9184,72.3443 29.8121,72.2383 29.7061,72.1322 29.6003,72.0259 29.4948,71.9193 29.3894,71.8125 29.2842,71.7055 29.1793,71.5983 29.0745,71.4908 28.97,71.3831 28.8656,71.2752 28.7615,71.1671 28.6575,71.0587 28.5538,70.95 28.4502,70.8411 28.3468,70.732 28.2437,70.6226 28.1407,70.513 28.0379,70.4031 27.9353,70.293 27.8329,70.1826 27.7307,70.0719 27.6286,69.961 l -0.1018,-0.1112 -0.1017,-0.1115 -0.1015,-0.1117 -0.1013,-0.1121 -0.1011,-0.1122 -0.101,-0.1126 -0.1007,-0.1129 -0.1006,-0.1132 -0.1004,-0.1134 -0.1003,-0.1137 -0.1,-0.1141 -0.0999,-0.1143 -0.0997,-0.1147 -0.0995,-0.1149 -0.0993,-0.1153 -0.0992,-0.1156 -0.099,-0.1159 -0.0988,-0.1162 -0.0986,-0.1166 -0.0985,-0.1168 -0.0983,-0.1173 -0.0981,-0.1175 -0.0979,-0.1179 -0.0977,-0.1182 -0.0976,-0.1186 -0.0973,-0.1189 -0.0972,-0.1192 -0.097,-0.1197 -0.0969,-0.1199 -0.0966,-0.1204 -0.0965,-0.1207 -0.0962,-0.1211 -0.0961,-0.1214 -0.0959,-0.1219 -0.0957,-0.1222 -0.0956,-0.1226 -0.0953,-0.1229 -0.0951,-0.1234 -0.0949,-0.1238 -0.0948,-0.1241 -0.0945,-0.1246 -0.0943,-0.1249 -0.0942,-0.1254 -0.0939,-0.1258 -0.0937,-0.1262 -0.0935,-0.1266 -0.0934,-0.127 -0.093,-0.1275 -0.0929,-0.1278 -0.0927,-0.1284 -0.0924,-0.1287 -0.0922,-0.1292 -0.092,-0.1296 -0.0918,-0.1301 -0.0915,-0.1305 -0.0913,-0.131 -0.0911,-0.1314 -0.0908,-0.1319 -0.0906,-0.1324 -0.0904,-0.1328 -0.0901,-0.1333 -0.0898,-0.1337 -0.0896,-0.1342 -0.0893,-0.1347 -0.0891,-0.1352 -0.0888,-0.1357 -0.0886,-0.1361 -0.0882,-0.1367 -0.088,-0.1371 -0.0877,-0.1376 -0.0875,-0.1382 -0.0871,-0.1386 -0.0869,-0.1391 -0.0866,-0.1397 -0.0862,-0.1401 -0.086,-0.1407 -0.0857,-0.1411 -0.0853,-0.1417 -0.085,-0.1422 -0.0848,-0.1428 -0.0844,-0.1432 -0.084,-0.1438 -0.0838,-0.1443 -0.0834,-0.1449 -0.083,-0.1454 -0.0827,-0.1459 -0.0824,-0.1465 -0.082,-0.147 -0.0816,-0.1475 -0.0813,-0.1481 -0.0809,-0.1487 -0.0806,-0.1492 -0.0801,-0.1497 -0.0798,-0.1503 -0.0793,-0.1509 -0.079,-0.1514 -0.0786,-0.152 L 18.6294,57.2788 18.5517,57.1257 18.4743,56.972 18.3974,56.8178 18.3209,56.663 18.2449,56.5076 18.1693,56.3517 18.0941,56.1952 18.0194,56.0381 17.9451,55.8804 17.8713,55.7222 17.798,55.5634 17.7251,55.404 17.6528,55.244 17.5809,55.0835 17.5095,54.9223 17.4386,54.7606 17.3682,54.5983 17.2984,54.4355 17.229,54.272 17.1602,54.108 17.0919,53.9434 17.0241,53.7782 16.9569,53.6124 16.8903,53.446 16.8242,53.279 16.7586,53.1115 16.6936,52.9434 16.6292,52.7747 16.5654,52.6054 16.5022,52.4355 16.4396,52.265 16.3775,52.094 16.3161,51.9224 16.2553,51.7502 16.1951,51.5774 16.1356,51.404 16.0767,51.23 16.0184,51.0555 15.9608,50.8804 15.9038,50.7047 15.8476,50.5285 15.7919,50.3516 15.737,50.1742 15.6827,49.9963 15.6292,49.8177 15.5763,49.6386 15.5241,49.4589 15.4727,49.2787 15.422,49.0979 15.372,48.9165 15.3227,48.7346 15.2742,48.5521 15.2264,48.369 15.1794,48.1854 15.1331,48.0013 15.0876,47.8166 15.0429,47.6313 14.999,47.4456 14.9559,47.2592 14.9135,47.0724 14.872,46.885 14.8313,46.697 14.7914,46.5086 14.7523,46.3196 14.7141,46.1301 14.6767,45.94 l -0.0366,-0.1905 -0.0357,-0.1911 -0.0348,-0.1915 -0.0339,-0.1921 -0.0331,-0.1926 -0.0322,-0.1931 -0.0313,-0.1935 -0.0304,-0.1941 -0.0295,-0.1946 -0.0286,-0.195 -0.0277,-0.1955 -0.0267,-0.196 -0.0259,-0.1964 -0.0248,-0.197 -0.024,-0.1973 -0.0229,-0.1979 -0.022,-0.1983 -0.0211,-0.1987 -0.0201,-0.1992 -0.019,-0.1996 -0.0182,-0.2 -0.0171,-0.2005 -0.0161,-0.2009 -0.0151,-0.2013 -0.014,-0.2017 -0.0131,-0.2022 -0.012,-0.2025 -0.011,-0.2029 -0.01,-0.2033 -0.0089,-0.2037 -0.0078,-0.204 -0.0068,-0.2045 -0.0058,-0.2048 -0.0046,-0.2051 -0.0036,-0.2055 -0.0025,-0.2059 -0.0014,-0.2062 -3e-4,-0.2065 8e-4,-0.2068 0.002,-0.2072 0.003,-0.2075 0.0041,-0.2077 0.0053,-0.2081 0.0065,-0.2084 0.0075,-0.2086 0.0087,-0.209 0.0099,-0.2092 0.011,-0.2094 0.0122,-0.2098 0.0133,-0.2099 0.0145,-0.2102 0.0157,-0.2105 0.0169,-0.2106 0.0181,-0.2109 0.0193,-0.2111 0.0205,-0.2113 0.0216,-0.2114 0.0229,-0.2117 0.0241,-0.2118 0.0254,-0.2121 0.0265,-0.2121 0.0278,-0.2124 0.029,-0.2124 0.0303,-0.2126 0.0315,-0.2127 0.0328,-0.2129 0.034,-0.2129 0.0353,-0.2131 0.0365,-0.2131 0.0378,-0.2132 0.0391,-0.2133 0.0403,-0.2134 0.0416,-0.2134 0.043,-0.2135 0.0442,-0.2135 0.0454,-0.2135 0.0468,-0.2136 0.0481,-0.2135 0.0494,-0.2136 0.0507,-0.2135 0.052,-0.2135 0.0533,-0.2135 0.0546,-0.2135 0.056,-0.2134 0.0572,-0.2133 0.0586,-0.2133 0.06,-0.2132 0.0612,-0.2131 0.0626,-0.213 0.0639,-0.2129 0.0653,-0.2128 0.0666,-0.2127 0.0679,-0.2125 0.0693,-0.2123 0.0706,-0.2123 0.072,-0.212 0.0734,-0.2119 0.0747,-0.2116 0.076,-0.2115 0.0774,-0.2112 0.0788,-0.2111 0.0801,-0.2108 0.0815,-0.2105 0.0828,-0.2103 0.0842,-0.2101 0.0856,-0.2097 0.0869,-0.2095 0.0884,-0.2092 0.0896,-0.2088 0.0911,-0.2086 0.0924,-0.2082 0.0938,-0.2079 0.0951,-0.2075 0.0966,-0.2072 0.0979,-0.2068 0.0992,-0.2064 0.1007,-0.206 0.102,-0.2056 0.1034,-0.2052 0.1047,-0.2048 0.1061,-0.2043 0.1075,-0.2039 0.1089,-0.2034 0.1102,-0.2029 0.1116,-0.2025 0.1129,-0.202 0.1144,-0.2014 0.1157,-0.2009 0.117,-0.2005 0.1184,-0.1998 0.1198,-0.1993 0.1211,-0.1988 0.1225,-0.1982 0.1239,-0.1976 0.1252,-0.197 0.1265,-0.1964 0.1279,-0.1957 0.1292,-0.1952 0.1306,-0.1945 0.132,-0.1938 0.1332,-0.1932 0.1346,-0.1925 0.136,-0.1919 0.1372,-0.1911 0.1386,-0.1904 0.14,-0.1897 0.1412,-0.189 0.1426,-0.1882 0.1438,-0.1875 0.1452,-0.1867 0.1465,-0.186 0.1478,-0.1851 0.1491,-0.1844 0.1504,-0.1835 0.1517,-0.1827 0.153,-0.1819 0.1543,-0.1811 0.1555,-0.1802 0.1568,-0.1793 0.1581,-0.1785 0.1594,-0.1776 0.1606,-0.1767 0.1618,-0.1758 0.1632,-0.1748 0.1643,-0.174 0.1656,-0.173 0.1669,-0.172 0.168,-0.1711 0.1693,-0.1701 0.1706,-0.1691 0.1717,-0.1682 0.1729,-0.1671 0.1742,-0.1662 0.1753,-0.1651 0.1765,-0.164 0.1777,-0.1631 0.1789,-0.1619 0.18,-0.1609 0.1812,-0.1599 0.1824,-0.1587 0.1835,-0.15768 0.1847,-0.15655 0.1858,-0.15543 0.1869,-0.15431 0.188,-0.15317 0.1892,-0.15203 0.1902,-0.15088 0.1914,-0.14971 0.1924,-0.14854 0.1936,-0.14735 0.1946,-0.14617 0.1957,-0.14496 0.1967,-0.14374 0.1978,-0.14253 0.1988,-0.1413 0.1999,-0.14006 0.2009,-0.13881 0.2019,-0.13755 0.2029,-0.13629 0.204,-0.13501 0.2049,-0.13372 0.2059,-0.13244 0.2069,-0.13113 0.2078,-0.12982 0.2088,-0.1285 0.2098,-0.12718 0.2107,-0.12583 0.2116,-0.1245 0.2125,-0.12314 0.2135,-0.12178 0.2143,-0.12041 0.2153,-0.11904 0.2161,-0.11765 0.217,-0.11626 0.2179,-0.11486 0.2187,-0.11345 0.2195,-0.11203 0.2204,-0.11062 0.2212,-0.10918 0.222,-0.10774 0.2228,-0.1063 L 35.4466,4.4386 35.671,4.33522 35.8961,4.23329 36.122,4.13285 36.3487,4.03388 36.5761,3.9364 36.8042,3.84041 37.0331,3.74592 37.2627,3.65293 37.4929,3.56146 37.7238,3.47151 37.9554,3.38308 38.1877,3.29619 38.4206,3.21082 38.6542,3.12701 38.8883,3.04474 39.1231,2.96402 39.3585,2.88486 39.5945,2.80727 39.8311,2.73125 40.0682,2.6568 40.3059,2.58393 40.5442,2.51265 40.7829,2.44296 41.0222,2.37486 41.262,2.30836 41.5023,2.24347 41.7431,2.18018 41.9844,2.11851 42.2261,2.05845 42.4683,2.00002 42.7109,1.94321 42.9539,1.88803 43.1974,1.83448 43.4412,1.78257 43.6855,1.7323 43.9301,1.68368 44.1751,1.6367 44.4204,1.59137 44.666,1.54769 44.912,1.50567 45.1583,1.46531 45.4049,1.42662 45.6518,1.38959 45.899,1.35422 46.1464,1.32052 46.3941,1.2885 46.642,1.25815 46.8902,1.22948 47.1385,1.20249 47.3871,1.17717 47.6358,1.15354 47.8847,1.1316 48.1338,1.11133 48.383,1.09276 l 0.2494,-0.01689 0.2495,-0.0152 0.2496,-0.0135 0.2496,-0.01182 0.2498,-0.01013 0.2498,-0.00843 0.2499,-0.00674 0.25,-0.00504 0.25,-0.00335 0.25,-0.00166 0.25,4e-5 0.2499,0.00173 0.25,0.00343 0.25,0.00512 0.2499,0.00681 0.2498,0.00851 0.2498,0.0102 0.2496,0.01189 0.2496,0.01358 0.2495,0.01528 0.2493,0.01696 0.2493,0.01865 0.249,0.02034 0.2489,0.02202 0.2488,0.0237 0.2485,0.02539 0.2484,0.02707 0.2481,0.02875 0.2479,0.03042 0.2477,0.0321 0.2474,0.03377 0.2471,0.03543 0.2469,0.03711 0.2466,0.03877 0.2463,0.04043 0.246,0.0421 0.2456,0.04375 0.2453,0.0454 0.245,0.04705 0.2446,0.0487 0.2442,0.05034 0.2438,0.05199 0.2435,0.05361 0.243,0.05526 0.2426,0.05688 0.2421,0.0585 0.2417,0.06013 0.2413,0.06175 0.2407,0.06335 0.2403,0.06497 0.2398,0.06657 0.2393,0.06817 0.2387,0.06976 0.2382,0.07135 0.2377,0.07294 0.2371,0.07452 0.2366,0.07609 0.2359,0.07766 0.2354,0.07923 0.2348,0.08079 0.2341,0.08234 0.2335,0.08388 0.2329,0.08543 0.2323,0.08697 0.2315,0.08849 0.2309,0.09002 0.2303,0.09154 0.2295,0.09305 0.2288,0.09456 0.2281,0.09605 0.2274,0.09755 0.2266,0.09904 0.2259,0.10051 0.2251,0.10199 0.2244,0.10345 0.2236,0.10491 0.2227,0.10636 0.222,0.10781 0.2212,0.10925 0.2203,0.11067 0.2196,0.1121 0.2186,0.11351 0.2179,0.11492 0.2169,0.11632 0.2161,0.11772 0.2152,0.11909 0.2143,0.12048 0.2134,0.12184 0.2125,0.1232 0.2116,0.12456 0.2107,0.12589 0.2097,0.12724 0.2087,0.12856 0.2078,0.12988 0.2069,0.13119 0.2058,0.13249 0.2049,0.13378 0.2039,0.13507 0.2029,0.13634 0.2018,0.13761 0.2009,0.13886 0.1998,0.14012 0.1988,0.14135 0.1978,0.14258 0.1967,0.14381 0.1956,0.14501 0.1945,0.14621 0.1935,0.14741 0.1924,0.14859 0.1913,0.14977 0.1903,0.15092 0.1891,0.15208 0.188,0.15323 0.1868,0.15436 0.1858,0.15548 0.1846,0.1566 0.1834,0.1577 0.1823,0.1588 0.1812,0.1599 0.18,0.1609 0.1788,0.1621 0.1777,0.163 0.1764,0.1641 0.1753,0.1652 0.1741,0.1662 0.1729,0.1672 0.1716,0.1681 0.1705,0.1692 0.1692,0.1702 0.1681,0.1711 0.1667,0.1721 0.1656,0.173 0.1643,0.174 0.1631,0.1749 0.1618,0.1758 0.1605,0.1768 0.1593,0.1776 0.1581,0.1785 0.1567,0.1794 0.1555,0.1802 0.1542,0.1811 0.1529,0.182 0.1517,0.1827 0.1503,0.1836 0.1491,0.1844 0.1477,0.1852 0.1464,0.186 0.1452,0.1867 0.1438,0.1875 0.1425,0.1883 0.1412,0.189 0.1398,0.1897 0.1386,0.1905 0.1372,0.1911 0.1359,0.1919 0.1345,0.1925 0.1332,0.1933 0.1319,0.1938 0.1305,0.1946 0.1292,0.1951 0.1278,0.1958 0.1265,0.1965 0.1252,0.197 0.1237,0.1976 0.1225,0.1982 0.121,0.1988 0.1198,0.1993 0.1183,0.1999 0.117,0.2005 0.1156,0.2009 0.1143,0.2015 0.1129,0.202 0.1115,0.2025 0.1102,0.2029 0.1088,0.2035 0.1074,0.2039 0.1061,0.2043 0.1047,0.2048 0.1033,0.2052 0.1019,0.2056 0.1006,0.2061 0.0992,0.2064 0.0979,0.2068 0.0964,0.2072 0.0951,0.2075 0.0937,0.2079 0.0924,0.2083 0.091,0.2085 0.0896,0.2089 0.0882,0.2092 0.0869,0.2095 0.0855,0.2098 0.0842,0.21 0.0828,0.2103 0.0814,0.2106 0.0801,0.2108 0.0787,0.211 0.0773,0.2113 0.076,0.2115 0.0746,0.2117 0.0733,0.2118 0.0719,0.2121 0.0706,0.2122 0.0692,0.2124 0.0679,0.2125 0.0666,0.2126 0.0651,0.2128 0.0639,0.2129 0.0625,0.2131 0.0612,0.2131 0.0599,0.2132 0.0585,0.2132 0.0572,0.2134 0.0559,0.2134 0.0546,0.2135 0.0532,0.2135 0.052,0.2135 0.0506,0.2135 0.0493,0.2136 0.0481,0.2135 0.0467,0.2136 0.0454,0.2135 0.0442,0.2135 0.0428,0.2135 0.0416,0.2134 0.0403,0.2133 0.039,0.2133 0.0378,0.2132 0.0364,0.2132 0.0352,0.213 0.034,0.213 0.0327,0.2128 0.0315,0.2127 0.0302,0.2126 0.0289,0.2125 0.0278,0.2123 0.0265,0.2122 0.0252,0.212 0.0241,0.2118 0.0228,0.2116 0.0217,0.2115 0.0204,0.2113 0.0192,0.2111 0.018,0.2108 0.0169,0.2107 0.0156,0.2104 0.0145,0.2102 0.0133,0.21 0.0121,0.2097 0.011,0.2094 0.0098,0.2092 0.0086,0.2089 0.0076,0.2087 0.0063,0.2083 0.0053,0.2081 0.0041,0.2078 0.003,0.2074 0.0018,0.2072 8e-4,0.2068 -4e-4,0.2065 -0.0014,0.2062 -0.0025,0.2058 -0.0037,0.2055 -0.0047,0.2051 -0.0057,0.2048 -0.0069,0.2044 -0.0079,0.2041 -0.0089,0.2036 -0.01,0.2033 -0.0111,0.2029 -0.0121,0.2025 -0.0131,0.2021 -0.0141,0.2017 -0.0151,0.2013 -0.0162,0.2009 -0.0171,0.2004 -0.0182,0.2001 -0.0191,0.1996 -0.0201,0.1991 -0.0211,0.1987 -0.0221,0.1983 -0.023,0.1978 -0.024,0.1974 -0.0249,0.1969 -0.0258,0.1964 -0.0268,0.196 -0.0277,0.1955 -0.0287,0.195 -0.0295,0.1945 -0.0304,0.1941 -0.0314,0.1935 -0.0322,0.1931 -0.0331,0.1925 -0.034,0.1921 -0.0349,0.1915 -0.0357,0.1911 -0.0366,0.1905 -0.0375,0.19 -0.0382,0.1895 -0.0391,0.189 -0.04,0.1884 -0.0407,0.1879 -0.0416,0.1874 -0.0424,0.1868 -0.0431,0.1863 -0.044,0.1858 -0.0447,0.1852 -0.0456,0.1847 -0.0462,0.1841 -0.0471,0.1836 -0.0478,0.183 -0.0486,0.1825 -0.0493,0.1819 -0.05,0.1813 -0.0508,0.1808 -0.0514,0.1802 -0.0522,0.1797 -0.0529,0.1791 -0.0536,0.1785 -0.0543,0.1779 -0.055,0.1774 -0.0556,0.1768 -0.0564,0.1762 -0.057,0.1757 -0.0576,0.1751 -0.0583,0.1745 -0.0589,0.1739 -0.0596,0.1733 -0.0602,0.1728 -0.0608,0.1722 -0.0615,0.1716 -0.062,0.171 -0.0627,0.1704 -0.0632,0.1699 -0.0639,0.1693 -0.0644,0.1686 -0.065,0.1681 -0.0656,0.1676 -0.0661,0.1669 -0.0667,0.1663 -0.0672,0.1658 -0.0678,0.1652 -0.0683,0.1646 -0.0689,0.164 -0.0694,0.1634 -0.0699,0.1629 -0.0704,0.1622 -0.0709,0.1617 -0.0714,0.1611 -0.0719,0.1605 -0.0724,0.16 -0.0728,0.1593 -0.0734,0.1588 -0.0738,0.1582 -0.0743,0.1577 -0.0747,0.157 -0.0752,0.1565 -0.0756,0.1559 -0.0761,0.1554 -0.0765,0.1547 -0.077,0.1543 -0.0773,0.1536 -0.0778,0.1531 -0.0782,0.1525 -0.0786,0.1519 -0.079,0.1514 -0.0794,0.1509 -0.0797,0.1502 -0.0802,0.1498 -0.0806,0.1491 -0.0809,0.1487 -0.0813,0.148 -0.0816,0.1476 -0.0821,0.1469 -0.0823,0.1465 -0.0828,0.1459 -0.083,0.1453 -0.0835,0.1449 -0.0837,0.1443 -0.0841,0.1437 -0.0844,0.1433 -0.0847,0.1427 -0.0851,0.1422 -0.0853,0.1416 -0.0857,0.1412 -0.086,0.1406 -0.0863,0.1402 -0.0866,0.1396 -0.0868,0.1391 -0.0872,0.1386 -0.0875,0.1381 -0.0877,0.1376 -0.088,0.1371 -0.0883,0.1366 -0.0885,0.1362 -0.0889,0.1356 -0.089,0.1352 -0.0894,0.1346 -0.0896,0.1342 -0.0898,0.1338 -0.0901,0.1332 -0.0904,0.1328 -0.0906,0.1324 -0.0908,0.1318 -0.0911,0.1314 -0.0913,0.131 -0.0916,0.1305 -0.0918,0.13 -0.092,0.1296 -0.0922,0.1292 -0.0924,0.1287 -0.0927,0.1283 -0.0929,0.1279 -0.0931,0.1274 -0.0933,0.1271 -0.0935,0.1265 -0.0938,0.1262 -0.0939,0.1258 -0.0941,0.1253 -0.0944,0.125 -0.0945,0.1245 -0.0948,0.1241 -0.0949,0.1238 -0.0952,0.1233 -0.0953,0.123 -0.0955,0.1226 -0.0957,0.1222 -0.0959,0.1218 -0.0961,0.1214 -0.0963,0.1211 -0.0965,0.1207 -0.0966,0.1203 -0.0969,0.12 -0.097,0.1196 -0.0972,0.1192 -0.0974,0.1189 -0.0975,0.1186 -0.0978,0.1182 -0.0979,0.1178 -0.0981,0.1176 -0.0983,0.1172 -0.0984,0.1168 -0.0987,0.1165 -0.0988,0.1163 -0.099,0.1158 -0.0992,0.1156 -0.0993,0.1153 -0.0995,0.1149 -0.0997,0.1147 -0.0999,0.1143 -0.1001,0.114 -0.1002,0.1137 -0.1004,0.1135 -0.1006,0.1131 -0.1008,0.1129 -0.101,0.1125 -0.1011,0.1123 -0.1013,0.112 -0.1015,0.1118 -0.1017,0.1114 -0.1019,0.1112 -0.102,0.1109 -0.1022,0.1107 -0.1025,0.1104 -0.1026,0.1101 -0.1028,0.1099 -0.103,0.1096 -0.1031,0.1094 -0.1034,0.1091 -0.1036,0.1088 -0.1037,0.1087 -0.104,0.1084 -0.1041,0.1081 -0.1044,0.1079 -0.1046,0.1077 -0.1047,0.1075 -0.105,0.1072 -0.1052,0.107 -0.1053,0.1068 -0.1056,0.1065 -0.1058,0.1063 -0.1061,0.1061 -0.1062,0.1059 -0.1064,0.1057 -0.1067,0.1055 -0.1069,0.1053 -0.1071,0.105 -0.1074,0.1049 -0.1076,0.1046 -0.1078,0.1045 -0.108,0.1042 -0.1083,0.104 -0.1085,0.1039 -0.1088,0.1036 -0.109,0.1035 -0.1093,0.1033 -0.1095,0.103 -0.1098,0.1029 -0.11,0.1027 -0.1103,0.1025 -0.1105,0.1023 -0.1108,0.1021 -0.1111,0.102 -0.1113,0.1018 -0.1116,0.1015 -0.1119,0.1014 -0.1122,0.1012 -0.1124,0.1011 -0.1127,0.1008 -0.1131,0.1007 -0.1133,0.1005 -0.1136,0.1003 -0.1139,0.1001 -0.1142,0.1 -0.1145,0.0998 -0.1148,0.0996 -0.1151,0.0994 -0.1154,0.0993 -0.1158,0.099 -0.1161,0.0989 -0.1163,0.0987 -0.1168,0.0986 -0.117,0.0983 -0.1174,0.0982 -0.1177,0.098 -0.1181,0.0978 -0.1184,0.0977 -0.1187,0.0974 -0.1191,0.0973 -0.1195,0.0971 -0.1198,0.0969 -0.1202,0.0968 -0.1205,0.0965 -0.1209,0.0964 -0.1213,0.0962 -0.1216,0.0959 -0.122,0.0958 -0.1224,0.0956 -0.1228,0.0955 -0.1232,0.0952 -0.1236,0.095 -0.1239,0.0948 -0.1244,0.0947 -0.1248,0.0944 -0.1251,0.0942 -0.1256,0.0941 -0.126,0.0938 -0.1264,0.0936 -0.1269,0.0934 -0.1272,0.0932 -0.1277,0.093 -0.1281,0.0927 -0.1285,0.0926 -0.129,0.0923 -0.1294,0.0921 -0.1299,0.0919 -0.1303,0.0916 -0.1308,0.0914 -0.1312,0.0912 -0.1317,0.091 -0.1321,0.0907 -0.1326,0.0904 -0.133,0.0902 -0.1335,0.09 -0.134,0.0897 -0.1345,0.0895 -0.135,0.0892 -0.1354,0.0889 -0.1359,0.0887 -0.1364,0.0884 -0.1369,0.0881 -0.1374,0.0879 -0.1379,0.0875 -0.1384,0.0873 -0.1389,0.087 -0.1394,0.0867 -0.1399,0.0864 -0.1404,0.0862 -0.1409,0.0858 -0.1415,0.0855 -0.1419,0.0852 -0.1425,0.0848 -0.143,0.0846 -0.1436,0.0842 -0.144,0.0839 -0.1446,0.0836 -0.1452,0.0832 -0.1456,0.0828 -0.1462,0.0826 -0.1468,0.0822 -0.1473,0.0818 -0.1478,0.0814 -0.1484,0.0811 -0.1489,0.0807 -0.1495,0.0804 -0.15,0.0799 -0.1506,0.0796 -0.1512,0.0791 -0.1517,0.0788 -0.1523,0.0784 -0.1528,0.0779 -0.1534,0.0776 -0.154,0.0771 -0.1545,0.0767 -0.1551,0.0763 -0.1557,0.0758 -0.1562,0.0754 -0.1568,0.0749 -0.1574,0.0745 -0.1579,0.074 -0.1586,0.0735 -0.1591,0.0731 -0.1597,0.0726 -0.1603,0.0721 -0.1608,0.0716 -0.1614,0.0712 -0.162,0.0706 -0.1626,0.0701 -0.1632,0.0696 -0.1638,0.0691 -0.1643,0.0685 -0.1649,0.0681 -0.1656,0.0674 -0.1661,0.067 -0.1666,0.0663 -0.1673,0.0658 -0.1678,0.0653 -0.1685,0.0647 -0.169,0.0641 -0.1696,0.0635 -0.1702,0.0629 -0.1707,0.0623 -0.1714,0.0617 -0.1719,0.0611 -0.1725,0.0605 -0.1731,0.0598 -0.1737,0.0593 -0.1742,0.0585 -0.1749,0.058 -0.1754,0.0572 -0.1759,0.0566 -0.1766,0.056 -0.1771,0.0553 -0.1777,0.0545 -0.1783,0.0539 -0.1789,0.0532 -0.1794,0.0525 -0.1799,0.0518 -0.1806,0.0511 -0.1811,0.0503 -0.1816,0.0497 -0.1823,0.0489 -0.1827,0.0481 -0.1834,0.0474 -0.1839,0.0466 -0.1844,0.0458 -0.185,0.0451 -0.1855,0.0443 -0.1861,0.0435 -0.1866,0.0428 -0.1871,0.0419 -0.1877,0.0411 -0.1882,0.0403 -0.1888,0.0394 -0.1892,0.0387 -0.1898,0.0378 -0.1903,0.0369 -0.1908,0.0361 -0.1914,0.0353 -0.1918,0.0343 -0.1923,0.0335 -0.1929,0.0327 -0.1933,0.0317 -0.1938,0.0308 -0.1944,0.03 -0.1948,0.029 -0.1952,0.0281 -0.1958,0.0272 -0.1962,0.0262 -0.1967,0.0254 -0.1972,0.0244 -0.1976,0.0234 -0.1981,0.0225 -0.1985,0.0215 -0.199,0.0205 -0.1994,0.0196 -0.1998,0.0185 -0.2003,0.0176 -0.2007,0.0166 -0.2011,0.0156 -0.2015,0.0145 -0.2019,0.0136 -0.2024,0.0125 -0.2027,0.0115 -0.2031,0.0105 -0.2035,0.0094 -0.2039,0.0083 -0.2043,0.0073 -0.2046,0.0063 -0.205,0.0051 -0.2053,0.0041 -0.2057,0.003 -0.206,0.0019 -0.2064,9e-4 -0.2067,-3e-4 -0.207,-0.0014 -0.2073,-0.0025 -0.2076,-0.0036 -0.208,-0.0048 -0.2082,-0.0058 -0.2085,-0.0071 -0.2088,-0.0081 -0.2091,-0.0093 -0.2093,-0.0105 -0.2096,-0.0116 -0.2099,-0.0128 -0.2101,-0.014 -0.2103,-0.0151 -0.2105,-0.0163 -0.2108,-0.0175 -0.211,-0.0187 -0.2112,-0.0199 -0.2114,-0.0211 -0.2116,-0.0223 -0.2117,-0.0236 -0.2119,-0.0247 -0.2121,-0.026 -0.2123,-0.0272 -0.2124,-0.0284 -0.2125,-0.0297 -0.2127,-0.0309 -0.2128,-0.0322 -0.2129,-0.0334 -0.213,-0.0346 -0.2131,-0.036 -0.2132,-0.0372 -0.2132,-0.0384 -0.2134,-0.0398 -0.2134,-0.041 L 30.8825,87.3036 30.669,87.26 30.4555,87.2152 30.242,87.169 l -0.2136,-0.0475 -0.2135,-0.0487 -0.2136,-0.0501 -0.2135,-0.0514 -0.2135,-0.0527 -0.2135,-0.054 -0.2134,-0.0553 -0.2134,-0.0566 -0.2133,-0.058 -0.2133,-0.0593 -0.2131,-0.0606 -0.2131,-0.0619 -0.2129,-0.0633 -0.2129,-0.0646 -0.2127,-0.066 -0.2126,-0.0673 -0.2124,-0.0686 -0.2123,-0.07 -0.2121,-0.0714 -0.212,-0.0727 -0.2117,-0.074 -0.2116,-0.0754 -0.2113,-0.0767 -0.2112,-0.0782 -0.2109,-0.0794 -0.2107,-0.0809 -0.2104,-0.0822 -0.2101,-0.0835 -0.2099,-0.0849 -0.2097,-0.0863 -0.2093,-0.0877 -0.209,-0.089 -0.2087,-0.0904 -0.2084,-0.0918 -0.208,-0.0931 -0.2077,-0.0945 -0.2074,-0.0959 -0.2069,-0.0972 -0.2066,-0.0986 -0.2062,-0.1 -0.2059,-0.1014 -0.2053,-0.1027 -0.205,-0.1041 -0.2046,-0.1054 -0.204,-0.1069 -0.2037,-0.1082 -0.2031,-0.1095 -0.2027,-0.111 -0.2022,-0.1123 -0.2017,-0.1137 -0.2012,-0.115 -0.2007,-0.1164 -0.2001,-0.1178 -0.1996,-0.1191 -0.199,-0.1205 L 18.5583,82.4435 18.3605,82.3203 18.1632,82.1957 17.9665,82.0698 17.7704,81.9426 17.575,81.814 17.3802,81.684 17.186,81.5528 16.9925,81.4201 16.7997,81.2862 16.6075,81.1509 16.416,81.0142 16.2253,80.8763 16.0352,80.737 15.8459,80.5964 15.6573,80.4544 15.4695,80.3112 15.2824,80.1666 15.0961,80.0207 14.9105,79.8736 14.7258,79.7251 14.5419,79.5753 14.3588,79.4242 14.1765,79.2719 13.995,79.1182 13.8144,78.9633 13.6346,78.8071 13.4557,78.6496 13.2777,78.4908 13.1006,78.3308 12.9244,78.1696 12.7491,78.007 12.5747,77.8433 12.4013,77.6783 12.2288,77.512 12.0572,77.3445 11.8866,77.1758 11.717,77.0059 11.5484,76.8347 11.3808,76.6624 11.2142,76.4888 11.0486,76.314 10.884,76.1381 10.7205,75.961 10.558,75.7826 10.3966,75.6032 10.2362,75.4225 10.077,75.2407 9.9188,75.0577 9.76173,74.8736 9.60576,74.6884 9.45091,74.502 9.29719,74.3145 9.14461,74.1259 8.99319,73.9361 8.84292,73.7453 8.69382,73.5534 8.5459,73.3603 8.39916,73.1662 8.25363,72.9711 8.1093,72.7748 7.96619,72.5776 7.8243,72.3792 7.68365,72.1798 7.54424,71.9794 7.40609,71.778 7.26919,71.5756 7.13357,71.3721 6.99923,71.1677 6.86618,70.9622 6.73442,70.7558 6.60398,70.5484 6.47484,70.3401 6.34703,70.1308 6.22056,69.9205 6.09542,69.7094 5.97163,69.4973 5.8492,69.2842 5.72813,69.0703 5.60843,68.8555 5.49012,68.6398 5.3732,68.4232 5.25767,68.2058 5.14354,67.9874 5.03083,67.7683 4.91954,67.5483 4.80967,67.3275 4.70124,67.1059 4.59425,66.8834 4.48871,66.6602 4.38462,66.4362 4.282,66.2114 4.18085,65.9858 4.08117,65.7595 3.98298,65.5324 3.88627,65.3046 3.79107,65.0761 3.69736,64.8469 3.60517,64.617 3.51449,64.3864 3.42533,64.1551 3.33771,63.9232 3.25161,63.6906 3.16705,63.4573 3.08404,63.2234 3.00258,62.9889 2.92268,62.7538 2.84434,62.5181 2.76757,62.2818 2.69236,62.0449 2.61874,61.8075 2.5467,61.5695 2.47625,61.331 2.40739,61.092 2.34012,60.8524 2.27446,60.6123 2.21041,60.3718 2.14796,60.1307 2.08714,59.8892 2.02793,59.6473 1.97034,59.4049 1.91438,59.162 1.86005,58.9188 1.80736,58.6751 1.75631,58.4311 1.7069,58.1866 1.65913,57.9418 1.61301,57.6967 1.56855,57.4512 1.52574,57.2053 1.48458,56.9592 1.44509,56.7127 1.40726,56.466 1.3711,56.2189 1.33661,55.9716 1.30379,55.7241 1.27264,55.4763 1.24316,55.2282 1.21537,54.98 1.18925,54.7315 1.16482,54.4829 1.14206,54.234 1.121,53.985 1.10162,53.7359 1.08392,53.4866 1.06792,53.2372 1.0536,52.9876 1.04098,52.738 1.03004,52.4883 1.0208,52.2384 1.01325,51.9886 1.0074,51.7386 1.00324,51.4887 1.00077,51.2387 1,50.9887 l 9.2e-4,-0.25 0.00262,-0.25 0.00431,-0.2499 0.00601,-0.25 L 1.02155,49.739 1.03094,49.4892 1.04203,49.2395 1.0548,48.9898 1.06927,48.7403 1.08542,48.4909 1.10327,48.2416 1.1228,47.9925 1.14402,47.7435 1.16692,47.4947 1.1915,47.246 1.21777,46.9976 1.24571,46.7494 1.27534,46.5013 1.30663,46.2535 1.3396,46.006 l 0.03465,-0.2473 0.03631,-0.247 0.03797,-0.2467 0.03964,-0.2464 0.0413,-0.2462 0.04296,-0.2458 0.04461,-0.2455 0.04627,-0.2451 0.04791,-0.2448 0.04956,-0.2444 0.0512,-0.244 0.05283,-0.2436 0.05448,-0.2432 0.0561,-0.2428 0.05773,-0.2424 0.05935,-0.2419 0.06098,-0.2415 0.06258,-0.241 0.0642,-0.2405 0.0658,-0.24 0.06741,-0.2395 0.069,-0.239 L 2.55303,40.4089 2.62522,40.171 2.69898,39.9336 2.77432,39.6968 2.85123,39.4605 2.92971,39.2249 3.00976,38.9898 3.09135,38.7554 3.1745,38.5216 3.25919,38.2884 3.34543,38.0558 3.43319,37.8239 3.52248,37.5927 3.6133,37.3622 3.70563,37.1323 3.79946,36.9031 3.8948,36.6747 3.99164,36.447 4.08996,36.22 4.18977,35.9937 4.29106,35.7682 4.39381,35.5435 4.49802,35.3196 4.60369,35.0964 4.71081,34.874 4.81937,34.6525 4.92936,34.4317 5.04078,34.2118 5.15362,33.9927 5.26787,33.7745 5.38352,33.5571 5.50057,33.3406 5.61901,33.125 5.73883,32.9103 5.86002,32.6964 5.98257,32.4835 6.10648,32.2715 6.23174,32.0604 6.35833,31.8502 6.48626,31.641 6.61551,31.4327 6.74607,31.2254 6.87794,31.0191 7.01111,30.8138 7.14557,30.6094 7.2813,30.406 7.4183,30.2037 7.55657,30.0023 7.69609,29.802 7.83685,29.6027 7.97885,29.4045 8.12207,29.2073 8.2665,29.0112 8.41215,28.8161 8.55899,28.6221 8.70701,28.4292 8.85622,28.2373 9.00659,28.0466 9.15812,27.857 9.3108,27.6684 9.46462,27.481 l 0.15495,-0.1863 0.15606,-0.1851 0.15718,-0.184 0.15829,-0.1829 0.1593,-0.1817 0.1605,-0.1805 0.1615,-0.1794 0.1626,-0.1782 0.1636,-0.1771 0.1647,-0.1758 0.1656,-0.1747 0.1667,-0.1734 0.1677,-0.1723 0.1688,-0.171 0.1696,-0.1698 0.1707,-0.1686 0.1716,-0.1674 0.1726,-0.1661 0.1736,-0.1649 0.1744,-0.1637 0.1754,-0.1624 0.1763,-0.1612 0.1772,-0.1599 0.1781,-0.1586 0.179,-0.1574 0.1798,-0.1561 0.1807,-0.1548 0.1815,-0.1535 0.1824,-0.1523 0.1832,-0.1509 0.184,-0.1497 0.1848,-0.1484 0.1856,-0.147 0.1864,-0.1458 0.1871,-0.1444 0.1879,-0.1432 0.1887,-0.1418 0.1894,-0.1405 0.1901,-0.1392 0.1908,-0.1378 0.1915,-0.1365 0.1923,-0.1352 0.1928,-0.1338 0.1936,-0.1326 0.1942,-0.1311 0.1949,-0.1299 0.1955,-0.1284 0.1961,-0.1272 0.1968,-0.1257 0.1973,-0.1245 0.1979,-0.123 0.1985,-0.1218 0.1991,-0.1203 0.1997,-0.119 0.2001,-0.1177 0.2007,-0.1163 0.2013,-0.1149 0.2017,-0.1135 0.2023,-0.1122 0.2027,-0.1108 0.2032,-0.1095 0.2037,-0.1081 0.2041,-0.1067 0.2046,-0.1053 0.205,-0.104 0.2054,-0.1026 0.2059,-0.1012 0.2062,-0.0999 0.2066,-0.0985 0.207,-0.0971 0.2074,-0.0957 0.2077,-0.0944 0.2081,-0.093 0.2084,-0.0917 0.2088,-0.0902 0.209,-0.0889 0.2094,-0.0876 0.2096,-0.0861 0.2099,-0.0848 0.2102,-0.0835 0.2104,-0.0821 0.2107,-0.0807 0.211,-0.0793 0.2111,-0.078 0.2114,-0.0766 0.2116,-0.0753 0.2118,-0.0739 0.2119,-0.0726 0.2122,-0.0712 0.2123,-0.0699 0.2124,-0.0685 0.2126,-0.0672 0.2127,-0.0659 0.2129,-0.0645 0.2129,-0.0631 0.2131,-0.0618 0.2132,-0.0605 0.2132,-0.0592 0.2133,-0.0579 0.2134,-0.0565 0.2135,-0.0552 0.2134,-0.0539 0.2135,-0.0525 0.2136,-0.0513 0.2135,-0.0499 0.2136,-0.0487 0.2135,-0.0473 0.2136,-0.0461 0.2135,-0.0447 0.2135,-0.0435 0.2134,-0.0422 0.2134,-0.0409 0.2133,-0.0396 0.2133,-0.0384 0.2131,-0.0371 0.2131,-0.0358 0.213,-0.0345 0.2129,-0.0333 0.2128,-0.0321 0.2127,-0.0308 0.2125,-0.0295 0.2124,-0.0284 0.2122,-0.0271 0.2121,-0.0258 0.2119,-0.0247 0.2117,-0.0234 0.2116,-0.0222 0.2114,-0.021 0.2111,-0.0198 0.211,-0.0186 0.2108,-0.0174 0.2105,-0.0162 0.2103,-0.015 0.2101,-0.0139 0.2098,-0.0127 0.2096,-0.0115 0.2093,-0.0103 0.209,-0.0092 0.2088,-0.0081 0.2085,-0.0069 0.2082,-0.0058 0.2079,-0.0046 0.2076,-0.0036 0.2073,-0.0024 0.207,-0.0013 0.2067,-10e-5 0.2063,9e-4 0.206,0.002 0.2056,0.0031 0.2054,0.0042 0.2049,0.0053 0.2046,0.0063 0.2042,0.0074 0.2039,0.0084 0.2034,0.0095 0.2031,0.0106 0.2027,0.0116 0.2023,0.0126 0.2019,0.0136 0.2015,0.0147 0.2011,0.0156 0.2006,0.0167 0.2002,0.0177 0.1998,0.0187 0.1994,0.0196 0.1989,0.0206 0.1985,0.0216 0.1981,0.0226 0.1975,0.0235 0.1972,0.0245 0.1966,0.0254 0.1962,0.0263 0.1957,0.0273 0.1953,0.0282 0.1947,0.0291 0.1943,0.03 0.1938,0.0309 0.1933,0.0318 0.1928,0.0327 0.1923,0.0336 0.1918,0.0345 0.1912,0.0353 0.1908,0.0361 0.1903,0.0371 0.1897,0.0378 0.1892,0.0388 0.1887,0.0395 0.1882,0.0404 0.1876,0.0411 0.1871,0.042 0.1866,0.0428 0.186,0.0436 0.1855,0.0444 0.1849,0.0451 0.1844,0.0459 0.1838,0.0467 0.1833,0.0475 0.1827,0.0482 0.1822,0.0489 0.1816,0.0497 0.1811,0.0504 0.1805,0.0512 0.1799,0.0518 0.1794,0.0526 0.1787,0.0532 0.1783,0.054 0.1776,0.0546 0.1771,0.0554 0.1765,0.056 0.1759,0.0566 0.1754,0.0574 0.1748,0.058 0.1742,0.0586 0.1736,0.0593 0.173,0.0599 0.1725,0.0605 0.1719,0.0612 0.1713,0.0617 0.1707,0.0624 0.1701,0.063 0.1696,0.0635 0.1689,0.0642 0.1684,0.0647 0.1678,0.0653 0.1672,0.0659 0.1666,0.0664 0.1661,0.067 0.1654,0.0675 0.1649,0.068 0.1643,0.0686 0.1637,0.0692 0.1631,0.0696 0.1626,0.0702 0.1619,0.0706 0.1614,0.0712 0.1608,0.0717 0.1602,0.0721 0.1597,0.0727 0.159,0.0731 0.1585,0.0736 0.1579,0.074 0.1573,0.0746 0.1568,0.0749 0.1562,0.0755 0.1556,0.0758 0.1551,0.0763 0.1544,0.0767 0.1539,0.0772 0.1534,0.0776 0.1528,0.078 0.1522,0.0784 0.1517,0.0788 0.1511,0.0792 0.1505,0.0796 0.15,0.08 0.1494,0.0803 0.1489,0.0808 0.1483,0.0811 0.1478,0.0815 0.1473,0.0818 0.1467,0.0822 0.1461,0.0826 0.1456,0.0829 0.1451,0.0833 0.1446,0.0836 0.144,0.0839 0.1435,0.0842 0.143,0.0846 0.1424,0.0849 0.1419,0.0852 0.1414,0.0856 0.1409,0.0858 0.1404,0.0861 0.1398,0.0865 0.1394,0.0867 0.1388,0.087 0.1384,0.0873 0.1378,0.0876 0.1373,0.0879 0.1369,0.0882 0.1364,0.0884 0.1358,0.0887 0.1354,0.0889 0.1349,0.0893 0.1345,0.0894 0.1339,0.0898 0.1335,0.09 0.133,0.0902 0.1326,0.0905 0.1321,0.0907 0.1316,0.091 0.1312,0.0912 0.1307,0.0914 0.1302,0.0917 0.1299,0.0919 0.1293,0.0921 0.129,0.0923 0.1285,0.0926 0.1281,0.0928 0.1276,0.093 0.1272,0.0932 0.1268,0.0934 0.1264,0.0937 0.1259,0.0938 0.1256,0.094 0.1251,0.0943 0.1248,0.0944 0.1243,0.0947 0.1239,0.0948 0.1235,0.0951 0.1232,0.0952 0.1227,0.0955 0.1224,0.0956 0.122,0.0958 0.1216,0.096 0.1213,0.0962 0.1208,0.0964 0.1205,0.0965 0.1202,0.0968 0.1197,0.0969 0.1195,0.0971 0.119,0.0973 0.1187,0.0975 0.1184,0.0977 0.1181,0.0978 0.1176,0.098 0.1174,0.0982 0.117,0.0984 0.1167,0.0985 0.1164,0.0988 0.116,0.0989 0.1157,0.0991 0.1154,0.0992 0.1151,0.0995 0.1148,0.0996 0.1145,0.0998 0.1142,0.1 0.1138,0.1001 0.1136,0.1003 0.1133,0.1006 0.113,0.1006 0.1127,0.1009 0.1124,0.1011 0.1121,0.1012 0.1119,0.1014 0.1116,0.1016 0.1113,0.1018 0.1111,0.1019 0.1107,0.1022 0.1105,0.1023 0.1103,0.1025 0.11,0.1027 0.1097,0.1029 0.1095,0.1031 0.1093,0.1033 0.109,0.1035 0.1087,0.1036 0.1085,0.1039 0.1083,0.1041 0.108,0.1042 0.1078,0.1045 0.1075,0.1046 0.1074,0.1049 0.1071,0.1051 0.1069,0.1053 0.1066,0.1055 0.1064,0.1057 0.1063,0.1059 0.106,0.1061 0.1058,0.1064 0.1055,0.1065 0.1054,0.1068 0.1051,0.107 0.105,0.1073 0.1047,0.1075 0.1046,0.1077 0.1043,0.1079 0.1041,0.1082 0.104,0.1084 0.1037,0.1086 0.1036,0.1089 0.1033,0.1092 0.1032,0.1094 0.103,0.1096 0.1028,0.1099 0.1025,0.1101 0.1024,0.1105 0.1023,0.1106 0.102,0.111 0.1018,0.1112 0.1017,0.1115 0.1015,0.1117 0.1013,0.112 0.1011,0.1124 0.101,0.1125 0.1007,0.1129 0.1006,0.1132 0.1004,0.1135 0.1002,0.1137 0.1001,0.1141 0.0998,0.1143 0.0997,0.1147 0.0995,0.115 0.0994,0.1153 0.0991,0.1155 0.099,0.116 0.0988,0.1162 0.0986,0.1166 0.0984,0.1169 0.0983,0.1172 0.0981,0.1175 0.0979,0.1179 0.0977,0.1183 0.0976,0.1186 0.0974,0.1189 0.0971,0.1193 0.097,0.1196 0.0969,0.12 0.0966,0.1204 0.0964,0.1207 0.0963,0.1211 0.0961,0.1214 0.0959,0.1219 0.0957,0.1222 0.0955,0.1226 0.0953,0.123 0.0951,0.1234 0.0949,0.1238 0.0948,0.1241 0.0945,0.1246 0.0943,0.125 0.0942,0.1254 0.0939,0.1258 0.0937,0.1262 0.0935,0.1266 0.0933,0.1271 0.0931,0.1274 0.0928,0.128 0.0927,0.1283 0.0924,0.1288 0.0922,0.1292 0.092,0.1296 0.0918,0.1301 0.0915,0.1305 0.0913,0.131 0.091,0.1315 0.0909,0.1319 0.0905,0.1324 0.0904,0.1328 0.09,0.1333 0.0899,0.1338 0.0896,0.1342 0.0893,0.1347 0.089,0.1352 0.0888,0.1357 0.0886,0.1362 0.0882,0.1367 0.088,0.1371 0.0877,0.1377 0.0874,0.1381 0.0872,0.1387 0.0868,0.1391 0.0866,0.1397 0.0862,0.1402 0.086,0.1406 0.0856,0.1412 0.0854,0.1417 0.085,0.1423 0.0847,0.1427 0.0844,0.1433 0.084,0.1438 0.0838,0.1444 0.0834,0.1449 0.083,0.1454 0.0827,0.1459 0.0823,0.1465 0.082,0.147 0.0816,0.1476 0.0813,0.1481 0.0809,0.1487 0.0805,0.1492 0.0801,0.1498 0.0798,0.1503 0.0794,0.1509 0.0789,0.1514 0.0786,0.1521 0.0781,0.1525 0.0778,0.1531 0.0773,0.1537 0.0769,0.1543 0.0765,0.1548 0.076,0.1554 0.0756,0.156 0.0751,0.1565 0.0747,0.1571 0.0743,0.1577 0.0737,0.1583 0.0733,0.1588 0.0729,0.1594 0.0723,0.16 0.0719,0.1606 0.0713,0.1611 0.0709,0.1618 0.0704,0.1623 0.0698,0.1629 0.0693,0.1635 0.0688,0.164 0.0683,0.1647 0.0678,0.1652 0.0671,0.1658 0.0667,0.1664 0.0661,0.167 0.0655,0.1676 0.0649,0.1681 0.0644,0.1688 0.0638,0.1693 0.0632,0.1699 0.0626,0.1705 0.062,0.171 0.0614,0.1717 0.0608,0.1722 0.0601,0.1728 0.0595,0.1734 0.0589,0.174 0.0582,0.1746 0.0576,0.1751 0.057,0.1757 0.0562,0.1763 0.0556,0.1768 0.0549,0.1775 0.0543,0.178 0.0535,0.1785 0.0528,0.1792 0.0522,0.1797 0.0514,0.1803 0.0507,0.1808 0.0499,0.1814 0.0493,0.1819 0.0485,0.1826 0.0477,0.183 0.047,0.1836 0.0462,0.1842 0.0455,0.1847 0.0446,0.1853 0.0439,0.1858 0.0431,0.1864 0.0423,0.1869 0.0415,0.1874 0.0407,0.1879 0.0399,0.1885 0.039,0.189 0.0382,0.1896 0.0374,0.19 0.0365,0.1906 0.0356,0.1911 0.0348,0.1916 0.0339,0.1921 0.0331,0.1926 0.0321,0.1931 0.0313,0.1936 0.0304,0.1941 0.0294,0.1945 0.0286,0.1951 0.0276,0.1955 0.0267,0.196 0.0258,0.1965 0.0248,0.1969 0.0239,0.1974 0.0229,0.1979 0.022,0.1983 0.021,0.1988 0.02,0.1992 0.0191,0.1996 0.018,0.2001 0.0171,0.2004 0.0161,0.201 0.015,0.2013 0.014,0.2017 0.0131,0.2022 0.0119,0.2025 0.011,0.2029 0.0099,0.2033 0.0089,0.2038 0.0078,0.204 0.0067,0.2045 0.0057,0.2048 0.0046,0.2052 0.0035,0.2055 0.0025,0.2058 0.0013,0.2062 3e-4,0.2066 -9e-4,0.2068 -0.002,0.2072 -0.003,0.2075 -0.0043,0.2078 -0.0053,0.2081 -0.0065,0.2084 -0.0076,0.2086 -0.0087,0.209 -0.0099,0.2092 -0.0111,0.2095 -0.0122,0.2097 -0.0134,0.21 -0.0146,0.2102 -0.0158,0.2104 -0.0169,0.2107 -0.0181,0.2109 -0.0194,0.2111 -0.0205,0.2113 -0.0217,0.2115 -0.023,0.2116 -0.0241,0.2119 -0.0254,0.212 -0.0266,0.2122 -0.0279,0.2123 -0.0291,0.2125 -0.0303,0.2126 -0.0315,0.2127 -0.0329,0.2129 -0.034,0.2129 -0.0354,0.2131 -0.0365,0.2131 -0.0379,0.2132 -0.0391,0.2133 -0.0404,0.2134 -0.0417,0.2134 -0.043,0.2135 -0.0442,0.2135 -0.0456,0.2135 -0.0468,0.2136 -0.0482,0.2135 -0.0494,0.2136 -0.0508,0.2135 -0.052,0.2135 -0.0534,0.2135 -0.0547,0.2135 -0.056,0.2134 -0.0573,0.2133 -0.0587,0.2133 -0.06,0.2132 -0.0613,0.2131 -0.0626,0.213 -0.064,0.2129 -0.0653,0.2128 -0.0667,0.2126 -0.068,0.2125 -0.0693,0.2124 -0.0707,0.2122 -0.0721,0.212 -0.0734,0.2119 -0.0747,0.2116 -0.0761,0.2115 -0.0775,0.2112 -0.0788,0.211 -0.0802,0.2108 -0.0815,0.2106 -0.0829,0.2103 -0.0843,0.21 -0.0856,0.2097 -0.087,0.2095 -0.0884,0.2092 -0.0898,0.2088 -0.0911,0.2086 -0.0924,0.2082 -0.0939,0.2078 -0.0952,0.2076 -0.0966,0.2071 -0.0979,0.2068 -0.0994,0.2064 -0.1007,0.206 -0.102,0.2056 -0.1035,0.2051 -0.1048,0.2048 -0.1062,0.2043 -0.1075,0.2038 -0.1089,0.2034 -0.1103,0.203 -0.1117,0.2024 -0.113,0.2019 -0.1144,0.2015 -0.1157,0.2009 -0.1171,0.2004 -0.1185,0.1998 -0.1198,0.1993 -0.1212,0.1987 -0.1226,0.1982 -0.1239,0.1975 -0.1252,0.197 -0.1267,0.1964 -0.1279,0.1957 -0.1293,0.1951 -0.1307,0.1945 -0.1319,0.1938 -0.1334,0.1932 -0.1346,0.1925 -0.136,0.1918 -0.1374,0.1911 -0.1386,0.1904 -0.14,0.1896 -0.1413,0.189 -0.1426,0.1882 -0.144,0.1874 -0.1452,0.1867 -0.1466,0.1859 -0.1478,0.1851 -0.1492,0.1843 -0.1504,0.1836 -0.1518,0.1827 -0.153,0.1818 -0.1543,0.181 -0.1556,0.1802 -0.1569,0.1793 -0.1582,0.1784 -0.1594,0.1776 -0.1606,0.1766 -0.162,0.1758 -0.1631,0.1748 -0.1645,0.1739 -0.1656,0.1729 -0.1669,0.172 -0.1681,0.1711 -0.1694,0.1701 -0.1706,0.169 -0.1717,0.1681 -0.173,0.1671 -0.1742,0.1661 -0.1754,0.1651 -0.1766,0.164 -0.1777,0.163 -0.1789,0.1619 -0.1801,0.1609 -0.1813,0.1598 -0.1824,0.1587 -0.1836,0.1576 -0.1847,0.1565 -0.1858,0.1554 -0.187,0.1542 -0.1881,0.1531 -0.1892,0.152 -0.1903,0.1508 -0.1914,0.1497 -0.1925,0.1485 -0.1936,0.1473 -0.1946,0.1461 -0.1958,0.1449 -0.1968,0.1437 -0.1978,0.1425 -0.1989,0.1412 -0.1999,0.14 -0.2009,0.1388 -0.202,0.1375 -0.203,0.1362 -0.2039,0.1349 -0.205,0.1337 -0.206,0.1324 -0.2069,0.1311 -0.2079,0.1297 -0.2088,0.1285 -0.2098,0.1271 -0.2107,0.1258 -0.2117,0.1244 -0.2126,0.1231 -0.2135,0.1217 -0.2144,0.1204 -0.2153,0.1189 -0.2161,0.1176 -0.217,0.1162 -0.2179,0.1148 -0.2188,0.1134 -0.2196,0.112 -0.2204,0.1105 -0.2213,0.1091 -0.222,0.1077 -0.2229,0.1063 -0.2236,0.1047 -0.2244,0.1034 -0.2252,0.1018 -0.226,0.1004 -0.2267,0.0989 -0.2274,0.0974 -0.2282,0.0959 -0.2289,0.0945 -0.2296,0.0929 -0.2302,0.0914 -0.231,0.0899 -0.2316,0.0883 -0.2323,0.0869 -0.233,0.0852 -0.2336,0.0838 -0.2342,0.0822 -0.2348,0.0806 -0.2354,0.0791 -0.236,0.0776 -0.2366,0.0759 -0.2372,0.0744 -0.2377,0.0728 -0.2383,0.0712 -0.2388,0.0696 -0.2393,0.068 -0.2398,0.0665 -0.2403,0.0648 -0.2408,0.0632 -0.2413,0.0616 -0.2418,0.06 -0.2422,0.0582 -0.2426,0.057 -0.243,0.055 -0.2435,0.053 -0.2439,0.052 -0.2442,0.051 -0.2447,0.048 -0.2449,0.047 -0.2454,0.045 -0.2457,0.044 -0.246,0.042 -0.2463,0.04 -0.2466,0.039 -0.2469,0.037 -0.2472,0.035 -0.2474,0.034 -0.2477,0.031 -0.2479,0.031 -0.2482,0.028 -0.2484,0.027 -0.2485,0.026 -0.2488,0.023 -0.2489,0.022 -0.2491,0.02 -0.2492,0.019 -0.2494,0.016 -0.2494,0.016 -0.2496,0.013 -0.2497,0.012 -0.2498,0.01 -0.2498,0.008 -0.2499,0.007 -0.25,0.005 -0.25,0.003 -0.25,0.002 h -0.25 l -0.2499,-0.002 -0.25,-0.004 -0.25,-0.005 -0.2498,-0.007 -0.2499,-0.008 -0.2497,-0.011 -0.2497,-0.012 -0.2496,-0.013 -0.2495,-0.016 -0.2493,-0.017 -0.2492,-0.018 -0.2491,-0.021 -0.2489,-0.022 -0.2487,-0.024 -0.2485,-0.025 -0.2484,-0.027 -0.2481,-0.029 -0.2479,-0.031 -0.2477,-0.032 -0.2474,-0.034 -0.2471,-0.035 -0.2469,-0.037 -0.2466,-0.039 -0.2462,-0.041 -0.246,-0.042 -0.2456,-0.044 -0.2453,-0.045 -0.245,-0.047 -0.2445,-0.049 -0.2442,-0.051 -0.2439,-0.052 -0.2434,-0.053 -0.243,-0.056 L 42.4468,99.9945 42.2046,99.9359 41.9629,99.8757 41.7217,99.8139 41.481,99.7505 41.2407,99.6854 41.001,99.6188 40.7617,99.5505 40.523,99.4807 40.2848,99.4093 40.0471,99.3363 39.8101,99.2617 39.5735,99.1855 39.3376,99.1078 39.1023,99.0285 38.8675,98.9476 38.6334,98.8652 38.3999,98.7813 38.167,98.6958 37.9348,98.6087 37.7033,98.5202 37.4724,98.4301 37.2422,98.3385 37.0127,98.2454 36.784,98.1507 36.5559,98.0546 36.3285,97.957 36.1019,97.8579 35.8761,97.7573 35.651,97.6553 35.4267,97.5518 35.2031,97.4468 34.9804,97.3404 34.7584,97.2325 34.5373,97.1232 34.317,97.0124 34.0975,96.9003 33.8789,96.7867 33.6611,96.6717 33.4442,96.5553 33.2281,96.4376 33.0129,96.3184 32.7987,96.1979 32.5853,96.076 32.3728,95.9527 32.1613,95.8281 31.9507,95.7021 31.741,95.5748 31.5323,95.4462 31.3246,95.3163 31.1178,95.185 30.9119,95.0525 30.7071,94.9186 30.5033,94.7835 30.3004,94.6471 30.0986,94.5095 29.8978,94.3705 29.698,94.2304 29.4993,94.089 29.3016,93.9463 29.1049,93.8025 28.9094,93.6574 28.7148,93.5111 28.5214,93.3637 28.329,93.215 l -0.1912,-0.1498 -0.1902,-0.151 -0.189,-0.1521 -0.188,-0.1533 -0.1868,-0.1544 -0.1857,-0.1555 -0.1845,-0.1567 -0.1835,-0.1577 -0.1822,-0.1589 -0.1811,-0.1599 -0.18,-0.161 -0.1787,-0.1621 -0.1776,-0.1631 -0.1764,-0.1641 -0.1753,-0.1652 -0.174,-0.1663 -0.1728,-0.1672 -0.1716,-0.1682 -0.1704,-0.1692 -0.1692,-0.1702 -0.168,-0.1712 -0.1667,-0.1722 -0.1655,-0.173 -0.1643,-0.1741 -0.163,-0.1749 -0.1617,-0.1759 -0.1605,-0.1767 -0.1593,-0.1777 -0.158,-0.1785 -0.1567,-0.1795 -0.1554,-0.1802 -0.1541,-0.1812 -0.1529,-0.1819 -0.1516,-0.1828 -0.1503,-0.1837 -0.149,-0.1844 -0.1476,-0.1852 -0.1464,-0.186 -0.1451,-0.1868 -0.1438,-0.1876 -0.1424,-0.1882 -0.1411,-0.1891 -0.1398,-0.1898 -0.1385,-0.1904 -0.1372,-0.1912 -0.1358,-0.1919 -0.1345,-0.1926 -0.1331,-0.1932 -0.1318,-0.1939 -0.1305,-0.1946 -0.1291,-0.1952 -0.1278,-0.1958 -0.1264,-0.1965 -0.1251,-0.197 -0.1237,-0.1977 -0.1224,-0.1982 -0.121,-0.1988 -0.1197,-0.1994 -0.1182,-0.1999 -0.117,-0.2005 -0.1155,-0.201 -0.1142,-0.2015 -0.1129,-0.202 L 18.5517,81.7147 18.4416,81.5118 18.3329,81.3083 18.2255,81.1044 18.1195,80.9 18.0149,80.6952 17.9117,80.49 17.8098,80.2844 17.7093,80.0783 17.6101,79.8719 17.5123,79.665 17.4159,79.4578 17.3209,79.2503 17.2272,79.0424 17.1349,78.8341 17.044,78.6255 16.9545,78.4166 16.8663,78.2074 16.7795,77.9979 16.694,77.7881 16.6099,77.5781 16.5272,77.3677 16.4458,77.1572 16.3658,76.9464 16.2872,76.7353 16.2099,76.524 16.134,76.3125 16.0594,76.1009 15.9862,75.889 15.9143,75.6769 15.8438,75.4647 15.7746,75.2523 15.7068,75.0398 15.6403,74.8271 15.5752,74.6143 15.5114,74.4014 15.4489,74.1884 15.3878,73.9753 15.328,73.7621 15.2695,73.5488 15.2124,73.3354 15.1565,73.122 15.102,72.9086 15.0488,72.6951 14.9969,72.4816 14.9464,72.268 l -0.0493,-0.2135 -0.048,-0.2136 -0.0466,-0.2135 -0.0454,-0.2136 -0.0441,-0.2135 -0.0428,-0.2134 -0.0415,-0.2134 -0.0403,-0.2134 -0.0389,-0.2133 -0.0377,-0.2132 -0.0364,-0.2131 -0.0352,-0.2131 -0.0339,-0.2129 -0.0326,-0.2128 -0.0314,-0.2128 -0.0302,-0.2125 -0.0289,-0.2125 -0.0277,-0.2123 -0.0264,-0.2122 -0.0252,-0.212 -0.024,-0.2118 -0.0228,-0.2116 -0.0216,-0.2115 -0.0204,-0.2113 -0.0191,-0.211 -0.018,-0.2109 -0.0168,-0.2106 -0.0156,-0.2104 -0.0144,-0.2102 -0.0133,-0.21 -0.012,-0.2097 -0.0109,-0.2094 -0.0098,-0.2092 -0.0086,-0.2089 -0.0075,-0.2086 -0.0063,-0.2084 -0.0052,-0.208 -0.004,-0.2078 -0.003,-0.2074 -0.0018,-0.2071 -7e-4,-0.2069 4e-4,-0.2065 0.0015,-0.2061 0.0026,-0.2058 0.0036,-0.2055 0.0048,-0.2051 0.0058,-0.2048 0.0069,-0.2044 0.008,-0.204 0.009,-0.2037 0.01,-0.2032 0.0111,-0.2029 0.0121,-0.2025 0.0132,-0.2021 0.0141,-0.2017 0.0152,-0.2012 0.0162,-0.2009 0.0172,-0.2004 0.0182,-0.2 0.0192,-0.1996 0.0201,-0.1991 0.0212,-0.1987 0.0221,-0.1983 0.023,-0.1978 0.024,-0.1973 0.025,-0.1969 0.0259,-0.1964 0.0268,-0.196 0.0278,-0.1954 0.0286,-0.195 0.0296,-0.1945 0.0305,-0.1941 0.0314,-0.1935 0.0323,-0.193 0.0331,-0.1925 0.0341,-0.1921 0.0349,-0.1915 0.0357,-0.191 0.0367,-0.1905 0.0374,-0.19 0.0383,-0.1895 0.0392,-0.1889 0.04,-0.1884 0.0407,-0.1879 0.0416,-0.1874 0.0425,-0.1868 0.0432,-0.1863 0.044,-0.1857 0.0447,-0.1852 0.0456,-0.1847 0.0463,-0.1841 0.0471,-0.1835 0.0478,-0.183 0.0486,-0.1824 0.0494,-0.1819 0.05,-0.1813 0.0508,-0.1808 0.0515,-0.1802 0.0523,-0.1796 0.0529,-0.1791 0.0536,-0.1785 0.0543,-0.1779 0.055,-0.1774 0.0557,-0.1767 0.0564,-0.1762 0.057,-0.1757 0.0577,-0.175 0.0583,-0.1745 0.059,-0.1739 0.0596,-0.1733 0.0602,-0.1728 0.0609,-0.1721 0.0614,-0.1716 0.0621,-0.171 0.0627,-0.1704 0.0633,-0.1698 0.0638,-0.1693 0.0645,-0.1686 0.065,-0.1681 0.0656,-0.1675 0.0662,-0.1669 0.0667,-0.1663 0.0672,-0.1657 0.0678,-0.1652 0.0684,-0.1646 0.0689,-0.1639 0.0694,-0.1634 0.0699,-0.1629 0.0704,-0.1622 0.0709,-0.1617 0.0715,-0.161 0.0719,-0.1605 0.0724,-0.1599 0.0729,-0.1594 0.0734,-0.1587 0.0738,-0.1582 0.0743,-0.1576 0.0747,-0.1571 0.0753,-0.1564 0.0756,-0.1559 0.0761,-0.1553 0.0765,-0.1548 0.077,-0.1542 0.0774,-0.1536 0.0778,-0.153 0.0782,-0.1525 0.0786,-0.152 0.079,-0.1513 0.0794,-0.1508 0.0798,-0.1503 0.0802,-0.1497 0.0806,-0.1491 0.0809,-0.1486 0.0813,-0.1481 0.0817,-0.1475 0.082,-0.1469 0.0824,-0.1465 0.0828,-0.1458 0.083,-0.1454 0.0835,-0.1448 0.0837,-0.1442 0.0841,-0.1438 0.0845,-0.1432 0.0847,-0.1427 0.0851,-0.1422 0.0853,-0.1416 0.0857,-0.1411 0.086,-0.1406 0.0863,-0.1402 0.0866,-0.1395 0.0869,-0.1391 0.0872,-0.1386 0.0874,-0.1381 0.0878,-0.1376 0.088,-0.1371 0.0883,-0.1366 0.0886,-0.1361 0.0888,-0.1356 0.0891,-0.1351 0.0894,-0.1347 0.0896,-0.1342 0.0898,-0.1337 0.0902,-0.1332 0.0903,-0.1328 0.0906,-0.1323 0.0909,-0.1318 0.0911,-0.1314 0.0913,-0.131 0.0915,-0.1305 0.0918,-0.13 0.092,-0.1296 0.0923,-0.1291 0.0924,-0.1287 0.0927,-0.1283 0.0929,-0.1279 0.0931,-0.1274 0.0933,-0.127 0.0936,-0.1265 0.0937,-0.1262 0.094,-0.1257 0.0941,-0.1254 0.0944,-0.1249 0.0945,-0.1245 0.0948,-0.1241 0.0949,-0.1238 0.0952,-0.1233 0.0953,-0.1229 0.0956,-0.1226 0.0957,-0.1222 0.0959,-0.1218 0.0961,-0.1214 0.0963,-0.121 0.0965,-0.1207 0.0966,-0.1203 0.0969,-0.12 0.097,-0.1195 0.0972,-0.1193 0.0974,-0.1189 0.0976,-0.1185 0.0977,-0.1182 0.098,-0.1178 0.0981,-0.1176 0.0983,-0.1171 0.0984,-0.1169 0.0987,-0.1165 0.0988,-0.1162 0.099,-0.1159 0.0992,-0.1155 0.0993,-0.1153 0.0996,-0.1149 0.0997,-0.1146 0.0999,-0.1143 0.1,-0.1141 0.1003,-0.1137 0.1004,-0.1134 0.1006,-0.1131 0.1008,-0.1129 0.1009,-0.1125 0.1012,-0.1123 0.1013,-0.112 0.1015,-0.1117 0.1017,-0.1115 0.1019,-0.1111 0.102,-0.1109 0.1023,-0.1107 0.1024,-0.1103 0.1026,-0.1102 0.1028,-0.1098 0.103,-0.1096 0.1032,-0.1094 0.1034,-0.1091 0.1036,-0.1089 0.1037,-0.1086 0.104,-0.1084 0.1042,-0.1081 0.1043,-0.1079 0.1046,-0.1077 0.1048,-0.1074 0.1049,-0.1072 0.1052,-0.107 0.1054,-0.1068 0.1056,-0.1065 0.1058,-0.1063 0.1061,-0.1061 0.1062,-0.1059 0.1065,-0.1057 0.1067,-0.1055 0.1069,-0.1052 0.1071,-0.1051 0.1074,-0.1048 0.1076,-0.1046 0.1078,-0.1045 0.108,-0.1042 0.1083,-0.104 0.1086,-0.1039 0.1088,-0.1036 0.109,-0.1035 0.1092,-0.1032 0.1096,-0.1031 0.1097,-0.1029 0.1101,-0.1026 0.1103,-0.1025 0.1105,-0.1023 0.1108,-0.1022 0.1111,-0.1019 0.1114,-0.1018 0.1116,-0.1015 0.1119,-0.1014 0.1121,-0.1012 0.1125,-0.101 0.1127,-0.1009 0.1131,-0.1006 0.1133,-0.1005 0.1136,-0.1003 0.1139,-0.1002 0.1142,-0.0999 0.1146,-0.0998 0.1148,-0.0996 0.1151,-0.0994 0.1155,-0.0992 0.1157,-0.0991 0.1161,-0.0989 0.1164,-0.0987 0.1168,-0.0985 0.117,-0.0984 0.1174,-0.0982 0.1178,-0.0979 0.118,-0.0979 0.1184,-0.0976 0.1188,-0.0974 0.1191,-0.0973 0.1195,-0.0971 0.1198,-0.0969 0.1202,-0.0967 0.1206,-0.0966 0.1209,-0.0963 0.1213,-0.0962 0.1216,-0.096 0.1221,-0.0958 0.1224,-0.0956 0.1228,-0.0954 0.1232,-0.0952 0.1236,-0.095 0.124,-0.0948 0.1243,-0.0947 0.1248,-0.0944 0.1252,-0.0942 0.1256,-0.094 0.126,-0.0938 0.1265,-0.0936 0.1268,-0.0934 0.1273,-0.0932 0.1277,-0.093 0.1281,-0.0927 0.1286,-0.0926 0.129,-0.0923 0.1294,-0.0921 0.1299,-0.0918 0.1303,-0.0917 0.1308,-0.0914 0.1312,-0.0912 0.1317,-0.0909 0.1322,-0.0907 0.1326,-0.0904 0.133,-0.0902 0.1336,-0.09 0.134,-0.0897 0.1345,-0.0894 0.135,-0.0892 0.1354,-0.0889 0.136,-0.0887 0.1364,-0.0884 0.1369,-0.0881 0.1374,-0.0878 0.1379,-0.0876 0.1385,-0.0873 0.1389,-0.087 0.1394,-0.0867 0.1399,-0.0864 0.1404,-0.0861 0.141,-0.0858 0.1415,-0.0854 0.142,-0.0852 0.1425,-0.0849 0.143,-0.0845 0.1436,-0.0842 0.144,-0.0839 0.1447,-0.0835 0.1451,-0.0833 0.1457,-0.0828 0.1462,-0.0825 0.1468,-0.0822 0.1473,-0.0818 0.1479,-0.0814 0.1484,-0.0811 0.1489,-0.0807 0.1496,-0.0803 0.15,-0.0799 0.1506,-0.0796 0.1512,-0.0791 0.1517,-0.0788 0.1523,-0.0783 0.1529,-0.078 0.1534,-0.0775 0.154,-0.0771 0.1546,-0.0767 0.1551,-0.0762 0.1557,-0.0758 0.1562,-0.0754 0.1569,-0.0749 0.1574,-0.0745 0.158,-0.0739 0.1585,-0.0736 0.1592,-0.073 0.1597,-0.0726 0.1603,-0.0721 0.1609,-0.0716 0.1614,-0.0711 0.1621,-0.0706 0.1626,-0.0701 0.1632,-0.0696 0.1638,-0.069 0.1643,-0.0686 0.165,-0.068 0.1655,-0.0674 0.1661,-0.0669 0.1667,-0.0664 0.1673,-0.0657 0.1679,-0.0653 0.1685,-0.0646 0.169,-0.0641 0.1696,-0.0635 0.1702,-0.0629 0.1708,-0.0622 0.1714,-0.0617 0.1719,-0.0611 0.1726,-0.0604 0.1731,-0.0599 0.1737,-0.0592 0.1743,-0.0585 0.1748,-0.0579 0.1755,-0.0572 0.176,-0.0566 0.1766,-0.0559 0.1771,-0.0553 0.1777,-0.0545 0.1783,-0.0539 0.1789,-0.0532 0.1794,-0.0524 0.18,-0.0518 0.1806,-0.051 0.1811,-0.0504 0.1817,-0.0495 0.1823,-0.0489 0.1828,-0.0481 0.1833,-0.0473 0.1839,-0.0466 0.1845,-0.0458 0.185,-0.0451 0.1856,-0.0443 0.1861,-0.0434 0.1866,-0.0427 0.1872,-0.0419 0.1877,-0.0411 0.1882,-0.0402 0.1888,-0.0395 0.1892,-0.0386 0.1898,-0.0377 0.1904,-0.0369 0.1908,-0.0361 0.1914,-0.0352 0.1918,-0.0343 0.1924,-0.0335 0.1928,-0.0326 0.1934,-0.0317 0.1939,-0.0308 0.1943,-0.0299 0.1948,-0.0289 0.1953,-0.0281 0.1958,-0.0272 0.1963,-0.0262 0.1967,-0.0253 0.1972,-0.0243 0.1976,-0.0234 0.1981,-0.0224 0.1985,-0.0215 0.199,-0.0205 0.1994,-0.0195 0.1999,-0.0185 0.2003,-0.0176 0.2007,-0.0165 0.2011,-0.0155 0.2016,-0.0146 0.2019,-0.0135 0.2024,-0.0124 0.2027,-0.0115 0.2031,-0.0104 0.2036,-0.0094 0.2039,-0.0083 0.2042,-0.0072 0.2047,-0.0062 0.205,-0.0051 0.2053,-0.0041 0.2057,-0.0029 0.2061,-0.0019 0.2063,-8e-4 0.2067,4e-4 0.2071,0.0014 0.2073,0.0025 0.2077,0.0037 0.2079,0.0048 0.2083,0.0059 0.2085,0.0071 0.2088,0.0082 0.2091,0.0094 0.2093,0.0105 0.2096,0.0117 0.2099,0.0128 0.2101,0.014 0.2103,0.0152 0.2106,0.0164 0.2108,0.0175 0.211,0.0188 0.2112,0.0199 0.2114,0.0212 0.2116,0.0224 0.2117,0.0236 0.212,0.0248 0.2121,0.026 0.2122,0.0272 0.2124,0.0285 0.2126,0.0297 0.2126,0.031 0.2128,0.0322 0.2129,0.0335 0.213,0.0347 0.2131,0.036 0.2132,0.0373 0.2133,0.0385 0.2133,0.0398 0.2134,0.0411 0.2135,0.0423 0.2135,0.0436 0.2135,0.045 0.2135,0.0462 0.2136,0.0475 0.2135,0.0488 0.2136,0.0502 0.2135,0.0514 0.2135,0.0527 0.2135,0.0541 0.2134,0.0554 0.2134,0.0567 0.2133,0.058 0.2132,0.0593 0.2132,0.0607 0.213,0.062 0.213,0.0634 0.2128,0.0646 0.2127,0.0661 0.2126,0.0673 0.2124,0.0687 0.2123,0.0701 0.2121,0.0714 0.212,0.0727 0.2117,0.0741 0.2116,0.0755 0.2113,0.0768 0.2111,0.0782 0.2109,0.0795 0.2107,0.0809 0.2104,0.0823 0.2102,0.0836 0.2098,0.085 0.2097,0.0863 0.2093,0.0877 0.209,0.0891 0.2087,0.0905 0.2083,0.0918 0.2081,0.0932 0.2076,0.0945 0.2074,0.096 0.2069,0.0973 0.2066,0.0986 0.2062,0.1001 0.2058,0.1014 0.2054,0.1028 0.2049,0.1041 0.2045,0.1056 0.2041,0.1069 0.2036,0.1082 0.2032,0.1097 0.2026,0.111 0.2022,0.1123 0.2017,0.1138 0.2011,0.1151 0.2007,0.1164 0.2001,0.1178 0.1995,0.1192 0.199,0.1206 0.1985,0.1219 0.1978,0.1232 0.1973,0.1246 0.1966,0.126 0.1961,0.1273 0.1954,0.1287 0.1948,0.13 0.1941,0.1313 0.1935,0.1327 0.1928,0.134 0.1921,0.1354 0.1915,0.1367 0.1907,0.138 0.19,0.1394 0.1893,0.1406 0.1885,0.142 0.1878,0.1433 0.1871,0.1447 0.1863,0.1459 0.1855,0.1472 0.1847,0.1486 0.1839,0.1498 0.1831,0.1511 0.1822,0.1524 0.1814,0.1538 0.1806,0.1549 0.1797,0.1563 0.1789,0.1575 0.178,0.1589 0.177,0.16 0.1762,0.1613 0.1753,0.1626 0.1743,0.1638 0.1734,0.1651 0.1725,0.1663 0.1715,0.1676 0.1705,0.1687 0.1696,0.17 0.1685,0.1712 0.1676,0.1724 0.1666,0.1736 0.1655,0.1749 0.1646,0.176 0.1634,0.1771 0.1625,0.1784 0.1613,0.1796 0.1603,0.1807 0.1593,0.1818 0.1581,0.183 0.157,0.1842 0.1559,0.1853 0.1548,0.1864 0.1537,0.1876 0.1525,0.1887 0.1514,0.1897 0.1502,0.1909 0.1491,0.192 0.1478,0.1931 0.1467,0.1941 0.1455,0.1952 0.1443,0.1963 0.143,0.1973 0.1419,0.1984 0.1406,0.1995 0.1393,0.2004 0.1381,0.2015 0.1369,0.2025 0.1355,0.2035 0.1343,0.2045 0.133,0.2054 0.1317,0.2065 0.1304,0.2074 0.1291,0.2084 0.1277,0.2094 0.1264,0.2102 0.1251,0.2113 0.1237,0.2121 0.1224,0.2131 0.121,0.2139 0.1196,0.2149 0.1183,0.2157 0.1169,0.2166 0.1154,0.2175 0.1141,0.2184 0.1126,0.2192 0.1113,0.22 0.1098,0.2208 0.1083,0.2217 0.107,0.2225 0.1054,0.2233 0.1041,0.224 0.1025,0.2248 0.1011,0.2256 0.0996,0.2264 0.0981,0.2271 0.0967,0.2278 0.0951,0.2285 0.0937,0.2293 0.0921,0.2299 0.0906,0.2307 0.0891,0.2313 0.0875,0.232 0.0861,0.2326 0.0845,0.2333 0.0829,0.2339 0.0814,0.2345 0.0798,0.2352 0.0783,0.2357 0.0767,0.2363 0.0751,0.2369 0.0736,0.2375 0.072,0.238 0.0703,0.2385 0.0688,0.2391 0.0672,0.2396 0.0656,0.24 0.064,0.2406 0.0624,0.2411 0.0607,0.2415 0.0592,0.242 0.0573,0.2424 0.056,0.2429 0.054,0.2432 0.053,0.2437 0.051,0.2441 0.049,0.2444 0.048,0.2448 0.046,0.2452 0.044,0.2455 0.043,0.2459 0.041,0.2462 0.04,0.2464 0.037,0.2468 0.036,0.2471 0.035,0.2473 0.033,0.2475 0.031,0.2479 0.029,0.248 0.028,0.2483 0.026,0.2484 0.024,0.2487 0.023,0.2488 0.021,0.249 0.019,0.2492 0.018,0.2493 0.016,0.2494 0.014,0.2496 0.013,0.2496 0.01,0.2498 0.01,0.2498 0.007,0.2498 0.006,0.25 0.004,0.2499 0.002,0.25 z"
           stroke="#000000"
           stroke-width="2"
           id="path939" />
      </g>
    </g>
  </g>
</svg>
