<svg viewBox="0 0 102 102" version="1.1" xmlns="http://www.w3.org/2000/svg" xmlns:xlink="http://www.w3.org/1999/xlink">
<style>#path{stroke:#000}@media (prefers-color-scheme:dark){#path{stroke:#FFF}}</style>
<path id="path" clip-rule="evenodd" d="M101 51v.75l-.01.25-.01.25-.01.25-.01.25-.01.25-.02.25-.02.25-.01.25-.02.25-.02.25-.03.24-.02.25-.03.25-.02.25-.03.25-.04.25-.03.24-.03.25-.04.25-.04.24-.04.25-.04.25-.04.24-.05.25-.04.24-.05.25-.05.24-.05.25-.05.24-.06.24-.05.25-.06.24-.06.24-.06.24-.06.24-.07.24-.06.24-.07.24-.07.24-.07.24-.07.24-.08.24-.07.23-.08.24-.08.23L99 63l-.08.23-.08.24-.09.23-.08.23-.09.24-.09.23-.09.23-.1.23-.09.23-.1.22-.09.23-.1.23-.1.23-.1.22-.1.23-.1.22-.1.22-.12.23-.1.22-.11.22-.12.22-.1.22-.12.22-.12.21-.12.22-.11.22-.12.21-.12.21-.13.22-.12.2-.13.22-.12.21-.13.2-.13.22-.13.2-.13.21-.14.2-.13.21-.14.2-.13.2-.14.2-.14.2-.14.2-.14.2-.15.2-.14.2-.15.2-.14.19-.15.2-.15.18-.15.2-.15.18-.15.2-.16.18-.15.19-.16.18-.16.19-.15.18-.16.18-.16.18-.17.18-.16.18-.16.18-.17.17-.16.18-.17.17-.17.17-.16.17-.17.17-.17.17-.18.17-.17.17-.17.16-.18.16-.17.17-.18.16-.18.16-.17.16-.18.15-.18.16-.18.16-.18.15-.19.15-.18.15-.18.15-.19.15-.18.15-.2.14-.18.15-.19.14-.18.14-.2.14-.18.14-.2.14-.19.14-.19.13-.2.14-.18.13-.2.13-.2.13-.19.13-.2.13-.2.12-.19.13-.2.12-.2.12-.2.12-.2.12-.2.12-.2.11-.2.12-.2.11-.2.12-.2.1-.2.12-.21.1-.2.11-.2.1-.21.11-.2.1-.21.1-.21.1-.2.1-.21.1-.21.1-.21.09-.2.1-.22.08-.2.1-.21.08-.21.1-.21.08-.21.08-.21.09-.21.08-.21.08-.21.08-.22.08-.2.07-.22.08-.21.07-.21.07-.21.08-.22.07-.21.06-.21.07-.21.07-.22.06-.21.07-.21.06-.22.06-.21.06-.21.06-.22.05-.21.06-.21.05-.22.05-.21.05-.21.06-.22.04-.21.05-.22.05-.2.04-.22.05-.22.04-.2.04-.22.04-.22.04-.2.03-.22.04-.21.03-.22.04-.21.03-.21.03-.22.03-.2.03-.22.03-.21.02-.21.03-.22.02-.2.02-.22.02-.21.02-.21.02-.21.02-.21.02-.21.01-.21.01-.21.02h-.21l-.21.02h-.21l-.2.02H64.55l-.21.01h-.21l-.2.01H62.7l-.21-.01-.2-.01h-.21l-.2-.02h-.2l-.21-.02h-.2l-.2-.02-.2-.01-.2-.02-.21-.01-.2-.02-.2-.02-.2-.02-.2-.02-.2-.02-.2-.02-.2-.02-.2-.02-.19-.03-.2-.02-.2-.03-.19-.03-.2-.03-.19-.02-.2-.03-.19-.04-.19-.03-.2-.03-.19-.03-.19-.04-.19-.03-.19-.04-.19-.04-.19-.03-.19-.04-.19-.04-.19-.04-.18-.04-.19-.05-.19-.04-.18-.04-.19-.05-.18-.04-.19-.05-.18-.04-.18-.05-.19-.05-.18-.05-.18-.05-.18-.05-.18-.05-.18-.05-.18-.05-.18-.06-.18-.05-.18-.06-.17-.05-.18-.06-.18-.05-.17-.06-.18-.06-.17-.06-.17-.06-.18-.06-.17-.06-.17-.06-.17-.06-.17-.06-.17-.07-.17-.06-.17-.06-.17-.07-.17-.06-.17-.07-.16-.07-.17-.06-.16-.07-.17-.07-.16-.07-.17-.07-.16-.06-.16-.08-.17-.07-.16-.07-.16-.07-.16-.07-.16-.07-.16-.08-.16-.07-.15-.07-.16-.08-.16-.07-.15-.08-.16-.07-.15-.08-.16-.08-.15-.07-.16-.08-.15-.08-.15-.08-.15-.08-.15-.08-.15-.08-.15-.08-.15-.08-.15-.08-.15-.08-.15-.08-.15-.08-.14-.08-.15-.09-.14-.08-.15-.08-.14-.09-.15-.08-.14-.08-.14-.09-.15-.08-.14-.09-.14-.08-.14-.09-.14-.09-.14-.08-.14-.09-.14-.09-.14-.08-.14-.1-.13-.08-.14-.09-.14-.09-.13-.08-.14-.1-.13-.08-.14-.1-.13-.08-.14-.1-.13-.08-.13-.1-.13-.08-.13-.1-.14-.09-.13-.09-.13-.09-.13-.1-.13-.08-.13-.1-.12-.09-.13-.09-.13-.1-.13-.09-.12-.09-.13-.1-.13-.09-.12-.1-.13-.09-.12-.09-.13-.1-.12-.09-.12-.1-.13-.09-.12-.1-.12-.1-.12-.09-.12-.1-.13-.09-.12-.1-.12-.1-.12-.09-.12-.1-.12-.1-.12-.09-.11-.1-.12-.1-.12-.1-.12-.1-.12-.09-.11-.1-.12-.1-.12-.1-.11-.1-.12-.1-.11-.1-.12-.1-.11-.1-.12-.1-.11-.1-.12-.1-.11-.1-.11-.1-.12-.1-.1-.1-.12-.1-.11-.1-.12-.1-.1-.1-.12-.1-.1-.1-.12-.1-.11-.1-.11-.1-.11-.11-.11-.1-.11-.1-.1-.11-.12-.1-.1-.1-.12-.11-.1-.1-.11-.11-.11-.1-.1-.1-.11-.11-.11-.1-.1-.11-.12-.11-.1-.1-.1-.11-.11-.1-.11-.11-.1-.11-.11-.1-.1-.11-.11-.11-.1-.1-.11-.12-.1-.1-.1-.11-.11-.11-.1-.11-.11-.1-.1-.12-.1-.1-.1-.12-.11-.1-.1-.12-.1-.1-.1-.12-.11-.1-.1-.12-.1-.11-.1-.11-.1-.12-.1-.1-.11-.12-.1-.11-.1-.12-.1-.11-.1-.11-.1-.12-.1-.11-.1-.12-.1-.11-.1-.12-.1-.11-.1-.12-.1-.11-.1-.12-.1-.12-.1-.12-.1-.11-.09-.12-.1-.12-.1-.12-.1-.12-.09-.12-.1-.12-.1-.12-.09-.12-.1-.12-.1-.12-.09-.12-.1-.12-.09-.12-.1-.13-.09-.12-.1-.12-.09-.13-.1-.12-.09-.12-.1-.13-.09-.12-.1-.13-.09-.13-.09-.12-.1-.13-.09-.13-.09-.13-.1-.12-.08-.13-.1-.13-.09-.13-.09-.13-.1-.13-.08-.13-.1-.13-.08-.14-.1-.13-.09-.13-.09-.13-.09-.14-.08-.13-.1-.14-.08-.13-.1-.14-.08-.13-.09-.14-.09-.14-.08-.14-.1-.13-.08-.14-.09-.14-.08-.14-.09-.14-.08-.14-.09-.14-.09-.14-.08-.15-.09-.14-.08-.14-.08-.15-.09-.14-.08-.15-.08-.14-.09-.15-.08-.14-.08-.15-.08-.15-.08-.15-.09-.15-.08-.14-.08-.15-.08-.15-.07-.16-.08-.15-.08-.15-.08-.15-.08-.15-.08-.16-.07-.15-.08-.16-.08-.15-.07-.16-.08-.15-.07-.16-.07-.16-.08-.16-.07-.16-.07-.16-.08-.16-.07-.16-.07-.16-.07-.16-.07-.16-.07-.16-.07-.17-.07-.16-.07-.17-.07-.16-.06-.17-.07-.16-.07-.17-.06-.17-.07-.17-.06-.17-.06-.16-.07-.17-.06-.17-.06-.18-.06-.17-.06-.17-.06-.17-.06-.18-.06-.17-.06-.17-.06-.18-.06-.18-.05-.17-.06-.18-.05-.18-.06-.17-.05-.18-.05-.18-.06-.18-.05-.18-.05-.18-.05-.18-.05-.19-.05-.18-.04-.18-.05-.18-.05-.19-.04-.18-.05-.19-.04-.18-.04-.2-.05-.18-.04-.19-.04-.18-.04-.2-.04-.18-.04-.19-.03-.19-.04-.2-.04-.18-.03-.2-.03-.19-.04-.19-.03-.2-.03-.18-.03-.2-.03-.2-.03-.19-.03-.2-.02-.19-.03-.2-.02-.2-.03-.19-.02-.2-.02-.2-.02-.2-.02-.2-.02-.2-.02-.2-.02-.2-.02-.2-.01-.2-.01-.2-.02-.2v-.2l-.02-.2-.01-.2v-.21l-.02-.2v-.21l-.01-.2V39l-.01-.21v-1.24l.01-.21.01-.21v-.21l.02-.2v-.22l.02-.2v-.22l.02-.2.02-.22.01-.2.02-.22.02-.2.02-.22.02-.21.02-.21.02-.21.03-.22.02-.2.03-.22.03-.21.02-.22.04-.2.03-.22.03-.21.03-.22.04-.21.04-.21.03-.22.04-.2.04-.22.04-.22.05-.21.04-.21.05-.22.04-.21.05-.21.05-.22.05-.21.05-.21.06-.22.05-.21.06-.21.05-.22.06-.21.06-.21.06-.22.07-.21.06-.21.07-.22.06-.2.07-.22.07-.21.07-.22.07-.2.08-.22.07-.21.08-.21.07-.21.08-.22.08-.2.08-.22.09-.2.08-.22.09-.2.08-.22.1-.2.08-.21.1-.21.09-.21.09-.2.1-.22.1-.2.09-.21.1-.2.1-.21.1-.2.1-.21.1-.2.11-.21.11-.2.11-.21.11-.2.11-.2.12-.2.11-.2.12-.21.11-.2.12-.2.12-.2.12-.2.13-.2.12-.2.12-.2.13-.19.13-.2.13-.19.13-.2.13-.19.13-.19.14-.2.13-.18.14-.2.14-.19.14-.19.14-.18.14-.2.15-.18.14-.19.15-.18.15-.19.15-.18.15-.19.15-.18.15-.18.16-.18.15-.18.16-.18.16-.18.16-.18.16-.17.16-.18.16-.17.17-.18.16-.17.17-.17.17-.17.17-.17.17-.17.17-.17.17-.17.17-.17.18-.16.18-.16.17-.17.18-.16.18-.16.18-.16.19-.16.18-.16.18-.15.19-.16.19-.15.19-.16.18-.15.2-.15.19-.15.19-.15.2-.14.19-.15.2-.15.19-.14.2-.14.2-.14.2-.14.2-.14.2-.14.2-.14.2-.13.21-.13.2-.14.21-.13.21-.13.21-.13.2-.12.22-.13.21-.12.21-.13.22-.12.21-.12.22-.12.21-.12.22-.11.22-.12.22-.11.22-.11.22-.11.22-.11.22-.11.22-.1.23-.11.22-.1.23-.1.22-.1.23-.1.23-.1.22-.1.23-.1.23-.09.23-.09.23-.09.24-.09.23-.08.23-.09.23-.08.24-.09.23-.08.24-.08.23-.07.24-.08.24-.07.24-.08.23-.07.24-.07.24-.07.24-.06.24-.07.24-.06.24-.06.25-.06.24-.06.24-.06.24-.05.25-.06.24-.05.25-.05.24-.05.25-.04.24-.05.25-.04.24-.04.25-.04.24-.04.25-.04.25-.04.25-.03.24-.03.25-.03.25-.03.25-.03.25-.02.25-.03.24-.02.25-.02.25-.02.25-.01.25-.02.25-.01.25-.01.25-.01.25-.01.25-.01h.5l.25-.01h.75l.25.01h.25l.25.02h.25l.25.02.25.01.25.02.25.01.25.02.25.02.25.02.24.03.25.02.25.03.25.03.25.03.24.03.25.04.25.03.25.04.24.04.25.04.24.04.25.04.25.05.24.05.25.04.24.05.24.06.25.05.24.06.24.05.24.06.25.06.24.06.24.07.24.06.24.07.24.07.24.07.23.07.24.07.24.07.24.08.23.08.24.08.23.08.24.08.23.08.23.09.23.09.24.09.23.09.23.09.23.09.23.1.22.1.23.09.23.1.22.1.23.1.22.1.23.1.22.11.22.11.22.11.22.11.22.11.22.12.22.11.22.12.21.12.22.12.21.12.22.12.2.12.22.13.21.12.21.13.2.13.22.13.2.13.2.13.21.13.2.14.21.14.2.13.2.14.2.14.2.14.2.15.2.14.2.15.19.14.19.15.2.15.18.15.2.15.18.15.2.15.18.16.18.15.19.16.18.16.18.16.19.16.18.16.17.16.18.16.18.17.17.16.18.17.17.17.17.16.17.17.17.17.17.17.17.18.16.17.17.17.16.18.16.17.16.18.16.18.16.18.16.18.15.18.16.18.15.18.15.18.15.19.15.18.15.19.14.18.15.19.14.19.15.18.14.2.14.18.13.2.14.18.14.2.13.19.14.2.13.19.13.19.13.2.13.2.12.19.13.2.12.2.12.2.12.19.12.2.12.2.12.2.11.2.12.2.11.2.11.2.11.2.11.21.11.2.1.21.11.2.1.21.1.2.1.21.1.2.1.22.1.2.1.21.09.2.1.22.08.2.1.21.08.21.09.21.08.21.09.21.08.21.08.21.08.21.08.21.08.22.07.2.08.22.07.21.07.21.07.22.07.2.07.22.07.21.06.22.07.2.06.22.06.21.06.22.06.21.06.21.05.22.06.21.05.22.05.2.05.22.05.22.05.2.05.22.04.22.05.21.04.21.04.22.04.21.04.21.04.22.03.21.04.21.03.22.03.2.04.22.03.21.03.22.02.2.03.22.03.21.02.21.02.22.02.2.02.22.02.21.02.21.02.21.01.21.02.21.01.21.01.21.01.21.01.21.01.2.01.22v.2l.01.21v.42l.01.2v1.03l-.01.21v.2l-.01.21-.01.2-.01.21-.01.2-.01.2-.01.2-.02.21-.01.2-.02.2-.01.2-.02.2-.02.2-.02.2-.02.2-.02.2-.02.2-.02.2-.03.2-.02.2-.03.19-.02.2-.03.2-.03.19-.03.19-.03.2-.03.19-.03.2-.04.18-.03.2-.04.19-.03.19-.04.19-.04.19-.03.19-.04.19-.04.19-.04.18-.05.2-.04.18-.04.18-.04.19-.05.18-.05.19-.04.18-.05.19-.05.18-.04.18-.05.18-.05.19-.05.18-.06.18-.05.18-.05.18-.06.17-.05.18-.05.18-.06.18-.06.17-.05.18-.06.17-.06.18-.06.17-.06.18-.06.17-.06.17-.06.17-.06.17-.06.17-.07.17-.06.17-.07.17-.06.17-.07.17-.06.16-.07.17-.07.17-.06.16-.07.17-.07.16-.07.16-.07.17-.07.16-.07.16-.07.16-.08.16-.07.16-.07.16-.07.16-.08.16-.07.16-.08.15-.07.16-.08.15-.07.16-.08.15-.08.16-.08.15-.07.16-.08.15-.08.15-.08.15-.08.15-.08.15-.08.15-.08.15-.08.15-.08.15-.08.15-.08.14-.09.15-.08.15-.08.14-.09.15-.08.14-.08.14-.09.15-.08.14-.09.14-.08.14-.09.14-.09.14-.08.15-.09.13-.08.14-.1.14-.08.14-.09.14-.09.14-.08.13-.1.14-.08.13-.09.14-.09.13-.09.14-.09.13-.09.13-.09.14-.09.13-.1.13-.08.13-.1.13-.08.13-.1.13-.09.13-.1.13-.08.13-.1.13-.09.13-.1.13-.09.12-.09.13-.1.13-.09.12-.09.13-.1.12-.09.13-.1.12-.09.12-.1.13-.09.12-.1.12-.1.12-.09.13-.1.12-.09.12-.1.12-.1.12-.09.12-.1.12-.1.12-.1.12-.09.12-.1.11-.1.12-.1.12-.09.12-.1.11-.1.12-.1.12-.1.11-.1.12-.1.11-.1.12-.1.11-.1.12-.1.11-.1.12-.1.1-.1.12-.1.11-.1.12-.1.1-.1.12-.1.11-.1.11-.1.12-.1.1-.1.12-.11.1-.1.12-.1.1-.1.12-.11.1-.1.12-.1.1-.11.11-.1.11-.11.11-.1.1-.1.12-.11.1-.1.11-.11.1-.1.11-.12.11-.1.1-.1.11-.11.1-.1.11-.12.11-.1.1-.11.11-.1.1-.12.11-.1.1-.11.1-.1.11-.12.1-.1.11-.12.1-.1.1-.11.11-.11.1-.11.1-.11.1-.11.11-.12.1-.1.1-.12.1-.11.1-.11.1-.11.11-.12.1-.1.1-.12.1-.12.1-.1.1-.12.1-.12.1-.11.1-.12.1-.11.1-.12.1-.11.1-.12.1-.12.1-.11.1-.12.1-.12.1-.11.1-.12.09-.12.1-.12.1-.12.1-.12.09-.12.1-.12.1-.12.09-.12.1-.12.1-.12.09-.12.1-.13.09-.12.1-.12.09-.13.1-.12.09-.12.1-.13.09-.12.1-.13.09-.13.1-.12.08-.13.1-.13.1-.12.08-.13.1-.13.09-.13.1-.13.08-.13.1-.13.09-.13.09-.13.09-.13.1-.14.08-.13.1-.13.08-.13.1-.14.08-.13.1-.14.08-.13.09-.14.09-.14.09-.13.08-.14.1-.14.08-.14.09-.13.08-.14.1-.14.08-.14.08-.15.09-.14.08-.14.09-.14.08-.14.09-.15.08-.14.09-.15.08-.14.08-.15.09-.14.08-.15.08-.15.08-.15.09-.14.08-.15.08-.15.08-.15.08-.15.08-.15.08-.16.07-.15.08-.15.08-.15.08-.16.08-.15.07-.16.08-.15.07-.16.08-.16.07-.15.08-.16.07-.16.08-.16.07-.16.07-.16.07-.16.08-.16.07-.16.07-.17.07-.16.07-.16.07-.17.07-.16.06-.17.07-.16.07-.17.06-.17.07-.17.07-.16.06-.17.06-.17.07-.17.06-.17.06-.18.06-.17.07-.17.06-.17.06-.18.06-.17.05-.18.06-.17.06-.18.06-.17.05-.18.06-.18.05-.18.06-.18.05-.17.05-.18.05-.19.05-.18.05-.18.05-.18.05-.18.05-.19.05-.18.04-.18.05-.19.05-.19.04-.18.04-.19.05-.19.04-.18.04-.2.04-.18.04-.19.04-.19.04-.19.03-.19.04-.2.03-.18.04-.2.03-.19.03-.2.04-.19.03-.19.03-.2.03-.19.02-.2.03-.2.03-.19.02-.2.03-.2.02-.2.02-.19.02-.2.02-.2.02-.2.02-.2.02-.2.02-.2.01-.2.02-.2.01-.2.01-.2.01-.21.02h-.2l-.2.01-.21.01h-.2l-.21.01H38.89l-.21.01h-1.04l-.2-.01h-.21l-.21-.01-.2-.01-.22-.01-.2-.01-.22-.01-.2-.02-.22-.01-.2-.02-.22-.01-.2-.02-.22-.02-.21-.02-.21-.02-.21-.02-.22-.02-.2-.03-.22-.03-.21-.02-.21-.03-.22-.03-.2-.03-.22-.03-.21-.04-.22-.03-.21-.04-.21-.03-.22-.04-.21-.04-.21-.04-.22-.05-.21-.04-.21-.04-.22-.05-.21-.05-.22-.05-.2-.05-.22-.05-.22-.05-.2-.06-.22-.05-.22-.06-.2-.06-.22-.05-.22-.07-.2-.06-.22-.06-.21-.06-.22-.07-.21-.07-.21-.07-.21-.07-.22-.07-.2-.07-.22-.08-.21-.07-.21-.08-.21-.08-.22-.07-.2-.09-.22-.08-.2-.08-.22-.09-.2-.08-.22-.09-.2-.09-.21-.09-.21-.1-.21-.08-.2-.1-.21-.1-.21-.1-.2-.1-.21-.1-.21-.1-.2-.1-.21-.1-.2-.1-.2-.11-.21-.1-.2-.12-.2-.11-.21-.11-.2-.12-.2-.11-.2-.12-.2-.12-.2-.11-.2-.12-.2-.13-.2-.12-.2-.12-.2-.13-.19-.13-.2-.13-.19-.13-.2-.13-.19-.13-.19-.13-.2-.14-.18-.14-.2-.13-.18-.14-.2-.14-.18-.15-.2-.14-.18-.14-.18-.15-.19-.15-.18-.14-.19-.15-.18-.16-.18-.15-.19-.15-.18-.16-.18-.15-.17-.16-.18-.16-.18-.16-.18-.16-.17-.16-.18-.17-.17-.16-.17-.17-.17-.17-.17-.16-.17-.17-.17-.18-.17-.17-.17-.17-.16-.18-.17-.17-.16-.18-.16-.18-.16-.18-.16-.18-.16-.18-.16-.18-.16-.19-.15-.18-.16-.19-.15-.19-.16-.18-.15-.2-.15-.18-.15-.2-.14-.19-.15-.2-.15-.19-.14-.2-.14-.2-.15-.2-.14-.19-.14-.2-.13-.2-.14-.2-.14-.2-.13-.21-.13-.2-.14-.21-.13-.21-.13-.21-.12-.2-.13-.22-.12-.21-.13-.21-.12-.22-.12-.21-.12-.21-.12-.22-.12-.22-.11-.21-.12-.22-.1-.22-.12-.22-.11-.22-.1-.22-.12-.23-.1-.22-.1-.22-.1-.23-.1-.22-.1-.23-.1-.23-.1-.23-.1-.22-.1-.23-.08-.23-.1-.23-.08-.23-.1-.24-.08-.23-.08-.23-.09-.24L3 63l-.08-.24-.08-.23-.07-.24-.08-.24-.07-.23-.07-.24-.07-.24-.07-.24-.07-.24-.07-.24-.06-.24-.06-.24-.06-.24-.06-.24-.06-.25-.06-.24-.05-.24-.05-.24-.05-.25-.05-.24-.05-.25-.05-.24-.04-.25-.04-.24-.05-.25-.03-.25-.04-.24-.04-.25-.03-.25-.04-.25-.03-.24-.03-.25-.02-.25-.03-.25-.03-.25-.02-.25-.02-.24-.02-.25-.02-.25-.01-.25-.02-.25v-.25l-.02-.25v-.25L1 51.99v-.75L1 50.99v-.75l.01-.25.01-.25.01-.25.01-.25.01-.25.02-.25.02-.25.01-.25.02-.25.02-.25.03-.25.02-.24.03-.25.03-.25.03-.25.03-.25.03-.24.03-.25.04-.25.04-.24.04-.25.04-.25.04-.24.05-.25.04-.24.05-.25.05-.24.05-.25.05-.24.06-.24.06-.25.05-.24.06-.24.06-.24.07-.24.06-.24.07-.24.06-.24.07-.24.07-.24.08-.24.07-.24.07-.23.08-.24.08-.24.08-.23.08-.23.08-.24.09-.23.09-.23.08-.24.1-.23.08-.23.1-.23.09-.23.1-.23.1-.22.09-.23.1-.23.1-.22.1-.23.1-.22.11-.22.11-.23.1-.22.12-.22.11-.22.11-.22.12-.22.11-.21.12-.22.12-.22.12-.21.12-.21.12-.22.13-.2.12-.22.13-.21.13-.2.13-.22.13-.2.13-.21.13-.2.14-.21.13-.2.14-.2.14-.2.14-.2.14-.2.14-.2.14-.2.15-.2.14-.2.15-.19.15-.2.15-.18.15-.2.15-.18.15-.2.15-.18.16-.19.16-.18.15-.18.16-.19.16-.18.16-.18.16-.18.16-.18.17-.17.16-.18.17-.17.17-.18.16-.17.17-.17.17-.17.17-.17.17-.17.18-.16.17-.17.17-.16.18-.16.18-.17.17-.16.18-.15.18-.16.18-.16.18-.15.18-.16.19-.15.18-.15.18-.15.19-.15.18-.14.19-.15.19-.14.18-.15.2-.14.18-.14.2-.14.18-.14.2-.13.19-.14.19-.13.2-.13.19-.14.2-.13.19-.12.2-.13.2-.13.19-.12.2-.12.2-.13.2-.12.2-.12.2-.11.2-.12.2-.11.2-.12.2-.11.2-.11.2-.11.2-.1.21-.12.2-.1.21-.1.2-.1.21-.1.21-.1.2-.1.21-.1.21-.1.2-.1.22-.09.2-.09.21-.09.21-.09.21-.09.21-.08.21-.09.21-.08.21-.08.21-.08.21-.08.22-.08.2-.08.22-.07.21-.08.21-.07.21-.07.22-.07.2-.07.22-.07.21-.06.22-.07.21-.06.21-.06.22-.06.21-.06.21-.06.22-.05.21-.06.21-.05.22-.06.21-.05.21-.05.22-.05.21-.04.21-.05.22-.04.21-.05.21-.04.22-.04.21-.04.21-.04.22-.04.21-.03.21-.04.22-.03.21-.03.21-.03.21-.03.22-.03.21-.03.21-.02.21-.03.22-.02.2-.02.22-.02.2-.02.22-.02.21-.02.21-.02.21-.01.21-.02h.21l.21-.02.21-.01h.21l.2-.02h.22l.2-.01h.42l.2-.01h1.24l.21.01.2.01h.2l.21.02h.2l.2.02h.21l.2.02.2.01.2.02.2.01.2.02.2.02.2.02.2.02.2.02.2.02.2.02.2.02.2.03.2.02.2.03.19.03.2.03.19.03.2.03.19.03.19.03.2.03.18.03.2.04.19.03.19.04.19.04.19.04.19.03.19.04.18.04.2.05.18.04.19.04.18.04.19.05.18.04.19.05.18.05.18.04.19.05.18.05.18.05.18.05.18.05.18.05.18.06.18.05.18.05.17.06.18.05.18.06.17.06.18.05.17.06.18.06.17.06.18.06.17.06.17.06.17.06.17.06.17.07.17.06.17.07.17.06.17.07.16.06.17.07.17.06.16.07.17.07.16.07.16.07.17.07.16.07.16.07.16.07.16.07.16.07.16.08.16.07.16.07.16.08.16.07.15.08.16.07.16.08.15.07.16.08.15.08.15.08.16.07.15.08.15.08.15.08.15.08.15.08.15.08.15.08.15.08.15.08.14.09.15.08.15.08.14.08.15.09.14.08.14.08.15.09.14.08.14.09.15.08.14.09.14.08.14.09.14.09.14.08.14.09.13.09.14.08.14.1.14.08.13.09.14.09.13.09.14.09.13.09.14.09.13.09.13.09.14.09.13.09.13.09.13.09.13.1.13.08.13.1.13.09.13.09.13.1.13.08.12.1.13.09.13.1.13.09.12.1.13.09.12.09.13.1.12.09.12.1.13.09.12.1.12.09.13.1.12.09.12.1.12.1.12.09.12.1.12.1.12.09.12.1.12.1.12.1.12.09.12.1.11.1.12.1.12.1.12.09.11.1.12.1.11.1.12.1.11.1.12.1.11.1.12.1.11.1.11.1.12.1.11.1.11.1.12.1.1.1.12.1.11.1.11.1.11.1.11.1.12.11.1.1.12.1.1.1.11.11.11.1.11.1.11.11.11.1.1.11.12.1.1.1.11.11.1.1.12.11.1.1.11.11.1.11.11.1.1.11.11.1.11.12.1.1.11.1.1.12.11.1.1.11.1.1.11.12.1.1.11.11.1.11.1.11.11.11.1.11.1.11.1.11.11.11.1.11.1.11.1.11.1.12.11.1.1.12.1.11.1.11.1.12.1.11.1.11.1.12.1.11.1.12.1.11.1.12.1.11.1.12.1.11.1.12.1.12.1.11.1.12.1.12.1.12.1.11.09.12.1.12.1.12.09.12.1.12.1.12.09.12.1.12.1.12.09.13.1.12.09.12.1.12.09.13.1.12.09.12.1.13.09.12.1.13.09.13.09.12.1.13.09.13.09.12.1.13.09.13.09.13.09.13.1.13.08.13.1.13.09.13.09.13.09.13.09.13.09.14.09.13.09.13.09.14.09.13.09.14.09.13.08.14.1.14.08.13.09.14.09.14.08.14.09.14.09.14.08.14.09.14.08.14.09.14.08.14.09.15.08.14.09.14.08.15.08.14.09.15.08.14.08.15.08.15.09.14.08.15.08.15.08.15.08.15.08.15.08.15.08.15.08.16.07.15.08.15.08.15.08.16.07.15.08.16.07.15.08.16.07.16.08.16.07.15.08.16.07.16.07.16.07.16.07.16.07.17.07.16.07.16.07.16.07.17.07.16.07.17.07.16.06.17.07.17.06.17.07.16.06.17.07.17.06.17.06.17.07.17.06.17.06.18.06.17.06.17.06.18.05.17.06.18.06.17.05.18.06.18.06.17.05.18.05.18.06.18.05.18.05.18.05.18.05.18.05.18.05.19.05.18.04.18.05.19.04.18.05.19.04.18.05.19.04.19.04.18.04.2.04.18.04.19.04.19.03.19.04.19.04.19.03.2.04.18.03.2.03.19.03.2.03.19.03.2.03.19.03.2.02.19.03.2.03.2.02.19.02.2.02.2.03.2.02.2.01.2.02.2.02.2.02.2.01.2.01.2.02.2.01.2.01.2.01.2V62l.02.2v.21l.01.2V63.01l.01.21v1.24l-.01.21-.01.21v.2l-.02.22v.2l-.02.22-.01.2-.01.22-.02.2-.01.22-.02.2-.02.22-.02.2-.02.22-.02.21-.02.21-.03.22-.02.2-.03.22-.03.21-.03.21-.03.22-.03.21-.03.21-.03.22-.04.2-.04.22-.03.22-.04.2-.04.22-.05.22-.04.2-.04.22-.05.22-.05.2-.04.22-.05.22-.05.21-.06.21-.05.22-.05.21-.06.21-.06.22-.06.21-.06.21-.06.22-.06.21-.06.21-.07.22-.07.2-.06.22-.07.21-.07.22-.08.2-.07.22-.07.21-.08.21-.08.21-.08.21-.08.22-.08.2-.08.22-.09.2-.08.22-.09.2-.09.21-.09.21-.09.21-.09.21-.1.2-.09.22-.1.2-.1.2-.1.22-.1.2-.1.2-.1.21-.1.2-.11.21-.1.2-.12.2-.1.21-.12.2-.11.2-.12.2-.11.2-.12.2-.12.2-.12.2-.12.2-.12.2-.12.2-.13.2-.13.2-.12.2-.13.19-.13.2-.14.18-.13.2-.13.2-.14.18-.14.2-.14.18-.14.2-.14.18-.14.2-.14.18-.15.18-.15.2-.14.18-.15.18-.15.18-.16.19-.15.18-.15.18-.16.18-.15.18-.16.18-.16.17-.16.18-.17.18-.16.17-.16.18-.17.17-.17.17-.16.17-.17.17-.17.17-.17.17-.18.17-.17.16-.18.17-.17.16-.18.16-.18.17-.18.16-.18.16-.18.16-.19.15-.18.16-.19.16-.19.15-.18.15-.2.15-.18.16-.2.14-.19.15-.2.15-.19.15-.2.14-.19.15-.2.14-.2.14-.2.14-.2.14-.2.14-.2.13-.2.14-.2.13-.22.13-.2.13-.21.13-.2.13-.22.13-.2.12-.22.13-.21.12-.22.12-.21.12-.22.12-.21.12-.22.12-.22.11-.22.12-.22.1-.22.12-.22.1-.22.11-.22.11-.23.1-.22.1-.23.11-.22.1-.23.1-.23.1-.22.1-.23.09-.23.1-.23.08-.23.1-.24.08-.23.09-.23.08-.23.09-.24.08-.23.08-.24.08-.23.08-.24.07-.24.08-.24.07-.23.07-.24.07-.24.07-.24.06-.24.07-.24.06-.25.06-.24.06-.24.06-.24.06-.24.05-.25.06-.24.05-.25.05-.24.05-.25.05-.24.04-.25.04-.24.05-.25.04-.25.03-.24.04-.25.04-.25.03-.25.03-.24.03-.25.03-.25.03-.25.02-.25.03-.25.02-.24.02-.25.02-.25.01-.25.02-.25.01-.25.02h-.25l-.25.01-.25.01h-.5l-.25.01h-.75l-.25-.01h-.25l-.25-.02h-.25l-.25-.02-.25-.01-.25-.02-.25-.02-.25-.01-.25-.02-.25-.03-.24-.02-.25-.02-.25-.03-.25-.03-.25-.03-.25-.03-.24-.04-.25-.03-.25-.04-.24-.04-.25-.04-.25-.04-.24-.05-.25-.04-.24-.05-.25-.05-.24-.05-.24-.05-.25-.05-.24-.06-.24-.06-.25-.05-.24-.06-.24-.07-.24-.06-.24-.06-.24-.07-.24-.07-.24-.07-.24-.07-.23-.07-.24-.08-.24-.07-.23-.08-.24-.08-.23-.08-.24-.08-.23-.09-.23-.08-.24-.1-.23-.08-.23-.09-.23-.1-.23-.08-.23-.1-.22-.1-.23-.1-.23-.1-.22-.1-.23-.1-.22-.1-.23-.1-.22-.11-.22-.1-.22-.12-.22-.1-.22-.12-.22-.11-.22-.12-.22-.11-.21-.12-.22-.12-.21-.12-.21-.12-.22-.13-.2-.12-.22-.13-.2-.13-.22-.12-.2-.13-.21-.13-.2-.14-.21-.13-.2-.14-.21-.13-.2-.14-.2-.14-.2-.14-.2-.14-.2-.14-.2-.15-.2-.14-.19-.15-.19-.15-.2-.14-.18-.15-.2-.16-.18-.15-.19-.15-.19-.16-.18-.15-.19-.16-.18-.16-.18-.15-.18-.16-.18-.17-.18-.16-.18-.16-.18-.16-.17-.17-.18-.17-.17-.16-.17-.17-.17-.17-.17-.17-.17-.17-.16-.17-.17-.18-.16-.17-.17-.18-.16-.17-.16-.18-.16-.18-.16-.18-.15-.17-.16-.18-.15-.19-.16-.18-.15-.18-.15-.18-.15-.19-.14-.18-.15-.19-.15-.19-.14-.18-.14-.2-.14-.18-.14-.2-.14-.18-.14-.2-.13-.18-.14-.2-.13-.2-.13-.18-.13-.2-.13-.2-.13-.19-.13-.2-.12-.2-.13-.2-.12-.19-.12-.2-.12-.2-.12-.2-.11-.2-.12-.2-.11-.2-.12-.2-.1-.2-.12-.2-.1-.21-.11-.2-.11-.21-.1-.2-.1-.21-.11-.2-.1-.21-.1-.2-.1-.21-.1-.21-.09-.21-.1-.2-.09-.22-.09-.2-.09-.21-.08-.21-.1-.21-.08-.21-.08-.21-.08-.21-.08-.21-.08-.21-.08-.21-.08-.22-.08-.2-.07-.22-.07-.21-.08-.21-.07-.22-.07-.2-.06-.22-.07-.21-.06-.22-.07-.2-.06-.22-.06-.21-.06-.22-.06-.21-.06-.21-.05-.22-.06-.21-.05-.21-.05-.22-.05-.21-.05-.22-.05-.2-.05-.22-.04-.22-.05-.21-.04-.21-.04-.22-.04-.21-.04-.21-.04-.22-.03-.2-.04-.22-.03-.22-.04-.2-.03-.22-.03-.21-.03-.22-.02-.2-.03-.22-.03-.21-.02-.21-.02-.22-.02-.2-.02-.22-.02-.21-.02-.21-.02-.21-.01-.21-.02-.21-.01-.21-.01-.21-.02-.21v-.21l-.01-.2-.01-.22v-.2l-.01-.21V64.03l-.01-.22V62.8l.01-.21v-.2l.01-.21.01-.2.01-.2.01-.21.01-.2.01-.2.02-.21.01-.2.02-.2.01-.2.02-.2.02-.2.02-.2.02-.2.02-.2.02-.2.02-.2.03-.2.02-.2.03-.19.03-.2.02-.19.03-.2.03-.19.03-.2.03-.19.04-.19.03-.2.03-.18.04-.2.03-.19.04-.19.04-.19.04-.19.03-.19.04-.18.05-.2.04-.18.04-.19.04-.18.05-.19.04-.18.05-.19.04-.18.05-.19.05-.18.05-.18.05-.18.05-.18.05-.19.05-.18.05-.17.05-.18.06-.18.05-.18.06-.18.05-.17.06-.18.06-.18.05-.17.06-.18.06-.17.06-.17.06-.18.06-.17.06-.17.07-.17.06-.17.06-.17.06-.17.07-.17.06-.17.07-.16.07-.17.06-.17.07-.16.07-.17.07-.16.07-.17.06-.16.07-.16.07-.17.08-.16.07-.16.07-.16.07-.16.07-.16.08-.16.07-.15.08-.16.07-.16.08-.16.07-.15.08-.16.07-.15.08-.16.08-.15.08-.15.07-.16.08-.15.08-.15.08-.15.08-.15.08-.15.08-.15.08-.15.08-.15.09-.14.08-.15.08-.15.08-.14.09-.15.08-.14.08-.15.09-.14.08-.14.09-.15.08-.14.09-.14.08-.14.09-.14.09-.14.08-.14.09-.14.09-.14.08-.14.1-.13.08-.14.09-.14.09-.13.08-.14.1-.13.08-.14.1-.13.08-.14.1-.13.08-.13.1-.14.08-.13.1-.13.09-.13.09-.13.09-.13.1-.13.08-.13.1-.13.09-.13.1-.12.09-.13.09-.13.1-.13.09-.12.09-.13.1-.12.09-.13.1-.12.09-.13.1-.12.09-.12.1-.13.09-.12.1-.12.1-.12.09-.12.1-.12.09-.13.1-.12.1-.12.09-.12.1-.11.1-.12.1-.12.09-.12.1-.12.1-.12.1-.11.1-.12.1-.12.09-.11.1-.12.1-.11.1-.12.1-.11.1-.12.1-.11.1-.12.1-.11.1-.11.1-.12.1-.11.1-.11.1-.11.1-.12.1-.1.1-.12.1-.11.11-.11.1-.11.1-.11.1-.11.11-.11.1-.11.1-.11.1-.11.11-.11.1-.1.11-.12.1-.1.1-.11.11-.11.1-.1.11-.12.1-.1.11-.1.11-.12.1-.1.11-.1.1-.11.11-.11.11-.1.1-.11.12-.1.1-.11.11-.1.1-.1.12-.11.1-.1.11-.11.11-.1.11-.1.11-.11.1-.1.12-.1.1-.11.12-.1.11-.1.11-.1.11-.1.11-.11.11-.1.12-.1.1-.1.12-.1.11-.1.12-.1.11-.1.11-.1.12-.1.11-.1.12-.1.11-.1.12-.1.11-.1.12-.1.11-.1.12-.1.12-.1.11-.1.12-.1.12-.1.12-.1.12-.1.11-.09.12-.1.12-.1.12-.09.12-.1.12-.1.12-.09.13-.1.12-.1.12-.09.12-.1.12-.09.13-.1.12-.09.13-.1.12-.09.12-.1.13-.09.13-.1.12-.09.13-.09.12-.1.13-.09.13-.09.13-.1.13-.08.13-.1.12-.09.13-.09.14-.1.13-.08.13-.1.13-.09.13-.09.13-.09.14-.09.13-.09.13-.09.14-.09.13-.08.14-.1.14-.08.13-.1.14-.08.14-.09.13-.08.14-.1.14-.08.14-.09.14-.08.14-.09.14-.08.14-.09.15-.08.14-.09.14-.08.14-.09.15-.08.14-.09.15-.08.14-.08.15-.08.15-.09.14-.08.15-.08.15-.08.15-.08.15-.08.15-.08.15-.08.15-.08.15-.08.15-.08.16-.07.15-.08.16-.08.15-.08.15-.07.16-.08.16-.07.15-.08.16-.07.16-.08.16-.07.16-.07.16-.08.16-.07.16-.07.16-.07.16-.07.16-.07.17-.07.16-.07.16-.07.17-.07.17-.06.16-.07.17-.07.17-.06.16-.07.17-.06.17-.07.17-.06.17-.06.17-.07.17-.06.17-.06.18-.06.17-.06.17-.06.18-.06.17-.05.18-.06.17-.06.18-.05.18-.06.18-.05.17-.06.18-.05.18-.05.18-.06.18-.05.18-.05.19-.05.18-.05.18-.04.18-.05.19-.05.18-.04.19-.05.18-.04.19-.05.19-.04.18-.04.2-.04.18-.04.19-.04.19-.04.19-.04.19-.03.19-.04.19-.04.2-.03.18-.03.2-.04.19-.03.2-.03.19-.03.2-.03.19-.03.2-.02.2-.03.19-.02.2-.03.2-.02.19-.02.2-.03.2-.02.2-.02.2-.01.2-.02.2-.02.2-.01.2-.02.2-.01.2-.01.2-.02h.21l.2-.02h.2l.21-.01h.2l.21-.01H63.12l.2-.01h1.04l.21.01h.21l.2.01.22.01.2.01.22.01.2.01.22.02.2.01.22.02.2.01.22.02.2.02.22.02.21.02.21.02.21.03.22.02.2.03.22.02.21.03.22.03.2.03.22.03.21.04.22.03.21.04.21.04.22.03.21.04.21.05.22.04.21.04.21.05.22.04.21.05.21.05.22.05.21.05.22.05.2.06.22.05.22.06.2.06.22.06.22.06.2.06.22.06.21.07.22.06.2.07.22.07.21.07.22.07.2.07.22.08.21.07.21.08.21.08.21.08.22.08.2.08.22.08.2.09.22.09.2.08.21.1.21.08.21.1.2.09.22.1.2.09.21.1.2.1.21.1.2.1.21.1.21.1.2.1.2.12.21.1.2.11.2.11.21.12.2.11.2.12.2.11.2.12.2.12.2.12.2.12.2.12.2.13.2.13.19.12.2.13.19.13.2.13.19.14.19.13.2.13.18.14.2.14.18.14.2.14.18.14.19.14.19.15.18.15.19.14.18.15.19.15.18.15.18.15.18.16.18.15.18.16.18.16.18.16.18.16.17.16.18.16.17.16.18.17.17.17.17.16.17.17.17.17.17.17.17.17.16.18.17.17.16.18.17.18.16.17.16.18.16.19.16.18.16.18.16.18.15.19.16.19.15.18.15.2.15.18.15.2.15.18.15.2.15.2.14.19.15.2.14.2.14.19.14.2.14.2.14.2.14.2.13.2.14.21.13.2.13.21.13.21.13.2.13.22.13.2.12.22.12.21.13.21.12.22.12.21.12.22.11.22.12.21.11.22.11.22.12.22.1.22.11.22.11.23.1.22.11.22.1.23.1.22.1.23.1.23.1.23.1.22.09.23.09.23.09.23.09.23.09.24.08.23.09.23.08.24.08.23.08.24.08.23.08.24.07.24.07.23.08.24.07.24.07.24.06.24.07.24.06.24.06.24.07.24.05.24.06.25.06.24.05.24.05.25.06.24.05.24.04.25.05.24.04.25.05.25.04.24.04.25.03.24.04.25.04.25.03.25.03.24.03.25.03.25.02.25.03.25.02.25.02.25.02.24.02.25.01.25.02.25.01.25.01.25.01.25v.25l.01.25v.5l.01.23Z" stroke-width="2" fill="none" /></svg>
