<svg version="1.0" xmlns="http://www.w3.org/2000/svg" width="933.33" height="933.33" viewBox="0 0 700 700"><path d="M330.8.5c-.1.2-3.4.6-7.3.9-3.8.3-8.1.8-9.5 1-1.4.3-4.3.7-6.5 1.1C283.9 7 252.9 17.4 229 29.9c-37.6 19.6-72.1 50.7-95.2 85.6-7 10.5-7.7 11.3-17.1 17.5a260.8 260.8 0 0 0-73.4 73.5c-5.5 8.4-7.6 11.9-14.7 24.9-9 16.4-20.4 49.5-24.1 70.1-1.5 8.5-2.6 16-3.2 22.6-1 9.4-1 44.5 0 52.4L2.6 387c1.1 9.6 6.4 32.1 10.2 43.6 8.8 26.6 21.8 51.8 38.4 74.3 3.9 5.3 7.4 9.8 7.7 10.1.3.3 2.1 2.3 4 4.5 14.5 17.2 35 35.2 53.9 47.5 8.2 5.4 10.5 7.4 13.3 12 3.3 5.4 18.4 25.8 23.4 31.5 5.8 6.7 17.8 18.6 24.2 24.1 3.7 3.3 7 6.1 7.3 6.4 3.4 3.4 19.2 14.6 30.1 21.3 18.6 11.4 48.6 24.2 68.8 29.3 4.3 1.1 25.1 5.3 28.6 5.8 21.1 3 60.6 2.8 77.6-.4 3-.6 6.8-1.3 8.4-1.6 34-5.7 72.9-22.5 104-44.8 14.2-10.1 35.6-29.9 45.1-41.6 1.6-1.9 3.1-3.7 3.5-4 1.4-1.2 14.4-19 18.1-24.9 3.7-5.8 5.5-7.5 15.4-14.1 46.8-31 83.4-78.5 101.2-131.5 5.2-15.5 10.6-37.4 11.7-48.2.3-2.6.9-8 1.4-11.8.9-7.2.7-46.2-.3-52.5-.3-1.9-.8-5.8-1.2-8.5-.3-2.8-1.7-10.2-3-16.5-1.4-6.3-2.7-12.5-2.9-13.6-1.2-5.7-8-24.9-12.5-35.5a270.8 270.8 0 0 0-34.8-58.9c-9.3-11.9-33.8-36.2-45.7-45-5.5-4.1-10.2-7.8-10.5-8.1-.3-.3-3.6-2.5-7.5-4.9-6.3-3.9-7.7-5.4-14.7-15.9-36-54-92.2-93-156.2-108.1-6.7-1.6-15.7-3.3-20.1-4-4.4-.6-9.3-1.3-11-1.6-3.3-.6-47.1-1.4-47.7-.9zm36.8 14c5.5.3 11.1.7 12.5 1 21.3 3.4 18.2 2.8 30.4 5.9 43.3 11 81 32.4 112.8 63.9 9.9 9.8 23.7 25.6 23.7 27.1 0 .3-3-.8-6.6-2.4-6.1-2.8-25.2-9.6-29.2-10.5-.9-.2-6-1.5-11.3-2.9-5.3-1.3-11.6-2.8-14-3.1-2.4-.4-4.6-.8-4.9-1-.3-.1-3.2-.6-6.5-.9-3.3-.4-8-1-10.5-1.4-2.5-.4-15.5-.7-29-.7-23.5.1-26.2.3-48.5 4-6.4 1-22.2 4.8-28.5 6.8l-7.5 2.3-9.9-2.8c-13.1-3.7-30.7-7.3-43.1-9-11.1-1.4-52.3-1.8-62.5-.5-29 3.6-45.8 8-80.5 21.3-3.1 1.2 9.8-14 22.8-26.9 26.2-25.9 58.6-46 93.5-57.8 10.7-3.7 29.3-8.4 38.7-9.8 3.9-.6 8.6-1.3 10.5-1.6 1.9-.3 8.9-.8 15.5-1.1 6.6-.4 12.1-.7 12.2-.8.2-.2 8.8.2 19.9.9zm-84.1 88.9c5 .4 11.9 1.1 15.5 1.6 3.6.6 8.4 1.3 10.7 1.6 2.3.3 7.3 1.4 11 2.4l6.8 1.8-4 1.7c-30.5 13.1-61.9 32.8-91 57C210.3 188 179.7 219 165 238c-1.9 2.5-3.7 4.7-4 5-2.7 2.5-20.4 27.9-28 40.4-4.9 8.1-15.3 28.2-19.5 37.6l-2.9 6.5-1.8-7.5c-1-4.1-2.5-12.7-3.3-19-.9-6.3-1.8-13.3-2.1-15.5-.7-5-.7-39 0-43l1.1-9c2.6-26.9 12.9-60.3 26.8-86.9l5.2-9.9 8-4.3c19.3-10.5 49.3-21.4 68.5-24.8 1.9-.3 4.6-.8 6-1.1 2.3-.5 6.5-1.1 13.2-2.1 1.8-.2 8.3-.7 14.3-1 6.1-.4 11.1-.7 11.2-.8.4-.3 16.6.2 25.8.8zm171.8.1c5.3.3 10.3.7 11 1 .6.2 3.8.6 6.9.9 21.9 2.1 61.4 15.2 84.1 28l6.8 3.7 7.4 15.2c12.5 25.8 21.1 54.7 24 80.7.4 3 .8 7.1 1.1 9 .6 4.6.7 39.7.1 43.5-.3 1.6-.8 5.7-1.2 9-1 8.8-1.5 12.2-3.2 20-.8 3.8-1.7 8.1-1.9 9.5-.8 3.7-1.2 3.7-3-.6-10.4-25-28.5-55.2-48.5-80.8-21.9-28.1-54.5-60.3-85.9-84.7-22.2-17.3-56.3-37.4-77.8-46.1l-2.7-1.1 3-.8c1.7-.5 4.7-1.1 6.9-1.4 2.1-.4 4.8-1 6-1.4 1.1-.5 2.4-.9 2.9-.9 1.6 0 13.3-1.5 15.2-1.8 1.1-.3 7.4-.7 14-1 6.6-.4 12.1-.7 12.2-.8.3-.3 11.6.2 22.6.9zm-97.2 16.6c9.2 3.3 10.1 3.7 24.2 10.2 27.2 12.7 61.1 35.6 88.2 59.8 12.5 11.1 36.9 36.2 47 48.4 2.8 3.3 5.3 6.2 5.6 6.5 1.3 1.1 19.6 25.8 22.9 31 1.9 3 3.8 5.6 4.2 5.8.5.2.8.7.8 1.1 0 .4 2.3 4.6 5.1 9.2 6.4 10.6 13.5 24.7 18.6 36.9 4 9.4 5.5 13 5.8 14 .1.3.4 1.2.7 2 .4.8.9 2.3 1.2 3.3 1.4 4.3-15 40.9-27.9 62.2-15.9 26.4-37.3 53.2-63 79-9.3 9.4-18.6 18.4-20.5 20-21.5 18.4-33.7 27.8-50.5 38.8-19.3 12.6-44.3 25.2-62.8 31.8l-7.9 2.8-7.6-2.9c-34.5-12.8-65.6-31.2-98.1-57.8-14.2-11.6-16.8-14.1-34.6-31.7-33.8-33.6-57.3-65-75.5-101-8.4-16.6-16.3-35.6-16.3-39.5 0-3.4 9.2-25.9 15.8-38.9 17.8-34.8 41.6-66.9 73.5-99.2 37.3-37.8 76.9-66.5 116-84 8.7-3.9 22.8-9.6 26.7-10.8.1-.1 3.9 1.3 8.4 3zm-247 36.6c-5.2 10.5-16.1 45.5-17.5 56.7-.3 1.7-.7 4.3-1 5.6-.7 2.7-1.2 6.6-2.3 17.5-1 9-1 47-.1 55.7 1.7 14.8 5.8 35.7 9.5 48.1l2.7 8.8-1.8 6.7c-3.1 11.8-8.3 35.8-9 41.3-.4 3-1 7.9-1.4 10.9-.9 7.5-.9 47.8.1 56.5.7 6.9 1.1 9.7 2.3 16.5.3 1.9.8 4.8 1.1 6.5 1.9 11.9 9.4 36.3 16.6 54.2l2.5 6.3-8.6-7.3c-23.3-19.4-41.1-40.2-56-65.3-61.8-104.3-38.3-238 55.3-315.7 4.4-3.6 8.3-6.6 8.8-6.7.4 0-.1 1.7-1.2 3.7zM612 174c28.7 27.9 50 62.4 62.3 100.5 3.5 11 8.1 30.1 9.1 38.5.3 2.5.8 5.4 1 6.6.8 4.2 1.7 19.1 1.7 29.4.1 10.6-1 30-1.7 31.1-.1.3-.6 3-.9 6-1.3 11.9-9.5 43.2-14 53.4-.7 1.6-2.6 5.9-4.1 9.5-6.9 16.1-23 43.2-31.6 53.2-1.3 1.4-3.9 4.6-5.8 7-5.5 6.8-23.8 24.8-32.2 31.6-7.2 5.9-10.3 7.8-8 4.9 1.6-2 10.9-27.5 13.6-37.7 3.2-11.7 6.2-26.5 7.1-34.5.4-3.3 1-6.9 1.2-8 .9-3.8 1.2-49 .3-54.8-.4-3.1-1.1-8.7-1.5-12.4-.3-3.7-.8-6.9-1-7.2-.1-.3-.6-2.3-.9-4.3-1.4-9.2-7.8-34.3-9-35.5-.2-.2.5-3.2 1.5-6.6 2.1-6.7 5.8-21.6 6.5-25.7.2-1.4.6-3.4.9-4.6.7-3.2 2.5-16 3.3-23.9.9-9.2.9-46.2 0-54.5-1.3-11.4-4-26.6-7.3-40.8-1.3-5.4-6-19.6-10.1-29.9-2.4-6.1-4.4-11.4-4.4-11.8 0-1.1 14.8 11.6 24 20.5zM114.1 380c3.7 9.1 14.1 28.8 21.4 40.5 29.3 47.5 75.2 96.1 122.9 130 19.7 14 48.5 30.4 64.6 36.9l4.5 1.8-5 1.4c-2.7.7-6.3 1.6-8 1.8-14.7 2.4-23.3 3.6-30.5 4.2-9.9.8-35.4.7-42-.1-2.5-.3-6.7-.8-9.5-1.1-4.3-.4-10.1-1.3-19.5-3.1-19.1-3.4-46.3-13.1-65.5-23.2l-11-5.7-4.2-8c-14.2-26.5-24.7-59.9-27.8-88.4-.3-3-.8-7.3-1-9.5-.6-5.1-.7-40.3-.2-43 .3-1.1.8-5.2 1.2-9 .3-3.9 1.7-12.5 3.1-19.2 1.3-6.8 2.4-12.6 2.4-13 0-1.6 1.9 1.6 4.1 6.7zm479.4 10.4c4.9 35.1 5.1 60.1.4 87.4A252.6 252.6 0 0 1 581 526c-1.1 3-2.6 6.8-3.2 8.5-.6 1.6-4.1 8.8-7.7 15.9l-6.6 12.9-8 4.3c-19.3 10.5-48.1 20.9-68.5 24.9-31.2 6-62.9 6.3-95.5.9-4.9-.8-11.2-2.1-14-2.8-4.8-1.3-4.9-1.4-2.5-2.4 25.2-10.1 65.1-34.6 88.1-54 17.9-15 23.9-20.5 35.1-31.7 30.3-30.1 50.7-55.9 70.3-88.6 5.2-8.7 16.8-31.3 19.6-38.4 1.2-3 1.2-3 3 3.9 1 3.9 2 8.8 2.4 11zM169.2 593.9c19.5 7.3 42.6 13 63.3 15.7 7.7 1 52.4 1.3 58 .4 2.8-.4 7.5-1.1 10.5-1.4 8.6-1 29.6-5.4 39.7-8.3l9.2-2.6 11.8 3.1c11.5 3.1 23.3 5.8 30.3 6.8 1.9.3 4.6.7 5.9.9 9 1.5 17.3 1.9 37.6 2 25.9 0 35.9-.9 56-5 15.7-3.2 41.8-11.6 51.8-16.6 2-1.1 3.7-1.7 3.7-1.5 0 1.6-14.2 18-24.1 27.8-41.2 40.7-95.5 65.5-153.9 70.4-6.6.5-32.5.5-37.5 0-2.7-.3-7.5-.9-10.5-1.2-18.6-1.9-40.9-7.4-59.5-14.7a247.28 247.28 0 0 1-102.6-74.4c-5.6-6.8-7.4-9.8-4.6-7.5.6.5 7.4 3.3 14.9 6.1z"/></svg>
