<?xml version="1.0" standalone="no"?>
<!DOCTYPE svg PUBLIC "-//W3C//DTD SVG 20010904//EN"
 "http://www.w3.org/TR/2001/REC-SVG-20010904/DTD/svg10.dtd">
<svg version="1.0" xmlns="http://www.w3.org/2000/svg"
 width="1827.000000pt" height="1827.000000pt" viewBox="0 0 1827.000000 1827.000000"
 preserveAspectRatio="xMidYMid meet">
<metadata>
Created by potrace 1.14, written by Peter Selinger 2001-2017
</metadata>
<g transform="translate(0.000000,1827.000000) scale(0.100000,-0.100000)"
fill="#000000" stroke="none">
<path d="M9009 18220 c-8 -4 -48 -10 -89 -14 -41 -3 -104 -13 -140 -22 -36 -8
-72 -17 -80 -19 -274 -66 -577 -219 -806 -406 -383 -312 -625 -735 -719 -1254
-31 -171 -27 -480 9 -680 97 -544 348 -961 776 -1288 65 -51 217 -142 327
-198 130 -67 282 -122 415 -152 74 -16 83 -11 73 42 -2 13 -7 49 -10 80 -4 31
-8 67 -11 81 -2 14 -11 77 -19 140 -8 63 -17 125 -19 137 -3 12 -7 46 -10 75
-14 121 -15 123 -132 183 -165 84 -342 225 -454 360 -141 172 -265 447 -295
650 -3 23 -8 52 -11 65 -7 34 -8 288 -1 325 3 17 9 49 12 73 19 132 95 344
167 467 144 244 346 433 597 559 84 43 279 109 351 121 136 21 296 26 410 13
226 -25 484 -121 672 -250 357 -243 575 -680 578 -1158 3 -374 -124 -674 -405
-955 -115 -115 -202 -186 -283 -230 -20 -12 -48 -27 -62 -35 -14 -8 -77 -35
-140 -60 -92 -37 -119 -52 -136 -77 -48 -71 -114 -594 -79 -623 35 -29 341 64
550 165 426 208 774 560 973 985 61 132 124 315 148 435 10 49 24 134 29 175
3 25 8 61 10 80 11 75 5 374 -9 455 -3 22 -8 56 -10 75 -3 19 -9 55 -15 80 -5
25 -12 59 -15 76 -23 129 -119 374 -218 554 -145 266 -431 550 -713 711 -165
93 -448 202 -580 222 -16 3 -41 7 -55 11 -14 3 -53 7 -87 10 -34 3 -70 9 -80
14 -22 11 -394 13 -414 2z"/>
<path d="M9088 16865 c-2 -1 -21 -5 -43 -8 -56 -8 -177 -53 -238 -89 -271
-159 -418 -455 -374 -755 15 -98 42 -180 109 -323 64 -135 97 -219 141 -355
48 -151 101 -379 122 -525 2 -14 6 -38 9 -55 8 -47 31 -229 40 -320 3 -27 8
-75 11 -105 3 -30 8 -75 10 -100 3 -25 9 -83 13 -130 9 -89 8 -273 -3 -595 -3
-104 -8 -255 -10 -335 -11 -355 -24 -643 -31 -649 -6 -6 -24 -9 -114 -16 -41
-4 -77 -8 -80 -10 -3 -1 -32 -6 -65 -10 -33 -3 -78 -10 -100 -15 -22 -5 -58
-11 -80 -14 -185 -28 -639 -166 -836 -254 -24 -11 -73 -32 -109 -48 -183 -80
-458 -234 -645 -362 -451 -310 -853 -716 -1151 -1163 -36 -55 -70 -99 -76 -99
-47 0 -478 425 -531 525 -17 31 -17 37 -2 101 9 38 18 85 21 104 3 19 8 37 9
41 6 9 17 180 17 260 0 405 -165 816 -441 1104 -217 226 -451 366 -756 454
-38 11 -86 22 -105 25 -19 3 -46 8 -60 11 -120 25 -418 25 -550 0 -583 -111
-1058 -515 -1246 -1060 -66 -190 -93 -368 -88 -580 1 -77 5 -149 7 -160 2 -11
8 -42 11 -70 34 -239 146 -504 302 -711 107 -142 308 -325 444 -403 105 -61
145 -82 220 -113 302 -129 653 -167 952 -102 40 8 83 17 95 20 60 12 238 81
328 128 159 83 260 155 393 280 l63 60 102 -23 c110 -25 300 -85 400 -127 70
-30 227 -105 227 -109 0 -2 -24 -54 -54 -116 -117 -248 -243 -603 -291 -824
-3 -11 -11 -47 -19 -80 -8 -33 -17 -73 -20 -90 -2 -16 -9 -55 -15 -85 -6 -30
-13 -73 -16 -95 -2 -22 -7 -51 -10 -64 -2 -13 -7 -49 -10 -80 -3 -31 -8 -69
-10 -86 -27 -199 -27 -672 0 -910 7 -68 17 -142 20 -165 14 -86 26 -158 30
-180 45 -229 82 -370 156 -593 43 -130 126 -339 182 -457 20 -41 33 -78 29
-81 -4 -3 -52 -39 -107 -80 -55 -41 -102 -76 -105 -79 -3 -3 -27 -21 -55 -40
-27 -19 -54 -38 -60 -43 -8 -7 -198 -143 -319 -229 -175 -125 -631 -432 -731
-493 -176 -107 -353 -187 -560 -255 -117 -38 -324 -90 -415 -105 -19 -3 -46
-7 -60 -10 -14 -2 -45 -7 -70 -10 -25 -3 -56 -8 -70 -10 -14 -2 -54 -7 -90
-10 -36 -3 -85 -8 -110 -10 -25 -2 -88 -7 -140 -11 -52 -3 -104 -8 -115 -10
-10 -2 -36 -6 -57 -9 -128 -19 -288 -109 -391 -219 -86 -91 -155 -221 -183
-343 -21 -89 -21 -249 0 -338 67 -286 240 -476 501 -553 107 -32 122 -34 241
-37 285 -6 478 113 680 419 48 72 90 133 93 136 3 3 17 21 30 40 81 116 288
336 456 484 83 74 346 286 410 331 15 11 35 27 44 35 39 36 296 220 307 220 4
0 22 11 40 25 18 14 35 25 38 25 4 0 106 57 229 127 122 69 240 136 262 149
22 12 175 99 340 193 263 150 301 168 309 153 5 -9 13 -21 18 -27 4 -5 40 -53
79 -105 276 -367 643 -716 1014 -964 504 -337 987 -537 1599 -662 71 -15 246
-39 346 -49 91 -9 99 -12 95 -38 -2 -12 -6 -47 -9 -77 -11 -101 -28 -187 -68
-345 -16 -66 -32 -129 -34 -139 -18 -91 -44 -117 -160 -160 -386 -144 -700
-431 -882 -806 -87 -179 -138 -357 -161 -565 -9 -74 -6 -333 3 -375 3 -13 8
-42 11 -65 22 -148 112 -388 208 -550 79 -135 275 -352 402 -447 151 -113 319
-203 482 -257 77 -26 174 -51 195 -52 4 0 22 -5 40 -10 46 -13 175 -23 288
-23 267 1 472 49 715 170 346 171 611 449 767 804 131 296 168 642 103 950 -3
14 -7 37 -10 51 -10 57 -58 207 -89 283 -141 340 -408 633 -736 809 -93 50
-239 106 -340 132 -36 9 -82 21 -102 26 -46 12 -60 36 -117 209 -54 166 -118
448 -102 451 3 1 42 2 86 4 92 2 276 15 302 19 10 2 49 7 86 11 37 3 76 8 86
10 10 2 36 6 57 10 83 13 100 16 129 22 17 3 37 7 45 9 8 1 47 9 85 18 39 9
81 19 95 22 197 42 564 174 814 293 176 84 500 272 591 344 6 4 69 51 140 104
72 53 132 99 135 103 3 3 41 37 85 75 105 89 333 316 415 412 36 42 75 88 87
102 29 34 122 151 138 174 12 18 19 16 112 -34 193 -103 359 -192 426 -230 38
-22 71 -39 73 -39 2 0 33 -18 69 -40 36 -22 67 -40 70 -40 2 0 45 -25 96 -55
50 -30 93 -55 94 -55 2 0 29 -15 62 -33 32 -19 108 -62 168 -97 199 -114 345
-212 486 -330 102 -84 307 -295 399 -410 108 -136 231 -319 326 -485 102 -179
145 -244 210 -314 134 -145 300 -219 504 -225 287 -8 522 115 673 351 141 220
155 489 40 736 -78 166 -213 291 -393 364 -82 34 -135 44 -377 78 -180 25
-505 116 -648 180 -16 8 -57 25 -90 38 -98 41 -188 83 -413 194 -341 168 -513
273 -922 564 -85 60 -184 130 -220 154 -91 62 -351 240 -377 259 l-23 17 59
117 c145 289 293 704 338 951 2 14 6 28 8 31 2 4 7 22 10 41 3 19 14 81 25
139 10 58 22 125 24 150 6 43 12 93 21 170 24 194 25 716 0 885 -2 17 -9 71
-15 120 -11 93 -19 142 -26 179 -5 24 -22 117 -30 161 -29 163 -155 576 -223
730 -5 11 -16 36 -24 55 -8 19 -29 67 -46 107 -17 39 -31 73 -31 76 0 8 177
86 275 119 55 20 147 47 205 62 58 15 115 31 126 36 40 16 109 21 136 11 14
-5 64 -38 110 -73 229 -176 412 -263 667 -318 170 -37 427 -44 571 -15 13 2
42 7 65 10 162 23 414 123 578 229 163 104 272 204 408 373 133 164 270 463
305 663 3 14 7 32 9 40 27 99 27 451 0 595 -32 164 -116 394 -188 510 -187
302 -390 491 -692 647 -89 46 -290 117 -380 134 -22 4 -42 8 -45 9 -3 1 -32 5
-65 9 -33 4 -71 10 -85 12 -32 6 -267 6 -300 0 -14 -3 -47 -7 -75 -11 -450
-55 -926 -370 -1166 -770 -108 -179 -193 -434 -215 -640 -3 -27 -7 -56 -10
-64 -6 -17 -6 -256 0 -299 3 -18 8 -52 11 -75 8 -57 32 -162 50 -217 28 -91
26 -130 -10 -166 -6 -6 -33 -39 -60 -73 -68 -84 -266 -275 -351 -339 -68 -52
-69 -52 -79 -30 -15 36 -160 253 -239 358 -398 534 -921 972 -1516 1271 -265
133 -499 223 -777 299 -123 34 -182 48 -318 76 -35 7 -129 23 -171 29 -23 3
-59 8 -80 11 -65 9 -85 11 -189 19 -55 4 -101 8 -102 9 -2 2 -12 92 -18 171
-3 39 -7 93 -10 120 -3 28 -7 86 -10 130 -3 44 -8 105 -10 135 -2 30 -7 111
-10 180 -4 69 -8 141 -10 160 -2 19 -6 89 -10 155 -3 66 -8 156 -11 200 -9
146 -11 539 -2 635 33 376 150 746 378 1195 112 221 134 275 154 370 15 69 15
225 1 289 -60 278 -277 505 -554 577 -64 17 -271 35 -283 24z m-5478 -4260
c30 -4 63 -9 73 -11 9 -2 27 -6 39 -9 50 -11 157 -50 219 -80 204 -99 398
-291 490 -485 123 -260 142 -543 54 -805 -122 -363 -453 -648 -827 -711 -77
-14 -304 -12 -373 3 -225 47 -406 143 -560 298 -404 406 -415 1051 -25 1468
75 81 192 171 275 212 33 17 62 33 65 36 8 9 194 68 236 75 105 17 135 20 204
18 41 -1 100 -5 130 -9z m11476 -38 c10 -3 37 -8 58 -12 22 -3 80 -19 130 -36
355 -118 628 -427 702 -794 13 -62 16 -89 18 -180 10 -296 -102 -576 -314
-785 -155 -154 -365 -263 -575 -298 -53 -8 -277 -9 -336 0 -55 8 -157 35 -181
48 -10 6 -22 10 -28 10 -20 0 -129 56 -209 108 -158 103 -296 264 -380 442
-74 159 -96 267 -95 465 1 116 6 157 27 237 110 418 469 740 882 794 28 3 52
8 53 9 6 6 227 -2 248 -8z m-5736 -9882 c129 -22 292 -89 408 -168 243 -162
400 -403 457 -697 14 -74 15 -314 1 -370 -3 -14 -8 -38 -12 -55 -23 -113 -98
-277 -174 -381 -59 -81 -182 -201 -259 -253 -125 -85 -312 -160 -446 -179 -92
-13 -296 -7 -373 11 -207 49 -378 140 -519 278 -211 205 -324 467 -326 754 -1
141 5 185 39 302 98 340 353 603 699 721 61 20 93 27 175 38 25 4 47 8 49 10
6 6 239 -4 281 -11z"/>
<path d="M2308 6125 c-2 -1 -39 -5 -83 -9 -261 -20 -494 -84 -730 -201 -140
-69 -215 -116 -340 -210 -87 -65 -273 -245 -352 -340 -153 -184 -280 -411
-354 -637 -43 -129 -42 -129 -69 -280 -10 -59 -24 -116 -29 -127 -14 -25 -15
-393 -2 -406 6 -6 12 -25 15 -42 8 -47 15 -85 20 -108 7 -36 18 -105 17 -110
0 -2 6 -23 14 -45 8 -22 14 -43 14 -45 0 -34 92 -271 144 -370 39 -75 137
-236 154 -253 7 -7 13 -17 13 -21 0 -4 8 -16 18 -27 9 -10 40 -47 67 -82 112
-140 323 -325 495 -433 95 -60 339 -179 395 -193 6 -1 35 -10 65 -20 75 -24
235 -63 290 -70 130 -18 169 -21 330 -21 156 0 247 6 337 21 297 50 562 154
796 312 143 96 185 130 318 262 247 244 408 505 514 833 30 92 50 182 80 357
11 62 14 403 4 480 -19 154 -86 431 -109 454 -13 13 -42 -4 -137 -82 -44 -37
-149 -123 -233 -191 -164 -133 -183 -158 -173 -226 9 -57 9 -270 1 -335 -47
-360 -210 -660 -493 -905 -16 -14 -69 -53 -118 -85 -590 -398 -1385 -287
-1843 258 -172 206 -285 458 -321 721 -14 98 -6 356 12 421 2 8 7 29 9 45 6
33 48 174 65 218 89 228 264 462 447 598 32 24 61 46 64 50 15 17 197 113 272
143 82 33 222 72 284 80 16 2 49 7 74 11 57 9 261 9 320 0 91 -13 107 -16 189
-36 171 -43 329 -119 491 -240 123 -91 131 -92 260 -43 246 94 450 202 450
237 0 18 -192 199 -299 281 -221 169 -461 287 -716 352 -66 17 -162 34 -275
49 -46 7 -356 15 -362 10z"/>
<path d="M15648 5985 c-2 -2 -28 -6 -58 -9 -118 -13 -148 -17 -230 -35 -235
-52 -445 -140 -648 -274 -162 -107 -348 -265 -339 -290 2 -7 78 -47 168 -89
90 -43 216 -102 279 -133 149 -71 172 -74 258 -28 297 160 461 207 727 206
262 0 470 -54 705 -185 130 -71 287 -207 397 -343 113 -139 240 -402 268 -553
2 -15 7 -38 10 -52 2 -14 7 -38 11 -55 3 -16 7 -95 9 -175 10 -538 -275 -1024
-745 -1267 -133 -69 -264 -115 -397 -139 -13 -2 -35 -7 -50 -10 -16 -3 -89 -7
-163 -9 -454 -10 -876 187 -1136 532 -81 107 -169 263 -214 378 -4 11 -12 32
-18 47 -15 36 -40 133 -48 183 -3 22 -9 60 -14 84 -8 46 -5 297 4 341 3 13 8
41 11 61 3 20 10 51 15 70 14 49 12 106 -5 143 -24 51 -254 253 -394 347 -88
59 -90 58 -129 -48 -143 -394 -164 -771 -67 -1188 124 -528 425 -952 900
-1265 248 -163 502 -264 795 -316 104 -19 392 -25 514 -11 220 24 489 103 693
203 389 191 689 500 899 924 63 129 136 316 150 385 2 11 8 40 14 65 23 109
26 128 29 185 1 33 7 62 12 63 13 5 12 409 -1 417 -5 3 -10 26 -10 50 0 24 -7
79 -16 122 -8 43 -17 89 -20 103 -22 108 -93 301 -166 445 -47 94 -175 296
-215 340 -10 11 -29 34 -41 50 -87 114 -312 312 -467 411 -230 148 -544 266
-790 299 -27 4 -61 9 -75 12 -28 5 -407 13 -412 8z"/>
</g>
</svg>
