<svg width="0" height="0" xmlns="http://www.w3.org/2000/svg">
<symbol id="logo" viewBox="0 0 102 102" fill="none"><path clip-rule="evenodd" d="M101 51v.75l-.01.25-.01.25-.01.25-.01.25-.01.25-.02.25-.02.25-.01.25-.02.25-.02.25-.03.24-.02.25-.03.25-.02.25-.03.25-.04.25-.03.24-.03.25-.04.25-.04.24-.04.25-.04.25-.04.24-.05.25-.04.24-.05.25-.05.24-.05.25-.05.24-.06.24-.05.25-.06.24-.06.24-.06.24-.06.24-.07.24-.06.24-.07.24-.07.24-.07.24-.07.24-.08.24-.07.23-.08.24-.08.23L99 63l-.08.23-.08.24-.09.23-.08.23-.09.24-.09.23-.09.23-.1.23-.09.23-.1.22-.09.23-.1.23-.1.23-.1.22-.1.23-.1.22-.1.22-.12.23-.1.22-.11.22-.12.22-.1.22-.12.22-.12.21-.12.22-.11.22-.12.21-.12.21-.13.22-.12.2-.13.22-.12.21-.13.2-.13.22-.13.2-.13.21-.14.2-.13.21-.14.2-.13.2-.14.2-.14.2-.14.2-.14.2-.15.2-.14.2-.15.2-.14.19-.15.2-.15.18-.15.2-.15.18-.15.2-.16.18-.15.19-.16.18-.16.19-.15.18-.16.18-.16.18-.17.18-.16.18-.16.18-.17.17-.16.18-.17.17-.17.17-.16.17-.17.17-.17.17-.18.17-.17.17-.17.16-.18.16-.17.17-.18.16-.18.16-.17.16-.18.15-.18.16-.18.16-.18.15-.19.15-.18.15-.18.15-.19.15-.18.15-.2.14-.18.15-.19.14-.18.14-.2.14-.18.14-.2.14-.19.14-.19.13-.2.14-.18.13-.2.13-.2.13-.19.13-.2.13-.2.12-.19.13-.2.12-.2.12-.2.12-.2.12-.2.12-.2.11-.2.12-.2.11-.2.12-.2.1-.2.12-.21.1-.2.11-.2.1-.21.11-.2.1-.21.1-.21.1-.2.1-.21.1-.21.1-.21.09-.2.1-.22.08-.2.1-.21.08-.21.1-.21.08-.21.08-.21.09-.21.08-.21.08-.21.08-.22.08-.2.07-.22.08-.21.07-.21.07-.21.08-.22.07-.21.06-.21.07-.21.07-.22.06-.21.07-.21.06-.22.06-.21.06-.21.06-.22.05-.21.06-.21.05-.22.05-.21.05-.21.06-.22.04-.21.05-.22.05-.2.04-.22.05-.22.04-.2.04-.22.04-.22.04-.2.03-.22.04-.21.03-.22.04-.21.03-.21.03-.22.03-.2.03-.22.03-.21.02-.21.03-.22.02-.2.02-.22.02-.21.02-.21.02-.21.02-.21.02-.21.01-.21.01-.21.02h-.21l-.21.02h-.21l-.2.02H64.55l-.21.01h-.21l-.2.01H62.7l-.21-.01-.2-.01h-.21l-.2-.02h-.2l-.21-.02h-.2l-.2-.02-.2-.01-.2-.02-.21-.01-.2-.02-.2-.02-.2-.02-.2-.02-.2-.02-.2-.02-.2-.02-.2-.02-.19-.03-.2-.02-.2-.03-.19-.03-.2-.03-.19-.02-.2-.03-.19-.04-.19-.03-.2-.03-.19-.03-.19-.04-.19-.03-.19-.04-.19-.04-.19-.03-.19-.04-.19-.04-.19-.04-.18-.04-.19-.05-.19-.04-.18-.04-.19-.05-.18-.04-.19-.05-.18-.04-.18-.05-.19-.05-.18-.05-.18-.05-.18-.05-.18-.05-.18-.05-.18-.05-.18-.06-.18-.05-.18-.06-.17-.05-.18-.06-.18-.05-.17-.06-.18-.06-.17-.06-.17-.06-.18-.06-.17-.06-.17-.06-.17-.06-.17-.06-.17-.07-.17-.06-.17-.06-.17-.07-.17-.06-.17-.07-.16-.07-.17-.06-.16-.07-.17-.07-.16-.07-.17-.07-.16-.06-.16-.08-.17-.07-.16-.07-.16-.07-.16-.07-.16-.07-.16-.08-.16-.07-.15-.07-.16-.08-.16-.07-.15-.08-.16-.07-.15-.08-.16-.08-.15-.07-.16-.08-.15-.08-.15-.08-.15-.08-.15-.08-.15-.08-.15-.08-.15-.08-.15-.08-.15-.08-.15-.08-.15-.08-.14-.08-.15-.09-.14-.08-.15-.08-.14-.09-.15-.08-.14-.08-.14-.09-.15-.08-.14-.09-.14-.08-.14-.09-.14-.09-.14-.08-.14-.09-.14-.09-.14-.08-.14-.1-.13-.08-.14-.09-.14-.09-.13-.08-.14-.1-.13-.08-.14-.1-.13-.08-.14-.1-.13-.08-.13-.1-.13-.08-.13-.1-.14-.09-.13-.09-.13-.09-.13-.1-.13-.08-.13-.1-.12-.09-.13-.09-.13-.1-.13-.09-.12-.09-.13-.1-.13-.09-.12-.1-.13-.09-.12-.09-.13-.1-.12-.09-.12-.1-.13-.09-.12-.1-.12-.1-.12-.09-.12-.1-.13-.09-.12-.1-.12-.1-.12-.09-.12-.1-.12-.1-.12-.09-.11-.1-.12-.1-.12-.1-.12-.1-.12-.09-.11-.1-.12-.1-.12-.1-.11-.1-.12-.1-.11-.1-.12-.1-.11-.1-.12-.1-.11-.1-.12-.1-.11-.1-.11-.1-.12-.1-.1-.1-.12-.1-.11-.1-.12-.1-.1-.1-.12-.1-.1-.1-.12-.1-.11-.1-.11-.1-.11-.11-.11-.1-.11-.1-.1-.11-.12-.1-.1-.1-.12-.11-.1-.1-.11-.11-.11-.1-.1-.1-.11-.11-.11-.1-.1-.11-.12-.11-.1-.1-.1-.11-.11-.1-.11-.11-.1-.11-.11-.1-.1-.11-.11-.11-.1-.1-.11-.12-.1-.1-.1-.11-.11-.11-.1-.11-.11-.1-.1-.12-.1-.1-.1-.12-.11-.1-.1-.12-.1-.1-.1-.12-.11-.1-.1-.12-.1-.11-.1-.11-.1-.12-.1-.1-.11-.12-.1-.11-.1-.12-.1-.11-.1-.11-.1-.12-.1-.11-.1-.12-.1-.11-.1-.12-.1-.11-.1-.12-.1-.11-.1-.12-.1-.12-.1-.12-.1-.11-.09-.12-.1-.12-.1-.12-.1-.12-.09-.12-.1-.12-.1-.12-.09-.12-.1-.12-.1-.12-.09-.12-.1-.12-.09-.12-.1-.13-.09-.12-.1-.12-.09-.13-.1-.12-.09-.12-.1-.13-.09-.12-.1-.13-.09-.13-.09-.12-.1-.13-.09-.13-.09-.13-.1-.12-.08-.13-.1-.13-.09-.13-.09-.13-.1-.13-.08-.13-.1-.13-.08-.14-.1-.13-.09-.13-.09-.13-.09-.14-.08-.13-.1-.14-.08-.13-.1-.14-.08-.13-.09-.14-.09-.14-.08-.14-.1-.13-.08-.14-.09-.14-.08-.14-.09-.14-.08-.14-.09-.14-.09-.14-.08-.15-.09-.14-.08-.14-.08-.15-.09-.14-.08-.15-.08-.14-.09-.15-.08-.14-.08-.15-.08-.15-.08-.15-.09-.15-.08-.14-.08-.15-.08-.15-.07-.16-.08-.15-.08-.15-.08-.15-.08-.15-.08-.16-.07-.15-.08-.16-.08-.15-.07-.16-.08-.15-.07-.16-.07-.16-.08-.16-.07-.16-.07-.16-.08-.16-.07-.16-.07-.16-.07-.16-.07-.16-.07-.16-.07-.17-.07-.16-.07-.17-.07-.16-.06-.17-.07-.16-.07-.17-.06-.17-.07-.17-.06-.17-.06-.16-.07-.17-.06-.17-.06-.18-.06-.17-.06-.17-.06-.17-.06-.18-.06-.17-.06-.17-.06-.18-.06-.18-.05-.17-.06-.18-.05-.18-.06-.17-.05-.18-.05-.18-.06-.18-.05-.18-.05-.18-.05-.18-.05-.19-.05-.18-.04-.18-.05-.18-.05-.19-.04-.18-.05-.19-.04-.18-.04-.2-.05-.18-.04-.19-.04-.18-.04-.2-.04-.18-.04-.19-.03-.19-.04-.2-.04-.18-.03-.2-.03-.19-.04-.19-.03-.2-.03-.18-.03-.2-.03-.2-.03-.19-.03-.2-.02-.19-.03-.2-.02-.2-.03-.19-.02-.2-.02-.2-.02-.2-.02-.2-.02-.2-.02-.2-.02-.2-.02-.2-.01-.2-.01-.2-.02-.2v-.2l-.02-.2-.01-.2v-.21l-.02-.2v-.21l-.01-.2V39l-.01-.21v-1.24l.01-.21.01-.21v-.21l.02-.2v-.22l.02-.2v-.22l.02-.2.02-.22.01-.2.02-.22.02-.2.02-.22.02-.21.02-.21.02-.21.03-.22.02-.2.03-.22.03-.21.02-.22.04-.2.03-.22.03-.21.03-.22.04-.21.04-.21.03-.22.04-.2.04-.22.04-.22.05-.21.04-.21.05-.22.04-.21.05-.21.05-.22.05-.21.05-.21.06-.22.05-.21.06-.21.05-.22.06-.21.06-.21.06-.22.07-.21.06-.21.07-.22.06-.2.07-.22.07-.21.07-.22.07-.2.08-.22.07-.21.08-.21.07-.21.08-.22.08-.2.08-.22.09-.2.08-.22.09-.2.08-.22.1-.2.08-.21.1-.21.09-.21.09-.2.1-.22.1-.2.09-.21.1-.2.1-.21.1-.2.1-.21.1-.2.11-.21.11-.2.11-.21.11-.2.11-.2.12-.2.11-.2.12-.21.11-.2.12-.2.12-.2.12-.2.13-.2.12-.2.12-.2.13-.19.13-.2.13-.19.13-.2.13-.19.13-.19.14-.2.13-.18.14-.2.14-.19.14-.19.14-.18.14-.2.15-.18.14-.19.15-.18.15-.19.15-.18.15-.19.15-.18.15-.18.16-.18.15-.18.16-.18.16-.18.16-.18.16-.17.16-.18.16-.17.17-.18.16-.17.17-.17.17-.17.17-.17.17-.17.17-.17.17-.17.17-.17.18-.16.18-.16.17-.17.18-.16.18-.16.18-.16.19-.16.18-.16.18-.15.19-.16.19-.15.19-.16.18-.15.2-.15.19-.15.19-.15.2-.14.19-.15.2-.15.19-.14.2-.14.2-.14.2-.14.2-.14.2-.14.2-.14.2-.13.21-.13.2-.14.21-.13.21-.13.21-.13.2-.12.22-.13.21-.12.21-.13.22-.12.21-.12.22-.12.21-.12.22-.11.22-.12.22-.11.22-.11.22-.11.22-.11.22-.11.22-.1.23-.11.22-.1.23-.1.22-.1.23-.1.23-.1.22-.1.23-.1.23-.09.23-.09.23-.09.24-.09.23-.08.23-.09.23-.08.24-.09.23-.08.24-.08.23-.07.24-.08.24-.07.24-.08.23-.07.24-.07.24-.07.24-.06.24-.07.24-.06.24-.06.25-.06.24-.06.24-.06.24-.05.25-.06.24-.05.25-.05.24-.05.25-.04.24-.05.25-.04.24-.04.25-.04.24-.04.25-.04.25-.04.25-.03.24-.03.25-.03.25-.03.25-.03.25-.02.25-.03.24-.02.25-.02.25-.02.25-.01.25-.02.25-.01.25-.01.25-.01.25-.01.25-.01h.5l.25-.01h.75l.25.01h.25l.25.02h.25l.25.02.25.01.25.02.25.01.25.02.25.02.25.02.24.03.25.02.25.03.25.03.25.03.24.03.25.04.25.03.25.04.24.04.25.04.24.04.25.04.25.05.24.05.25.04.24.05.24.06.25.05.24.06.24.05.24.06.25.06.24.06.24.07.24.06.24.07.24.07.24.07.23.07.24.07.24.07.24.08.23.08.24.08.23.08.24.08.23.08.23.09.23.09.24.09.23.09.23.09.23.09.23.1.22.1.23.09.23.1.22.1.23.1.22.1.23.1.22.11.22.11.22.11.22.11.22.11.22.12.22.11.22.12.21.12.22.12.21.12.22.12.2.12.22.13.21.12.21.13.2.13.22.13.2.13.2.13.21.13.2.14.21.14.2.13.2.14.2.14.2.14.2.15.2.14.2.15.19.14.19.15.2.15.18.15.2.15.18.15.2.15.18.16.18.15.19.16.18.16.18.16.19.16.18.16.17.16.18.16.18.17.17.16.18.17.17.17.17.16.17.17.17.17.17.17.17.18.16.17.17.17.16.18.16.17.16.18.16.18.16.18.16.18.15.18.16.18.15.18.15.18.15.19.15.18.15.19.14.18.15.19.14.19.15.18.14.2.14.18.13.2.14.18.14.2.13.19.14.2.13.19.13.19.13.2.13.2.12.19.13.2.12.2.12.2.12.19.12.2.12.2.12.2.11.2.12.2.11.2.11.2.11.2.11.21.11.2.1.21.11.2.1.21.1.2.1.21.1.2.1.22.1.2.1.21.09.2.1.22.08.2.1.21.08.21.09.21.08.21.09.21.08.21.08.21.08.21.08.21.08.22.07.2.08.22.07.21.07.21.07.22.07.2.07.22.07.21.06.22.07.2.06.22.06.21.06.22.06.21.06.21.05.22.06.21.05.22.05.2.05.22.05.22.05.2.05.22.04.22.05.21.04.21.04.22.04.21.04.21.04.22.03.21.04.21.03.22.03.2.04.22.03.21.03.22.02.2.03.22.03.21.02.21.02.22.02.2.02.22.02.21.02.21.02.21.01.21.02.21.01.21.01.21.01.21.01.21.01.2.01.22v.2l.01.21v.42l.01.2v1.03l-.01.21v.2l-.01.21-.01.2-.01.21-.01.2-.01.2-.01.2-.02.21-.01.2-.02.2-.01.2-.02.2-.02.2-.02.2-.02.2-.02.2-.02.2-.02.2-.03.2-.02.2-.03.19-.02.2-.03.2-.03.19-.03.19-.03.2-.03.19-.03.2-.04.18-.03.2-.04.19-.03.19-.04.19-.04.19-.03.19-.04.19-.04.19-.04.18-.05.2-.04.18-.04.18-.04.19-.05.18-.05.19-.04.18-.05.19-.05.18-.04.18-.05.18-.05.19-.05.18-.06.18-.05.18-.05.18-.06.17-.05.18-.05.18-.06.18-.06.17-.05.18-.06.17-.06.18-.06.17-.06.18-.06.17-.06.17-.06.17-.06.17-.06.17-.07.17-.06.17-.07.17-.06.17-.07.17-.06.16-.07.17-.07.17-.06.16-.07.17-.07.16-.07.16-.07.17-.07.16-.07.16-.07.16-.08.16-.07.16-.07.16-.07.16-.08.16-.07.16-.08.15-.07.16-.08.15-.07.16-.08.15-.08.16-.08.15-.07.16-.08.15-.08.15-.08.15-.08.15-.08.15-.08.15-.08.15-.08.15-.08.15-.08.15-.08.14-.09.15-.08.15-.08.14-.09.15-.08.14-.08.14-.09.15-.08.14-.09.14-.08.14-.09.14-.09.14-.08.15-.09.13-.08.14-.1.14-.08.14-.09.14-.09.14-.08.13-.1.14-.08.13-.09.14-.09.13-.09.14-.09.13-.09.13-.09.14-.09.13-.1.13-.08.13-.1.13-.08.13-.1.13-.09.13-.1.13-.08.13-.1.13-.09.13-.1.13-.09.12-.09.13-.1.13-.09.12-.09.13-.1.12-.09.13-.1.12-.09.12-.1.13-.09.12-.1.12-.1.12-.09.13-.1.12-.09.12-.1.12-.1.12-.09.12-.1.12-.1.12-.1.12-.09.12-.1.11-.1.12-.1.12-.09.12-.1.11-.1.12-.1.12-.1.11-.1.12-.1.11-.1.12-.1.11-.1.12-.1.11-.1.12-.1.1-.1.12-.1.11-.1.12-.1.1-.1.12-.1.11-.1.11-.1.12-.1.1-.1.12-.11.1-.1.12-.1.1-.1.12-.11.1-.1.12-.1.1-.11.11-.1.11-.11.11-.1.1-.1.12-.11.1-.1.11-.11.1-.1.11-.12.11-.1.1-.1.11-.11.1-.1.11-.12.11-.1.1-.11.11-.1.1-.12.11-.1.1-.11.1-.1.11-.12.1-.1.11-.12.1-.1.1-.11.11-.11.1-.11.1-.11.1-.11.11-.12.1-.1.1-.12.1-.11.1-.11.1-.11.11-.12.1-.1.1-.12.1-.12.1-.1.1-.12.1-.12.1-.11.1-.12.1-.11.1-.12.1-.11.1-.12.1-.12.1-.11.1-.12.1-.12.1-.11.1-.12.09-.12.1-.12.1-.12.1-.12.09-.12.1-.12.1-.12.09-.12.1-.12.1-.12.09-.12.1-.13.09-.12.1-.12.09-.13.1-.12.09-.12.1-.13.09-.12.1-.13.09-.13.1-.12.08-.13.1-.13.1-.12.08-.13.1-.13.09-.13.1-.13.08-.13.1-.13.09-.13.09-.13.09-.13.1-.14.08-.13.1-.13.08-.13.1-.14.08-.13.1-.14.08-.13.09-.14.09-.14.09-.13.08-.14.1-.14.08-.14.09-.13.08-.14.1-.14.08-.14.08-.15.09-.14.08-.14.09-.14.08-.14.09-.15.08-.14.09-.15.08-.14.08-.15.09-.14.08-.15.08-.15.08-.15.09-.14.08-.15.08-.15.08-.15.08-.15.08-.15.08-.16.07-.15.08-.15.08-.15.08-.16.08-.15.07-.16.08-.15.07-.16.08-.16.07-.15.08-.16.07-.16.08-.16.07-.16.07-.16.07-.16.08-.16.07-.16.07-.17.07-.16.07-.16.07-.17.07-.16.06-.17.07-.16.07-.17.06-.17.07-.17.07-.16.06-.17.06-.17.07-.17.06-.17.06-.18.06-.17.07-.17.06-.17.06-.18.06-.17.05-.18.06-.17.06-.18.06-.17.05-.18.06-.18.05-.18.06-.18.05-.17.05-.18.05-.19.05-.18.05-.18.05-.18.05-.18.05-.19.05-.18.04-.18.05-.19.05-.19.04-.18.04-.19.05-.19.04-.18.04-.2.04-.18.04-.19.04-.19.04-.19.03-.19.04-.2.03-.18.04-.2.03-.19.03-.2.04-.19.03-.19.03-.2.03-.19.02-.2.03-.2.03-.19.02-.2.03-.2.02-.2.02-.19.02-.2.02-.2.02-.2.02-.2.02-.2.02-.2.01-.2.02-.2.01-.2.01-.2.01-.21.02h-.2l-.2.01-.21.01h-.2l-.21.01H38.89l-.21.01h-1.04l-.2-.01h-.21l-.21-.01-.2-.01-.22-.01-.2-.01-.22-.01-.2-.02-.22-.01-.2-.02-.22-.01-.2-.02-.22-.02-.21-.02-.21-.02-.21-.02-.22-.02-.2-.03-.22-.03-.21-.02-.21-.03-.22-.03-.2-.03-.22-.03-.21-.04-.22-.03-.21-.04-.21-.03-.22-.04-.21-.04-.21-.04-.22-.05-.21-.04-.21-.04-.22-.05-.21-.05-.22-.05-.2-.05-.22-.05-.22-.05-.2-.06-.22-.05-.22-.06-.2-.06-.22-.05-.22-.07-.2-.06-.22-.06-.21-.06-.22-.07-.21-.07-.21-.07-.21-.07-.22-.07-.2-.07-.22-.08-.21-.07-.21-.08-.21-.08-.22-.07-.2-.09-.22-.08-.2-.08-.22-.09-.2-.08-.22-.09-.2-.09-.21-.09-.21-.1-.21-.08-.2-.1-.21-.1-.21-.1-.2-.1-.21-.1-.21-.1-.2-.1-.21-.1-.2-.1-.2-.11-.21-.1-.2-.12-.2-.11-.21-.11-.2-.12-.2-.11-.2-.12-.2-.12-.2-.11-.2-.12-.2-.13-.2-.12-.2-.12-.2-.13-.19-.13-.2-.13-.19-.13-.2-.13-.19-.13-.19-.13-.2-.14-.18-.14-.2-.13-.18-.14-.2-.14-.18-.15-.2-.14-.18-.14-.18-.15-.19-.15-.18-.14-.19-.15-.18-.16-.18-.15-.19-.15-.18-.16-.18-.15-.17-.16-.18-.16-.18-.16-.18-.16-.17-.16-.18-.17-.17-.16-.17-.17-.17-.17-.17-.16-.17-.17-.17-.18-.17-.17-.17-.17-.16-.18-.17-.17-.16-.18-.16-.18-.16-.18-.16-.18-.16-.18-.16-.18-.16-.19-.15-.18-.16-.19-.15-.19-.16-.18-.15-.2-.15-.18-.15-.2-.14-.19-.15-.2-.15-.19-.14-.2-.14-.2-.15-.2-.14-.19-.14-.2-.13-.2-.14-.2-.14-.2-.13-.21-.13-.2-.14-.21-.13-.21-.13-.21-.12-.2-.13-.22-.12-.21-.13-.21-.12-.22-.12-.21-.12-.21-.12-.22-.12-.22-.11-.21-.12-.22-.1-.22-.12-.22-.11-.22-.1-.22-.12-.23-.1-.22-.1-.22-.1-.23-.1-.22-.1-.23-.1-.23-.1-.23-.1-.22-.1-.23-.08-.23-.1-.23-.08-.23-.1-.24-.08-.23-.08-.23-.09-.24L3 63l-.08-.24-.08-.23-.07-.24-.08-.24-.07-.23-.07-.24-.07-.24-.07-.24-.07-.24-.07-.24-.06-.24-.06-.24-.06-.24-.06-.24-.06-.25-.06-.24-.05-.24-.05-.24-.05-.25-.05-.24-.05-.25-.05-.24-.04-.25-.04-.24-.05-.25-.03-.25-.04-.24-.04-.25-.03-.25-.04-.25-.03-.24-.03-.25-.02-.25-.03-.25-.03-.25-.02-.25-.02-.24-.02-.25-.02-.25-.01-.25-.02-.25v-.25l-.02-.25v-.25L1 51.99v-.75L1 50.99v-.75l.01-.25.01-.25.01-.25.01-.25.01-.25.02-.25.02-.25.01-.25.02-.25.02-.25.03-.25.02-.24.03-.25.03-.25.03-.25.03-.25.03-.24.03-.25.04-.25.04-.24.04-.25.04-.25.04-.24.05-.25.04-.24.05-.25.05-.24.05-.25.05-.24.06-.24.06-.25.05-.24.06-.24.06-.24.07-.24.06-.24.07-.24.06-.24.07-.24.07-.24.08-.24.07-.24.07-.23.08-.24.08-.24.08-.23.08-.23.08-.24.09-.23.09-.23.08-.24.1-.23.08-.23.1-.23.09-.23.1-.23.1-.22.09-.23.1-.23.1-.22.1-.23.1-.22.11-.22.11-.23.1-.22.12-.22.11-.22.11-.22.12-.22.11-.21.12-.22.12-.22.12-.21.12-.21.12-.22.13-.2.12-.22.13-.21.13-.2.13-.22.13-.2.13-.21.13-.2.14-.21.13-.2.14-.2.14-.2.14-.2.14-.2.14-.2.14-.2.15-.2.14-.2.15-.19.15-.2.15-.18.15-.2.15-.18.15-.2.15-.18.16-.19.16-.18.15-.18.16-.19.16-.18.16-.18.16-.18.16-.18.17-.17.16-.18.17-.17.17-.18.16-.17.17-.17.17-.17.17-.17.17-.17.18-.16.17-.17.17-.16.18-.16.18-.17.17-.16.18-.15.18-.16.18-.16.18-.15.18-.16.19-.15.18-.15.18-.15.19-.15.18-.14.19-.15.19-.14.18-.15.2-.14.18-.14.2-.14.18-.14.2-.13.19-.14.19-.13.2-.13.19-.14.2-.13.19-.12.2-.13.2-.13.19-.12.2-.12.2-.13.2-.12.2-.12.2-.11.2-.12.2-.11.2-.12.2-.11.2-.11.2-.11.2-.1.21-.12.2-.1.21-.1.2-.1.21-.1.21-.1.2-.1.21-.1.21-.1.2-.1.22-.09.2-.09.21-.09.21-.09.21-.09.21-.08.21-.09.21-.08.21-.08.21-.08.21-.08.22-.08.2-.08.22-.07.21-.08.21-.07.21-.07.22-.07.2-.07.22-.07.21-.06.22-.07.21-.06.21-.06.22-.06.21-.06.21-.06.22-.05.21-.06.21-.05.22-.06.21-.05.21-.05.22-.05.21-.04.21-.05.22-.04.21-.05.21-.04.22-.04.21-.04.21-.04.22-.04.21-.03.21-.04.22-.03.21-.03.21-.03.21-.03.22-.03.21-.03.21-.02.21-.03.22-.02.2-.02.22-.02.2-.02.22-.02.21-.02.21-.02.21-.01.21-.02h.21l.21-.02.21-.01h.21l.2-.02h.22l.2-.01h.42l.2-.01h1.24l.21.01.2.01h.2l.21.02h.2l.2.02h.21l.2.02.2.01.2.02.2.01.2.02.2.02.2.02.2.02.2.02.2.02.2.02.2.02.2.03.2.02.2.03.19.03.2.03.19.03.2.03.19.03.19.03.2.03.18.03.2.04.19.03.19.04.19.04.19.04.19.03.19.04.18.04.2.05.18.04.19.04.18.04.19.05.18.04.19.05.18.05.18.04.19.05.18.05.18.05.18.05.18.05.18.05.18.06.18.05.18.05.17.06.18.05.18.06.17.06.18.05.17.06.18.06.17.06.18.06.17.06.17.06.17.06.17.06.17.07.17.06.17.07.17.06.17.07.16.06.17.07.17.06.16.07.17.07.16.07.16.07.17.07.16.07.16.07.16.07.16.07.16.07.16.08.16.07.16.07.16.08.16.07.15.08.16.07.16.08.15.07.16.08.15.08.15.08.16.07.15.08.15.08.15.08.15.08.15.08.15.08.15.08.15.08.15.08.14.09.15.08.15.08.14.08.15.09.14.08.14.08.15.09.14.08.14.09.15.08.14.09.14.08.14.09.14.09.14.08.14.09.13.09.14.08.14.1.14.08.13.09.14.09.13.09.14.09.13.09.14.09.13.09.13.09.14.09.13.09.13.09.13.09.13.1.13.08.13.1.13.09.13.09.13.1.13.08.12.1.13.09.13.1.13.09.12.1.13.09.12.09.13.1.12.09.12.1.13.09.12.1.12.09.13.1.12.09.12.1.12.1.12.09.12.1.12.1.12.09.12.1.12.1.12.1.12.09.12.1.11.1.12.1.12.1.12.09.11.1.12.1.11.1.12.1.11.1.12.1.11.1.12.1.11.1.11.1.12.1.11.1.11.1.12.1.1.1.12.1.11.1.11.1.11.1.11.1.12.11.1.1.12.1.1.1.11.11.11.1.11.1.11.11.11.1.1.11.12.1.1.1.11.11.1.1.12.11.1.1.11.11.1.11.11.1.1.11.11.1.11.12.1.1.11.1.1.12.11.1.1.11.1.1.11.12.1.1.11.11.1.11.1.11.11.11.1.11.1.11.1.11.11.11.1.11.1.11.1.11.1.12.11.1.1.12.1.11.1.11.1.12.1.11.1.11.1.12.1.11.1.12.1.11.1.12.1.11.1.12.1.11.1.12.1.12.1.11.1.12.1.12.1.12.1.11.09.12.1.12.1.12.09.12.1.12.1.12.09.12.1.12.1.12.09.13.1.12.09.12.1.12.09.13.1.12.09.12.1.13.09.12.1.13.09.13.09.12.1.13.09.13.09.12.1.13.09.13.09.13.09.13.1.13.08.13.1.13.09.13.09.13.09.13.09.13.09.14.09.13.09.13.09.14.09.13.09.14.09.13.08.14.1.14.08.13.09.14.09.14.08.14.09.14.09.14.08.14.09.14.08.14.09.14.08.14.09.15.08.14.09.14.08.15.08.14.09.15.08.14.08.15.08.15.09.14.08.15.08.15.08.15.08.15.08.15.08.15.08.15.08.16.07.15.08.15.08.15.08.16.07.15.08.16.07.15.08.16.07.16.08.16.07.15.08.16.07.16.07.16.07.16.07.16.07.17.07.16.07.16.07.16.07.17.07.16.07.17.07.16.06.17.07.17.06.17.07.16.06.17.07.17.06.17.06.17.07.17.06.17.06.18.06.17.06.17.06.18.05.17.06.18.06.17.05.18.06.18.06.17.05.18.05.18.06.18.05.18.05.18.05.18.05.18.05.18.05.19.05.18.04.18.05.19.04.18.05.19.04.18.05.19.04.19.04.18.04.2.04.18.04.19.04.19.03.19.04.19.04.19.03.2.04.18.03.2.03.19.03.2.03.19.03.2.03.19.03.2.02.19.03.2.03.2.02.19.02.2.02.2.03.2.02.2.01.2.02.2.02.2.02.2.01.2.01.2.02.2.01.2.01.2.01.2V62l.02.2v.21l.01.2V63.01l.01.21v1.24l-.01.21-.01.21v.2l-.02.22v.2l-.02.22-.01.2-.01.22-.02.2-.01.22-.02.2-.02.22-.02.2-.02.22-.02.21-.02.21-.03.22-.02.2-.03.22-.03.21-.03.21-.03.22-.03.21-.03.21-.03.22-.04.2-.04.22-.03.22-.04.2-.04.22-.05.22-.04.2-.04.22-.05.22-.05.2-.04.22-.05.22-.05.21-.06.21-.05.22-.05.21-.06.21-.06.22-.06.21-.06.21-.06.22-.06.21-.06.21-.07.22-.07.2-.06.22-.07.21-.07.22-.08.2-.07.22-.07.21-.08.21-.08.21-.08.21-.08.22-.08.2-.08.22-.09.2-.08.22-.09.2-.09.21-.09.21-.09.21-.09.21-.1.2-.09.22-.1.2-.1.2-.1.22-.1.2-.1.2-.1.21-.1.2-.11.21-.1.2-.12.2-.1.21-.12.2-.11.2-.12.2-.11.2-.12.2-.12.2-.12.2-.12.2-.12.2-.12.2-.13.2-.13.2-.12.2-.13.19-.13.2-.14.18-.13.2-.13.2-.14.18-.14.2-.14.18-.14.2-.14.18-.14.2-.14.18-.15.18-.15.2-.14.18-.15.18-.15.18-.16.19-.15.18-.15.18-.16.18-.15.18-.16.18-.16.17-.16.18-.17.18-.16.17-.16.18-.17.17-.17.17-.16.17-.17.17-.17.17-.17.17-.18.17-.17.16-.18.17-.17.16-.18.16-.18.17-.18.16-.18.16-.18.16-.19.15-.18.16-.19.16-.19.15-.18.15-.2.15-.18.16-.2.14-.19.15-.2.15-.19.15-.2.14-.19.15-.2.14-.2.14-.2.14-.2.14-.2.14-.2.13-.2.14-.2.13-.22.13-.2.13-.21.13-.2.13-.22.13-.2.12-.22.13-.21.12-.22.12-.21.12-.22.12-.21.12-.22.12-.22.11-.22.12-.22.1-.22.12-.22.1-.22.11-.22.11-.23.1-.22.1-.23.11-.22.1-.23.1-.23.1-.22.1-.23.09-.23.1-.23.08-.23.1-.24.08-.23.09-.23.08-.23.09-.24.08-.23.08-.24.08-.23.08-.24.07-.24.08-.24.07-.23.07-.24.07-.24.07-.24.06-.24.07-.24.06-.25.06-.24.06-.24.06-.24.06-.24.05-.25.06-.24.05-.25.05-.24.05-.25.05-.24.04-.25.04-.24.05-.25.04-.25.03-.24.04-.25.04-.25.03-.25.03-.24.03-.25.03-.25.03-.25.02-.25.03-.25.02-.24.02-.25.02-.25.01-.25.02-.25.01-.25.02h-.25l-.25.01-.25.01h-.5l-.25.01h-.75l-.25-.01h-.25l-.25-.02h-.25l-.25-.02-.25-.01-.25-.02-.25-.02-.25-.01-.25-.02-.25-.03-.24-.02-.25-.02-.25-.03-.25-.03-.25-.03-.25-.03-.24-.04-.25-.03-.25-.04-.24-.04-.25-.04-.25-.04-.24-.05-.25-.04-.24-.05-.25-.05-.24-.05-.24-.05-.25-.05-.24-.06-.24-.06-.25-.05-.24-.06-.24-.07-.24-.06-.24-.06-.24-.07-.24-.07-.24-.07-.24-.07-.23-.07-.24-.08-.24-.07-.23-.08-.24-.08-.23-.08-.24-.08-.23-.09-.23-.08-.24-.1-.23-.08-.23-.09-.23-.1-.23-.08-.23-.1-.22-.1-.23-.1-.23-.1-.22-.1-.23-.1-.22-.1-.23-.1-.22-.11-.22-.1-.22-.12-.22-.1-.22-.12-.22-.11-.22-.12-.22-.11-.21-.12-.22-.12-.21-.12-.21-.12-.22-.13-.2-.12-.22-.13-.2-.13-.22-.12-.2-.13-.21-.13-.2-.14-.21-.13-.2-.14-.21-.13-.2-.14-.2-.14-.2-.14-.2-.14-.2-.14-.2-.15-.2-.14-.19-.15-.19-.15-.2-.14-.18-.15-.2-.16-.18-.15-.19-.15-.19-.16-.18-.15-.19-.16-.18-.16-.18-.15-.18-.16-.18-.17-.18-.16-.18-.16-.18-.16-.17-.17-.18-.17-.17-.16-.17-.17-.17-.17-.17-.17-.17-.17-.16-.17-.17-.18-.16-.17-.17-.18-.16-.17-.16-.18-.16-.18-.16-.18-.15-.17-.16-.18-.15-.19-.16-.18-.15-.18-.15-.18-.15-.19-.14-.18-.15-.19-.15-.19-.14-.18-.14-.2-.14-.18-.14-.2-.14-.18-.14-.2-.13-.18-.14-.2-.13-.2-.13-.18-.13-.2-.13-.2-.13-.19-.13-.2-.12-.2-.13-.2-.12-.19-.12-.2-.12-.2-.12-.2-.11-.2-.12-.2-.11-.2-.12-.2-.1-.2-.12-.2-.1-.21-.11-.2-.11-.21-.1-.2-.1-.21-.11-.2-.1-.21-.1-.2-.1-.21-.1-.21-.09-.21-.1-.2-.09-.22-.09-.2-.09-.21-.08-.21-.1-.21-.08-.21-.08-.21-.08-.21-.08-.21-.08-.21-.08-.21-.08-.22-.08-.2-.07-.22-.07-.21-.08-.21-.07-.22-.07-.2-.06-.22-.07-.21-.06-.22-.07-.2-.06-.22-.06-.21-.06-.22-.06-.21-.06-.21-.05-.22-.06-.21-.05-.21-.05-.22-.05-.21-.05-.22-.05-.2-.05-.22-.04-.22-.05-.21-.04-.21-.04-.22-.04-.21-.04-.21-.04-.22-.03-.2-.04-.22-.03-.22-.04-.2-.03-.22-.03-.21-.03-.22-.02-.2-.03-.22-.03-.21-.02-.21-.02-.22-.02-.2-.02-.22-.02-.21-.02-.21-.02-.21-.01-.21-.02-.21-.01-.21-.01-.21-.02-.21v-.21l-.01-.2-.01-.22v-.2l-.01-.21V64.03l-.01-.22V62.8l.01-.21v-.2l.01-.21.01-.2.01-.2.01-.21.01-.2.01-.2.02-.21.01-.2.02-.2.01-.2.02-.2.02-.2.02-.2.02-.2.02-.2.02-.2.02-.2.03-.2.02-.2.03-.19.03-.2.02-.19.03-.2.03-.19.03-.2.03-.19.04-.19.03-.2.03-.18.04-.2.03-.19.04-.19.04-.19.04-.19.03-.19.04-.18.05-.2.04-.18.04-.19.04-.18.05-.19.04-.18.05-.19.04-.18.05-.19.05-.18.05-.18.05-.18.05-.18.05-.19.05-.18.05-.17.05-.18.06-.18.05-.18.06-.18.05-.17.06-.18.06-.18.05-.17.06-.18.06-.17.06-.17.06-.18.06-.17.06-.17.07-.17.06-.17.06-.17.06-.17.07-.17.06-.17.07-.16.07-.17.06-.17.07-.16.07-.17.07-.16.07-.17.06-.16.07-.16.07-.17.08-.16.07-.16.07-.16.07-.16.07-.16.08-.16.07-.15.08-.16.07-.16.08-.16.07-.15.08-.16.07-.15.08-.16.08-.15.08-.15.07-.16.08-.15.08-.15.08-.15.08-.15.08-.15.08-.15.08-.15.08-.15.09-.14.08-.15.08-.15.08-.14.09-.15.08-.14.08-.15.09-.14.08-.14.09-.15.08-.14.09-.14.08-.14.09-.14.09-.14.08-.14.09-.14.09-.14.08-.14.1-.13.08-.14.09-.14.09-.13.08-.14.1-.13.08-.14.1-.13.08-.14.1-.13.08-.13.1-.14.08-.13.1-.13.09-.13.09-.13.09-.13.1-.13.08-.13.1-.13.09-.13.1-.12.09-.13.09-.13.1-.13.09-.12.09-.13.1-.12.09-.13.1-.12.09-.13.1-.12.09-.12.1-.13.09-.12.1-.12.1-.12.09-.12.1-.12.09-.13.1-.12.1-.12.09-.12.1-.11.1-.12.1-.12.09-.12.1-.12.1-.12.1-.11.1-.12.1-.12.09-.11.1-.12.1-.11.1-.12.1-.11.1-.12.1-.11.1-.12.1-.11.1-.11.1-.12.1-.11.1-.11.1-.11.1-.12.1-.1.1-.12.1-.11.11-.11.1-.11.1-.11.1-.11.11-.11.1-.11.1-.11.1-.11.11-.11.1-.1.11-.12.1-.1.1-.11.11-.11.1-.1.11-.12.1-.1.11-.1.11-.12.1-.1.11-.1.1-.11.11-.11.11-.1.1-.11.12-.1.1-.11.11-.1.1-.1.12-.11.1-.1.11-.11.11-.1.11-.1.11-.11.1-.1.12-.1.1-.11.12-.1.11-.1.11-.1.11-.1.11-.11.11-.1.12-.1.1-.1.12-.1.11-.1.12-.1.11-.1.11-.1.12-.1.11-.1.12-.1.11-.1.12-.1.11-.1.12-.1.11-.1.12-.1.12-.1.11-.1.12-.1.12-.1.12-.1.12-.1.11-.09.12-.1.12-.1.12-.09.12-.1.12-.1.12-.09.13-.1.12-.1.12-.09.12-.1.12-.09.13-.1.12-.09.13-.1.12-.09.12-.1.13-.09.13-.1.12-.09.13-.09.12-.1.13-.09.13-.09.13-.1.13-.08.13-.1.12-.09.13-.09.14-.1.13-.08.13-.1.13-.09.13-.09.13-.09.14-.09.13-.09.13-.09.14-.09.13-.08.14-.1.14-.08.13-.1.14-.08.14-.09.13-.08.14-.1.14-.08.14-.09.14-.08.14-.09.14-.08.14-.09.15-.08.14-.09.14-.08.14-.09.15-.08.14-.09.15-.08.14-.08.15-.08.15-.09.14-.08.15-.08.15-.08.15-.08.15-.08.15-.08.15-.08.15-.08.15-.08.15-.08.16-.07.15-.08.16-.08.15-.08.15-.07.16-.08.16-.07.15-.08.16-.07.16-.08.16-.07.16-.07.16-.08.16-.07.16-.07.16-.07.16-.07.16-.07.17-.07.16-.07.16-.07.17-.07.17-.06.16-.07.17-.07.17-.06.16-.07.17-.06.17-.07.17-.06.17-.06.17-.07.17-.06.17-.06.18-.06.17-.06.17-.06.18-.06.17-.05.18-.06.17-.06.18-.05.18-.06.18-.05.17-.06.18-.05.18-.05.18-.06.18-.05.18-.05.19-.05.18-.05.18-.04.18-.05.19-.05.18-.04.19-.05.18-.04.19-.05.19-.04.18-.04.2-.04.18-.04.19-.04.19-.04.19-.04.19-.03.19-.04.19-.04.2-.03.18-.03.2-.04.19-.03.2-.03.19-.03.2-.03.19-.03.2-.02.2-.03.19-.02.2-.03.2-.02.19-.02.2-.03.2-.02.2-.02.2-.01.2-.02.2-.02.2-.01.2-.02.2-.01.2-.01.2-.02h.21l.2-.02h.2l.21-.01h.2l.21-.01H63.12l.2-.01h1.04l.21.01h.21l.2.01.22.01.2.01.22.01.2.01.22.02.2.01.22.02.2.01.22.02.2.02.22.02.21.02.21.02.21.03.22.02.2.03.22.02.21.03.22.03.2.03.22.03.21.04.22.03.21.04.21.04.22.03.21.04.21.05.22.04.21.04.21.05.22.04.21.05.21.05.22.05.21.05.22.05.2.06.22.05.22.06.2.06.22.06.22.06.2.06.22.06.21.07.22.06.2.07.22.07.21.07.22.07.2.07.22.08.21.07.21.08.21.08.21.08.22.08.2.08.22.08.2.09.22.09.2.08.21.1.21.08.21.1.2.09.22.1.2.09.21.1.2.1.21.1.2.1.21.1.21.1.2.1.2.12.21.1.2.11.2.11.21.12.2.11.2.12.2.11.2.12.2.12.2.12.2.12.2.12.2.13.2.13.19.12.2.13.19.13.2.13.19.14.19.13.2.13.18.14.2.14.18.14.2.14.18.14.19.14.19.15.18.15.19.14.18.15.19.15.18.15.18.15.18.16.18.15.18.16.18.16.18.16.18.16.17.16.18.16.17.16.18.17.17.17.17.16.17.17.17.17.17.17.17.17.16.18.17.17.16.18.17.18.16.17.16.18.16.19.16.18.16.18.16.18.15.19.16.19.15.18.15.2.15.18.15.2.15.18.15.2.15.2.14.19.15.2.14.2.14.19.14.2.14.2.14.2.14.2.13.2.14.21.13.2.13.21.13.21.13.2.13.22.13.2.12.22.12.21.13.21.12.22.12.21.12.22.11.22.12.21.11.22.11.22.12.22.1.22.11.22.11.23.1.22.11.22.1.23.1.22.1.23.1.23.1.23.1.22.09.23.09.23.09.23.09.23.09.24.08.23.09.23.08.24.08.23.08.24.08.23.08.24.07.24.07.23.08.24.07.24.07.24.06.24.07.24.06.24.06.24.07.24.05.24.06.25.06.24.05.24.05.25.06.24.05.24.04.25.05.24.04.25.05.25.04.24.04.25.03.24.04.25.04.25.03.25.03.24.03.25.03.25.02.25.03.25.02.25.02.25.02.24.02.25.01.25.02.25.01.25.01.25.01.25v.25l.01.25v.5l.01.23Z" stroke="currentColor" stroke-width="2" /></symbol>
<symbol id="light" viewBox="0 0 24 24" fill="currentColor"><path d="M20.993 13.313a6 6 0 01-7.306-7.306 7 7 0 107.306 7.306z"></path><path fill-rule="evenodd" d="M4.5 8.25a.5.5 0 01.5.5v1.5a.5.5 0 01-1 0v-1.5a.5.5 0 01.5-.5z" clip-rule="evenodd"></path><path fill-rule="evenodd" d="M3.25 9.5a.5.5 0 01.5-.5h1.5a.5.5 0 010 1h-1.5a.5.5 0 01-.5-.5zM7.5 3a.5.5 0 01.5.5v2a.5.5 0 01-1 0v-2a.5.5 0 01.5-.5z" clip-rule="evenodd"></path><path fill-rule="evenodd" d="M6 4.5a.5.5 0 01.5-.5h2a.5.5 0 010 1h-2a.5.5 0 01-.5-.5z" clip-rule="evenodd"></path></symbol>
<symbol id="dark" viewBox="0 0 24 24" fill="currentColor"><path d="M12 16.5A4.505 4.505 0 017.5 12c0-2.481 2.019-4.5 4.5-4.5s4.5 2.019 4.5 4.5-2.019 4.5-4.5 4.5z"></path><path fill-rule="evenodd" d="M12 3a.5.5 0 01.5.5v2a.5.5 0 01-1 0v-2A.5.5 0 0112 3zM18 12a.5.5 0 01.5-.5h2a.5.5 0 010 1h-2a.5.5 0 01-.5-.5zM3 12a.5.5 0 01.5-.5h2a.5.5 0 010 1h-2A.5.5 0 013 12zM12 18a.5.5 0 01.5.5v2a.5.5 0 01-1 0v-2a.5.5 0 01.5-.5zM18.354 5.646a.5.5 0 010 .708l-1.5 1.5a.5.5 0 01-.708-.708l1.5-1.5a.5.5 0 01.708 0zM7.854 16.146a.5.5 0 010 .708l-1.5 1.5a.5.5 0 01-.708-.708l1.5-1.5a.5.5 0 01.708 0zM5.646 5.646a.5.5 0 01.708 0l1.5 1.5a.5.5 0 11-.708.708l-1.5-1.5a.5.5 0 010-.708zM16.146 16.146a.5.5 0 01.708 0l1.5 1.5a.5.5 0 01-.708.708l-1.5-1.5a.5.5 0 010-.708z" clip-rule="evenodd"></path></symbol>
<symbol id="BTC" viewBox="0 0 24 24" fill="currentColor"><path fill-rule="evenodd" d="M13.425 6.432c1.983.19 3.538.778 3.71 2.528.117 1.276-.438 2.035-1.355 2.463 1.481.359 2.382 1.202 2.196 3.072-.227 2.343-2.035 2.952-4.62 3.08l.004 2.42-1.522.002-.004-2.42c-.166-.002-.34 0-.519.003-.238.003-.484.006-.731-.001l.004 2.42-1.52.001-.004-2.42-3.044-.058.256-1.768s1.15.024 1.129.012c.423-.002.549-.293.58-.485l-.008-3.878.012-2.76c-.046-.288-.248-.634-.87-.644.033-.03-1.115.001-1.115.001L6 6.38l3.12-.005-.004-2.37 1.571-.002.004 2.37c.304-.008.603-.005.906-.003l.3.002-.005-2.37L13.422 4l.003 2.432zm-2.92 4.46l.076.002c.926.04 3.67.155 3.673-1.457-.004-1.532-2.339-1.482-3.423-1.46-.129.003-.24.006-.327.005v2.91zm.129 4.75l-.134-.005v-2.91c.097.002.218 0 .359-.002 1.282-.015 4.145-.05 4.132 1.494.014 1.597-3.218 1.468-4.357 1.423z" clip-rule="evenodd"></path></symbol>
<symbol id="sats" viewBox="0 0 24 24" fill="currentColor"><path fill-rule="evenodd" d="M16.25 8.66h-10v-1.5h10v1.5zM12.75 2.25v2.455h-1.5V2.25h1.5zM12.75 17.795v2.455h-1.5v-2.455h1.5zM16.25 12.75h-10v-1.5h10v1.5zM16.25 16.84h-10v-1.5h10v1.5z" clip-rule="evenodd"></path></symbol>
<symbol id="show" viewBox="0 0 24 24" fill="currentColor"><path d="M12 14a2 2 0 100-4 2 2 0 000 4z"></path><path fill-rule="evenodd" d="M21 12c0 2.761-4.03 5-9 5s-9-2.239-9-5 4.03-5 9-5 9 2.239 9 5zm-5 0a4 4 0 11-8 0 4 4 0 018 0z" clip-rule="evenodd"></path></symbol>
<symbol id="hide" viewBox="0 0 24 24" fill="currentColor"><path d="M14.33 7.17C13.588 7.058 12.807 7 12 7c-4.97 0-9 2.239-9 5 0 1.44 1.096 2.738 2.85 3.65l2.362-2.362a4 4 0 015.076-5.076l1.043-1.043zM11.23 15.926a4 4 0 004.695-4.695l2.648-2.647C20.078 9.478 21 10.68 21 12c0 2.761-4.03 5-9 5-.598 0-1.183-.032-1.749-.094l.98-.98zM17.793 5.207a1 1 0 111.414 1.414L6.48 19.35a1 1 0 11-1.414-1.414L17.793 5.207z"></path></symbol>
<symbol id="wallet" fill="none" viewBox="0 0 24 24" stroke="currentColor"><path d="M15 17.5h3.005a1.5 1.5 0 001.5-1.5V8a1.5 1.5 0 00-1.5-1.5H15A1.5 1.5 0 0116.5 8v8a1.5 1.5 0 01-1.5 1.5z"></path><rect width="12" height="11" x="4.5" y="6.5" rx="1.5"></rect><circle cx="8.75" cy="11.75" r="1.25"></circle></symbol>
<symbol id="gear" fill="none" viewBox="0 0 24 24" stroke="currentColor"><path d="M17.3 10.453l1.927.315a.326.326 0 01.273.322v1.793a.326.326 0 01-.27.321l-1.93.339c-.111.387-.265.76-.459 1.111l1.141 1.584a.326.326 0 01-.034.422l-1.268 1.268a.326.326 0 01-.418.037l-1.6-1.123a5.482 5.482 0 01-1.118.468l-.34 1.921a.326.326 0 01-.322.269H11.09a.325.325 0 01-.321-.272l-.319-1.911a5.5 5.5 0 01-1.123-.465l-1.588 1.113a.326.326 0 01-.418-.037L6.052 16.66a.327.327 0 01-.035-.42l1.123-1.57a5.497 5.497 0 01-.47-1.129l-1.901-.337a.326.326 0 01-.269-.321V11.09c0-.16.115-.296.273-.322l1.901-.317c.115-.393.272-.77.47-1.128l-1.11-1.586a.326.326 0 01.037-.417L7.34 6.052a.326.326 0 01.42-.034l1.575 1.125c.354-.194.73-.348 1.121-.46l.312-1.91a.326.326 0 01.322-.273h1.793c.159 0 .294.114.322.27l.336 1.92c.389.112.764.268 1.12.465l1.578-1.135a.326.326 0 01.422.033l1.268 1.268a.326.326 0 01.036.418L16.84 9.342c.193.352.348.724.46 1.11zM9.716 12a2.283 2.283 0 104.566 0 2.283 2.283 0 00-4.566 0z" clip-rule="evenodd"></path></symbol>
<symbol id="grid" fill="none" viewBox="0 0 24 24" stroke="currentColor"><path stroke-linecap="round" stroke-linejoin="round" d="M5.5 9.5v-3a1 1 0 011-1h3a1 1 0 011 1v3a1 1 0 01-1 1h-3a1 1 0 01-1-1zM13.5 9.5v-3a1 1 0 011-1h3a1 1 0 011 1v3a1 1 0 01-1 1h-3a1 1 0 01-1-1zM13.5 17.5v-3a1 1 0 011-1h3a1 1 0 011 1v3a1 1 0 01-1 1h-3a1 1 0 01-1-1zM5.5 17.5v-3a1 1 0 011-1h3a1 1 0 011 1v3a1 1 0 01-1 1h-3a1 1 0 01-1-1z"></path></symbol>
</svg>
