<svg xmlns="http://www.w3.org/2000/svg" width="0" height="0">
    <symbol id="logo" fill="none" viewBox="0 0 102 102">
        <path stroke="currentColor" stroke-width="2" d="M101 51v.75l-.01.25-.01.25-.01.25-.01.25-.01.25-.02.25-.02.25-.01.25-.02.25-.02.25-.03.24-.02.25-.03.25-.02.25-.03.25-.04.25-.03.24-.03.25-.04.25-.04.24-.04.25-.04.25-.04.24-.05.25-.04.24-.05.25-.05.24-.05.25-.05.24-.06.24-.05.25-.06.24-.06.24-.06.24-.06.24-.07.24-.06.24-.07.24-.07.24-.07.24-.07.24-.08.24-.07.23-.08.24-.08.23L99 63l-.08.23-.08.24-.09.23-.08.23-.09.24-.09.23-.09.23-.1.23-.09.23-.1.22-.09.23-.1.23-.1.23-.1.22-.1.23-.1.22-.1.22-.12.23-.1.22-.11.22-.12.22-.1.22-.12.22-.12.21-.12.22-.11.22-.12.21-.12.21-.13.22-.12.2-.13.22-.12.21-.13.2-.13.22-.13.2-.13.21-.14.2-.13.21-.14.2-.13.2-.14.2-.14.2-.14.2-.14.2-.15.2-.14.2-.15.2-.14.19-.15.2-.15.18-.15.2-.15.18-.15.2-.16.18-.15.19-.16.18-.16.19-.15.18-.16.18-.16.18-.17.18-.16.18-.16.18-.17.17-.16.18-.17.17-.17.17-.16.17-.17.17-.17.17-.18.17-.17.17-.17.16-.18.16-.17.17-.18.16-.18.16-.17.16-.18.15-.18.16-.18.16-.18.15-.19.15-.18.15-.18.15-.19.15-.18.15-.2.14-.18.15-.19.14-.18.14-.2.14-.18.14-.2.14-.19.14-.19.13-.2.14-.18.13-.2.13-.2.13-.19.13-.2.13-.2.12-.19.13-.2.12-.2.12-.2.12-.2.12-.2.12-.2.11-.2.12-.2.11-.2.12-.2.1-.2.12-.21.1-.2.11-.2.1-.21.11-.2.1-.21.1-.21.1-.2.1-.21.1-.21.1-.21.09-.2.1-.22.08-.2.1-.21.08-.21.1-.21.08-.21.08-.21.09-.21.08-.21.08-.21.08-.22.08-.2.07-.22.08-.21.07-.21.07-.21.08-.22.07-.21.06-.21.07-.21.07-.22.06-.21.07-.21.06-.22.06-.21.06-.21.06-.22.05-.21.06-.21.05-.22.05-.21.05-.21.06-.22.04-.21.05-.22.05-.2.04-.22.05-.22.04-.2.04-.22.04-.22.04-.2.03-.22.04-.21.03-.22.04-.21.03-.21.03-.22.03-.2.03-.22.03-.21.02-.21.03-.22.02-.2.02-.22.02-.21.02-.21.02-.21.02-.21.02-.21.01-.21.01-.21.02h-.21l-.21.02h-.21l-.2.02H64.55l-.21.01h-.21l-.2.01H62.7l-.21-.01-.2-.01h-.21l-.2-.02h-.2l-.21-.02h-.2l-.2-.02-.2-.01-.2-.02-.21-.01-.2-.02-.2-.02-.2-.02-.2-.02-.2-.02-.2-.02-.2-.02-.2-.02-.19-.03-.2-.02-.2-.03-.19-.03-.2-.03-.19-.02-.2-.03-.19-.04-.19-.03-.2-.03-.19-.03-.19-.04-.19-.03-.19-.04-.19-.04-.19-.03-.19-.04-.19-.04-.19-.04-.18-.04-.19-.05-.19-.04-.18-.04-.19-.05-.18-.04-.19-.05-.18-.04-.18-.05-.19-.05-.18-.05-.18-.05-.18-.05-.18-.05-.18-.05-.18-.05-.18-.06-.18-.05-.18-.06-.17-.05-.18-.06-.18-.05-.17-.06-.18-.06-.17-.06-.17-.06-.18-.06-.17-.06-.17-.06-.17-.06-.17-.06-.17-.07-.17-.06-.17-.06-.17-.07-.17-.06-.17-.07-.16-.07-.17-.06-.16-.07-.17-.07-.16-.07-.17-.07-.16-.06-.16-.08-.17-.07-.16-.07-.16-.07-.16-.07-.16-.07-.16-.08-.16-.07-.15-.07-.16-.08-.16-.07-.15-.08-.16-.07-.15-.08-.16-.08-.15-.07-.16-.08-.15-.08-.15-.08-.15-.08-.15-.08-.15-.08-.15-.08-.15-.08-.15-.08-.15-.08-.15-.08-.15-.08-.14-.08-.15-.09-.14-.08-.15-.08-.14-.09-.15-.08-.14-.08-.14-.09-.15-.08-.14-.09-.14-.08-.14-.09-.14-.09-.14-.08-.14-.09-.14-.09-.14-.08-.14-.1-.13-.08-.14-.09-.14-.09-.13-.08-.14-.1-.13-.08-.14-.1-.13-.08-.14-.1-.13-.08-.13-.1-.13-.08-.13-.1-.14-.09-.13-.09-.13-.09-.13-.1-.13-.08-.13-.1-.12-.09-.13-.09-.13-.1-.13-.09-.12-.09-.13-.1-.13-.09-.12-.1-.13-.09-.12-.09-.13-.1-.12-.09-.12-.1-.13-.09-.12-.1-.12-.1-.12-.09-.12-.1-.13-.09-.12-.1-.12-.1-.12-.09-.12-.1-.12-.1-.12-.09-.11-.1-.12-.1-.12-.1-.12-.1-.12-.09-.11-.1-.12-.1-.12-.1-.11-.1-.12-.1-.11-.1-.12-.1-.11-.1-.12-.1-.11-.1-.12-.1-.11-.1-.11-.1-.12-.1-.1-.1-.12-.1-.11-.1-.12-.1-.1-.1-.12-.1-.1-.1-.12-.1-.11-.1-.11-.1-.11-.11-.11-.1-.11-.1-.1-.11-.12-.1-.1-.1-.12-.11-.1-.1-.11-.11-.11-.1-.1-.1-.11-.11-.11-.1-.1-.11-.12-.11-.1-.1-.1-.11-.11-.1-.11-.11-.1-.11-.11-.1-.1-.11-.11-.11-.1-.1-.11-.12-.1-.1-.1-.11-.11-.11-.1-.11-.11-.1-.1-.12-.1-.1-.1-.12-.11-.1-.1-.12-.1-.1-.1-.12-.11-.1-.1-.12-.1-.11-.1-.11-.1-.12-.1-.1-.11-.12-.1-.11-.1-.12-.1-.11-.1-.11-.1-.12-.1-.11-.1-.12-.1-.11-.1-.12-.1-.11-.1-.12-.1-.11-.1-.12-.1-.12-.1-.12-.1-.11-.09-.12-.1-.12-.1-.12-.1-.12-.09-.12-.1-.12-.1-.12-.09-.12-.1-.12-.1-.12-.09-.12-.1-.12-.09-.12-.1-.13-.09-.12-.1-.12-.09-.13-.1-.12-.09-.12-.1-.13-.09-.12-.1-.13-.09-.13-.09-.12-.1-.13-.09-.13-.09-.13-.1-.12-.08-.13-.1-.13-.09-.13-.09-.13-.1-.13-.08-.13-.1-.13-.08-.14-.1-.13-.09-.13-.09-.13-.09-.14-.08-.13-.1-.14-.08-.13-.1-.14-.08-.13-.09-.14-.09-.14-.08-.14-.1-.13-.08-.14-.09-.14-.08-.14-.09-.14-.08-.14-.09-.14-.09-.14-.08-.15-.09-.14-.08-.14-.08-.15-.09-.14-.08-.15-.08-.14-.09-.15-.08-.14-.08-.15-.08-.15-.08-.15-.09-.15-.08-.14-.08-.15-.08-.15-.07-.16-.08-.15-.08-.15-.08-.15-.08-.15-.08-.16-.07-.15-.08-.16-.08-.15-.07-.16-.08-.15-.07-.16-.07-.16-.08-.16-.07-.16-.07-.16-.08-.16-.07-.16-.07-.16-.07-.16-.07-.16-.07-.16-.07-.17-.07-.16-.07-.17-.07-.16-.06-.17-.07-.16-.07-.17-.06-.17-.07-.17-.06-.17-.06-.16-.07-.17-.06-.17-.06-.18-.06-.17-.06-.17-.06-.17-.06-.18-.06-.17-.06-.17-.06-.18-.06-.18-.05-.17-.06-.18-.05-.18-.06-.17-.05-.18-.05-.18-.06-.18-.05-.18-.05-.18-.05-.18-.05-.19-.05-.18-.04-.18-.05-.18-.05-.19-.04-.18-.05-.19-.04-.18-.04-.2-.05-.18-.04-.19-.04-.18-.04-.2-.04-.18-.04-.19-.03-.19-.04-.2-.04-.18-.03-.2-.03-.19-.04-.19-.03-.2-.03-.18-.03-.2-.03-.2-.03-.19-.03-.2-.02-.19-.03-.2-.02-.2-.03-.19-.02-.2-.02-.2-.02-.2-.02-.2-.02-.2-.02-.2-.02-.2-.02-.2-.01-.2-.01-.2-.02-.2v-.2l-.02-.2-.01-.2v-.21l-.02-.2v-.21l-.01-.2V39l-.01-.21v-1.24l.01-.21.01-.21v-.21l.02-.2v-.22l.02-.2v-.22l.02-.2.02-.22.01-.2.02-.22.02-.2.02-.22.02-.21.02-.21.02-.21.03-.22.02-.2.03-.22.03-.21.02-.22.04-.2.03-.22.03-.21.03-.22.04-.21.04-.21.03-.22.04-.2.04-.22.04-.22.05-.21.04-.21.05-.22.04-.21.05-.21.05-.22.05-.21.05-.21.06-.22.05-.21.06-.21.05-.22.06-.21.06-.21.06-.22.07-.21.06-.21.07-.22.06-.2.07-.22.07-.21.07-.22.07-.2.08-.22.07-.21.08-.21.07-.21.08-.22.08-.2.08-.22.09-.2.08-.22.09-.2.08-.22.1-.2.08-.21.1-.21.09-.21.09-.2.1-.22.1-.2.09-.21.1-.2.1-.21.1-.2.1-.21.1-.2.11-.21.11-.2.11-.21.11-.2.11-.2.12-.2.11-.2.12-.21.11-.2.12-.2.12-.2.12-.2.13-.2.12-.2.12-.2.13-.19.13-.2.13-.19.13-.2.13-.19.13-.19.14-.2.13-.18.14-.2.14-.19.14-.19.14-.18.14-.2.15-.18.14-.19.15-.18.15-.19.15-.18.15-.19.15-.18.15-.18.16-.18.15-.18.16-.18.16-.18.16-.18.16-.17.16-.18.16-.17.17-.18.16-.17.17-.17.17-.17.17-.17.17-.17.17-.17.17-.17.17-.17.18-.16.18-.16.17-.17.18-.16.18-.16.18-.16.19-.16.18-.16.18-.15.19-.16.19-.15.19-.16.18-.15.2-.15.19-.15.19-.15.2-.14.19-.15.2-.15.19-.14.2-.14.2-.14.2-.14.2-.14.2-.14.2-.14.2-.13.21-.13.2-.14.21-.13.21-.13.21-.13.2-.12.22-.13.21-.12.21-.13.22-.12.21-.12.22-.12.21-.12.22-.11.22-.12.22-.11.22-.11.22-.11.22-.11.22-.11.22-.1.23-.11.22-.1.23-.1.22-.1.23-.1.23-.1.22-.1.23-.1.23-.09.23-.09.23-.09.24-.09.23-.08.23-.09.23-.08.24-.09.23-.08.24-.08.23-.07.24-.08.24-.07.24-.08.23-.07.24-.07.24-.07.24-.06.24-.07.24-.06.24-.06.25-.06.24-.06.24-.06.24-.05.25-.06.24-.05.25-.05.24-.05.25-.04.24-.05.25-.04.24-.04.25-.04.24-.04.25-.04.25-.04.25-.03.24-.03.25-.03.25-.03.25-.03.25-.02.25-.03.24-.02.25-.02.25-.02.25-.01.25-.02.25-.01.25-.01.25-.01.25-.01.25-.01h.5l.25-.01h.75l.25.01h.25l.25.02h.25l.25.02.25.01.25.02.25.01.25.02.25.02.25.02.24.03.25.02.25.03.25.03.25.03.24.03.25.04.25.03.25.04.24.04.25.04.24.04.25.04.25.05.24.05.25.04.24.05.24.06.25.05.24.06.24.05.24.06.25.06.24.06.24.07.24.06.24.07.24.07.24.07.23.07.24.07.24.07.24.08.23.08.24.08.23.08.24.08.23.08.23.09.23.09.24.09.23.09.23.09.23.09.23.1.22.1.23.09.23.1.22.1.23.1.22.1.23.1.22.11.22.11.22.11.22.11.22.11.22.12.22.11.22.12.21.12.22.12.21.12.22.12.2.12.22.13.21.12.21.13.2.13.22.13.2.13.2.13.21.13.2.14.21.14.2.13.2.14.2.14.2.14.2.15.2.14.2.15.19.14.19.15.2.15.18.15.2.15.18.15.2.15.18.16.18.15.19.16.18.16.18.16.19.16.18.16.17.16.18.16.18.17.17.16.18.17.17.17.17.16.17.17.17.17.17.17.17.18.16.17.17.17.16.18.16.17.16.18.16.18.16.18.16.18.15.18.16.18.15.18.15.18.15.19.15.18.15.19.14.18.15.19.14.19.15.18.14.2.14.18.13.2.14.18.14.2.13.19.14.2.13.19.13.19.13.2.13.2.12.19.13.2.12.2.12.2.12.19.12.2.12.2.12.2.11.2.12.2.11.2.11.2.11.2.11.21.11.2.1.21.11.2.1.21.1.2.1.21.1.2.1.22.1.2.1.21.09.2.1.22.08.2.1.21.08.21.09.21.08.21.09.21.08.21.08.21.08.21.08.21.08.22.07.2.08.22.07.21.07.21.07.22.07.2.07.22.07.21.06.22.07.2.06.22.06.21.06.22.06.21.06.21.05.22.06.21.05.22.05.2.05.22.05.22.05.2.05.22.04.22.05.21.04.21.04.22.04.21.04.21.04.22.03.21.04.21.03.22.03.2.04.22.03.21.03.22.02.2.03.22.03.21.02.21.02.22.02.2.02.22.02.21.02.21.02.21.01.21.02.21.01.21.01.21.01.21.01.21.01.2.01.22v.2l.01.21v.42l.01.2v1.03l-.01.21v.2l-.01.21-.01.2-.01.21-.01.2-.01.2-.01.2-.02.21-.01.2-.02.2-.01.2-.02.2-.02.2-.02.2-.02.2-.02.2-.02.2-.02.2-.03.2-.02.2-.03.19-.02.2-.03.2-.03.19-.03.19-.03.2-.03.19-.03.2-.04.18-.03.2-.04.19-.03.19-.04.19-.04.19-.03.19-.04.19-.04.19-.04.18-.05.2-.04.18-.04.18-.04.19-.05.18-.05.19-.04.18-.05.19-.05.18-.04.18-.05.18-.05.19-.05.18-.06.18-.05.18-.05.18-.06.17-.05.18-.05.18-.06.18-.06.17-.05.18-.06.17-.06.18-.06.17-.06.18-.06.17-.06.17-.06.17-.06.17-.06.17-.07.17-.06.17-.07.17-.06.17-.07.17-.06.16-.07.17-.07.17-.06.16-.07.17-.07.16-.07.16-.07.17-.07.16-.07.16-.07.16-.08.16-.07.16-.07.16-.07.16-.08.16-.07.16-.08.15-.07.16-.08.15-.07.16-.08.15-.08.16-.08.15-.07.16-.08.15-.08.15-.08.15-.08.15-.08.15-.08.15-.08.15-.08.15-.08.15-.08.15-.08.14-.09.15-.08.15-.08.14-.09.15-.08.14-.08.14-.09.15-.08.14-.09.14-.08.14-.09.14-.09.14-.08.15-.09.13-.08.14-.1.14-.08.14-.09.14-.09.14-.08.13-.1.14-.08.13-.09.14-.09.13-.09.14-.09.13-.09.13-.09.14-.09.13-.1.13-.08.13-.1.13-.08.13-.1.13-.09.13-.1.13-.08.13-.1.13-.09.13-.1.13-.09.12-.09.13-.1.13-.09.12-.09.13-.1.12-.09.13-.1.12-.09.12-.1.13-.09.12-.1.12-.1.12-.09.13-.1.12-.09.12-.1.12-.1.12-.09.12-.1.12-.1.12-.1.12-.09.12-.1.11-.1.12-.1.12-.09.12-.1.11-.1.12-.1.12-.1.11-.1.12-.1.11-.1.12-.1.11-.1.12-.1.11-.1.12-.1.1-.1.12-.1.11-.1.12-.1.1-.1.12-.1.11-.1.11-.1.12-.1.1-.1.12-.11.1-.1.12-.1.1-.1.12-.11.1-.1.12-.1.1-.11.11-.1.11-.11.11-.1.1-.1.12-.11.1-.1.11-.11.1-.1.11-.12.11-.1.1-.1.11-.11.1-.1.11-.12.11-.1.1-.11.11-.1.1-.12.11-.1.1-.11.1-.1.11-.12.1-.1.11-.12.1-.1.1-.11.11-.11.1-.11.1-.11.1-.11.11-.12.1-.1.1-.12.1-.11.1-.11.1-.11.11-.12.1-.1.1-.12.1-.12.1-.1.1-.12.1-.12.1-.11.1-.12.1-.11.1-.12.1-.11.1-.12.1-.12.1-.11.1-.12.1-.12.1-.11.1-.12.09-.12.1-.12.1-.12.1-.12.09-.12.1-.12.1-.12.09-.12.1-.12.1-.12.09-.12.1-.13.09-.12.1-.12.09-.13.1-.12.09-.12.1-.13.09-.12.1-.13.09-.13.1-.12.08-.13.1-.13.1-.12.08-.13.1-.13.09-.13.1-.13.08-.13.1-.13.09-.13.09-.13.09-.13.1-.14.08-.13.1-.13.08-.13.1-.14.08-.13.1-.14.08-.13.09-.14.09-.14.09-.13.08-.14.1-.14.08-.14.09-.13.08-.14.1-.14.08-.14.08-.15.09-.14.08-.14.09-.14.08-.14.09-.15.08-.14.09-.15.08-.14.08-.15.09-.14.08-.15.08-.15.08-.15.09-.14.08-.15.08-.15.08-.15.08-.15.08-.15.08-.16.07-.15.08-.15.08-.15.08-.16.08-.15.07-.16.08-.15.07-.16.08-.16.07-.15.08-.16.07-.16.08-.16.07-.16.07-.16.07-.16.08-.16.07-.16.07-.17.07-.16.07-.16.07-.17.07-.16.06-.17.07-.16.07-.17.06-.17.07-.17.07-.16.06-.17.06-.17.07-.17.06-.17.06-.18.06-.17.07-.17.06-.17.06-.18.06-.17.05-.18.06-.17.06-.18.06-.17.05-.18.06-.18.05-.18.06-.18.05-.17.05-.18.05-.19.05-.18.05-.18.05-.18.05-.18.05-.19.05-.18.04-.18.05-.19.05-.19.04-.18.04-.19.05-.19.04-.18.04-.2.04-.18.04-.19.04-.19.04-.19.03-.19.04-.2.03-.18.04-.2.03-.19.03-.2.04-.19.03-.19.03-.2.03-.19.02-.2.03-.2.03-.19.02-.2.03-.2.02-.2.02-.19.02-.2.02-.2.02-.2.02-.2.02-.2.02-.2.01-.2.02-.2.01-.2.01-.2.01-.21.02h-.2l-.2.01-.21.01h-.2l-.21.01H38.89l-.21.01h-1.04l-.2-.01h-.21l-.21-.01-.2-.01-.22-.01-.2-.01-.22-.01-.2-.02-.22-.01-.2-.02-.22-.01-.2-.02-.22-.02-.21-.02-.21-.02-.21-.02-.22-.02-.2-.03-.22-.03-.21-.02-.21-.03-.22-.03-.2-.03-.22-.03-.21-.04-.22-.03-.21-.04-.21-.03-.22-.04-.21-.04-.21-.04-.22-.05-.21-.04-.21-.04-.22-.05-.21-.05-.22-.05-.2-.05-.22-.05-.22-.05-.2-.06-.22-.05-.22-.06-.2-.06-.22-.05-.22-.07-.2-.06-.22-.06-.21-.06-.22-.07-.21-.07-.21-.07-.21-.07-.22-.07-.2-.07-.22-.08-.21-.07-.21-.08-.21-.08-.22-.07-.2-.09-.22-.08-.2-.08-.22-.09-.2-.08-.22-.09-.2-.09-.21-.09-.21-.1-.21-.08-.2-.1-.21-.1-.21-.1-.2-.1-.21-.1-.21-.1-.2-.1-.21-.1-.2-.1-.2-.11-.21-.1-.2-.12-.2-.11-.21-.11-.2-.12-.2-.11-.2-.12-.2-.12-.2-.11-.2-.12-.2-.13-.2-.12-.2-.12-.2-.13-.19-.13-.2-.13-.19-.13-.2-.13-.19-.13-.19-.13-.2-.14-.18-.14-.2-.13-.18-.14-.2-.14-.18-.15-.2-.14-.18-.14-.18-.15-.19-.15-.18-.14-.19-.15-.18-.16-.18-.15-.19-.15-.18-.16-.18-.15-.17-.16-.18-.16-.18-.16-.18-.16-.17-.16-.18-.17-.17-.16-.17-.17-.17-.17-.17-.16-.17-.17-.17-.18-.17-.17-.17-.17-.16-.18-.17-.17-.16-.18-.16-.18-.16-.18-.16-.18-.16-.18-.16-.18-.16-.19-.15-.18-.16-.19-.15-.19-.16-.18-.15-.2-.15-.18-.15-.2-.14-.19-.15-.2-.15-.19-.14-.2-.14-.2-.15-.2-.14-.19-.14-.2-.13-.2-.14-.2-.14-.2-.13-.21-.13-.2-.14-.21-.13-.21-.13-.21-.12-.2-.13-.22-.12-.21-.13-.21-.12-.22-.12-.21-.12-.21-.12-.22-.12-.22-.11-.21-.12-.22-.1-.22-.12-.22-.11-.22-.1-.22-.12-.23-.1-.22-.1-.22-.1-.23-.1-.22-.1-.23-.1-.23-.1-.23-.1-.22-.1-.23-.08-.23-.1-.23-.08-.23-.1-.24-.08-.23-.08-.23-.09-.24L3 63l-.08-.24-.08-.23-.07-.24-.08-.24-.07-.23-.07-.24-.07-.24-.07-.24-.07-.24-.07-.24-.06-.24-.06-.24-.06-.24-.06-.24-.06-.25-.06-.24-.05-.24-.05-.24-.05-.25-.05-.24-.05-.25-.05-.24-.04-.25-.04-.24-.05-.25-.03-.25-.04-.24-.04-.25-.03-.25-.04-.25-.03-.24-.03-.25-.02-.25-.03-.25-.03-.25-.02-.25-.02-.24-.02-.25-.02-.25-.01-.25-.02-.25v-.25l-.02-.25v-.25L1 51.99v-.75L1 50.99v-.75l.01-.25.01-.25.01-.25.01-.25.01-.25.02-.25.02-.25.01-.25.02-.25.02-.25.03-.25.02-.24.03-.25.03-.25.03-.25.03-.25.03-.24.03-.25.04-.25.04-.24.04-.25.04-.25.04-.24.05-.25.04-.24.05-.25.05-.24.05-.25.05-.24.06-.24.06-.25.05-.24.06-.24.06-.24.07-.24.06-.24.07-.24.06-.24.07-.24.07-.24.08-.24.07-.24.07-.23.08-.24.08-.24.08-.23.08-.23.08-.24.09-.23.09-.23.08-.24.1-.23.08-.23.1-.23.09-.23.1-.23.1-.22.09-.23.1-.23.1-.22.1-.23.1-.22.11-.22.11-.23.1-.22.12-.22.11-.22.11-.22.12-.22.11-.21.12-.22.12-.22.12-.21.12-.21.12-.22.13-.2.12-.22.13-.21.13-.2.13-.22.13-.2.13-.21.13-.2.14-.21.13-.2.14-.2.14-.2.14-.2.14-.2.14-.2.14-.2.15-.2.14-.2.15-.19.15-.2.15-.18.15-.2.15-.18.15-.2.15-.18.16-.19.16-.18.15-.18.16-.19.16-.18.16-.18.16-.18.16-.18.17-.17.16-.18.17-.17.17-.18.16-.17.17-.17.17-.17.17-.17.17-.17.18-.16.17-.17.17-.16.18-.16.18-.17.17-.16.18-.15.18-.16.18-.16.18-.15.18-.16.19-.15.18-.15.18-.15.19-.15.18-.14.19-.15.19-.14.18-.15.2-.14.18-.14.2-.14.18-.14.2-.13.19-.14.19-.13.2-.13.19-.14.2-.13.19-.12.2-.13.2-.13.19-.12.2-.12.2-.13.2-.12.2-.12.2-.11.2-.12.2-.11.2-.12.2-.11.2-.11.2-.11.2-.1.21-.12.2-.1.21-.1.2-.1.21-.1.21-.1.2-.1.21-.1.21-.1.2-.1.22-.09.2-.09.21-.09.21-.09.21-.09.21-.08.21-.09.21-.08.21-.08.21-.08.21-.08.22-.08.2-.08.22-.07.21-.08.21-.07.21-.07.22-.07.2-.07.22-.07.21-.06.22-.07.21-.06.21-.06.22-.06.21-.06.21-.06.22-.05.21-.06.21-.05.22-.06.21-.05.21-.05.22-.05.21-.04.21-.05.22-.04.21-.05.21-.04.22-.04.21-.04.21-.04.22-.04.21-.03.21-.04.22-.03.21-.03.21-.03.21-.03.22-.03.21-.03.21-.02.21-.03.22-.02.2-.02.22-.02.2-.02.22-.02.21-.02.21-.02.21-.01.21-.02h.21l.21-.02.21-.01h.21l.2-.02h.22l.2-.01h.42l.2-.01h1.24l.21.01.2.01h.2l.21.02h.2l.2.02h.21l.2.02.2.01.2.02.2.01.2.02.2.02.2.02.2.02.2.02.2.02.2.02.2.02.2.03.2.02.2.03.19.03.2.03.19.03.2.03.19.03.19.03.2.03.18.03.2.04.19.03.19.04.19.04.19.04.19.03.19.04.18.04.2.05.18.04.19.04.18.04.19.05.18.04.19.05.18.05.18.04.19.05.18.05.18.05.18.05.18.05.18.05.18.06.18.05.18.05.17.06.18.05.18.06.17.06.18.05.17.06.18.06.17.06.18.06.17.06.17.06.17.06.17.06.17.07.17.06.17.07.17.06.17.07.16.06.17.07.17.06.16.07.17.07.16.07.16.07.17.07.16.07.16.07.16.07.16.07.16.07.16.08.16.07.16.07.16.08.16.07.15.08.16.07.16.08.15.07.16.08.15.08.15.08.16.07.15.08.15.08.15.08.15.08.15.08.15.08.15.08.15.08.15.08.14.09.15.08.15.08.14.08.15.09.14.08.14.08.15.09.14.08.14.09.15.08.14.09.14.08.14.09.14.09.14.08.14.09.13.09.14.08.14.1.14.08.13.09.14.09.13.09.14.09.13.09.14.09.13.09.13.09.14.09.13.09.13.09.13.09.13.1.13.08.13.1.13.09.13.09.13.1.13.08.12.1.13.09.13.1.13.09.12.1.13.09.12.09.13.1.12.09.12.1.13.09.12.1.12.09.13.1.12.09.12.1.12.1.12.09.12.1.12.1.12.09.12.1.12.1.12.1.12.09.12.1.11.1.12.1.12.1.12.09.11.1.12.1.11.1.12.1.11.1.12.1.11.1.12.1.11.1.11.1.12.1.11.1.11.1.12.1.1.1.12.1.11.1.11.1.11.1.11.1.12.11.1.1.12.1.1.1.11.11.11.1.11.1.11.11.11.1.1.11.12.1.1.1.11.11.1.1.12.11.1.1.11.11.1.11.11.1.1.11.11.1.11.12.1.1.11.1.1.12.11.1.1.11.1.1.11.12.1.1.11.11.1.11.1.11.11.11.1.11.1.11.1.11.11.11.1.11.1.11.1.11.1.12.11.1.1.12.1.11.1.11.1.12.1.11.1.11.1.12.1.11.1.12.1.11.1.12.1.11.1.12.1.11.1.12.1.12.1.11.1.12.1.12.1.12.1.11.09.12.1.12.1.12.09.12.1.12.1.12.09.12.1.12.1.12.09.13.1.12.09.12.1.12.09.13.1.12.09.12.1.13.09.12.1.13.09.13.09.12.1.13.09.13.09.12.1.13.09.13.09.13.09.13.1.13.08.13.1.13.09.13.09.13.09.13.09.13.09.14.09.13.09.13.09.14.09.13.09.14.09.13.08.14.1.14.08.13.09.14.09.14.08.14.09.14.09.14.08.14.09.14.08.14.09.14.08.14.09.15.08.14.09.14.08.15.08.14.09.15.08.14.08.15.08.15.09.14.08.15.08.15.08.15.08.15.08.15.08.15.08.15.08.16.07.15.08.15.08.15.08.16.07.15.08.16.07.15.08.16.07.16.08.16.07.15.08.16.07.16.07.16.07.16.07.16.07.17.07.16.07.16.07.16.07.17.07.16.07.17.07.16.06.17.07.17.06.17.07.16.06.17.07.17.06.17.06.17.07.17.06.17.06.18.06.17.06.17.06.18.05.17.06.18.06.17.05.18.06.18.06.17.05.18.05.18.06.18.05.18.05.18.05.18.05.18.05.18.05.19.05.18.04.18.05.19.04.18.05.19.04.18.05.19.04.19.04.18.04.2.04.18.04.19.04.19.03.19.04.19.04.19.03.2.04.18.03.2.03.19.03.2.03.19.03.2.03.19.03.2.02.19.03.2.03.2.02.19.02.2.02.2.03.2.02.2.01.2.02.2.02.2.02.2.01.2.01.2.02.2.01.2.01.2.01.2V62l.02.2v.21l.01.2V63.01l.01.21v1.24l-.01.21-.01.21v.2l-.02.22v.2l-.02.22-.01.2-.01.22-.02.2-.01.22-.02.2-.02.22-.02.2-.02.22-.02.21-.02.21-.03.22-.02.2-.03.22-.03.21-.03.21-.03.22-.03.21-.03.21-.03.22-.04.2-.04.22-.03.22-.04.2-.04.22-.05.22-.04.2-.04.22-.05.22-.05.2-.04.22-.05.22-.05.21-.06.21-.05.22-.05.21-.06.21-.06.22-.06.21-.06.21-.06.22-.06.21-.06.21-.07.22-.07.2-.06.22-.07.21-.07.22-.08.2-.07.22-.07.21-.08.21-.08.21-.08.21-.08.22-.08.2-.08.22-.09.2-.08.22-.09.2-.09.21-.09.21-.09.21-.09.21-.1.2-.09.22-.1.2-.1.2-.1.22-.1.2-.1.2-.1.21-.1.2-.11.21-.1.2-.12.2-.1.21-.12.2-.11.2-.12.2-.11.2-.12.2-.12.2-.12.2-.12.2-.12.2-.12.2-.13.2-.13.2-.12.2-.13.19-.13.2-.14.18-.13.2-.13.2-.14.18-.14.2-.14.18-.14.2-.14.18-.14.2-.14.18-.15.18-.15.2-.14.18-.15.18-.15.18-.16.19-.15.18-.15.18-.16.18-.15.18-.16.18-.16.17-.16.18-.17.18-.16.17-.16.18-.17.17-.17.17-.16.17-.17.17-.17.17-.17.17-.18.17-.17.16-.18.17-.17.16-.18.16-.18.17-.18.16-.18.16-.18.16-.19.15-.18.16-.19.16-.19.15-.18.15-.2.15-.18.16-.2.14-.19.15-.2.15-.19.15-.2.14-.19.15-.2.14-.2.14-.2.14-.2.14-.2.14-.2.13-.2.14-.2.13-.22.13-.2.13-.21.13-.2.13-.22.13-.2.12-.22.13-.21.12-.22.12-.21.12-.22.12-.21.12-.22.12-.22.11-.22.12-.22.1-.22.12-.22.1-.22.11-.22.11-.23.1-.22.1-.23.11-.22.1-.23.1-.23.1-.22.1-.23.09-.23.1-.23.08-.23.1-.24.08-.23.09-.23.08-.23.09-.24.08-.23.08-.24.08-.23.08-.24.07-.24.08-.24.07-.23.07-.24.07-.24.07-.24.06-.24.07-.24.06-.25.06-.24.06-.24.06-.24.06-.24.05-.25.06-.24.05-.25.05-.24.05-.25.05-.24.04-.25.04-.24.05-.25.04-.25.03-.24.04-.25.04-.25.03-.25.03-.24.03-.25.03-.25.03-.25.02-.25.03-.25.02-.24.02-.25.02-.25.01-.25.02-.25.01-.25.02h-.25l-.25.01-.25.01h-.5l-.25.01h-.75l-.25-.01h-.25l-.25-.02h-.25l-.25-.02-.25-.01-.25-.02-.25-.02-.25-.01-.25-.02-.25-.03-.24-.02-.25-.02-.25-.03-.25-.03-.25-.03-.25-.03-.24-.04-.25-.03-.25-.04-.24-.04-.25-.04-.25-.04-.24-.05-.25-.04-.24-.05-.25-.05-.24-.05-.24-.05-.25-.05-.24-.06-.24-.06-.25-.05-.24-.06-.24-.07-.24-.06-.24-.06-.24-.07-.24-.07-.24-.07-.24-.07-.23-.07-.24-.08-.24-.07-.23-.08-.24-.08-.23-.08-.24-.08-.23-.09-.23-.08-.24-.1-.23-.08-.23-.09-.23-.1-.23-.08-.23-.1-.22-.1-.23-.1-.23-.1-.22-.1-.23-.1-.22-.1-.23-.1-.22-.11-.22-.1-.22-.12-.22-.1-.22-.12-.22-.11-.22-.12-.22-.11-.21-.12-.22-.12-.21-.12-.21-.12-.22-.13-.2-.12-.22-.13-.2-.13-.22-.12-.2-.13-.21-.13-.2-.14-.21-.13-.2-.14-.21-.13-.2-.14-.2-.14-.2-.14-.2-.14-.2-.14-.2-.15-.2-.14-.19-.15-.19-.15-.2-.14-.18-.15-.2-.16-.18-.15-.19-.15-.19-.16-.18-.15-.19-.16-.18-.16-.18-.15-.18-.16-.18-.17-.18-.16-.18-.16-.18-.16-.17-.17-.18-.17-.17-.16-.17-.17-.17-.17-.17-.17-.17-.17-.16-.17-.17-.18-.16-.17-.17-.18-.16-.17-.16-.18-.16-.18-.16-.18-.15-.17-.16-.18-.15-.19-.16-.18-.15-.18-.15-.18-.15-.19-.14-.18-.15-.19-.15-.19-.14-.18-.14-.2-.14-.18-.14-.2-.14-.18-.14-.2-.13-.18-.14-.2-.13-.2-.13-.18-.13-.2-.13-.2-.13-.19-.13-.2-.12-.2-.13-.2-.12-.19-.12-.2-.12-.2-.12-.2-.11-.2-.12-.2-.11-.2-.12-.2-.1-.2-.12-.2-.1-.21-.11-.2-.11-.21-.1-.2-.1-.21-.11-.2-.1-.21-.1-.2-.1-.21-.1-.21-.09-.21-.1-.2-.09-.22-.09-.2-.09-.21-.08-.21-.1-.21-.08-.21-.08-.21-.08-.21-.08-.21-.08-.21-.08-.21-.08-.22-.08-.2-.07-.22-.07-.21-.08-.21-.07-.22-.07-.2-.06-.22-.07-.21-.06-.22-.07-.2-.06-.22-.06-.21-.06-.22-.06-.21-.06-.21-.05-.22-.06-.21-.05-.21-.05-.22-.05-.21-.05-.22-.05-.2-.05-.22-.04-.22-.05-.21-.04-.21-.04-.22-.04-.21-.04-.21-.04-.22-.03-.2-.04-.22-.03-.22-.04-.2-.03-.22-.03-.21-.03-.22-.02-.2-.03-.22-.03-.21-.02-.21-.02-.22-.02-.2-.02-.22-.02-.21-.02-.21-.02-.21-.01-.21-.02-.21-.01-.21-.01-.21-.02-.21v-.21l-.01-.2-.01-.22v-.2l-.01-.21V64.03l-.01-.22V62.8l.01-.21v-.2l.01-.21.01-.2.01-.2.01-.21.01-.2.01-.2.02-.21.01-.2.02-.2.01-.2.02-.2.02-.2.02-.2.02-.2.02-.2.02-.2.02-.2.03-.2.02-.2.03-.19.03-.2.02-.19.03-.2.03-.19.03-.2.03-.19.04-.19.03-.2.03-.18.04-.2.03-.19.04-.19.04-.19.04-.19.03-.19.04-.18.05-.2.04-.18.04-.19.04-.18.05-.19.04-.18.05-.19.04-.18.05-.19.05-.18.05-.18.05-.18.05-.18.05-.19.05-.18.05-.17.05-.18.06-.18.05-.18.06-.18.05-.17.06-.18.06-.18.05-.17.06-.18.06-.17.06-.17.06-.18.06-.17.06-.17.07-.17.06-.17.06-.17.06-.17.07-.17.06-.17.07-.16.07-.17.06-.17.07-.16.07-.17.07-.16.07-.17.06-.16.07-.16.07-.17.08-.16.07-.16.07-.16.07-.16.07-.16.08-.16.07-.15.08-.16.07-.16.08-.16.07-.15.08-.16.07-.15.08-.16.08-.15.08-.15.07-.16.08-.15.08-.15.08-.15.08-.15.08-.15.08-.15.08-.15.08-.15.09-.14.08-.15.08-.15.08-.14.09-.15.08-.14.08-.15.09-.14.08-.14.09-.15.08-.14.09-.14.08-.14.09-.14.09-.14.08-.14.09-.14.09-.14.08-.14.1-.13.08-.14.09-.14.09-.13.08-.14.1-.13.08-.14.1-.13.08-.14.1-.13.08-.13.1-.14.08-.13.1-.13.09-.13.09-.13.09-.13.1-.13.08-.13.1-.13.09-.13.1-.12.09-.13.09-.13.1-.13.09-.12.09-.13.1-.12.09-.13.1-.12.09-.13.1-.12.09-.12.1-.13.09-.12.1-.12.1-.12.09-.12.1-.12.09-.13.1-.12.1-.12.09-.12.1-.11.1-.12.1-.12.09-.12.1-.12.1-.12.1-.11.1-.12.1-.12.09-.11.1-.12.1-.11.1-.12.1-.11.1-.12.1-.11.1-.12.1-.11.1-.11.1-.12.1-.11.1-.11.1-.11.1-.12.1-.1.1-.12.1-.11.11-.11.1-.11.1-.11.1-.11.11-.11.1-.11.1-.11.1-.11.11-.11.1-.1.11-.12.1-.1.1-.11.11-.11.1-.1.11-.12.1-.1.11-.1.11-.12.1-.1.11-.1.1-.11.11-.11.11-.1.1-.11.12-.1.1-.11.11-.1.1-.1.12-.11.1-.1.11-.11.11-.1.11-.1.11-.11.1-.1.12-.1.1-.11.12-.1.11-.1.11-.1.11-.1.11-.11.11-.1.12-.1.1-.1.12-.1.11-.1.12-.1.11-.1.11-.1.12-.1.11-.1.12-.1.11-.1.12-.1.11-.1.12-.1.11-.1.12-.1.12-.1.11-.1.12-.1.12-.1.12-.1.12-.1.11-.09.12-.1.12-.1.12-.09.12-.1.12-.1.12-.09.13-.1.12-.1.12-.09.12-.1.12-.09.13-.1.12-.09.13-.1.12-.09.12-.1.13-.09.13-.1.12-.09.13-.09.12-.1.13-.09.13-.09.13-.1.13-.08.13-.1.12-.09.13-.09.14-.1.13-.08.13-.1.13-.09.13-.09.13-.09.14-.09.13-.09.13-.09.14-.09.13-.08.14-.1.14-.08.13-.1.14-.08.14-.09.13-.08.14-.1.14-.08.14-.09.14-.08.14-.09.14-.08.14-.09.15-.08.14-.09.14-.08.14-.09.15-.08.14-.09.15-.08.14-.08.15-.08.15-.09.14-.08.15-.08.15-.08.15-.08.15-.08.15-.08.15-.08.15-.08.15-.08.15-.08.16-.07.15-.08.16-.08.15-.08.15-.07.16-.08.16-.07.15-.08.16-.07.16-.08.16-.07.16-.07.16-.08.16-.07.16-.07.16-.07.16-.07.16-.07.17-.07.16-.07.16-.07.17-.07.17-.06.16-.07.17-.07.17-.06.16-.07.17-.06.17-.07.17-.06.17-.06.17-.07.17-.06.17-.06.18-.06.17-.06.17-.06.18-.06.17-.05.18-.06.17-.06.18-.05.18-.06.18-.05.17-.06.18-.05.18-.05.18-.06.18-.05.18-.05.19-.05.18-.05.18-.04.18-.05.19-.05.18-.04.19-.05.18-.04.19-.05.19-.04.18-.04.2-.04.18-.04.19-.04.19-.04.19-.04.19-.03.19-.04.19-.04.2-.03.18-.03.2-.04.19-.03.2-.03.19-.03.2-.03.19-.03.2-.02.2-.03.19-.02.2-.03.2-.02.19-.02.2-.03.2-.02.2-.02.2-.01.2-.02.2-.02.2-.01.2-.02.2-.01.2-.01.2-.02h.21l.2-.02h.2l.21-.01h.2l.21-.01H63.12l.2-.01h1.04l.21.01h.21l.2.01.22.01.2.01.22.01.2.01.22.02.2.01.22.02.2.01.22.02.2.02.22.02.21.02.21.02.21.03.22.02.2.03.22.02.21.03.22.03.2.03.22.03.21.04.22.03.21.04.21.04.22.03.21.04.21.05.22.04.21.04.21.05.22.04.21.05.21.05.22.05.21.05.22.05.2.06.22.05.22.06.2.06.22.06.22.06.2.06.22.06.21.07.22.06.2.07.22.07.21.07.22.07.2.07.22.08.21.07.21.08.21.08.21.08.22.08.2.08.22.08.2.09.22.09.2.08.21.1.21.08.21.1.2.09.22.1.2.09.21.1.2.1.21.1.2.1.21.1.21.1.2.1.2.12.21.1.2.11.2.11.21.12.2.11.2.12.2.11.2.12.2.12.2.12.2.12.2.12.2.13.2.13.19.12.2.13.19.13.2.13.19.14.19.13.2.13.18.14.2.14.18.14.2.14.18.14.19.14.19.15.18.15.19.14.18.15.19.15.18.15.18.15.18.16.18.15.18.16.18.16.18.16.18.16.17.16.18.16.17.16.18.17.17.17.17.16.17.17.17.17.17.17.17.17.16.18.17.17.16.18.17.18.16.17.16.18.16.19.16.18.16.18.16.18.15.19.16.19.15.18.15.2.15.18.15.2.15.18.15.2.15.2.14.19.15.2.14.2.14.19.14.2.14.2.14.2.14.2.13.2.14.21.13.2.13.21.13.21.13.2.13.22.13.2.12.22.12.21.13.21.12.22.12.21.12.22.11.22.12.21.11.22.11.22.12.22.1.22.11.22.11.23.1.22.11.22.1.23.1.22.1.23.1.23.1.23.1.22.09.23.09.23.09.23.09.23.09.24.08.23.09.23.08.24.08.23.08.24.08.23.08.24.07.24.07.23.08.24.07.24.07.24.06.24.07.24.06.24.06.24.07.24.05.24.06.25.06.24.05.24.05.25.06.24.05.24.04.25.05.24.04.25.05.25.04.24.04.25.03.24.04.25.04.25.03.25.03.24.03.25.03.25.02.25.03.25.02.25.02.25.02.24.02.25.01.25.02.25.01.25.01.25.01.25v.25l.01.25v.5l.01.23Z" clip-rule="evenodd"/>
    </symbol>
    <symbol id="light" fill="currentColor" viewBox="0 0 24 24">
        <path d="M20.993 13.313a6 6 0 01-7.306-7.306 7 7 0 107.306 7.306z"/>
        <path fill-rule="evenodd" d="M4.5 8.25a.5.5 0 01.5.5v1.5a.5.5 0 01-1 0v-1.5a.5.5 0 01.5-.5z" clip-rule="evenodd"/>
        <path fill-rule="evenodd" d="M3.25 9.5a.5.5 0 01.5-.5h1.5a.5.5 0 010 1h-1.5a.5.5 0 01-.5-.5zM7.5 3a.5.5 0 01.5.5v2a.5.5 0 01-1 0v-2a.5.5 0 01.5-.5z" clip-rule="evenodd"/>
        <path fill-rule="evenodd" d="M6 4.5a.5.5 0 01.5-.5h2a.5.5 0 010 1h-2a.5.5 0 01-.5-.5z" clip-rule="evenodd"/>
    </symbol>
    <symbol id="dark" fill="currentColor" viewBox="0 0 24 24">
        <path d="M12 16.5A4.505 4.505 0 017.5 12c0-2.481 2.019-4.5 4.5-4.5s4.5 2.019 4.5 4.5-2.019 4.5-4.5 4.5z"/>
        <path fill-rule="evenodd" d="M12 3a.5.5 0 01.5.5v2a.5.5 0 01-1 0v-2A.5.5 0 0112 3zM18 12a.5.5 0 01.5-.5h2a.5.5 0 010 1h-2a.5.5 0 01-.5-.5zM3 12a.5.5 0 01.5-.5h2a.5.5 0 010 1h-2A.5.5 0 013 12zM12 18a.5.5 0 01.5.5v2a.5.5 0 01-1 0v-2a.5.5 0 01.5-.5zM18.354 5.646a.5.5 0 010 .708l-1.5 1.5a.5.5 0 01-.708-.708l1.5-1.5a.5.5 0 01.708 0zM7.854 16.146a.5.5 0 010 .708l-1.5 1.5a.5.5 0 01-.708-.708l1.5-1.5a.5.5 0 01.708 0zM5.646 5.646a.5.5 0 01.708 0l1.5 1.5a.5.5 0 11-.708.708l-1.5-1.5a.5.5 0 010-.708zM16.146 16.146a.5.5 0 01.708 0l1.5 1.5a.5.5 0 01-.708.708l-1.5-1.5a.5.5 0 010-.708z" clip-rule="evenodd"/>
    </symbol>
    <symbol id="BTC" fill="currentColor" viewBox="0 0 24 24">
        <path fill-rule="evenodd" d="M13.425 6.432c1.983.19 3.538.778 3.71 2.528.117 1.276-.438 2.035-1.355 2.463 1.481.359 2.382 1.202 2.196 3.072-.227 2.343-2.035 2.952-4.62 3.08l.004 2.42-1.522.002-.004-2.42c-.166-.002-.34 0-.519.003-.238.003-.484.006-.731-.001l.004 2.42-1.52.001-.004-2.42-3.044-.058.256-1.768s1.15.024 1.129.012c.423-.002.549-.293.58-.485l-.008-3.878.012-2.76c-.046-.288-.248-.634-.87-.644.033-.03-1.115.001-1.115.001L6 6.38l3.12-.005-.004-2.37 1.571-.002.004 2.37c.304-.008.603-.005.906-.003l.3.002-.005-2.37L13.422 4l.003 2.432zm-2.92 4.46l.076.002c.926.04 3.67.155 3.673-1.457-.004-1.532-2.339-1.482-3.423-1.46-.129.003-.24.006-.327.005v2.91zm.129 4.75l-.134-.005v-2.91c.097.002.218 0 .359-.002 1.282-.015 4.145-.05 4.132 1.494.014 1.597-3.218 1.468-4.357 1.423z" clip-rule="evenodd"/>
    </symbol>
    <symbol id="sats" fill="none" viewBox="0 0 30 30">
        <path stroke="currentColor" stroke-width="2" d="M8 10H22"/>
        <path stroke="currentColor" stroke-width="2" d="M15 7V4"/>
        <path stroke="currentColor" stroke-width="2" d="M15 26V23"/>
        <path stroke="currentColor" stroke-width="2" d="M8 15H22"/>
        <path stroke="currentColor" stroke-width="2" d="M8 20H22"/>
    </symbol>
    <symbol id="show" fill="currentColor" viewBox="0 0 24 24">
        <path d="M12 14a2 2 0 100-4 2 2 0 000 4z"/>
        <path fill-rule="evenodd" d="M21 12c0 2.761-4.03 5-9 5s-9-2.239-9-5 4.03-5 9-5 9 2.239 9 5zm-5 0a4 4 0 11-8 0 4 4 0 018 0z" clip-rule="evenodd"/>
    </symbol>
    <symbol id="hide" fill="currentColor" viewBox="0 0 24 24">
        <path d="M14.33 7.17C13.588 7.058 12.807 7 12 7c-4.97 0-9 2.239-9 5 0 1.44 1.096 2.738 2.85 3.65l2.362-2.362a4 4 0 015.076-5.076l1.043-1.043zM11.23 15.926a4 4 0 004.695-4.695l2.648-2.647C20.078 9.478 21 10.68 21 12c0 2.761-4.03 5-9 5-.598 0-1.183-.032-1.749-.094l.98-.98zM17.793 5.207a1 1 0 111.414 1.414L6.48 19.35a1 1 0 11-1.414-1.414L17.793 5.207z"/>
    </symbol>
    <symbol id="wallet" fill="none" stroke="currentColor" viewBox="0 0 24 24">
        <path d="M15 17.5h3.005a1.5 1.5 0 001.5-1.5V8a1.5 1.5 0 00-1.5-1.5H15A1.5 1.5 0 0116.5 8v8a1.5 1.5 0 01-1.5 1.5z"/>
        <rect width="12" height="11" x="4.5" y="6.5" rx="1.5"/>
        <circle cx="8.75" cy="11.75" r="1.25"/>
    </symbol>
    <symbol id="gear" fill="none" stroke="currentColor" viewBox="0 0 24 24">
        <path d="M17.3 10.453l1.927.315a.326.326 0 01.273.322v1.793a.326.326 0 01-.27.321l-1.93.339c-.111.387-.265.76-.459 1.111l1.141 1.584a.326.326 0 01-.034.422l-1.268 1.268a.326.326 0 01-.418.037l-1.6-1.123a5.482 5.482 0 01-1.118.468l-.34 1.921a.326.326 0 01-.322.269H11.09a.325.325 0 01-.321-.272l-.319-1.911a5.5 5.5 0 01-1.123-.465l-1.588 1.113a.326.326 0 01-.418-.037L6.052 16.66a.327.327 0 01-.035-.42l1.123-1.57a5.497 5.497 0 01-.47-1.129l-1.901-.337a.326.326 0 01-.269-.321V11.09c0-.16.115-.296.273-.322l1.901-.317c.115-.393.272-.77.47-1.128l-1.11-1.586a.326.326 0 01.037-.417L7.34 6.052a.326.326 0 01.42-.034l1.575 1.125c.354-.194.73-.348 1.121-.46l.312-1.91a.326.326 0 01.322-.273h1.793c.159 0 .294.114.322.27l.336 1.92c.389.112.764.268 1.12.465l1.578-1.135a.326.326 0 01.422.033l1.268 1.268a.326.326 0 01.036.418L16.84 9.342c.193.352.348.724.46 1.11zM9.716 12a2.283 2.283 0 104.566 0 2.283 2.283 0 00-4.566 0z" clip-rule="evenodd"/>
    </symbol>
    <symbol id="grid" fill="none" stroke="currentColor" viewBox="0 0 24 24">
        <path stroke-linecap="round" stroke-linejoin="round" d="M5.5 9.5v-3a1 1 0 011-1h3a1 1 0 011 1v3a1 1 0 01-1 1h-3a1 1 0 01-1-1zM13.5 9.5v-3a1 1 0 011-1h3a1 1 0 011 1v3a1 1 0 01-1 1h-3a1 1 0 01-1-1zM13.5 17.5v-3a1 1 0 011-1h3a1 1 0 011 1v3a1 1 0 01-1 1h-3a1 1 0 01-1-1zM5.5 17.5v-3a1 1 0 011-1h3a1 1 0 011 1v3a1 1 0 01-1 1h-3a1 1 0 01-1-1z"/>
    </symbol>
    <symbol id="joining" fill="currentColor" viewBox="0 0 16 16">
        <path d="M8 9.5a2 2 0 1 0 0-4 2 2 0 0 0 0 4z"/>
        <path d="M9.5 2c-.9 0-1.75.216-2.501.6A5 5 0 0 1 13 7.5a6.5 6.5 0 1 1-13 0 .5.5 0 0 1 1 0 5.5 5.5 0 0 0 8.001 4.9A5 5 0 0 1 3 7.5a6.5 6.5 0 0 1 13 0 .5.5 0 0 1-1 0A5.5 5.5 0 0 0 9.5 2zM8 3.5a4 4 0 1 0 0 8 4 4 0 0 0 0-8z"/>
    </symbol>
    <symbol id="welcome" viewBox="0 0 640 512">
        <path fill="currentColor" d="M624 448h-80V113.45C544 86.19 522.47 64 496 64H384v64h96v384h144c8.84 0 16-7.16 16-16v-32c0-8.84-7.16-16-16-16zM312.24 1.01l-192 49.74C105.99 54.44 96 67.7 96 82.92V448H16c-8.84 0-16 7.16-16 16v32c0 8.84 7.16 16 16 16h336V33.18c0-21.58-19.56-37.41-39.76-32.17zM264 288c-13.25 0-24-14.33-24-32s10.75-32 24-32 24 14.33 24 32-10.75 32-24 32z"/>
    </symbol>
    <symbol id="collab" viewBox="0 0 512 512">
        <path fill="currentColor" d="M200 288H88c-21.4 0-32.1 25.8-17 41l32.9 31-99.2 99.3c-6.2 6.2-6.2 16.4 0 22.6l25.4 25.4c6.2 6.2 16.4 6.2 22.6 0L152 408l31.1 33c15.1 15.1 40.9 4.4 40.9-17V312c0-13.3-10.7-24-24-24zm112-64h112c21.4 0 32.1-25.9 17-41l-33-31 99.3-99.3c6.2-6.2 6.2-16.4 0-22.6L481.9 4.7c-6.2-6.2-16.4-6.2-22.6 0L360 104l-31.1-33C313.8 55.9 288 66.6 288 88v112c0 13.3 10.7 24 24 24zm96 136l33-31.1c15.1-15.1 4.4-40.9-17-40.9H312c-13.3 0-24 10.7-24 24v112c0 21.4 25.9 32.1 41 17l31-32.9 99.3 99.3c6.2 6.2 16.4 6.2 22.6 0l25.4-25.4c6.2-6.2 6.2-16.4 0-22.6L408 360zM183 71.1L152 104 52.7 4.7c-6.2-6.2-16.4-6.2-22.6 0L4.7 30.1c-6.2 6.2-6.2 16.4 0 22.6L104 152l-33 31.1C55.9 198.2 66.6 224 88 224h112c13.3 0 24-10.7 24-24V88c0-21.3-25.9-32-41-16.9z"/>
    </symbol>
    <symbol id="key" fill="currentColor" viewBox="0 0 24 24">
        <path fill-rule="evenodd" d="M18.865 7.374c.74 2.968-1.163 5.998-4.25 6.767a6.01 6.01 0 01-1.155.172l-3.435 5.471a2 2 0 01-1.21.877l-1.974.492a1 1 0 01-1.212-.728l-.445-1.786a2 2 0 01.246-1.547l3.157-5.028a5.338 5.338 0 01-.9-1.903c-.74-2.968 1.162-5.998 4.249-6.768 3.087-.77 6.189 1.013 6.929 3.98zm-4.627 1.324c.685-.171 1.108-.844.944-1.504-.165-.66-.854-1.055-1.54-.884-.686.17-1.109.844-.944 1.503.164.66.854 1.056 1.54.885z" clip-rule="evenodd"/>
    </symbol>
    <symbol id="handshake" viewBox="0 0 640 512">
        <path fill="currentColor" d="M0,128.21V384H64a32,32,0,0,0,32-32V184L23.83,128.21ZM48,320.1a16,16,0,1,1-16,16A16,16,0,0,1,48,320.1Zm80,31.81h18.3l90.5,81.89a64,64,0,0,0,90-9.3l.2-.2,17.91,15.5a37.16,37.16,0,0,0,52.29-5.39l8.8-10.82L128,208.72Zm416-223.7V352.1a32,32,0,0,0,32,32h64V128.21ZM592,352.1a16,16,0,1,1,16-16A16,16,0,0,1,592,352.1ZM303.33,202.67l59.58-54.57a16,16,0,0,1,21.59,23.61L358.41,195.6,504,313.8a73.08,73.08,0,0,1,7.91,7.7V128L457.3,73.41A31.76,31.76,0,0,0,434.7,64H348.8a31.93,31.93,0,0,0-21.6,8.41l-88.07,80.64-25.64-19.81L289.09,64H205.3a32,32,0,0,0-22.6,9.41L162.36,93.72,45.47,3.38A16,16,0,0,0,23,6.19L3.38,31.46A16,16,0,0,0,6.19,53.91L594.53,508.63A16,16,0,0,0,617,505.82l19.65-25.27a16,16,0,0,0-2.82-22.45Z"/>
    </symbol>
    <symbol id="shield-outline" fill="none" stroke="currentColor" viewBox="0 0 24 24">
        <path stroke-linejoin="round" d="M5.5 7c2 0 6.5-3 6.5-3s4.5 3 6.5 3v4.5C18.5 18 12 20 12 20s-6.5-2-6.5-8.5V7z"/>
    </symbol>
    <symbol id="shield-filled" fill="currentColor" viewBox="0 0 24 24">
        <path d="M5 7c0-.276.225-.499.498-.535 2.149-.28 5.282-2.186 6.224-2.785a.516.516 0 01.556 0c.942.599 4.075 2.504 6.224 2.785.273.036.498.259.498.535v4.75c0 6.5-7 8.75-7 8.75s-7-2.25-7-8.75V7z"/>
    </symbol>
    <symbol id="shield-filled-loading" fill="currentColor" viewBox="0 0 24 24">
        <path d="M5 7c0-.276.225-.499.498-.535 2.149-.28 5.282-2.186 6.224-2.785a.516.516 0 01.556 0c.942.599 4.075 2.504 6.224 2.785.273.036.498.259.498.535v4.75c0 6.5-7 8.75-7 8.75s-7-2.25-7-8.75V7z"/>
    </symbol>
    <symbol id="wand" fill="currentColor" viewBox="0 0 24 24">
        <path fill-rule="evenodd" d="M7.999 20l7-7.003a2.822 2.822 0 00-3.99-3.993l-7.007 6.997a2.827 2.827 0 103.997 4zM11 11l2 2 1-1a1.414 1.414 0 10-2-2l-1 1z" clip-rule="evenodd"/>
        <path d="M6.759 4.897c.066-.247.416-.247.482 0L7.6 6.225a.25.25 0 00.176.176l1.328.358c.247.066.247.416 0 .482L7.775 7.6a.25.25 0 00-.176.176L7.24 9.103c-.066.247-.416.247-.482 0L6.4 7.775a.25.25 0 00-.176-.176l-1.329-.358c-.246-.066-.246-.416 0-.482L6.225 6.4a.25.25 0 00.176-.176l.358-1.328zM16.759 3.897c.066-.247.416-.247.482 0l.358 1.328a.25.25 0 00.176.176l1.328.358c.247.066.247.416 0 .482l-1.328.358a.25.25 0 00-.176.176l-.358 1.328c-.066.247-.416.247-.482 0L16.4 6.775a.25.25 0 00-.177-.176l-1.328-.358c-.246-.066-.246-.416 0-.482l1.328-.358a.25.25 0 00.177-.176l.358-1.328zM17.759 12.897c.066-.247.416-.247.482 0l.358 1.328a.25.25 0 00.176.176l1.328.358c.247.066.247.416 0 .482l-1.328.358a.25.25 0 00-.176.176l-.358 1.328c-.066.247-.416.247-.482 0l-.358-1.328a.25.25 0 00-.177-.176l-1.328-.358c-.246-.066-.246-.416 0-.482l1.328-.358a.25.25 0 00.177-.176l.358-1.328z"/>
    </symbol>
    <symbol id="console" fill="currentColor" viewBox="0 0 24 24">
        <path fill-rule="evenodd" d="M3.22 4.47a.75.75 0 011.06 0l7 7a.75.75 0 010 1.06l-7 7a.75.75 0 01-1.06-1.06L9.69 12 3.22 5.53a.75.75 0 010-1.06zM9.25 19a.75.75 0 01.75-.75h10.25a.75.75 0 010 1.5H10a.75.75 0 01-.75-.75z" clip-rule="evenodd"/>
    </symbol>
    <symbol id="checkmark" fill="currentColor" viewBox="0 0 24 24">
        <path fill-rule="evenodd" d="M18.381 5.354a.75.75 0 01.265 1.027l-7.087 12a.75.75 0 01-1.164.16L5.48 13.838a.75.75 0 011.038-1.084l4.23 4.051 6.605-11.185a.75.75 0 011.027-.265z" clip-rule="evenodd"/>
    </symbol>
    <symbol id="caret-up" fill="currentColor" viewBox="0 0 24 24">
        <path fill-rule="evenodd" d="M12.248 8.237a.25.25 0 00-.354 0L5.53 14.601a.75.75 0 11-1.06-1.06l6.363-6.364a1.75 1.75 0 012.475 0l6.364 6.364a.75.75 0 01-1.06 1.06l-6.364-6.364z" clip-rule="evenodd"/>
    </symbol>
    <symbol id="caret-down" fill="currentColor" viewBox="0 0 24 24">
        <path fill-rule="evenodd" d="M4.47 9.4a.75.75 0 011.06 0l6.364 6.364a.25.25 0 00.354 0L18.612 9.4a.75.75 0 011.06 1.06l-6.364 6.364a1.75 1.75 0 01-2.475 0L4.47 10.46a.75.75 0 010-1.06z" clip-rule="evenodd"/>
    </symbol>
    <symbol id="caret-left" fill="currentColor" viewBox="0 0 24 24">
        <path fill-rule="evenodd" d="M14.601 4.47a.75.75 0 010 1.06l-6.364 6.364a.25.25 0 000 .354l6.364 6.364a.75.75 0 01-1.06 1.06l-6.364-6.364a1.75 1.75 0 010-2.474L13.54 4.47a.75.75 0 011.06 0z" clip-rule="evenodd" />
    </symbol>
    <symbol id="caret-right" fill="currentColor" viewBox="0 0 24 24">
        <path fill-rule="evenodd" d="M9.399 4.328a.75.75 0 011.06 0l6.364 6.363a1.75 1.75 0 010 2.475L10.46 19.53a.75.75 0 01-1.06-1.06l6.364-6.364a.25.25 0 000-.354L9.399 5.388a.75.75 0 010-1.06z" clip-rule="evenodd"/>
    </symbol>
    <symbol id="arrow-left" viewBox="0 0 24 24" fill="currentColor">
        <path fill-rule="evenodd" d="M2.461 12a.75.75 0 01.75-.75l17.79.012a.75.75 0 11-.002 1.5L3.21 12.75a.75.75 0 01-.749-.75z" clip-rule="evenodd"></path>
        <path fill-rule="evenodd" d="M10.517 4.47a.75.75 0 01.001 1.06L4.06 12l6.458 6.47a.75.75 0 01-1.061 1.06l-6.988-7a.75.75 0 010-1.06l6.988-7a.75.75 0 011.06 0z" clip-rule="evenodd"></path>
    </symbol>
    <symbol id="mnemonic" stroke="currentColor" fill="none" viewBox="0 0 24 24">
        <rect width="13" height="13" x="5.5" y="5.5" rx="1"></rect><path stroke-linecap="round" d="M15 16h1.5M11.5 16H13M8 16h1.5M15 13.333h1.5M11.5 13.333H13M8 13.333h1.5M15 10.667h1.5M11.5 10.667H13M8 10.667h1.5M15 8h1.5M11.5 8H13M8 8h1.5"></path>
    </symbol>
    <symbol id="globe" fill="currentColor" viewBox="0 0 24 24">
        <path fill-rule="evenodd" d="M10.51 6.617c-.518 1.341-.855 3.245-.855 5.385 0 2.14.337 4.044.856 5.385.26.673.552 1.166.838 1.478.285.312.506.385.651.385.145 0 .366-.073.652-.385.285-.312.577-.805.837-1.478.52-1.341.856-3.245.856-5.385 0-2.14-.337-4.044-.856-5.385-.26-.673-.552-1.166-.838-1.478-.285-.312-.506-.385-.651-.385-.145 0-.366.073-.651.385-.286.312-.578.805-.838 1.478zm-.268-2.49c.455-.499 1.048-.873 1.758-.873s1.303.374 1.758.872c.455.497.83 1.175 1.13 1.95.601 1.553.957 3.649.957 5.926s-.356 4.373-.957 5.926c-.3.774-.675 1.453-1.13 1.95-.455.497-1.048.872-1.758.872s-1.303-.375-1.758-.872c-.455-.497-.83-1.175-1.13-1.95-.601-1.553-.957-3.649-.957-5.926s.356-4.373.957-5.926c.3-.775.675-1.453 1.13-1.95z" clip-rule="evenodd"/>
        <path fill-rule="evenodd" d="M12 4.746a7.25 7.25 0 100 14.5 7.25 7.25 0 000-14.5zm-8.75 7.25a8.75 8.75 0 1117.5 0 8.75 8.75 0 01-17.5 0z" clip-rule="evenodd"/>
        <path fill-rule="evenodd" d="M3.25 11.99a.75.75 0 01.75-.75l16 .012a.75.75 0 110 1.5l-16-.011a.75.75 0 01-.75-.75z" clip-rule="evenodd"/>
    </symbol>
    <symbol id="file" fill="currentColor" viewBox="0 0 24 24">
        <path fill-rule="evenodd" d="M13 4H7.5A1.5 1.5 0 006 5.5v13A1.5 1.5 0 007.5 20h9a1.5 1.5 0 001.5-1.5V9h-.004L13 4zm-1 1.604V9.75c0 .138.112.25.25.25h4.146a.25.25 0 00.177-.427l-4.146-4.146a.25.25 0 00-.427.177z" clip-rule="evenodd"></path>
    </symbol>
    <symbol id="file-outline" fill="none" viewBox="0 0 24 24" stroke="currentColor">
        <path d="M6.5 6A1.5 1.5 0 018 4.5h5.5l4 4V18a1.5 1.5 0 01-1.5 1.5H8A1.5 1.5 0 016.5 18V6z"></path>
        <path stroke-linejoin="round" d="M13 4.5V9h4.5"></path>
    </symbol>
    <symbol id="sweep" fill="none" viewBox="0 0 24 24">
        <path stroke="currentColor" d="M5.5 19.5L18.5 19.5L18.5 12.5C18.5 11.9696 18.2893 11.4609 17.9142 11.0858C17.5391 10.7107 17.0304 10.5 16.5 10.5L13.5 10.5L13.5 7C13.5 6.60217 13.342 6.22064 13.0607 5.93934C12.7794 5.65804 12.3978 5.5 12 5.5C11.6022 5.5 11.2206 5.65804 10.9393 5.93934C10.658 6.22064 10.5 6.60217 10.5 7L10.5 10.5L7.5 10.5C6.96957 10.5 6.46086 10.7107 6.08579 11.0858C5.71071 11.4609 5.5 11.9696 5.5 12.5L5.5 19.5Z"/>
        <path stroke="currentColor" stroke-linecap="round" stroke-linejoin="round" d="M16 19L16 18M18 13.5L6 13.5L18 13.5ZM8 19L8 17L8 19ZM10.5 19L10.5 15.5L10.5 19Z"/>
    </symbol>
    <symbol id="node" fill="none" stroke="currentColor" viewBox="0 0 24 24">
        <path stroke-linecap="round" d="M13.5 7l3.5 3.5M7 13.5l3.5 3.5M10.5 7L7 10.5M17 13.5L13.5 17"/>
        <circle cx="12" cy="5.5" r="2"/>
        <circle cx="12" cy="18.5" r="2"/>
        <circle cx="5.5" cy="12" r="2"/>
        <circle cx="18.5" cy="12" r="2"/>
        <circle cx="12" cy="5.5" r=".5"/>
        <circle cx="12" cy="18.5" r=".5"/>
        <circle cx="5.5" cy="12" r=".5"/>
        <circle cx="18.5" cy="12" r=".5"/>
    </symbol>
    <symbol id="receive" fill="none" stroke="currentColor" viewBox="0 0 24 24">
        <path stroke-linecap="round" stroke-linejoin="round" d="M5 15.747V18a1 1 0 001 1h12a1 1 0 001-1v-2.253M12.202 13.5V5M15.546 11.15l-3.344 3.266-3.344-3.266"/>
    </symbol>
    <symbol id="send" fill="none" stroke="currentColor" viewBox="0 0 24 24">
        <path stroke-linecap="round" stroke-linejoin="round" d="M5 15.747V18a1 1 0 001 1h12a1 1 0 001-1v-2.253M12.202 5.917v8.5M15.546 8.267L12.202 5 8.858 8.267"/>
    </symbol>
    <symbol id="github" fill="currentColor" viewBox="0 0 24 24">
        <path d="M12 .297c-6.63 0-12 5.373-12 12 0 5.303 3.438 9.8 8.205 11.385.6.113.82-.258.82-.577 0-.285-.01-1.04-.015-2.04-3.338.724-4.042-1.61-4.042-1.61C4.422 18.07 3.633 17.7 3.633 17.7c-1.087-.744.084-.729.084-.729 1.205.084 1.838 1.236 1.838 1.236 1.07 1.835 2.809 1.305 3.495.998.108-.776.417-1.305.76-1.605-2.665-.3-5.466-1.332-5.466-5.93 0-1.31.465-2.38 1.235-3.22-.135-.303-.54-1.523.105-3.176 0 0 1.005-.322 3.3 1.23.96-.267 1.98-.399 3-.405 1.02.006 2.04.138 3 .405 2.28-1.552 3.285-1.23 3.285-1.23.645 1.653.24 2.873.12 3.176.765.84 1.23 1.91 1.23 3.22 0 4.61-2.805 5.625-5.475 5.92.42.36.81 1.096.81 2.22 0 1.606-.015 2.896-.015 3.286 0 .315.21.69.825.57C20.565 22.092 24 17.592 24 12.297c0-6.627-5.373-12-12-12"/>
    </symbol>
    <symbol id="telegram" fill="currentColor" viewBox="0 0 24 24">
        <path d="M 12 0 A 12 12 0 0 0 0 12 A 12 12 0 0 0 12 24 A 12 12 0 0 0 24 12 A 12 12 0 0 0 12 0 z M 16.90625 7.2246094 C 17.00552 7.2228594 17.22732 7.2466169 17.371094 7.3632812 C 17.492495 7.4617892 17.526985 7.5960565 17.542969 7.6894531 C 17.558949 7.7828491 17.57832 7.9939121 17.5625 8.1601562 C 17.381909 10.05764 16.600664 14.663848 16.203125 16.789062 C 16.034911 17.68832 15.703469 17.990023 15.382812 18.019531 C 14.685949 18.083661 14.157367 17.557669 13.482422 17.115234 C 12.426266 16.422911 11.827917 15.991986 10.802734 15.316406 C 9.6179591 14.535656 10.3873 14.107542 11.0625 13.40625 C 11.239203 13.222719 14.309714 10.429128 14.369141 10.175781 C 14.376541 10.144101 14.38267 10.025256 14.3125 9.9628906 C 14.24233 9.9005256 14.139184 9.9224911 14.064453 9.9394531 C 13.958525 9.9634961 12.270471 11.078814 9.0019531 13.285156 C 8.5230406 13.614014 8.0898277 13.774022 7.7011719 13.765625 C 7.2727102 13.756368 6.4486368 13.523383 5.8359375 13.324219 C 5.0844364 13.079936 4.4870529 12.951977 4.5390625 12.537109 C 4.5661525 12.321019 4.8635802 12.098946 5.4316406 11.873047 C 8.9298841 10.348918 11.26251 9.3448444 12.429688 8.859375 C 15.762214 7.4732616 16.454907 7.2325602 16.90625 7.2246094 z " />
    </symbol>
    <symbol id="twitter" fill="currentColor" viewBox="0 0 24 24">
        <path d="M 12,0 A 12,12 0 0 0 0,12 12,12 0 0 0 12,24 12,12 0 0 0 24,12 12,12 0 0 0 12,0 Z m 3.13805,6.87 c 0.834,0 1.58395,0.34795 2.11195,0.91195 0.66,-0.132 1.27798,-0.37195 1.83598,-0.70195 -0.216,0.678 -0.67196,1.24195 -1.27196,1.60195 0.588,-0.072 1.14596,-0.22797 1.66196,-0.45597 -0.39,0.582 -0.88198,1.092 -1.44598,1.5 0.006,0.12 0.006,0.24607 0.006,0.37207 0,3.822 -2.90996,8.23195 -8.23196,8.23195 -1.632,0 -3.15607,-0.48005 -4.42207,-1.30805 0.228,0.03 0.456,0.0421 0.69,0.0421 1.356,0 2.60403,-0.46197 3.59403,-1.23597 -1.266,-0.024 -2.334,-0.858 -2.7,-2.01 0.18,0.036 0.35997,0.0539 0.54597,0.0539 0.264,0 0.52207,-0.0359 0.76207,-0.10195 -1.326,-0.27 -2.32207,-1.43405 -2.32207,-2.83805 v -0.036 c 0.39,0.216 0.83405,0.348 1.30805,0.36 -0.78,-0.516 -1.29,-1.40398 -1.29,-2.40598 0,-0.528 0.144,-1.02595 0.39,-1.45195 1.428,1.752 3.55802,2.9039 5.96402,3.0239 -0.054,-0.21 -0.078,-0.432 -0.078,-0.66 0,-1.596 1.29607,-2.89195 2.89207,-2.89195 z" style="stroke-width:0.06" />
    </symbol>
    <symbol id="plus" fill="currentColor" viewBox="0 0 24 24">
        <path fill-rule="evenodd" d="M12 3.25a.75.75 0 01.75.75v7.25H20a.75.75 0 010 1.5h-7.25V20a.75.75 0 01-1.5 0v-7.25H4a.75.75 0 010-1.5h7.25V4a.75.75 0 01.75-.75z" clip-rule="evenodd"></path>
    </symbol>
    <symbol id="cross" fill="currentColor" viewBox="0 0 24 24" >
        <path fill-rule="evenodd" d="M5.47 5.47a.75.75 0 011.06 0l12 12a.75.75 0 11-1.06 1.06l-12-12a.75.75 0 010-1.06z" clip-rule="evenodd" />
        <path fill-rule="evenodd" d="M18.53 5.47a.75.75 0 010 1.06l-12 12a.75.75 0 01-1.06-1.06l12-12a.75.75 0 011.06 0z" clip-rule="evenodd" />
    </symbol>
    <symbol id="copy" fill="none" stroke="currentColor"  viewBox="0 0 24 24">
        <rect width="9" height="13" x="6.5" y="6.5" rx="1.5"></rect><path d="M8.5 6A1.5 1.5 0 0110 4.5h6A1.5 1.5 0 0117.5 6v10a1.5 1.5 0 01-1.5 1.5"></path>
    </symbol>
    <symbol id="share" fill="none" stroke="currentColor"  viewBox="0 0 24 24">
        <path stroke-linecap="round" stroke-linejoin="round" d="M20.5 3.5L3.5 9l6.5 3 7-5-5 7 3 6.5 5.5-17z"></path>
    </symbol>
    <symbol id="jar-closed-empty" fill="currentColor" viewBox="0 0 30 55">
        <path d="M25.9759 14.0086V13.107H27.7519C28.0543 13.107 28.2991 12.8612 28.2991 12.5588V8.24275C28.2991 6.27179 27.0688 6 25.7392 6H4.26054C2.93101 6 1.70117 6.27179 1.70117 8.24275V12.5588C1.70117 12.8617 1.94651 13.107 2.24836 13.107H4.0238V14.0086C4.0238 14.9718 3.55144 15.4552 2.83576 16.188C1.63906 17.4134 0 19.091 0 24.0059V47.1149C0 51.9827 0.912663 55 5.45768 55H24.5439C29.0873 55 30 51.9833 30 47.1149V24.0059C30 19.0901 28.361 17.4124 27.1648 16.188C26.4491 15.4557 25.9762 14.9723 25.9762 14.008L25.9759 14.0086ZM2.79547 8.2432C2.79547 7.3763 2.90949 7.09686 4.25987 7.09686H25.7398C27.0912 7.09686 27.2053 7.37681 27.2053 8.2432V12.0111C19.0516 12.0085 10.869 12.0106 2.7951 12.0106L2.79547 8.2432ZM28.904 47.1167C28.904 52.8556 27.435 53.905 24.5422 53.905L5.45727 53.9055C2.56404 53.9055 1.09456 52.855 1.09456 47.1172L1.09405 24.0069C1.09405 19.5393 2.49277 18.1065 3.6172 16.9549C4.38836 16.1655 5.1173 15.4189 5.1173 14.0091V13.1075H24.8798V14.0091C24.8798 15.4201 25.6087 16.1657 26.3794 16.9549C27.5038 18.1053 28.9025 19.5383 28.9025 24.0069L28.9036 47.1172L28.904 47.1167Z" />
    </symbol>
    <symbol id="jar-closed-fill-25" fill="currentColor" viewBox="0 0 30 55">
        <path d="M25.9759 14.0086V13.107H27.7519C28.0543 13.107 28.2991 12.8612 28.2991 12.5588V8.24275C28.2991 6.27179 27.0688 6 25.7392 6H4.26054C2.93101 6 1.70117 6.27179 1.70117 8.24275V12.5588C1.70117 12.8617 1.94651 13.107 2.24836 13.107H4.0238V14.0086C4.0238 14.9718 3.55144 15.4552 2.83576 16.188C1.63906 17.4134 0 19.091 0 24.0059V47.1149C0 51.9827 0.912663 55 5.45768 55H24.5439C29.0873 55 30 51.9833 30 47.1149V24.0059C30 19.0901 28.361 17.4124 27.1648 16.188C26.4491 15.4557 25.9762 14.9723 25.9762 14.008L25.9759 14.0086ZM2.79547 8.2432C2.79547 7.3763 2.90949 7.09686 4.25987 7.09686H25.7398C27.0912 7.09686 27.2053 7.37681 27.2053 8.2432V12.0111C19.0516 12.0085 10.869 12.0106 2.7951 12.0106L2.79547 8.2432ZM28.904 47.1167C28.904 52.8556 27.435 53.905 24.5422 53.905L5.45727 53.9055C2.56404 53.9055 1.09456 52.855 1.09456 47.1172L1.09405 24.0069C1.09405 19.5393 2.49277 18.1065 3.6172 16.9549C4.38836 16.1655 5.1173 15.4189 5.1173 14.0091V13.1075H24.8798V14.0091C24.8798 15.4201 25.6087 16.1657 26.3794 16.9549C27.5038 18.1053 28.9025 19.5383 28.9025 24.0069L28.9036 47.1172L28.904 47.1167Z" />
        <rect fill="var(--jamColor)" x="26.9983" y="47.1555" width="1" height="5.45425" rx="0.5" transform="rotate(45 26.9983 47.1555)" />
        <rect fill="var(--jamColor)" x="27.001" y="43.6182" width="1" height="10.4318" rx="0.5" transform="rotate(45 27.001 43.6182)" />
        <rect fill="var(--jamColor)" x="24.2859" y="42.7979" width="1" height="11.616" rx="0.5" transform="rotate(45 24.2859 42.7979)" />
        <rect fill="var(--jamColor)" x="20.7573" y="42.7905" width="1" height="11.6001" rx="0.5" transform="rotate(45 20.7573 42.7905)" />
        <rect fill="var(--jamColor)" x="17.2285" y="42.7837" width="1" height="11.6088" rx="0.5" transform="rotate(45 17.2285 42.7837)" />
        <rect fill="var(--jamColor)" x="13.6736" y="42.8027" width="1" height="11.5931" rx="0.5" transform="rotate(45 13.6736 42.8027)" />
        <rect fill="var(--jamColor)" x="10.1365" y="42.8052" width="1" height="11.0668" rx="0.5" transform="rotate(45 10.1365 42.8052)" />
        <rect fill="var(--jamColor)" x="6.62524" y="42.7808" width="1" height="6.11823" rx="0.5" transform="rotate(45 6.62524 42.7808)" />
    </symbol>
    <symbol id="jar-closed-fill-50" fill="currentColor" viewBox="0 0 30 55">
        <path d="M25.9759 14.0086V13.107H27.7519C28.0543 13.107 28.2991 12.8612 28.2991 12.5588V8.24275C28.2991 6.27179 27.0688 6 25.7392 6H4.26054C2.93101 6 1.70117 6.27179 1.70117 8.24275V12.5588C1.70117 12.8617 1.94651 13.107 2.24836 13.107H4.0238V14.0086C4.0238 14.9718 3.55144 15.4552 2.83576 16.188C1.63906 17.4134 0 19.091 0 24.0059V47.1149C0 51.9827 0.912663 55 5.45768 55H24.5439C29.0873 55 30 51.9833 30 47.1149V24.0059C30 19.0901 28.361 17.4124 27.1648 16.188C26.4491 15.4557 25.9762 14.9723 25.9762 14.008L25.9759 14.0086ZM2.79547 8.2432C2.79547 7.3763 2.90949 7.09686 4.25987 7.09686H25.7398C27.0912 7.09686 27.2053 7.37681 27.2053 8.2432V12.0111C19.0516 12.0085 10.869 12.0106 2.7951 12.0106L2.79547 8.2432ZM28.904 47.1167C28.904 52.8556 27.435 53.905 24.5422 53.905L5.45727 53.9055C2.56404 53.9055 1.09456 52.855 1.09456 47.1172L1.09405 24.0069C1.09405 19.5393 2.49277 18.1065 3.6172 16.9549C4.38836 16.1655 5.1173 15.4189 5.1173 14.0091V13.1075H24.8798V14.0091C24.8798 15.4201 25.6087 16.1657 26.3794 16.9549C27.5038 18.1053 28.9025 19.5383 28.9025 24.0069L28.9036 47.1172L28.904 47.1167Z" />
        <rect fill="var(--jamColor)" x="26.9919" y="47.1621" width="1" height="5.44529" rx="0.5" transform="rotate(45 26.9919 47.1621)" />
        <rect fill="var(--jamColor)" x="26.9944" y="43.625" width="1" height="10.4224" rx="0.5" transform="rotate(45 26.9944 43.625)" />
        <rect fill="var(--jamColor)" x="26.9963" y="40.0874" width="1" height="15.449" rx="0.5" transform="rotate(45 26.9963 40.0874)" />
        <rect fill="var(--jamColor)" x="26.9983" y="36.5498" width="1" height="20.426" rx="0.5" transform="rotate(45 26.9983 36.5498)" />
        <rect fill="var(--jamColor)" x="25.7163" y="34.2961" width="1" height="23.6123" rx="0.5" transform="rotate(45 25.7163 34.2961)" />
        <rect fill="var(--jamColor)" x="22.178" y="34.2983" width="1" height="23.6203" rx="0.5" transform="rotate(45 22.178 34.2983)" />
        <rect fill="var(--jamColor)" x="18.6401" y="34.3013" width="1" height="23.1059" rx="0.5" transform="rotate(45 18.6401 34.3013)" />
        <rect fill="var(--jamColor)" x="15.094" y="34.312" width="1" height="18.0926" rx="0.5" transform="rotate(45 15.094 34.312)" />
        <rect fill="var(--jamColor)" x="11.5557" y="34.3145" width="1" height="13.0762" rx="0.5" transform="rotate(45 11.5557 34.3145)" />
        <rect fill="var(--jamColor)" x="8.02588" y="34.3086" width="1" height="8.08624" rx="0.5" transform="rotate(45 8.02588 34.3086)" />
        <rect fill="var(--jamColor)" x="4.49609" y="34.3027" width="1" height="3.09625" rx="0.5" transform="rotate(45 4.49609 34.3027)" />
    </symbol>
    <symbol id="jar-closed-fill-75" fill="currentColor" viewBox="0 0 30 55">
        <path d="M25.9759 14.0086V13.107H27.7519C28.0543 13.107 28.2991 12.8612 28.2991 12.5588V8.24275C28.2991 6.27179 27.0688 6 25.7392 6H4.26054C2.93101 6 1.70117 6.27179 1.70117 8.24275V12.5588C1.70117 12.8617 1.94651 13.107 2.24836 13.107H4.0238V14.0086C4.0238 14.9718 3.55144 15.4552 2.83576 16.188C1.63906 17.4134 0 19.091 0 24.0059V47.1149C0 51.9827 0.912663 55 5.45768 55H24.5439C29.0873 55 30 51.9833 30 47.1149V24.0059C30 19.0901 28.361 17.4124 27.1648 16.188C26.4491 15.4557 25.9762 14.9723 25.9762 14.008L25.9759 14.0086ZM2.79547 8.2432C2.79547 7.3763 2.90949 7.09686 4.25987 7.09686H25.7398C27.0912 7.09686 27.2053 7.37681 27.2053 8.2432V12.0111C19.0516 12.0085 10.869 12.0106 2.7951 12.0106L2.79547 8.2432ZM28.904 47.1167C28.904 52.8556 27.435 53.905 24.5422 53.905L5.45727 53.9055C2.56404 53.9055 1.09456 52.855 1.09456 47.1172L1.09405 24.0069C1.09405 19.5393 2.49277 18.1065 3.6172 16.9549C4.38836 16.1655 5.1173 15.4189 5.1173 14.0091V13.1075H24.8798V14.0091C24.8798 15.4201 25.6087 16.1657 26.3794 16.9549C27.5038 18.1053 28.9025 19.5383 28.9025 24.0069L28.9036 47.1172L28.904 47.1167Z" />
        <rect fill="var(--jamColor)" x="26.9932" y="47.1609" width="1" height="5.44679" rx="0.5" transform="rotate(45 26.9932 47.1609)" />
        <rect fill="var(--jamColor)" x="26.9915" y="43.6279" width="1" height="10.4182" rx="0.5" transform="rotate(45 26.9915 43.6279)" />
        <rect fill="var(--jamColor)" x="26.9956" y="40.0879" width="1" height="15.4481" rx="0.5" transform="rotate(45 26.9956 40.0879)" />
        <rect fill="var(--jamColor)" x="27" y="36.5481" width="1" height="20.4285" rx="0.5" transform="rotate(45 27 36.5481)" />
        <rect fill="var(--jamColor)" x="26.9915" y="33.021" width="1" height="25.4156" rx="0.5" transform="rotate(45 26.9915 33.021)" />
        <rect fill="var(--jamColor)" x="27.0012" y="29.4751" width="1" height="30.4414" rx="0.5" transform="rotate(45 27.0012 29.4751)" />
        <rect fill="var(--jamColor)" x="27.0012" y="25.9399" width="1" height="34.9517" rx="0.5" transform="rotate(45 27.0012 25.9399)" />
        <rect fill="var(--jamColor)" x="23.5908" y="25.8149" width="1" height="30.1135" rx="0.5" transform="rotate(45 23.5908 25.8149)" />
        <rect fill="var(--jamColor)" x="20.0496" y="25.8203" width="1" height="25.0995" rx="0.5" transform="rotate(45 20.0496 25.8203)" />
        <rect fill="var(--jamColor)" x="16.5393" y="25.7949" width="1" height="20.1474" rx="0.5" transform="rotate(45 16.5393 25.7949)" />
        <rect fill="var(--jamColor)" x="12.9824" y="25.8164" width="1" height="15.12" rx="0.5" transform="rotate(45 12.9824 25.8164)" />
        <rect fill="var(--jamColor)" x="9.45679" y="25.8066" width="1" height="10.1278" rx="0.5" transform="rotate(45 9.45679 25.8066)" />
        <rect fill="var(--jamColor)" x="5.91553" y="25.8125" width="1" height="5.11357" rx="0.5" transform="rotate(45 5.91553 25.8125)" />
    </symbol>
    <symbol id="jar-open-empty" viewBox="0 0 30 55" fill="currentColor">
        <path fill-rule="evenodd" clip-rule="evenodd" d="M27.7519 7.10699H25.9759H4.0238H2.24836C1.94652 7.10699 1.70117 6.86171 1.70117 6.55881V2.24275C1.70117 0.271793 2.93102 0 4.26055 0H25.7392C27.0688 0 28.2991 0.271793 28.2991 2.24275V6.55881C28.2991 6.8612 28.0543 7.10699 27.7519 7.10699ZM4.25987 1.09686C2.90949 1.09686 2.79547 1.3763 2.79547 2.2432L2.7951 6.01059C5.27498 6.01059 7.7651 6.01039 10.2615 6.0102H10.262H10.2625C15.8934 6.00976 21.5563 6.00932 27.2053 6.0111V2.2432C27.2053 1.37681 27.0912 1.09686 25.7398 1.09686H4.25987ZM25.9759 13.5V12.5H26.5C26.7761 12.5 27 12.2761 27 12C27 11.7239 26.7761 11.5 26.5 11.5H25.9759V11C25.9759 10 25.5 9.375 24.5 9.375H5C4.0238 9.37498 4.0238 10.5002 4.0238 11.0001V11.5H3.5C3.22386 11.5 3 11.7239 3 12C3 12.2761 3.22386 12.5 3.5 12.5H4.0238V13.5H3.5C3.22386 13.5 3 13.7239 3 14C3 14.2761 3.22386 14.5 3.5 14.5H3.97644C3.8401 15.1597 3.41883 15.591 2.83624 16.1875L2.83576 16.188L2.83526 16.1885C1.63861 17.4138 0 19.0917 0 24.0059V47.1148C0 51.9827 0.912663 55 5.45768 55H24.5439C29.0873 55 30 51.9832 30 47.1148V24.0059C30 19.0901 28.361 17.4123 27.1648 16.188L27.1638 16.187C26.5815 15.5912 26.1601 15.16 26.0236 14.5H26.5C26.7761 14.5 27 14.2761 27 14C27 13.7239 26.7761 13.5 26.5 13.5H25.9759ZM24.8797 13.5V13.1075V12.5H5.11725V13.1075V13.5H24.8797ZM24.9114 14.5H5.08551C4.93748 15.603 4.29356 16.2625 3.61714 16.9549C2.49272 18.1064 1.09399 19.5393 1.09399 24.0069L1.0945 47.1172C1.0945 52.855 2.56398 53.9055 5.45721 53.9055L24.5421 53.905C27.4349 53.905 28.9039 52.8555 28.9039 47.1167L28.9035 47.1172L28.9025 24.0069C28.9025 19.5382 27.5037 18.1053 26.3793 16.9549L26.3777 16.9533C25.7023 16.2615 25.0592 15.603 24.9114 14.5ZM24.8797 10.5V11.5H5.11725V10.5H24.8797Z" />
    </symbol>
    <symbol id="jar-open-fill-25" fill="currentColor" viewBox="0 0 30 55">
        <path fill-rule="evenodd" clip-rule="evenodd" d="M27.7519 7.10699H25.9759H4.0238H2.24836C1.94652 7.10699 1.70117 6.86171 1.70117 6.55881V2.24275C1.70117 0.271793 2.93102 0 4.26055 0H25.7392C27.0688 0 28.2991 0.271793 28.2991 2.24275V6.55881C28.2991 6.8612 28.0543 7.10699 27.7519 7.10699ZM4.25987 1.09686C2.90949 1.09686 2.79547 1.3763 2.79547 2.2432L2.7951 6.01059C5.27498 6.01059 7.7651 6.01039 10.2615 6.0102H10.262H10.2625C15.8934 6.00976 21.5563 6.00932 27.2053 6.0111V2.2432C27.2053 1.37681 27.0912 1.09686 25.7398 1.09686H4.25987ZM25.9759 13.5V12.5H26.5C26.7761 12.5 27 12.2761 27 12C27 11.7239 26.7761 11.5 26.5 11.5H25.9759V11C25.9759 10 25.5 9.375 24.5 9.375H5C4.0238 9.37498 4.0238 10.5002 4.0238 11.0001V11.5H3.5C3.22386 11.5 3 11.7239 3 12C3 12.2761 3.22386 12.5 3.5 12.5H4.0238V13.5H3.5C3.22386 13.5 3 13.7239 3 14C3 14.2761 3.22386 14.5 3.5 14.5H3.97644C3.8401 15.1597 3.41883 15.591 2.83624 16.1875L2.83576 16.188L2.83526 16.1885C1.63861 17.4138 0 19.0917 0 24.0059V47.1148C0 51.9827 0.912663 55 5.45768 55H24.5439C29.0873 55 30 51.9832 30 47.1148V24.0059C30 19.0901 28.361 17.4123 27.1648 16.188L27.1638 16.187C26.5815 15.5912 26.1601 15.16 26.0236 14.5H26.5C26.7761 14.5 27 14.2761 27 14C27 13.7239 26.7761 13.5 26.5 13.5H25.9759ZM24.8797 13.5V13.1075V12.5H5.11725V13.1075V13.5H24.8797ZM24.9114 14.5H5.08551C4.93748 15.603 4.29356 16.2625 3.61714 16.9549C2.49272 18.1064 1.09399 19.5393 1.09399 24.0069L1.0945 47.1172C1.0945 52.855 2.56398 53.9055 5.45721 53.9055L24.5421 53.905C27.4349 53.905 28.9039 52.8555 28.9039 47.1167L28.9035 47.1172L28.9025 24.0069C28.9025 19.5382 27.5037 18.1053 26.3793 16.9549L26.3777 16.9533C25.7023 16.2615 25.0592 15.603 24.9114 14.5ZM24.8797 10.5V11.5H5.11725V10.5H24.8797Z" />
        <rect fill="var(--jamColor)" x="26.9983" y="47.1555" width="1" height="5.45425" rx="0.5" transform="rotate(45 26.9983 47.1555)" />
        <rect fill="var(--jamColor)" x="27.001" y="43.6182" width="1" height="10.4318" rx="0.5" transform="rotate(45 27.001 43.6182)" />
        <rect fill="var(--jamColor)" x="24.2859" y="42.7979" width="1" height="11.616" rx="0.5" transform="rotate(45 24.2859 42.7979)" />
        <rect fill="var(--jamColor)" x="20.7573" y="42.7905" width="1" height="11.6001" rx="0.5" transform="rotate(45 20.7573 42.7905)" />
        <rect fill="var(--jamColor)" x="17.2285" y="42.7837" width="1" height="11.6088" rx="0.5" transform="rotate(45 17.2285 42.7837)" />
        <rect fill="var(--jamColor)" x="13.6736" y="42.8027" width="1" height="11.5931" rx="0.5" transform="rotate(45 13.6736 42.8027)" />
        <rect fill="var(--jamColor)" x="10.1365" y="42.8052" width="1" height="11.0668" rx="0.5" transform="rotate(45 10.1365 42.8052)" />
        <rect fill="var(--jamColor)" x="6.62524" y="42.7808" width="1" height="6.11823" rx="0.5" transform="rotate(45 6.62524 42.7808)" />
    </symbol>
    <symbol id="jar-open-fill-50" fill="currentColor" viewBox="0 0 30 55">
        <path fill-rule="evenodd" clip-rule="evenodd" d="M27.7519 7.10699H25.9759H4.0238H2.24836C1.94652 7.10699 1.70117 6.86171 1.70117 6.55881V2.24275C1.70117 0.271793 2.93102 0 4.26055 0H25.7392C27.0688 0 28.2991 0.271793 28.2991 2.24275V6.55881C28.2991 6.8612 28.0543 7.10699 27.7519 7.10699ZM4.25987 1.09686C2.90949 1.09686 2.79547 1.3763 2.79547 2.2432L2.7951 6.01059C5.27498 6.01059 7.7651 6.01039 10.2615 6.0102H10.262H10.2625C15.8934 6.00976 21.5563 6.00932 27.2053 6.0111V2.2432C27.2053 1.37681 27.0912 1.09686 25.7398 1.09686H4.25987ZM25.9759 13.5V12.5H26.5C26.7761 12.5 27 12.2761 27 12C27 11.7239 26.7761 11.5 26.5 11.5H25.9759V11C25.9759 10 25.5 9.375 24.5 9.375H5C4.0238 9.37498 4.0238 10.5002 4.0238 11.0001V11.5H3.5C3.22386 11.5 3 11.7239 3 12C3 12.2761 3.22386 12.5 3.5 12.5H4.0238V13.5H3.5C3.22386 13.5 3 13.7239 3 14C3 14.2761 3.22386 14.5 3.5 14.5H3.97644C3.8401 15.1597 3.41883 15.591 2.83624 16.1875L2.83576 16.188L2.83526 16.1885C1.63861 17.4138 0 19.0917 0 24.0059V47.1148C0 51.9827 0.912663 55 5.45768 55H24.5439C29.0873 55 30 51.9832 30 47.1148V24.0059C30 19.0901 28.361 17.4123 27.1648 16.188L27.1638 16.187C26.5815 15.5912 26.1601 15.16 26.0236 14.5H26.5C26.7761 14.5 27 14.2761 27 14C27 13.7239 26.7761 13.5 26.5 13.5H25.9759ZM24.8797 13.5V13.1075V12.5H5.11725V13.1075V13.5H24.8797ZM24.9114 14.5H5.08551C4.93748 15.603 4.29356 16.2625 3.61714 16.9549C2.49272 18.1064 1.09399 19.5393 1.09399 24.0069L1.0945 47.1172C1.0945 52.855 2.56398 53.9055 5.45721 53.9055L24.5421 53.905C27.4349 53.905 28.9039 52.8555 28.9039 47.1167L28.9035 47.1172L28.9025 24.0069C28.9025 19.5382 27.5037 18.1053 26.3793 16.9549L26.3777 16.9533C25.7023 16.2615 25.0592 15.603 24.9114 14.5ZM24.8797 10.5V11.5H5.11725V10.5H24.8797Z" />
        <rect fill="var(--jamColor)" x="26.9919" y="47.1621" width="1" height="5.44529" rx="0.5" transform="rotate(45 26.9919 47.1621)" />
        <rect fill="var(--jamColor)" x="26.9944" y="43.625" width="1" height="10.4224" rx="0.5" transform="rotate(45 26.9944 43.625)" />
        <rect fill="var(--jamColor)" x="26.9963" y="40.0874" width="1" height="15.449" rx="0.5" transform="rotate(45 26.9963 40.0874)" />
        <rect fill="var(--jamColor)" x="26.9983" y="36.5498" width="1" height="20.426" rx="0.5" transform="rotate(45 26.9983 36.5498)" />
        <rect fill="var(--jamColor)" x="25.7163" y="34.2961" width="1" height="23.6123" rx="0.5" transform="rotate(45 25.7163 34.2961)" />
        <rect fill="var(--jamColor)" x="22.178" y="34.2983" width="1" height="23.6203" rx="0.5" transform="rotate(45 22.178 34.2983)" />
        <rect fill="var(--jamColor)" x="18.6401" y="34.3013" width="1" height="23.1059" rx="0.5" transform="rotate(45 18.6401 34.3013)" />
        <rect fill="var(--jamColor)" x="15.094" y="34.312" width="1" height="18.0926" rx="0.5" transform="rotate(45 15.094 34.312)" />
        <rect fill="var(--jamColor)" x="11.5557" y="34.3145" width="1" height="13.0762" rx="0.5" transform="rotate(45 11.5557 34.3145)" />
        <rect fill="var(--jamColor)" x="8.02588" y="34.3086" width="1" height="8.08624" rx="0.5" transform="rotate(45 8.02588 34.3086)" />
        <rect fill="var(--jamColor)" x="4.49609" y="34.3027" width="1" height="3.09625" rx="0.5" transform="rotate(45 4.49609 34.3027)" />
    </symbol>
    <symbol id="jar-open-fill-75" fill="currentColor" viewBox="0 0 30 55">
        <path fill-rule="evenodd" clip-rule="evenodd" d="M27.7519 7.10699H25.9759H4.0238H2.24836C1.94652 7.10699 1.70117 6.86171 1.70117 6.55881V2.24275C1.70117 0.271793 2.93102 0 4.26055 0H25.7392C27.0688 0 28.2991 0.271793 28.2991 2.24275V6.55881C28.2991 6.8612 28.0543 7.10699 27.7519 7.10699ZM4.25987 1.09686C2.90949 1.09686 2.79547 1.3763 2.79547 2.2432L2.7951 6.01059C5.27498 6.01059 7.7651 6.01039 10.2615 6.0102H10.262H10.2625C15.8934 6.00976 21.5563 6.00932 27.2053 6.0111V2.2432C27.2053 1.37681 27.0912 1.09686 25.7398 1.09686H4.25987ZM25.9759 13.5V12.5H26.5C26.7761 12.5 27 12.2761 27 12C27 11.7239 26.7761 11.5 26.5 11.5H25.9759V11C25.9759 10 25.5 9.375 24.5 9.375H5C4.0238 9.37498 4.0238 10.5002 4.0238 11.0001V11.5H3.5C3.22386 11.5 3 11.7239 3 12C3 12.2761 3.22386 12.5 3.5 12.5H4.0238V13.5H3.5C3.22386 13.5 3 13.7239 3 14C3 14.2761 3.22386 14.5 3.5 14.5H3.97644C3.8401 15.1597 3.41883 15.591 2.83624 16.1875L2.83576 16.188L2.83526 16.1885C1.63861 17.4138 0 19.0917 0 24.0059V47.1148C0 51.9827 0.912663 55 5.45768 55H24.5439C29.0873 55 30 51.9832 30 47.1148V24.0059C30 19.0901 28.361 17.4123 27.1648 16.188L27.1638 16.187C26.5815 15.5912 26.1601 15.16 26.0236 14.5H26.5C26.7761 14.5 27 14.2761 27 14C27 13.7239 26.7761 13.5 26.5 13.5H25.9759ZM24.8797 13.5V13.1075V12.5H5.11725V13.1075V13.5H24.8797ZM24.9114 14.5H5.08551C4.93748 15.603 4.29356 16.2625 3.61714 16.9549C2.49272 18.1064 1.09399 19.5393 1.09399 24.0069L1.0945 47.1172C1.0945 52.855 2.56398 53.9055 5.45721 53.9055L24.5421 53.905C27.4349 53.905 28.9039 52.8555 28.9039 47.1167L28.9035 47.1172L28.9025 24.0069C28.9025 19.5382 27.5037 18.1053 26.3793 16.9549L26.3777 16.9533C25.7023 16.2615 25.0592 15.603 24.9114 14.5ZM24.8797 10.5V11.5H5.11725V10.5H24.8797Z" />
        <rect fill="var(--jamColor)" x="26.9932" y="47.1609" width="1" height="5.44679" rx="0.5" transform="rotate(45 26.9932 47.1609)" />
        <rect fill="var(--jamColor)" x="26.9915" y="43.6279" width="1" height="10.4182" rx="0.5" transform="rotate(45 26.9915 43.6279)" />
        <rect fill="var(--jamColor)" x="26.9956" y="40.0879" width="1" height="15.4481" rx="0.5" transform="rotate(45 26.9956 40.0879)" />
        <rect fill="var(--jamColor)" x="27" y="36.5481" width="1" height="20.4285" rx="0.5" transform="rotate(45 27 36.5481)" />
        <rect fill="var(--jamColor)" x="26.9915" y="33.021" width="1" height="25.4156" rx="0.5" transform="rotate(45 26.9915 33.021)" />
        <rect fill="var(--jamColor)" x="27.0012" y="29.4751" width="1" height="30.4414" rx="0.5" transform="rotate(45 27.0012 29.4751)" />
        <rect fill="var(--jamColor)" x="27.0012" y="25.9399" width="1" height="34.9517" rx="0.5" transform="rotate(45 27.0012 25.9399)" />
        <rect fill="var(--jamColor)" x="23.5908" y="25.8149" width="1" height="30.1135" rx="0.5" transform="rotate(45 23.5908 25.8149)" />
        <rect fill="var(--jamColor)" x="20.0496" y="25.8203" width="1" height="25.0995" rx="0.5" transform="rotate(45 20.0496 25.8203)" />
        <rect fill="var(--jamColor)" x="16.5393" y="25.7949" width="1" height="20.1474" rx="0.5" transform="rotate(45 16.5393 25.7949)" />
        <rect fill="var(--jamColor)" x="12.9824" y="25.8164" width="1" height="15.12" rx="0.5" transform="rotate(45 12.9824 25.8164)" />
        <rect fill="var(--jamColor)" x="9.45679" y="25.8066" width="1" height="10.1278" rx="0.5" transform="rotate(45 9.45679 25.8066)" />
        <rect fill="var(--jamColor)" x="5.91553" y="25.8125" width="1" height="5.11357" rx="0.5" transform="rotate(45 5.91553 25.8125)" />
    </symbol>
    <symbol id="info" viewBox="0 0 24 24" fill="currentColor">
        <circle cx="12" cy="7.25" r="1.25"></circle><path d="M11 10h2v8h-2z"></path>
    </symbol>
    <symbol id="lock" fill="none" stroke="currentColor" viewBox="0 0 24 24">
        <rect width="14" height="10" x="5" y="10.968" rx="2"></rect>
        <path d="M15.486 10.984V7.243a1.5 1.5 0 00-1.5-1.5h-3.972a1.5 1.5 0 00-1.5 1.5v3.74"></path>
    </symbol>
    <symbol id="cancel" stroke="currentColor" viewBox="0 0 31 31">
        <line x1="10.6642" y1="10.75" x2="20.5637" y2="20.6495" stroke-width="2" stroke-linecap="round" stroke-linejoin="round"/>
        <line x1="20.5" y1="10.9142" x2="10.6005" y2="20.8137" stroke-width="2" stroke-linecap="round" stroke-linejoin="round"/>
    </symbol>
    <symbol id="refresh" fill="currentColor" viewBox="0 0 24 24" >
        <path fill-rule="evenodd" d="M6.64 9.788a.75.75 0 01.53.918 5 5 0 007.33 5.624.75.75 0 11.75 1.3 6.501 6.501 0 01-9.529-7.312.75.75 0 01.919-.53zM8.75 6.37a6.5 6.5 0 019.529 7.312.75.75 0 11-1.45-.388A5.001 5.001 0 009.5 7.67a.75.75 0 11-.75-1.3z" clip-rule="evenodd" />
        <path fill-rule="evenodd" d="M5.72 9.47a.75.75 0 011.06 0l2.5 2.5a.75.75 0 11-1.06 1.06l-1.97-1.97-1.97 1.97a.75.75 0 01-1.06-1.06l2.5-2.5zM14.72 10.97a.75.75 0 011.06 0l1.97 1.97 1.97-1.97a.75.75 0 111.06 1.06l-2.5 2.5a.75.75 0 01-1.06 0l-2.5-2.5a.75.75 0 010-1.06z" clip-rule="evenodd" />
    </symbol>
    <symbol id="cj" viewBox="0 0 24 24" fill="currentColor">
        <path fill-rule="evenodd" d="M8.504 15.7c-1.172 1.09-2.594 1.873-4.513 1.85a.75.75 0 01.018-1.5c1.435.018 2.502-.545 3.473-1.449.778-.724 1.451-1.62 2.187-2.6.22-.294.447-.596.684-.903.994-1.288 2.139-2.62 3.69-3.514 1.577-.909 3.515-1.333 6.037-.924a.75.75 0 11-.24 1.48c-2.21-.357-3.794.021-5.049.744-1.28.738-2.276 1.867-3.25 3.13-.205.266-.411.54-.62.818-.75 1-1.531 2.043-2.417 2.867z" clip-rule="evenodd"></path><path fill-rule="evenodd" d="M16.04 3.469a.75.75 0 011.06.001l3.431 3.44a.75.75 0 010 1.06l-3.432 3.44a.75.75 0 01-1.062-1.06l2.904-2.91-2.903-2.91a.75.75 0 01.001-1.061zM16.055 12.654a.75.75 0 011.06.032l3.39 3.6a.75.75 0 01-.03 1.06l-3.391 3.2a.75.75 0 01-1.03-1.091l2.846-2.686-2.877-3.055a.75.75 0 01.032-1.06z" clip-rule="evenodd"></path><path fill-rule="evenodd" d="M7.53 9.396C6.574 8.49 5.496 7.923 4.014 7.95a.75.75 0 01-.026-1.5c1.962-.035 3.403.748 4.575 1.856.921.872 1.71 1.983 2.46 3.04.17.24.339.477.506.709.936 1.29 1.876 2.441 3.094 3.2 1.187.74 2.692 1.14 4.822.804a.75.75 0 01.233 1.482c-2.459.387-4.333-.068-5.848-1.013-1.485-.925-2.569-2.287-3.515-3.593-.19-.262-.374-.52-.553-.773-.745-1.048-1.426-2.006-2.23-2.766z" clip-rule="evenodd"></path>
    </symbol>
    <symbol id="fb-clock" viewBox="0 0 46 74" fill="none">
        <path fill-rule="evenodd" clip-rule="evenodd" d="m 41.7028,11.3374 h -0.4126 c 0.1645,0.3937 0.3769,0.8601 0.6159,1.3492 0.5698,1.1663 1.2544,2.3869 1.7607,3.0401 0.0307,0.0373 0.0596,0.0739 0.0866,0.1096 0.2403,0.3178 0.1791,0.768 -0.1376,1.0113 -0.3166,0.2433 -0.7715,0.1896 -1.0217,-0.1206 L 42.5656,16.6915 C 42.5507,16.6728 42.5359,16.654 42.5212,16.6352 42.4844,16.5933 42.3754,16.4963 42.169,16.3639 41.9673,16.2346 41.713,16.0971 41.4335,15.9715 41.1952,15.8644 40.9553,15.7734 40.7279,15.7033 l 0.1138,0.1156 C 42.5961,17.5998 45,20.0401 45,27.1904 v 33.613 c 0,7.0813 -1.3386,11.4693 -8.0023,11.4693 H 9.0046 C 2.3386,72.2727 1,67.8839 1,60.8034 V 27.1904 C 1,20.0425 3.4033,17.6019 5.1584,15.8196 L 5.1598,15.8181 5.2731,15.703 C 5.0454,15.7731 4.8052,15.8642 4.5666,15.9715 4.2871,16.0971 4.0327,16.2346 3.8311,16.3639 3.6247,16.4963 3.5157,16.5933 3.4789,16.6352 3.4549,16.6659 3.4307,16.6965 3.406,16.727 3.1558,17.0372 2.7009,17.0909 2.3843,16.8476 2.0676,16.6043 2.0064,16.1541 2.2467,15.8363 2.2736,15.8007 2.3025,15.7642 2.333,15.727 2.8394,15.0738 3.5241,13.8531 4.094,12.6866 4.333,12.1975 4.5454,11.7311 4.7098,11.3374 H 4.2976 c -0.4427,0 -0.8025,-0.3568 -0.8025,-0.7974 V 4.2621 C 3.4951,1.3953 5.2989,1 7.2488,1 h 31.5021 c 1.9501,0 3.7545,0.3953 3.7545,3.2621 V 10.54 c 0,0.4399 -0.3591,0.7974 -0.8026,0.7974 z M 7.233,15.9451 C 6.9442,16.2856 6.6272,16.6075 6.3052,16.9344 4.6561,18.6093 2.6046,20.6935 2.6046,27.1919 l 8e-4,33.6149 c 0,8.3459 2.1552,9.8739 6.3986,9.8739 l 27.9912,-7e-4 c 4.2428,0 6.3973,-1.5265 6.3973,-9.874 l -6e-4,8e-4 -0.0015,-33.6149 c 0,-6.4999 -2.0515,-8.5842 -3.7006,-10.2575 L 39.6874,16.932 c -0.3204,-0.3254 -0.6358,-0.6458 -0.9233,-0.9846 -0.1494,0.113 -0.2576,0.2269 -0.3219,0.3162 -0.0243,0.0338 -0.0378,0.0574 -0.0448,0.071 C 38.3657,16.7073 38.0507,17 37.6667,17 c -0.405,0 -0.7333,-0.3257 -0.7333,-0.7273 0,-0.0125 -0.0016,-0.0199 -0.0097,-0.0339 -0.0111,-0.019 -0.0398,-0.0576 -0.1074,-0.1096 C 36.6729,16.019 36.4298,15.9053 36.0888,15.8079 35.4136,15.6151 34.571,15.5454 34,15.5454 c -0.5709,0 -1.4135,0.0697 -2.0887,0.2625 -0.3411,0.0974 -0.5842,0.2111 -0.7275,0.3213 -0.0676,0.052 -0.0963,0.0906 -0.1074,0.1096 -0.0081,0.014 -0.0097,0.0214 -0.0097,0.0339 C 31.0667,16.6743 30.7384,17 30.3334,17 29.9284,17 29.6,16.6743 29.6,16.2727 c 0,-0.0125 -0.0015,-0.0199 -0.0097,-0.0339 -0.011,-0.019 -0.0398,-0.0576 -0.1073,-0.1096 -0.1434,-0.1102 -0.3865,-0.2239 -0.7276,-0.3213 -0.6752,-0.1928 -1.5177,-0.2625 -2.0887,-0.2625 -0.571,0 -1.4135,0.0697 -2.0887,0.2625 -0.3411,0.0974 -0.5842,0.2111 -0.7276,0.3213 -0.0675,0.052 -0.0963,0.0906 -0.1073,0.1096 -0.0081,0.014 -0.0097,0.0214 -0.0097,0.0339 C 23.7334,16.6743 23.405,17 23,17 c -0.405,0 -0.7333,-0.3257 -0.7333,-0.7273 0,-0.0289 -0.0015,-0.0751 -0.105,-0.1613 -0.1213,-0.101 -0.3355,-0.2105 -0.6557,-0.3058 -0.6358,-0.1891 -1.4719,-0.2602 -2.1726,-0.2602 -0.571,0 -1.4135,0.0697 -2.0887,0.2625 -0.3411,0.0974 -0.5842,0.2111 -0.7276,0.3213 -0.0675,0.052 -0.0963,0.0906 -0.1074,0.1096 C 16.4016,16.2528 16.4,16.2602 16.4,16.2727 16.4,16.6743 16.0717,17 15.6667,17 c -0.405,0 -0.7333,-0.3257 -0.7333,-0.7273 0,-0.0125 -0.0016,-0.0199 -0.0097,-0.0339 -0.0111,-0.019 -0.0398,-0.0576 -0.1074,-0.1096 C 14.6729,16.019 14.4298,15.9053 14.0888,15.8079 13.4136,15.6151 12.571,15.5454 12,15.5454 c -0.5709,0 -1.4135,0.0697 -2.0887,0.2625 -0.3411,0.0974 -0.5842,0.2111 -0.7275,0.3213 -0.0676,0.052 -0.0963,0.0906 -0.1074,0.1096 -0.0081,0.014 -0.0097,0.0214 -0.0097,0.0339 C 9.0667,16.6743 8.7384,17 8.3334,17 7.9494,17 7.6343,16.7073 7.6027,16.3346 7.5957,16.321 7.5822,16.2974 7.5579,16.2636 7.4931,16.1737 7.3839,16.0589 7.233,15.9451 Z M 6.2843,11.3374 h 33.4315 c 0.0381,0.1044 0.0806,0.2147 0.1264,0.3292 0.1895,0.4738 0.4506,1.0538 0.744,1.6543 0.1545,0.3162 0.3206,0.6434 0.4925,0.968 -0.4072,-0.1194 -0.826,-0.198 -1.212,-0.198 -0.7845,0 -1.486,0.3197 -1.9828,0.693 -0.0715,0.0537 -0.1404,0.1097 -0.2063,0.1677 C 37.3308,14.6959 36.9027,14.5267 36.4947,14.4102 35.6421,14.1667 34.6513,14.0909 34,14.0909 c -0.6512,0 -1.642,0.0758 -2.4946,0.3193 -0.4037,0.1153 -0.8272,0.2821 -1.172,0.5334 -0.3449,-0.2513 -0.7683,-0.4181 -1.1721,-0.5334 -0.8526,-0.2435 -1.8433,-0.3193 -2.4946,-0.3193 -0.6512,0 -1.642,0.0758 -2.4946,0.3193 -0.3963,0.1132 -0.8115,0.276 -1.1528,0.5195 -0.3222,-0.2426 -0.7131,-0.4046 -1.0919,-0.5173 -0.8309,-0.2472 -1.8281,-0.3215 -2.594,-0.3215 -0.6513,0 -1.6421,0.0758 -2.4946,0.3193 -0.4038,0.1153 -0.8272,0.2821 -1.1721,0.5334 -0.3449,-0.2513 -0.7683,-0.4181 -1.172,-0.5334 C 13.6421,14.1667 12.6513,14.0909 12,14.0909 c -0.6512,0 -1.642,0.0758 -2.4946,0.3193 -0.408,0.1165 -0.8361,0.2857 -1.1829,0.5414 -0.0659,-0.058 -0.1348,-0.114 -0.2063,-0.1677 -0.4968,-0.3733 -1.1983,-0.693 -1.9828,-0.693 -0.386,0 -0.8048,0.0786 -1.212,0.198 0.1719,-0.3246 0.338,-0.6518 0.4925,-0.968 0.2934,-0.6005 0.5545,-1.1805 0.744,-1.6543 0.0458,-0.1145 0.0883,-0.2248 0.1264,-0.3292 z M 5.7667,9.7272 c -0.0517,0 -0.1021,0.0053 -0.1508,0.0154 H 5.0995 l 6e-4,-5.4798 c 0,-1.261 0.1672,-1.6674 2.1477,-1.6674 h 31.504 c 1.9821,0 2.1493,0.4072 2.1493,1.6674 V 9.7434 L 40.387,9.7432 C 40.3374,9.7327 40.2861,9.7272 40.2334,9.7272 Z" fill="currentColor" />
        <path fill-rule="evenodd" clip-rule="evenodd" d="m 23.1918,10.4661 c -0.0526,-0.0094 -0.1066,-0.0132 -0.1612,-0.0109 -0.0545,-0.0023 -0.1085,0.0015 -0.1611,0.0109 -1.0291,0.0794 -2.4852,0.3504 -3.6633,0.9506 -0.6203,0.3161 -1.2163,0.75 -1.6115,1.3464 -0.4104,0.6194 -0.572,1.3675 -0.3826,2.2128 0.089,0.397 0.2466,0.7772 0.5337,1.0538 0.3151,0.3037 0.7102,0.4101 1.0969,0.3725 0.3543,-0.0344 0.685,-0.1856 0.9665,-0.3584 0.1714,-0.1051 0.3425,-0.2295 0.5112,-0.3668 -0.0601,0.1782 -0.1192,0.3588 -0.177,0.5413 -0.722,2.2775 -1.2686,4.9196 -1.114,7.3725 0.0253,0.4009 0.3734,0.7056 0.7777,0.6805 0.4042,-0.025 0.7114,-0.3703 0.6861,-0.7712 -0.1387,-2.2016 0.3535,-4.6505 1.0494,-6.8456 0.461,-1.4544 1.0035,-2.7733 1.488,-3.8022 0.4846,1.0289 1.0271,2.3478 1.4881,3.8022 0.6959,2.1951 1.1881,4.644 1.0494,6.8456 -0.0253,0.4009 0.2819,0.7462 0.6861,0.7712 0.4043,0.0251 0.7524,-0.2796 0.7777,-0.6805 0.1546,-2.4529 -0.392,-5.095 -1.114,-7.3725 -0.0578,-0.1825 -0.1169,-0.3631 -0.177,-0.5413 0.1687,0.1373 0.3398,0.2617 0.5112,0.3668 0.2815,0.1728 0.6122,0.324 0.9665,0.3584 0.3867,0.0376 0.7818,-0.0688 1.0969,-0.3725 0.2871,-0.2766 0.4447,-0.6568 0.5337,-1.0538 0.1894,-0.8453 0.0278,-1.5934 -0.3826,-2.2128 -0.3952,-0.5964 -0.9912,-1.0303 -1.6115,-1.3464 -1.1781,-0.6002 -2.6342,-0.8712 -3.6633,-0.9506 z m -1.6708,1.6745 c -0.57,0.1306 -1.1487,0.3173 -1.6446,0.5699 -0.4919,0.2507 -0.8493,0.5395 -1.056,0.8514 -0.1915,0.289 -0.2805,0.6348 -0.1766,1.0985 0.0348,0.1551 0.0729,0.2418 0.0975,0.2862 0.0562,-0.0147 0.1535,-0.0521 0.2961,-0.1396 0.1806,-0.1108 0.3918,-0.276 0.6274,-0.4937 0.6061,-0.56 1.2684,-1.3674 1.8562,-2.1727 z m 3.0193,0 c 0.5878,0.8053 1.2501,1.6127 1.8562,2.1727 0.2356,0.2177 0.4468,0.3829 0.6274,0.4937 0.1426,0.0875 0.2399,0.1249 0.2961,0.1396 0.0246,-0.0444 0.0627,-0.1311 0.0975,-0.2862 0.1039,-0.4637 0.0149,-0.8095 -0.1766,-1.0985 -0.2067,-0.3119 -0.5641,-0.6007 -1.056,-0.8514 -0.4959,-0.2526 -1.0746,-0.4393 -1.6446,-0.5699 z" fill="currentColor" />
        <circle cx="23" cy="42.2729" r="8.5" stroke="currentColor" />
        <rect x="-23.5" y="-42.743099" width="1" height="6" rx="0.5" transform="scale(-1)" fill="currentColor" />
        <rect x="-14.127924" y="45.654987" width="1" height="5" rx="0.5" transform="rotate(-45)" fill="currentColor" />
    </symbol>
    <symbol id="fb-filled" viewBox="0 0 60 110" fill="currentColor">
        <path fill-rule="evenodd" clip-rule="evenodd" d="M55.5039 26.214H54.9412C55.1654 26.7553 55.4551 27.3966 55.781 28.0691C56.5581 29.6728 57.4916 31.3511 58.1821 32.2493C58.2238 32.3005 58.2632 32.3509 58.3 32.4C58.6278 32.837 58.5443 33.456 58.1125 33.7905C57.6807 34.125 57.0604 34.0512 56.7192 33.6247L56.6804 33.5759C56.66 33.5501 56.6398 33.5243 56.6198 33.4985C56.5696 33.4408 56.421 33.3074 56.1395 33.1254C55.8646 32.9476 55.5177 32.7585 55.1366 32.5858C54.8117 32.4386 54.4846 32.3135 54.1744 32.2171L54.3295 32.376C56.722 34.8247 60 38.1802 60 48.0118V94.2297C60 103.966 58.1747 110 49.0878 110H10.9154C1.82533 110 0 103.965 0 94.2297V48.0118C0 38.1835 3.27721 34.8277 5.67051 32.377L5.67247 32.375L5.82696 32.2168C5.51639 32.3131 5.18887 32.4384 4.86354 32.5858C4.48237 32.7585 4.13554 32.9476 3.86058 33.1254C3.57912 33.3074 3.43053 33.4408 3.38031 33.4985C3.34765 33.5406 3.31452 33.5827 3.28092 33.6247C2.93971 34.0512 2.31941 34.125 1.88763 33.7905C1.45584 33.456 1.37233 32.837 1.70005 32.4C1.73679 32.351 1.77611 32.3008 1.81775 32.2497C2.50825 31.3516 3.44189 29.6731 4.21912 28.0691C4.54501 27.3966 4.83466 26.7553 5.05887 26.214H4.49677C3.89308 26.214 3.40239 25.7234 3.40239 25.1176V16.4855C3.40239 12.5436 5.86208 12 8.52115 12H51.4785C54.1377 12 56.5982 12.5436 56.5982 16.4855V25.1176C56.5982 25.7224 56.1086 26.214 55.5039 26.214ZM8.49951 32.5496C8.10578 33.0178 7.67351 33.4604 7.2344 33.9099C4.98555 36.2129 2.1881 39.0786 2.1881 48.0139L2.18912 94.2344C2.18912 105.71 5.12808 107.811 10.9145 107.811L49.0843 107.81C54.87 107.81 57.8079 105.711 57.8079 94.2334L57.8071 94.2344L57.8051 48.0139C57.8051 39.0765 55.0076 36.2107 52.7588 33.9099L52.7556 33.9066C52.3187 33.4591 51.8885 33.0186 51.4965 32.5527C51.2927 32.7081 51.1453 32.8647 51.0575 32.9875C51.0243 33.034 51.006 33.0664 50.9965 33.0851C50.9533 33.5976 50.5237 34 50 34C49.4478 34 49 33.5523 49 33C49 32.9828 48.9979 32.9727 48.9868 32.9534C48.9717 32.9272 48.9325 32.8742 48.8404 32.8028C48.6449 32.6512 48.3134 32.4949 47.8483 32.3609C46.9276 32.0958 45.7787 32 45 32C44.2214 32 43.0725 32.0958 42.1518 32.3609C41.6867 32.4949 41.3552 32.6512 41.1597 32.8028C41.0676 32.8742 41.0284 32.9272 41.0133 32.9534C41.0022 32.9727 41 32.9828 41 33C41 33.5523 40.5523 34 40 34C39.4478 34 39 33.5523 39 33C39 32.9828 38.9979 32.9727 38.9868 32.9534C38.9717 32.9272 38.9325 32.8742 38.8404 32.8028C38.6449 32.6512 38.3134 32.4949 37.8483 32.3609C36.9276 32.0958 35.7786 32 35 32C34.2215 32 33.0725 32.0958 32.1518 32.3609C31.6867 32.4949 31.3552 32.6512 31.1597 32.8028C31.0676 32.8742 31.0284 32.9272 31.0133 32.9534C31.0022 32.9727 31.0001 32.9828 31.0001 33C31.0001 33.5523 30.5523 34 30.0001 34C29.4478 34 29.0001 33.5523 29.0001 33C29.0001 32.9603 28.9981 32.8968 28.8569 32.7782C28.6915 32.6393 28.3994 32.4888 27.9627 32.3578C27.0958 32.0977 25.9556 32 25.0001 32C24.2215 32 23.0725 32.0958 22.1518 32.3609C21.6867 32.4949 21.3552 32.6512 21.1597 32.8028C21.0676 32.8742 21.0284 32.9272 21.0133 32.9534C21.0022 32.9727 21.0001 32.9828 21.0001 33C21.0001 33.5523 20.5523 34 20.0001 34C19.4478 34 19.0001 33.5523 19.0001 33C19.0001 32.9828 18.9979 32.9727 18.9868 32.9534C18.9717 32.9272 18.9325 32.8742 18.8404 32.8028C18.6449 32.6512 18.3134 32.4949 17.8483 32.3609C16.9276 32.0958 15.7787 32 15.0001 32C14.2214 32 13.0725 32.0958 12.1518 32.3609C11.6867 32.4949 11.3552 32.6512 11.1597 32.8028C11.0676 32.8742 11.0284 32.9272 11.0133 32.9534C11.0022 32.9727 11.0001 32.9828 11.0001 33C11.0001 33.5523 10.5523 34 10.0001 34C9.47643 34 9.04681 33.5976 9.00362 33.0851C8.99413 33.0664 8.97576 33.034 8.94257 32.9875C8.85426 32.8639 8.70538 32.7061 8.49951 32.5496ZM7.20586 26.214H52.7942C52.8463 26.3576 52.9041 26.5092 52.9666 26.6666C53.2251 27.3181 53.5811 28.1156 53.9812 28.9413C54.1919 29.3761 54.4183 29.826 54.6528 30.2723C54.0975 30.1082 53.5264 30 53 30C51.9303 30 50.9736 30.4397 50.2962 30.9529C50.1987 31.0267 50.1047 31.1038 50.0149 31.1835C49.542 30.8319 48.9582 30.5993 48.4018 30.4391C47.2392 30.1042 45.8881 30 45 30C44.112 30 42.7609 30.1042 41.5983 30.4391C41.0477 30.5976 40.4703 30.827 40 31.1725C39.5298 30.827 38.9524 30.5976 38.4018 30.4391C37.2392 30.1042 35.8881 30 35 30C34.112 30 32.7609 30.1042 31.5983 30.4391C31.0579 30.5947 30.4917 30.8185 30.0263 31.1534C29.5869 30.8198 29.0539 30.5971 28.5374 30.4422C27.4043 30.1023 26.0445 30 25.0001 30C24.112 30 22.7609 30.1042 21.5983 30.4391C21.0477 30.5976 20.4703 30.827 20.0001 31.1725C19.5298 30.827 18.9524 30.5976 18.4018 30.4391C17.2392 30.1042 15.8881 30 15.0001 30C14.112 30 12.7609 30.1042 11.5983 30.4391C11.0419 30.5993 10.4581 30.8319 9.98516 31.1835C9.89537 31.1038 9.80136 31.0267 9.70391 30.9529C9.02648 30.4397 8.06984 30 7.00005 30C6.47375 30 5.9026 30.1082 5.34733 30.2723C5.58177 29.826 5.80823 29.3761 6.01894 28.9413C6.41905 28.1156 6.77502 27.3181 7.03352 26.6666C7.09597 26.5092 7.15384 26.3576 7.20586 26.214ZM6.50005 24C6.42955 24 6.36076 24.0073 6.29438 24.0212L5.59026 24.0212L5.59099 16.4864C5.59099 14.7526 5.81903 14.1937 8.51979 14.1937H51.4797C54.1825 14.1937 54.4106 14.7536 54.4106 16.4864V24.0222L53.7095 24.022C53.642 24.0076 53.5719 24 53.5 24H6.50005Z"/>
        <path fill-rule="evenodd" clip-rule="evenodd" d="M30.2616 25.0159C30.1899 25.003 30.1163 24.9978 30.0418 25.0009C29.9674 24.9978 29.8938 25.003 29.8221 25.0159C28.4188 25.125 26.4332 25.4977 24.8267 26.323C23.9808 26.7576 23.1681 27.3542 22.6292 28.1742C22.0695 29.0259 21.8492 30.0546 22.1075 31.2169C22.2288 31.7628 22.4438 32.2855 22.8352 32.6658C23.2649 33.0834 23.8037 33.2297 24.331 33.1781C24.8142 33.1308 25.2651 32.9229 25.649 32.6853C25.8826 32.5407 26.1159 32.3696 26.3461 32.1809C26.2641 32.426 26.1836 32.6742 26.1047 32.9251C25.1202 36.0568 24.3748 39.6896 24.5856 43.0624C24.62 43.6136 25.0948 44.0325 25.646 43.9981C26.1972 43.9636 26.6161 43.4888 26.5817 42.9376C26.3925 39.9104 27.0638 36.5432 28.0126 33.5249C28.6413 31.5251 29.3811 29.7116 30.0418 28.2969C30.7025 29.7116 31.4424 31.5251 32.0711 33.5249C33.0199 36.5432 33.6912 39.9104 33.502 42.9376C33.4675 43.4888 33.8864 43.9636 34.4376 43.9981C34.9889 44.0325 35.4636 43.6136 35.4981 43.0624C35.7089 39.6896 34.9635 36.0568 33.979 32.9251C33.9001 32.6742 33.8195 32.426 33.7376 32.1809C33.9677 32.3696 34.201 32.5407 34.4347 32.6853C34.8186 32.9229 35.2695 33.1308 35.7526 33.1781C36.28 33.2297 36.8187 33.0834 37.2485 32.6658C37.6399 32.2855 37.8549 31.7628 37.9762 31.2169C38.2345 30.0546 38.0142 29.0259 37.4545 28.1742C36.9155 27.3542 36.1029 26.7576 35.257 26.323C33.6505 25.4977 31.6648 25.125 30.2616 25.0159ZM27.9833 27.3183C27.206 27.4979 26.4168 27.7546 25.7406 28.102C25.0698 28.4466 24.5825 28.8437 24.3006 29.2727C24.0395 29.67 23.9181 30.1454 24.0598 30.7831C24.1072 30.9963 24.1591 31.1155 24.1928 31.1766C24.2694 31.1564 24.4021 31.105 24.5964 30.9846C24.8427 30.8322 25.1307 30.6051 25.452 30.3058C26.2785 29.5359 27.1816 28.4257 27.9833 27.3183ZM32.1004 27.3183C32.9021 28.4257 33.8051 29.5359 34.6316 30.3058C34.9529 30.6051 35.2409 30.8322 35.4872 30.9846C35.6816 31.105 35.8143 31.1564 35.8909 31.1766C35.9245 31.1155 35.9765 30.9963 36.0238 30.7831C36.1655 30.1454 36.0442 29.67 35.7831 29.2727C35.5012 28.8437 35.0138 28.4466 34.3431 28.102C33.6669 27.7546 32.8777 27.4979 32.1004 27.3183Z" />
        <rect x="53.9863" y="94.3218" width="2" height="10.8936" rx="1" transform="rotate(45 53.9863 94.3218)" />
        <rect x="53.9829" y="87.2559" width="2" height="20.8364" rx="1" transform="rotate(45 53.9829 87.2559)" />
        <rect x="53.9912" y="80.1758" width="2" height="30.8962" rx="1" transform="rotate(45 53.9912 80.1758)" />
        <rect x="54" y="73.0962" width="2" height="40.857" rx="1" transform="rotate(45 54 73.0962)" />
        <rect x="53.9829" y="66.042" width="2" height="50.8312" rx="1" transform="rotate(45 53.9829 66.042)" />
        <rect x="54.0024" y="58.9502" width="2" height="60.8827" rx="1" transform="rotate(45 54.0024 58.9502)" />
        <rect x="54.0024" y="51.8799" width="2" height="69.9035" rx="1" transform="rotate(45 54.0024 51.8799)" />
        <rect x="47.1816" y="51.6299" width="2" height="60.227" rx="1" transform="rotate(45 47.1816 51.6299)" />
        <rect x="40.0991" y="51.6406" width="2" height="50.199" rx="1" transform="rotate(45 40.0991 51.6406)" />
        <rect x="33.0786" y="51.5898" width="2" height="40.2947" rx="1" transform="rotate(45 33.0786 51.5898)" />
        <rect x="25.9648" y="51.6328" width="2" height="30.24" rx="1" transform="rotate(45 25.9648 51.6328)" />
        <rect x="18.9136" y="51.6133" width="2" height="20.2557" rx="1" transform="rotate(45 18.9136 51.6133)" />
        <rect x="11.8311" y="51.625" width="2" height="10.2271" rx="1" transform="rotate(45 11.8311 51.625)" />
    </symbol>
    <symbol id="clock" fill="none" viewBox="0 0 24 24" stroke="currentColor" data-v-4fa90e7f="">
        <circle cx="12" cy="12" r="8.5"></circle>
        <path stroke-linecap="round" stroke-linejoin="round" d="M12 7v5l2.8 2.8"></path>
    </symbol>
    <symbol id="coins" viewBox="0 0 24 24" fill="currentColor">
        <path d="M10 16a6 6 0 005.97-6.597 5.001 5.001 0 11-6.567 6.568C9.6 15.99 9.8 16 10 16z"></path>
        <circle cx="10" cy="10" r="5"></circle>
    </symbol>
    <symbol id="keys" viewBox="0 0 24 24" fill="currentColor">
        <path fill-rule="evenodd" d="M20.854 10.308c.6 2.411-.923 4.867-3.403 5.486-.31.077-.621.122-.928.137l-2.666 4.298a2 2 0 01-1.216.887l-1.236.308a1 1 0 01-1.212-.729l-.28-1.12a2 2 0 01.241-1.538l2.445-3.943a4.38 4.38 0 01-.728-1.547c-.6-2.411.922-4.867 3.403-5.486 2.48-.618 4.978.835 5.58 3.247zm-3.872 1.48c.552-.137.89-.683.756-1.219-.133-.536-.688-.859-1.24-.721-.55.137-.89.683-.756 1.219s.69.859 1.24.721z" clip-rule="evenodd"></path>
        <path fill-rule="evenodd" d="M11.251 12.187c2.48-.619 4.004-3.075 3.403-5.486-.601-2.412-3.1-3.865-5.58-3.247-2.48.618-4.004 3.075-3.402 5.486.143.575.394 1.096.728 1.547l-2.445 3.942a2 2 0 00-.241 1.538l.28 1.121a1 1 0 001.211.728l1.236-.308a2 2 0 001.216-.886l2.666-4.298c.307-.015.618-.06.928-.137zm.288-5.225c.133.536-.205 1.082-.756 1.219s-1.106-.186-1.24-.721c-.134-.536.205-1.082.756-1.22.551-.137 1.106.186 1.24.722z" clip-rule="evenodd"></path>
    </symbol >
    <symbol id="snowflake" viewBox="0 0 24 24" fill="currentColor">
        <path fill-rule="evenodd" d="M12 3.25a.75.75 0 01.75.75v3.175l2.22-2.22a.75.75 0 111.06 1.06l-3.28 3.281v1.954h1.925l3.295-3.295a.75.75 0 111.06 1.06l-2.234 2.235H20a.75.75 0 010 1.5h-3.175l2.205 2.205a.75.75 0 11-1.06 1.06l-3.266-3.265H12.75v1.925l3.28 3.28a.75.75 0 11-1.06 1.06l-2.22-2.219V20a.75.75 0 01-1.5 0v-3.204l-2.22 2.22a.75.75 0 01-1.06-1.06l3.28-3.281V12.75H9.296L6.03 16.016a.75.75 0 01-1.06-1.06l2.205-2.206H4a.75.75 0 010-1.5h3.204L4.97 9.016a.75.75 0 011.06-1.06l3.295 3.294h1.925V9.296l-3.28-3.28a.75.75 0 111.06-1.06l2.22 2.219V4a.75.75 0 01.75-.75z" clip-rule="evenodd"></path>
    </symbol>
    <symbol id="sun" viewBox="0 0 24 24" fill="currentColor">
        <path d="M12 16.5A4.505 4.505 0 017.5 12c0-2.481 2.019-4.5 4.5-4.5s4.5 2.019 4.5 4.5-2.019 4.5-4.5 4.5z"></path><path fill-rule="evenodd" d="M12 3a.5.5 0 01.5.5v2a.5.5 0 01-1 0v-2A.5.5 0 0112 3zM18 12a.5.5 0 01.5-.5h2a.5.5 0 010 1h-2a.5.5 0 01-.5-.5zM3 12a.5.5 0 01.5-.5h2a.5.5 0 010 1h-2A.5.5 0 013 12zM12 18a.5.5 0 01.5.5v2a.5.5 0 01-1 0v-2a.5.5 0 01.5-.5zM18.354 5.646a.5.5 0 010 .708l-1.5 1.5a.5.5 0 01-.708-.708l1.5-1.5a.5.5 0 01.708 0zM7.854 16.146a.5.5 0 010 .708l-1.5 1.5a.5.5 0 01-.708-.708l1.5-1.5a.5.5 0 01.708 0zM5.646 5.646a.5.5 0 01.708 0l1.5 1.5a.5.5 0 11-.708.708l-1.5-1.5a.5.5 0 010-.708zM16.146 16.146a.5.5 0 01.708 0l1.5 1.5a.5.5 0 01-.708.708l-1.5-1.5a.5.5 0 010-.708z" clip-rule="evenodd"></path>
    </symbol>
    <symbol id="timelock" fill="none" stroke="currentColor" viewBox="0 0 24 24">
        <rect width="14" height="10" x="5" y="10.968" rx="2"></rect>
        <path d="M15.486 10.984V7.243a1.5 1.5 0 00-1.5-1.5h-3.972a1.5 1.5 0 00-1.5 1.5v3.74"></path>
        <circle cx="12" cy="16" r="2.8565371" style="stroke-width:0.9" />
        <path stroke-linecap="round" stroke-linejoin="round" d="m 11.978949,14.689354 v 1.680316 l 0.940978,0.940976" style="stroke-width:0.9" />
    </symbol>
    <symbol id="confs-0" fill="none" viewBox="0 0 24 24" stroke="currentColor">
        <path stroke-linecap="round" d="M13.507 4.908a7.25 7.25 0 013.88 2.24M18.895 9.76a7.25 7.25 0 010 4.48M17.388 16.851a7.25 7.25 0 01-3.88 2.24M10.493 19.092a7.25 7.25 0 01-3.88-2.24M5.105 14.24a7.25 7.25 0 010-4.48M6.612 7.149a7.25 7.25 0 013.88-2.24"></path>
    </symbol>
    <symbol id="confs-1" viewBox="0 0 24 24" fill="currentColor">
        <path d="M13 5.66c0 .244.177.45.415.508a5.994 5.994 0 012.928 1.692.53.53 0 00.646.105l1.773-1.024c.258-.149.33-.49.139-.719a8.999 8.999 0 00-5.348-3.087.477.477 0 00-.553.48V5.66z"></path>
        <path fill-rule="evenodd" d="M18.74 9.286a.5.5 0 01.63.32 7.75 7.75 0 010 4.79.5.5 0 01-.95-.308 6.75 6.75 0 000-4.172.5.5 0 01.32-.63zM17.723 16.481a.5.5 0 01.037.706 7.75 7.75 0 01-4.149 2.395.5.5 0 11-.208-.978 6.75 6.75 0 003.613-2.086.5.5 0 01.707-.037zM6.278 16.481a.5.5 0 01.706.037 6.75 6.75 0 003.613 2.086.5.5 0 11-.208.978 7.75 7.75 0 01-4.148-2.395.5.5 0 01.037-.706zM5.26 9.286a.5.5 0 01.32.63 6.75 6.75 0 000 4.172.5.5 0 11-.95.309 7.75 7.75 0 010-4.79.5.5 0 01.63-.321zM10.982 4.806a.5.5 0 01-.385.593 6.75 6.75 0 00-3.613 2.086.5.5 0 11-.743-.67 7.75 7.75 0 014.148-2.394.5.5 0 01.593.385z" clip-rule="evenodd"></path>
    </symbol>
    <symbol id="confs-2" viewBox="0 0 24 24" fill="currentColor">
        <path d="M13 5.66c0 .244.177.45.415.508a5.994 5.994 0 012.928 1.692.53.53 0 00.646.105l1.773-1.024c.258-.149.33-.49.139-.719a9 9 0 00-5.348-3.087.477.477 0 00-.553.48V5.66zM18 12c0-.588-.084-1.155-.242-1.692a.53.53 0 01.233-.612l1.77-1.023c.259-.149.59-.04.693.24a9 9 0 010 6.174.477.477 0 01-.692.24l-1.771-1.023a.53.53 0 01-.233-.612A6.002 6.002 0 0018 12z"></path>
        <path fill-rule="evenodd" d="M17.723 16.481a.5.5 0 01.037.706 7.75 7.75 0 01-4.149 2.395.5.5 0 11-.208-.978 6.75 6.75 0 003.613-2.086.5.5 0 01.707-.037zM6.278 16.481a.5.5 0 01.706.037 6.75 6.75 0 003.613 2.086.5.5 0 11-.208.978 7.75 7.75 0 01-4.148-2.395.5.5 0 01.037-.706zM5.26 9.286a.5.5 0 01.32.63 6.75 6.75 0 000 4.172.5.5 0 11-.95.309 7.75 7.75 0 010-4.79.5.5 0 01.63-.321zM10.982 4.806a.5.5 0 01-.385.593 6.75 6.75 0 00-3.613 2.086.5.5 0 11-.743-.67 7.75 7.75 0 014.148-2.394.5.5 0 01.593.385z" clip-rule="evenodd"></path>
    </symbol>
    <symbol id="confs-3" viewBox="0 0 24 24" fill="currentColor">
        <path d="M13 20.385c0 .298.26.531.553.48a9.001 9.001 0 005.348-3.087.477.477 0 00-.14-.72l-1.772-1.023a.53.53 0 00-.646.105 5.994 5.994 0 01-2.928 1.692.53.53 0 00-.415.508v2.045zM17.758 13.692a.53.53 0 00.233.612l2.102 1.214a.155.155 0 00.222-.074 9 9 0 000-6.888.155.155 0 00-.222-.074l-2.102 1.214a.53.53 0 00-.233.612c.158.537.242 1.104.242 1.692 0 .588-.084 1.155-.242 1.692zM18.364 5.636c.188.188.367.383.537.586.191.229.119.57-.14.72L16.99 7.964a.53.53 0 01-.646-.105 5.994 5.994 0 00-2.928-1.692A.53.53 0 0113 5.66V3.615c0-.298.26-.531.553-.48a9 9 0 014.811 2.501z"></path>
        <path fill-rule="evenodd" d="M6.278 16.481a.5.5 0 01.706.037 6.75 6.75 0 003.613 2.086.5.5 0 11-.208.978 7.75 7.75 0 01-4.148-2.395.5.5 0 01.037-.706zM5.26 9.286a.5.5 0 01.32.63 6.75 6.75 0 000 4.172.5.5 0 11-.95.309 7.75 7.75 0 010-4.79.5.5 0 01.63-.321zM10.982 4.806a.5.5 0 01-.385.593 6.75 6.75 0 00-3.613 2.086.5.5 0 11-.743-.67 7.75 7.75 0 014.148-2.394.5.5 0 01.593.385z" clip-rule="evenodd"></path>
    </symbol>
    <symbol id="confs-4" viewBox="0 0 24 24" fill="currentColor">
        <path d="M11 18.34a.53.53 0 00-.415-.508 5.994 5.994 0 01-2.928-1.692.53.53 0 00-.646-.105L5.238 17.06a.477.477 0 00-.139.719 9.001 9.001 0 005.348 3.087.477.477 0 00.553-.48V18.34zM13 20.385c0 .298.26.531.553.48a9 9 0 005.348-3.087.477.477 0 00-.14-.72l-1.772-1.023a.53.53 0 00-.646.105 5.994 5.994 0 01-2.928 1.692.53.53 0 00-.415.508v2.045zM17.758 13.692a.53.53 0 00.233.612l1.77 1.023c.259.149.59.04.693-.24a9.002 9.002 0 000-6.174.477.477 0 00-.692-.24L17.99 9.696a.53.53 0 00-.233.612c.158.537.242 1.104.242 1.692 0 .588-.084 1.155-.242 1.692zM16.541 4.23a9 9 0 012.36 1.992c.191.229.119.57-.14.72L16.99 7.964a.53.53 0 01-.646-.105 5.994 5.994 0 00-2.928-1.692A.53.53 0 0113 5.66V3.615c0-.298.26-.531.553-.48a9 9 0 012.988 1.095z"></path>
        <path fill-rule="evenodd" d="M17.723 16.481a.5.5 0 01.037.706 7.75 7.75 0 01-4.149 2.395.5.5 0 11-.208-.978 6.75 6.75 0 003.613-2.086.5.5 0 01.707-.037zM6.278 16.481a.5.5 0 01.706.037 6.75 6.75 0 003.613 2.086.5.5 0 11-.208.978 7.75 7.75 0 01-4.148-2.395.5.5 0 01.037-.706zM5.26 9.286a.5.5 0 01.32.63 6.75 6.75 0 000 4.172.5.5 0 11-.95.309 7.75 7.75 0 010-4.79.5.5 0 01.63-.321zM10.982 4.806a.5.5 0 01-.385.593 6.75 6.75 0 00-3.613 2.086.5.5 0 11-.743-.67 7.75 7.75 0 014.148-2.394.5.5 0 01.593.385z" clip-rule="evenodd"></path>
    </symbol>
    <symbol id="confs-5" viewBox="0 0 24 24" fill="currentColor">
        <path d="M11 18.34a.53.53 0 00-.415-.508 5.994 5.994 0 01-2.928-1.692.53.53 0 00-.646-.105L5.238 17.06a.477.477 0 00-.139.719 8.998 8.998 0 005.8 3.155.09.09 0 00.101-.09V18.34zM18 12c0-.588-.084-1.155-.242-1.692a.53.53 0 01.233-.612l1.77-1.023c.26-.149.59-.04.693.24a8.996 8.996 0 01-.151 6.56.128.128 0 01-.182.06l-2.13-1.229a.53.53 0 01-.233-.612A6.002 6.002 0 0018 12zM6.01 9.696a.53.53 0 01.232.612A6.001 6.001 0 006 12c0 .588.084 1.155.242 1.692a.531.531 0 01-.233.612l-1.77 1.023a.477.477 0 01-.693-.24 9 9 0 010-6.174.477.477 0 01.692-.24L6.01 9.696zM16.99 16.035a.53.53 0 00-.647.105 5.994 5.994 0 01-2.928 1.692.53.53 0 00-.415.508v2.045c0 .298.26.531.553.48a8.999 8.999 0 005.348-3.087.477.477 0 00-.14-.72l-1.772-1.023zM16.343 7.86a.53.53 0 00.646.105l1.773-1.024c.258-.149.33-.49.139-.719a9.003 9.003 0 00-5.348-3.087.477.477 0 00-.553.48V5.66c0 .244.177.45.415.508a5.994 5.994 0 012.928 1.692z"></path>
        <path fill-rule="evenodd" d="M10.982 4.806a.5.5 0 01-.385.593 6.75 6.75 0 00-3.613 2.086.5.5 0 11-.743-.67 7.75 7.75 0 014.148-2.394.5.5 0 01.593.385z" clip-rule="evenodd"></path>
    </symbol>
    <symbol id="confs-full" viewBox="0 0 24 24" fill="currentColor">
        <path d="M4.236 8.672a.477.477 0 00-.692.24A8.983 8.983 0 003 12c0 1.085.192 2.126.544 3.089.102.28.434.388.692.239l1.773-1.024a.53.53 0 00.233-.612A6.002 6.002 0 016 12c0-.588.084-1.155.242-1.692a.53.53 0 00-.233-.612L4.236 8.672zM5.1 6.222a.477.477 0 00.138.72l1.773 1.023a.53.53 0 00.646-.105 5.994 5.994 0 012.928-1.692A.53.53 0 0011 5.66V3.613c0-.298-.26-.53-.553-.48A8.991 8.991 0 005.1 6.222zM16.99 16.035a.53.53 0 00-.647.105 5.994 5.994 0 01-2.928 1.692.53.53 0 00-.415.508v2.047c0 .298.26.53.553.48a8.99 8.99 0 005.348-3.089.477.477 0 00-.139-.72l-1.773-1.023zM20.456 15.089a.477.477 0 01-.692.239l-1.773-1.024a.53.53 0 01-.233-.612A6.002 6.002 0 0018 12c0-.588-.084-1.155-.242-1.692a.53.53 0 01.233-.612l1.773-1.024a.477.477 0 01.692.24c.352.962.544 2.003.544 3.088a8.984 8.984 0 01-.544 3.089zM11 20.387c0 .298-.26.53-.553.48A8.99 8.99 0 015.1 17.777a.477.477 0 01.139-.72l1.773-1.023a.53.53 0 01.646.105 5.994 5.994 0 002.928 1.692.53.53 0 01.415.508v2.047zM13 3.613c0-.298.26-.53.553-.48A8.99 8.99 0 0118.9 6.222c.191.229.12.57-.139.72l-1.773 1.023a.53.53 0 01-.646-.105 5.994 5.994 0 00-2.928-1.692A.53.53 0 0113 5.66V3.613z"></path>
    </symbol>
    <symbol id="refresh" fill="none" viewBox="0 0 24 24" stroke="currentColor">
        <path stroke-linecap="round" d="M6.446 10.512a5.75 5.75 0 008.429 6.468M17.554 13.488A5.75 5.75 0 009.125 7.02"></path>
        <path stroke-linecap="round" stroke-linejoin="round" d="M3.75 12.5l2.5-2.5 2.5 2.5M15.25 11.5l2.5 2.5 2.5-2.5"></path>
    </symbol>
    <symbol id="matrix" fill="currentColor" viewBox="0 0 30.844 31.989">
        <path d="m 0.936,0.732 v 30.52 H 3.13 v 0.732 H 0.095 V 0.004 h 3.034 v 0.732 z m 8.45,9.675 v 1.544 H 9.43 c 0.3845145,-0.563728 0.893229,-1.031731 1.487,-1.368 0.58,-0.323 1.245,-0.485 1.993,-0.485 0.72,0 1.377,0.14 1.972,0.42 0.595,0.279 1.047,0.771 1.355,1.477 0.338,-0.5 0.796,-0.941 1.377,-1.323 0.58,-0.383 1.266,-0.574 2.06,-0.574 0.602,0 1.16,0.074 1.674,0.22 0.514,0.148 0.954,0.383 1.322,0.707 0.366,0.323 0.653,0.746 0.859,1.268 0.205,0.522 0.308,1.15 0.308,1.887 v 7.633 H 20.71 v -6.464 c 0,-0.383 -0.015,-0.743 -0.044,-1.082 -0.02094,-0.307213 -0.10323,-0.607116 -0.242,-0.882 -0.133151,-0.250804 -0.335956,-0.457776 -0.584,-0.596 -0.257,-0.146 -0.606,-0.22 -1.047,-0.22 -0.44,0 -0.796,0.085 -1.068,0.253 -0.272,0.17 -0.485,0.39 -0.639,0.662 -0.159137,0.287282 -0.263572,0.601605 -0.308,0.927 -0.05195,0.346916 -0.07802,0.697216 -0.078,1.048 v 6.354 h -3.128 v -6.398 c 0,-0.338 -0.007,-0.673 -0.021,-1.004 -0.01135,-0.313657 -0.07488,-0.62323 -0.188,-0.916 -0.107952,-0.276617 -0.30042,-0.512127 -0.55,-0.673 -0.258,-0.168 -0.636,-0.253 -1.135,-0.253 -0.198129,0.0083 -0.394382,0.04195 -0.584,0.1 -0.25838,0.07446 -0.498459,0.201822 -0.705,0.374 -0.228,0.184 -0.422,0.449 -0.584,0.794 -0.161,0.346 -0.242,0.798 -0.242,1.357 v 6.619 H 6.434 v -11.41 z m 20.712,20.84 V 0.727 h -2.194 v -0.732 h 3.035 v 31.98 h -3.035 v -0.732 z"/>
    </symbol>
    <symbol id="block" viewBox="0 0 24 24" fill="currentColor">
        <path fill-rule="evenodd" d="M21 8.344a.73.73 0 00-.364-.645l-7.494-4.395a2.21 2.21 0 00-2.23-.003L3.368 7.698a.73.73 0 00-.365.646H3v7.43h.004a.73.73 0 00.376.622l7.563 4.242a2.21 2.21 0 002.167-.003l7.515-4.24a.73.73 0 00.375-.62v-7.43zm-16.236.564a.375.375 0 00-.368.653l6.359 3.588a2.585 2.585 0 002.551-.006l6.278-3.583a.375.375 0 10-.372-.651l-6.278 3.582c-.56.32-1.248.322-1.81.005l-6.36-3.588z" clip-rule="evenodd"></path>
    </symbol>
    <symbol id="transfer" fill="none" viewBox="0 0 24 24" stroke="currentColor">
        <path stroke-linecap="round" stroke-linejoin="round" d="M4 15.993V19a1 1 0 001 1h14a1 1 0 001-1v-3.007M19.352 11.436l-3.047 3.198-3.048-3.198"></path>
        <path stroke-linecap="round" stroke-linejoin="round" d="M6.4 13.958V8.952A4.952 4.952 0 0111.352 4v0a4.952 4.952 0 014.953 4.952v5.006"></path>
    </symbol>
</svg>
