<svg width="0" height="0" xmlns="http://www.w3.org/2000/svg">
<symbol id="logo" viewBox="0 0 102 102" fill="none"><path clip-rule="evenodd" d="M101 51v.75l-.01.25-.01.25-.01.25-.01.25-.01.25-.02.25-.02.25-.01.25-.02.25-.02.25-.03.24-.02.25-.03.25-.02.25-.03.25-.04.25-.03.24-.03.25-.04.25-.04.24-.04.25-.04.25-.04.24-.05.25-.04.24-.05.25-.05.24-.05.25-.05.24-.06.24-.05.25-.06.24-.06.24-.06.24-.06.24-.07.24-.06.24-.07.24-.07.24-.07.24-.07.24-.08.24-.07.23-.08.24-.08.23L99 63l-.08.23-.08.24-.09.23-.08.23-.09.24-.09.23-.09.23-.1.23-.09.23-.1.22-.09.23-.1.23-.1.23-.1.22-.1.23-.1.22-.1.22-.12.23-.1.22-.11.22-.12.22-.1.22-.12.22-.12.21-.12.22-.11.22-.12.21-.12.21-.13.22-.12.2-.13.22-.12.21-.13.2-.13.22-.13.2-.13.21-.14.2-.13.21-.14.2-.13.2-.14.2-.14.2-.14.2-.14.2-.15.2-.14.2-.15.2-.14.19-.15.2-.15.18-.15.2-.15.18-.15.2-.16.18-.15.19-.16.18-.16.19-.15.18-.16.18-.16.18-.17.18-.16.18-.16.18-.17.17-.16.18-.17.17-.17.17-.16.17-.17.17-.17.17-.18.17-.17.17-.17.16-.18.16-.17.17-.18.16-.18.16-.17.16-.18.15-.18.16-.18.16-.18.15-.19.15-.18.15-.18.15-.19.15-.18.15-.2.14-.18.15-.19.14-.18.14-.2.14-.18.14-.2.14-.19.14-.19.13-.2.14-.18.13-.2.13-.2.13-.19.13-.2.13-.2.12-.19.13-.2.12-.2.12-.2.12-.2.12-.2.12-.2.11-.2.12-.2.11-.2.12-.2.1-.2.12-.21.1-.2.11-.2.1-.21.11-.2.1-.21.1-.21.1-.2.1-.21.1-.21.1-.21.09-.2.1-.22.08-.2.1-.21.08-.21.1-.21.08-.21.08-.21.09-.21.08-.21.08-.21.08-.22.08-.2.07-.22.08-.21.07-.21.07-.21.08-.22.07-.21.06-.21.07-.21.07-.22.06-.21.07-.21.06-.22.06-.21.06-.21.06-.22.05-.21.06-.21.05-.22.05-.21.05-.21.06-.22.04-.21.05-.22.05-.2.04-.22.05-.22.04-.2.04-.22.04-.22.04-.2.03-.22.04-.21.03-.22.04-.21.03-.21.03-.22.03-.2.03-.22.03-.21.02-.21.03-.22.02-.2.02-.22.02-.21.02-.21.02-.21.02-.21.02-.21.01-.21.01-.21.02h-.21l-.21.02h-.21l-.2.02H64.55l-.21.01h-.21l-.2.01H62.7l-.21-.01-.2-.01h-.21l-.2-.02h-.2l-.21-.02h-.2l-.2-.02-.2-.01-.2-.02-.21-.01-.2-.02-.2-.02-.2-.02-.2-.02-.2-.02-.2-.02-.2-.02-.2-.02-.19-.03-.2-.02-.2-.03-.19-.03-.2-.03-.19-.02-.2-.03-.19-.04-.19-.03-.2-.03-.19-.03-.19-.04-.19-.03-.19-.04-.19-.04-.19-.03-.19-.04-.19-.04-.19-.04-.18-.04-.19-.05-.19-.04-.18-.04-.19-.05-.18-.04-.19-.05-.18-.04-.18-.05-.19-.05-.18-.05-.18-.05-.18-.05-.18-.05-.18-.05-.18-.05-.18-.06-.18-.05-.18-.06-.17-.05-.18-.06-.18-.05-.17-.06-.18-.06-.17-.06-.17-.06-.18-.06-.17-.06-.17-.06-.17-.06-.17-.06-.17-.07-.17-.06-.17-.06-.17-.07-.17-.06-.17-.07-.16-.07-.17-.06-.16-.07-.17-.07-.16-.07-.17-.07-.16-.06-.16-.08-.17-.07-.16-.07-.16-.07-.16-.07-.16-.07-.16-.08-.16-.07-.15-.07-.16-.08-.16-.07-.15-.08-.16-.07-.15-.08-.16-.08-.15-.07-.16-.08-.15-.08-.15-.08-.15-.08-.15-.08-.15-.08-.15-.08-.15-.08-.15-.08-.15-.08-.15-.08-.15-.08-.14-.08-.15-.09-.14-.08-.15-.08-.14-.09-.15-.08-.14-.08-.14-.09-.15-.08-.14-.09-.14-.08-.14-.09-.14-.09-.14-.08-.14-.09-.14-.09-.14-.08-.14-.1-.13-.08-.14-.09-.14-.09-.13-.08-.14-.1-.13-.08-.14-.1-.13-.08-.14-.1-.13-.08-.13-.1-.13-.08-.13-.1-.14-.09-.13-.09-.13-.09-.13-.1-.13-.08-.13-.1-.12-.09-.13-.09-.13-.1-.13-.09-.12-.09-.13-.1-.13-.09-.12-.1-.13-.09-.12-.09-.13-.1-.12-.09-.12-.1-.13-.09-.12-.1-.12-.1-.12-.09-.12-.1-.13-.09-.12-.1-.12-.1-.12-.09-.12-.1-.12-.1-.12-.09-.11-.1-.12-.1-.12-.1-.12-.1-.12-.09-.11-.1-.12-.1-.12-.1-.11-.1-.12-.1-.11-.1-.12-.1-.11-.1-.12-.1-.11-.1-.12-.1-.11-.1-.11-.1-.12-.1-.1-.1-.12-.1-.11-.1-.12-.1-.1-.1-.12-.1-.1-.1-.12-.1-.11-.1-.11-.1-.11-.11-.11-.1-.11-.1-.1-.11-.12-.1-.1-.1-.12-.11-.1-.1-.11-.11-.11-.1-.1-.1-.11-.11-.11-.1-.1-.11-.12-.11-.1-.1-.1-.11-.11-.1-.11-.11-.1-.11-.11-.1-.1-.11-.11-.11-.1-.1-.11-.12-.1-.1-.1-.11-.11-.11-.1-.11-.11-.1-.1-.12-.1-.1-.1-.12-.11-.1-.1-.12-.1-.1-.1-.12-.11-.1-.1-.12-.1-.11-.1-.11-.1-.12-.1-.1-.11-.12-.1-.11-.1-.12-.1-.11-.1-.11-.1-.12-.1-.11-.1-.12-.1-.11-.1-.12-.1-.11-.1-.12-.1-.11-.1-.12-.1-.12-.1-.12-.1-.11-.09-.12-.1-.12-.1-.12-.1-.12-.09-.12-.1-.12-.1-.12-.09-.12-.1-.12-.1-.12-.09-.12-.1-.12-.09-.12-.1-.13-.09-.12-.1-.12-.09-.13-.1-.12-.09-.12-.1-.13-.09-.12-.1-.13-.09-.13-.09-.12-.1-.13-.09-.13-.09-.13-.1-.12-.08-.13-.1-.13-.09-.13-.09-.13-.1-.13-.08-.13-.1-.13-.08-.14-.1-.13-.09-.13-.09-.13-.09-.14-.08-.13-.1-.14-.08-.13-.1-.14-.08-.13-.09-.14-.09-.14-.08-.14-.1-.13-.08-.14-.09-.14-.08-.14-.09-.14-.08-.14-.09-.14-.09-.14-.08-.15-.09-.14-.08-.14-.08-.15-.09-.14-.08-.15-.08-.14-.09-.15-.08-.14-.08-.15-.08-.15-.08-.15-.09-.15-.08-.14-.08-.15-.08-.15-.07-.16-.08-.15-.08-.15-.08-.15-.08-.15-.08-.16-.07-.15-.08-.16-.08-.15-.07-.16-.08-.15-.07-.16-.07-.16-.08-.16-.07-.16-.07-.16-.08-.16-.07-.16-.07-.16-.07-.16-.07-.16-.07-.16-.07-.17-.07-.16-.07-.17-.07-.16-.06-.17-.07-.16-.07-.17-.06-.17-.07-.17-.06-.17-.06-.16-.07-.17-.06-.17-.06-.18-.06-.17-.06-.17-.06-.17-.06-.18-.06-.17-.06-.17-.06-.18-.06-.18-.05-.17-.06-.18-.05-.18-.06-.17-.05-.18-.05-.18-.06-.18-.05-.18-.05-.18-.05-.18-.05-.19-.05-.18-.04-.18-.05-.18-.05-.19-.04-.18-.05-.19-.04-.18-.04-.2-.05-.18-.04-.19-.04-.18-.04-.2-.04-.18-.04-.19-.03-.19-.04-.2-.04-.18-.03-.2-.03-.19-.04-.19-.03-.2-.03-.18-.03-.2-.03-.2-.03-.19-.03-.2-.02-.19-.03-.2-.02-.2-.03-.19-.02-.2-.02-.2-.02-.2-.02-.2-.02-.2-.02-.2-.02-.2-.02-.2-.01-.2-.01-.2-.02-.2v-.2l-.02-.2-.01-.2v-.21l-.02-.2v-.21l-.01-.2V39l-.01-.21v-1.24l.01-.21.01-.21v-.21l.02-.2v-.22l.02-.2v-.22l.02-.2.02-.22.01-.2.02-.22.02-.2.02-.22.02-.21.02-.21.02-.21.03-.22.02-.2.03-.22.03-.21.02-.22.04-.2.03-.22.03-.21.03-.22.04-.21.04-.21.03-.22.04-.2.04-.22.04-.22.05-.21.04-.21.05-.22.04-.21.05-.21.05-.22.05-.21.05-.21.06-.22.05-.21.06-.21.05-.22.06-.21.06-.21.06-.22.07-.21.06-.21.07-.22.06-.2.07-.22.07-.21.07-.22.07-.2.08-.22.07-.21.08-.21.07-.21.08-.22.08-.2.08-.22.09-.2.08-.22.09-.2.08-.22.1-.2.08-.21.1-.21.09-.21.09-.2.1-.22.1-.2.09-.21.1-.2.1-.21.1-.2.1-.21.1-.2.11-.21.11-.2.11-.21.11-.2.11-.2.12-.2.11-.2.12-.21.11-.2.12-.2.12-.2.12-.2.13-.2.12-.2.12-.2.13-.19.13-.2.13-.19.13-.2.13-.19.13-.19.14-.2.13-.18.14-.2.14-.19.14-.19.14-.18.14-.2.15-.18.14-.19.15-.18.15-.19.15-.18.15-.19.15-.18.15-.18.16-.18.15-.18.16-.18.16-.18.16-.18.16-.17.16-.18.16-.17.17-.18.16-.17.17-.17.17-.17.17-.17.17-.17.17-.17.17-.17.17-.17.18-.16.18-.16.17-.17.18-.16.18-.16.18-.16.19-.16.18-.16.18-.15.19-.16.19-.15.19-.16.18-.15.2-.15.19-.15.19-.15.2-.14.19-.15.2-.15.19-.14.2-.14.2-.14.2-.14.2-.14.2-.14.2-.14.2-.13.21-.13.2-.14.21-.13.21-.13.21-.13.2-.12.22-.13.21-.12.21-.13.22-.12.21-.12.22-.12.21-.12.22-.11.22-.12.22-.11.22-.11.22-.11.22-.11.22-.11.22-.1.23-.11.22-.1.23-.1.22-.1.23-.1.23-.1.22-.1.23-.1.23-.09.23-.09.23-.09.24-.09.23-.08.23-.09.23-.08.24-.09.23-.08.24-.08.23-.07.24-.08.24-.07.24-.08.23-.07.24-.07.24-.07.24-.06.24-.07.24-.06.24-.06.25-.06.24-.06.24-.06.24-.05.25-.06.24-.05.25-.05.24-.05.25-.04.24-.05.25-.04.24-.04.25-.04.24-.04.25-.04.25-.04.25-.03.24-.03.25-.03.25-.03.25-.03.25-.02.25-.03.24-.02.25-.02.25-.02.25-.01.25-.02.25-.01.25-.01.25-.01.25-.01.25-.01h.5l.25-.01h.75l.25.01h.25l.25.02h.25l.25.02.25.01.25.02.25.01.25.02.25.02.25.02.24.03.25.02.25.03.25.03.25.03.24.03.25.04.25.03.25.04.24.04.25.04.24.04.25.04.25.05.24.05.25.04.24.05.24.06.25.05.24.06.24.05.24.06.25.06.24.06.24.07.24.06.24.07.24.07.24.07.23.07.24.07.24.07.24.08.23.08.24.08.23.08.24.08.23.08.23.09.23.09.24.09.23.09.23.09.23.09.23.1.22.1.23.09.23.1.22.1.23.1.22.1.23.1.22.11.22.11.22.11.22.11.22.11.22.12.22.11.22.12.21.12.22.12.21.12.22.12.2.12.22.13.21.12.21.13.2.13.22.13.2.13.2.13.21.13.2.14.21.14.2.13.2.14.2.14.2.14.2.15.2.14.2.15.19.14.19.15.2.15.18.15.2.15.18.15.2.15.18.16.18.15.19.16.18.16.18.16.19.16.18.16.17.16.18.16.18.17.17.16.18.17.17.17.17.16.17.17.17.17.17.17.17.18.16.17.17.17.16.18.16.17.16.18.16.18.16.18.16.18.15.18.16.18.15.18.15.18.15.19.15.18.15.19.14.18.15.19.14.19.15.18.14.2.14.18.13.2.14.18.14.2.13.19.14.2.13.19.13.19.13.2.13.2.12.19.13.2.12.2.12.2.12.19.12.2.12.2.12.2.11.2.12.2.11.2.11.2.11.2.11.21.11.2.1.21.11.2.1.21.1.2.1.21.1.2.1.22.1.2.1.21.09.2.1.22.08.2.1.21.08.21.09.21.08.21.09.21.08.21.08.21.08.21.08.21.08.22.07.2.08.22.07.21.07.21.07.22.07.2.07.22.07.21.06.22.07.2.06.22.06.21.06.22.06.21.06.21.05.22.06.21.05.22.05.2.05.22.05.22.05.2.05.22.04.22.05.21.04.21.04.22.04.21.04.21.04.22.03.21.04.21.03.22.03.2.04.22.03.21.03.22.02.2.03.22.03.21.02.21.02.22.02.2.02.22.02.21.02.21.02.21.01.21.02.21.01.21.01.21.01.21.01.21.01.2.01.22v.2l.01.21v.42l.01.2v1.03l-.01.21v.2l-.01.21-.01.2-.01.21-.01.2-.01.2-.01.2-.02.21-.01.2-.02.2-.01.2-.02.2-.02.2-.02.2-.02.2-.02.2-.02.2-.02.2-.03.2-.02.2-.03.19-.02.2-.03.2-.03.19-.03.19-.03.2-.03.19-.03.2-.04.18-.03.2-.04.19-.03.19-.04.19-.04.19-.03.19-.04.19-.04.19-.04.18-.05.2-.04.18-.04.18-.04.19-.05.18-.05.19-.04.18-.05.19-.05.18-.04.18-.05.18-.05.19-.05.18-.06.18-.05.18-.05.18-.06.17-.05.18-.05.18-.06.18-.06.17-.05.18-.06.17-.06.18-.06.17-.06.18-.06.17-.06.17-.06.17-.06.17-.06.17-.07.17-.06.17-.07.17-.06.17-.07.17-.06.16-.07.17-.07.17-.06.16-.07.17-.07.16-.07.16-.07.17-.07.16-.07.16-.07.16-.08.16-.07.16-.07.16-.07.16-.08.16-.07.16-.08.15-.07.16-.08.15-.07.16-.08.15-.08.16-.08.15-.07.16-.08.15-.08.15-.08.15-.08.15-.08.15-.08.15-.08.15-.08.15-.08.15-.08.15-.08.14-.09.15-.08.15-.08.14-.09.15-.08.14-.08.14-.09.15-.08.14-.09.14-.08.14-.09.14-.09.14-.08.15-.09.13-.08.14-.1.14-.08.14-.09.14-.09.14-.08.13-.1.14-.08.13-.09.14-.09.13-.09.14-.09.13-.09.13-.09.14-.09.13-.1.13-.08.13-.1.13-.08.13-.1.13-.09.13-.1.13-.08.13-.1.13-.09.13-.1.13-.09.12-.09.13-.1.13-.09.12-.09.13-.1.12-.09.13-.1.12-.09.12-.1.13-.09.12-.1.12-.1.12-.09.13-.1.12-.09.12-.1.12-.1.12-.09.12-.1.12-.1.12-.1.12-.09.12-.1.11-.1.12-.1.12-.09.12-.1.11-.1.12-.1.12-.1.11-.1.12-.1.11-.1.12-.1.11-.1.12-.1.11-.1.12-.1.1-.1.12-.1.11-.1.12-.1.1-.1.12-.1.11-.1.11-.1.12-.1.1-.1.12-.11.1-.1.12-.1.1-.1.12-.11.1-.1.12-.1.1-.11.11-.1.11-.11.11-.1.1-.1.12-.11.1-.1.11-.11.1-.1.11-.12.11-.1.1-.1.11-.11.1-.1.11-.12.11-.1.1-.11.11-.1.1-.12.11-.1.1-.11.1-.1.11-.12.1-.1.11-.12.1-.1.1-.11.11-.11.1-.11.1-.11.1-.11.11-.12.1-.1.1-.12.1-.11.1-.11.1-.11.11-.12.1-.1.1-.12.1-.12.1-.1.1-.12.1-.12.1-.11.1-.12.1-.11.1-.12.1-.11.1-.12.1-.12.1-.11.1-.12.1-.12.1-.11.1-.12.09-.12.1-.12.1-.12.1-.12.09-.12.1-.12.1-.12.09-.12.1-.12.1-.12.09-.12.1-.13.09-.12.1-.12.09-.13.1-.12.09-.12.1-.13.09-.12.1-.13.09-.13.1-.12.08-.13.1-.13.1-.12.08-.13.1-.13.09-.13.1-.13.08-.13.1-.13.09-.13.09-.13.09-.13.1-.14.08-.13.1-.13.08-.13.1-.14.08-.13.1-.14.08-.13.09-.14.09-.14.09-.13.08-.14.1-.14.08-.14.09-.13.08-.14.1-.14.08-.14.08-.15.09-.14.08-.14.09-.14.08-.14.09-.15.08-.14.09-.15.08-.14.08-.15.09-.14.08-.15.08-.15.08-.15.09-.14.08-.15.08-.15.08-.15.08-.15.08-.15.08-.16.07-.15.08-.15.08-.15.08-.16.08-.15.07-.16.08-.15.07-.16.08-.16.07-.15.08-.16.07-.16.08-.16.07-.16.07-.16.07-.16.08-.16.07-.16.07-.17.07-.16.07-.16.07-.17.07-.16.06-.17.07-.16.07-.17.06-.17.07-.17.07-.16.06-.17.06-.17.07-.17.06-.17.06-.18.06-.17.07-.17.06-.17.06-.18.06-.17.05-.18.06-.17.06-.18.06-.17.05-.18.06-.18.05-.18.06-.18.05-.17.05-.18.05-.19.05-.18.05-.18.05-.18.05-.18.05-.19.05-.18.04-.18.05-.19.05-.19.04-.18.04-.19.05-.19.04-.18.04-.2.04-.18.04-.19.04-.19.04-.19.03-.19.04-.2.03-.18.04-.2.03-.19.03-.2.04-.19.03-.19.03-.2.03-.19.02-.2.03-.2.03-.19.02-.2.03-.2.02-.2.02-.19.02-.2.02-.2.02-.2.02-.2.02-.2.02-.2.01-.2.02-.2.01-.2.01-.2.01-.21.02h-.2l-.2.01-.21.01h-.2l-.21.01H38.89l-.21.01h-1.04l-.2-.01h-.21l-.21-.01-.2-.01-.22-.01-.2-.01-.22-.01-.2-.02-.22-.01-.2-.02-.22-.01-.2-.02-.22-.02-.21-.02-.21-.02-.21-.02-.22-.02-.2-.03-.22-.03-.21-.02-.21-.03-.22-.03-.2-.03-.22-.03-.21-.04-.22-.03-.21-.04-.21-.03-.22-.04-.21-.04-.21-.04-.22-.05-.21-.04-.21-.04-.22-.05-.21-.05-.22-.05-.2-.05-.22-.05-.22-.05-.2-.06-.22-.05-.22-.06-.2-.06-.22-.05-.22-.07-.2-.06-.22-.06-.21-.06-.22-.07-.21-.07-.21-.07-.21-.07-.22-.07-.2-.07-.22-.08-.21-.07-.21-.08-.21-.08-.22-.07-.2-.09-.22-.08-.2-.08-.22-.09-.2-.08-.22-.09-.2-.09-.21-.09-.21-.1-.21-.08-.2-.1-.21-.1-.21-.1-.2-.1-.21-.1-.21-.1-.2-.1-.21-.1-.2-.1-.2-.11-.21-.1-.2-.12-.2-.11-.21-.11-.2-.12-.2-.11-.2-.12-.2-.12-.2-.11-.2-.12-.2-.13-.2-.12-.2-.12-.2-.13-.19-.13-.2-.13-.19-.13-.2-.13-.19-.13-.19-.13-.2-.14-.18-.14-.2-.13-.18-.14-.2-.14-.18-.15-.2-.14-.18-.14-.18-.15-.19-.15-.18-.14-.19-.15-.18-.16-.18-.15-.19-.15-.18-.16-.18-.15-.17-.16-.18-.16-.18-.16-.18-.16-.17-.16-.18-.17-.17-.16-.17-.17-.17-.17-.17-.16-.17-.17-.17-.18-.17-.17-.17-.17-.16-.18-.17-.17-.16-.18-.16-.18-.16-.18-.16-.18-.16-.18-.16-.18-.16-.19-.15-.18-.16-.19-.15-.19-.16-.18-.15-.2-.15-.18-.15-.2-.14-.19-.15-.2-.15-.19-.14-.2-.14-.2-.15-.2-.14-.19-.14-.2-.13-.2-.14-.2-.14-.2-.13-.21-.13-.2-.14-.21-.13-.21-.13-.21-.12-.2-.13-.22-.12-.21-.13-.21-.12-.22-.12-.21-.12-.21-.12-.22-.12-.22-.11-.21-.12-.22-.1-.22-.12-.22-.11-.22-.1-.22-.12-.23-.1-.22-.1-.22-.1-.23-.1-.22-.1-.23-.1-.23-.1-.23-.1-.22-.1-.23-.08-.23-.1-.23-.08-.23-.1-.24-.08-.23-.08-.23-.09-.24L3 63l-.08-.24-.08-.23-.07-.24-.08-.24-.07-.23-.07-.24-.07-.24-.07-.24-.07-.24-.07-.24-.06-.24-.06-.24-.06-.24-.06-.24-.06-.25-.06-.24-.05-.24-.05-.24-.05-.25-.05-.24-.05-.25-.05-.24-.04-.25-.04-.24-.05-.25-.03-.25-.04-.24-.04-.25-.03-.25-.04-.25-.03-.24-.03-.25-.02-.25-.03-.25-.03-.25-.02-.25-.02-.24-.02-.25-.02-.25-.01-.25-.02-.25v-.25l-.02-.25v-.25L1 51.99v-.75L1 50.99v-.75l.01-.25.01-.25.01-.25.01-.25.01-.25.02-.25.02-.25.01-.25.02-.25.02-.25.03-.25.02-.24.03-.25.03-.25.03-.25.03-.25.03-.24.03-.25.04-.25.04-.24.04-.25.04-.25.04-.24.05-.25.04-.24.05-.25.05-.24.05-.25.05-.24.06-.24.06-.25.05-.24.06-.24.06-.24.07-.24.06-.24.07-.24.06-.24.07-.24.07-.24.08-.24.07-.24.07-.23.08-.24.08-.24.08-.23.08-.23.08-.24.09-.23.09-.23.08-.24.1-.23.08-.23.1-.23.09-.23.1-.23.1-.22.09-.23.1-.23.1-.22.1-.23.1-.22.11-.22.11-.23.1-.22.12-.22.11-.22.11-.22.12-.22.11-.21.12-.22.12-.22.12-.21.12-.21.12-.22.13-.2.12-.22.13-.21.13-.2.13-.22.13-.2.13-.21.13-.2.14-.21.13-.2.14-.2.14-.2.14-.2.14-.2.14-.2.14-.2.15-.2.14-.2.15-.19.15-.2.15-.18.15-.2.15-.18.15-.2.15-.18.16-.19.16-.18.15-.18.16-.19.16-.18.16-.18.16-.18.16-.18.17-.17.16-.18.17-.17.17-.18.16-.17.17-.17.17-.17.17-.17.17-.17.18-.16.17-.17.17-.16.18-.16.18-.17.17-.16.18-.15.18-.16.18-.16.18-.15.18-.16.19-.15.18-.15.18-.15.19-.15.18-.14.19-.15.19-.14.18-.15.2-.14.18-.14.2-.14.18-.14.2-.13.19-.14.19-.13.2-.13.19-.14.2-.13.19-.12.2-.13.2-.13.19-.12.2-.12.2-.13.2-.12.2-.12.2-.11.2-.12.2-.11.2-.12.2-.11.2-.11.2-.11.2-.1.21-.12.2-.1.21-.1.2-.1.21-.1.21-.1.2-.1.21-.1.21-.1.2-.1.22-.09.2-.09.21-.09.21-.09.21-.09.21-.08.21-.09.21-.08.21-.08.21-.08.21-.08.22-.08.2-.08.22-.07.21-.08.21-.07.21-.07.22-.07.2-.07.22-.07.21-.06.22-.07.21-.06.21-.06.22-.06.21-.06.21-.06.22-.05.21-.06.21-.05.22-.06.21-.05.21-.05.22-.05.21-.04.21-.05.22-.04.21-.05.21-.04.22-.04.21-.04.21-.04.22-.04.21-.03.21-.04.22-.03.21-.03.21-.03.21-.03.22-.03.21-.03.21-.02.21-.03.22-.02.2-.02.22-.02.2-.02.22-.02.21-.02.21-.02.21-.01.21-.02h.21l.21-.02.21-.01h.21l.2-.02h.22l.2-.01h.42l.2-.01h1.24l.21.01.2.01h.2l.21.02h.2l.2.02h.21l.2.02.2.01.2.02.2.01.2.02.2.02.2.02.2.02.2.02.2.02.2.02.2.02.2.03.2.02.2.03.19.03.2.03.19.03.2.03.19.03.19.03.2.03.18.03.2.04.19.03.19.04.19.04.19.04.19.03.19.04.18.04.2.05.18.04.19.04.18.04.19.05.18.04.19.05.18.05.18.04.19.05.18.05.18.05.18.05.18.05.18.05.18.06.18.05.18.05.17.06.18.05.18.06.17.06.18.05.17.06.18.06.17.06.18.06.17.06.17.06.17.06.17.06.17.07.17.06.17.07.17.06.17.07.16.06.17.07.17.06.16.07.17.07.16.07.16.07.17.07.16.07.16.07.16.07.16.07.16.07.16.08.16.07.16.07.16.08.16.07.15.08.16.07.16.08.15.07.16.08.15.08.15.08.16.07.15.08.15.08.15.08.15.08.15.08.15.08.15.08.15.08.15.08.14.09.15.08.15.08.14.08.15.09.14.08.14.08.15.09.14.08.14.09.15.08.14.09.14.08.14.09.14.09.14.08.14.09.13.09.14.08.14.1.14.08.13.09.14.09.13.09.14.09.13.09.14.09.13.09.13.09.14.09.13.09.13.09.13.09.13.1.13.08.13.1.13.09.13.09.13.1.13.08.12.1.13.09.13.1.13.09.12.1.13.09.12.09.13.1.12.09.12.1.13.09.12.1.12.09.13.1.12.09.12.1.12.1.12.09.12.1.12.1.12.09.12.1.12.1.12.1.12.09.12.1.11.1.12.1.12.1.12.09.11.1.12.1.11.1.12.1.11.1.12.1.11.1.12.1.11.1.11.1.12.1.11.1.11.1.12.1.1.1.12.1.11.1.11.1.11.1.11.1.12.11.1.1.12.1.1.1.11.11.11.1.11.1.11.11.11.1.1.11.12.1.1.1.11.11.1.1.12.11.1.1.11.11.1.11.11.1.1.11.11.1.11.12.1.1.11.1.1.12.11.1.1.11.1.1.11.12.1.1.11.11.1.11.1.11.11.11.1.11.1.11.1.11.11.11.1.11.1.11.1.11.1.12.11.1.1.12.1.11.1.11.1.12.1.11.1.11.1.12.1.11.1.12.1.11.1.12.1.11.1.12.1.11.1.12.1.12.1.11.1.12.1.12.1.12.1.11.09.12.1.12.1.12.09.12.1.12.1.12.09.12.1.12.1.12.09.13.1.12.09.12.1.12.09.13.1.12.09.12.1.13.09.12.1.13.09.13.09.12.1.13.09.13.09.12.1.13.09.13.09.13.09.13.1.13.08.13.1.13.09.13.09.13.09.13.09.13.09.14.09.13.09.13.09.14.09.13.09.14.09.13.08.14.1.14.08.13.09.14.09.14.08.14.09.14.09.14.08.14.09.14.08.14.09.14.08.14.09.15.08.14.09.14.08.15.08.14.09.15.08.14.08.15.08.15.09.14.08.15.08.15.08.15.08.15.08.15.08.15.08.15.08.16.07.15.08.15.08.15.08.16.07.15.08.16.07.15.08.16.07.16.08.16.07.15.08.16.07.16.07.16.07.16.07.16.07.17.07.16.07.16.07.16.07.17.07.16.07.17.07.16.06.17.07.17.06.17.07.16.06.17.07.17.06.17.06.17.07.17.06.17.06.18.06.17.06.17.06.18.05.17.06.18.06.17.05.18.06.18.06.17.05.18.05.18.06.18.05.18.05.18.05.18.05.18.05.18.05.19.05.18.04.18.05.19.04.18.05.19.04.18.05.19.04.19.04.18.04.2.04.18.04.19.04.19.03.19.04.19.04.19.03.2.04.18.03.2.03.19.03.2.03.19.03.2.03.19.03.2.02.19.03.2.03.2.02.19.02.2.02.2.03.2.02.2.01.2.02.2.02.2.02.2.01.2.01.2.02.2.01.2.01.2.01.2V62l.02.2v.21l.01.2V63.01l.01.21v1.24l-.01.21-.01.21v.2l-.02.22v.2l-.02.22-.01.2-.01.22-.02.2-.01.22-.02.2-.02.22-.02.2-.02.22-.02.21-.02.21-.03.22-.02.2-.03.22-.03.21-.03.21-.03.22-.03.21-.03.21-.03.22-.04.2-.04.22-.03.22-.04.2-.04.22-.05.22-.04.2-.04.22-.05.22-.05.2-.04.22-.05.22-.05.21-.06.21-.05.22-.05.21-.06.21-.06.22-.06.21-.06.21-.06.22-.06.21-.06.21-.07.22-.07.2-.06.22-.07.21-.07.22-.08.2-.07.22-.07.21-.08.21-.08.21-.08.21-.08.22-.08.2-.08.22-.09.2-.08.22-.09.2-.09.21-.09.21-.09.21-.09.21-.1.2-.09.22-.1.2-.1.2-.1.22-.1.2-.1.2-.1.21-.1.2-.11.21-.1.2-.12.2-.1.21-.12.2-.11.2-.12.2-.11.2-.12.2-.12.2-.12.2-.12.2-.12.2-.12.2-.13.2-.13.2-.12.2-.13.19-.13.2-.14.18-.13.2-.13.2-.14.18-.14.2-.14.18-.14.2-.14.18-.14.2-.14.18-.15.18-.15.2-.14.18-.15.18-.15.18-.16.19-.15.18-.15.18-.16.18-.15.18-.16.18-.16.17-.16.18-.17.18-.16.17-.16.18-.17.17-.17.17-.16.17-.17.17-.17.17-.17.17-.18.17-.17.16-.18.17-.17.16-.18.16-.18.17-.18.16-.18.16-.18.16-.19.15-.18.16-.19.16-.19.15-.18.15-.2.15-.18.16-.2.14-.19.15-.2.15-.19.15-.2.14-.19.15-.2.14-.2.14-.2.14-.2.14-.2.14-.2.13-.2.14-.2.13-.22.13-.2.13-.21.13-.2.13-.22.13-.2.12-.22.13-.21.12-.22.12-.21.12-.22.12-.21.12-.22.12-.22.11-.22.12-.22.1-.22.12-.22.1-.22.11-.22.11-.23.1-.22.1-.23.11-.22.1-.23.1-.23.1-.22.1-.23.09-.23.1-.23.08-.23.1-.24.08-.23.09-.23.08-.23.09-.24.08-.23.08-.24.08-.23.08-.24.07-.24.08-.24.07-.23.07-.24.07-.24.07-.24.06-.24.07-.24.06-.25.06-.24.06-.24.06-.24.06-.24.05-.25.06-.24.05-.25.05-.24.05-.25.05-.24.04-.25.04-.24.05-.25.04-.25.03-.24.04-.25.04-.25.03-.25.03-.24.03-.25.03-.25.03-.25.02-.25.03-.25.02-.24.02-.25.02-.25.01-.25.02-.25.01-.25.02h-.25l-.25.01-.25.01h-.5l-.25.01h-.75l-.25-.01h-.25l-.25-.02h-.25l-.25-.02-.25-.01-.25-.02-.25-.02-.25-.01-.25-.02-.25-.03-.24-.02-.25-.02-.25-.03-.25-.03-.25-.03-.25-.03-.24-.04-.25-.03-.25-.04-.24-.04-.25-.04-.25-.04-.24-.05-.25-.04-.24-.05-.25-.05-.24-.05-.24-.05-.25-.05-.24-.06-.24-.06-.25-.05-.24-.06-.24-.07-.24-.06-.24-.06-.24-.07-.24-.07-.24-.07-.24-.07-.23-.07-.24-.08-.24-.07-.23-.08-.24-.08-.23-.08-.24-.08-.23-.09-.23-.08-.24-.1-.23-.08-.23-.09-.23-.1-.23-.08-.23-.1-.22-.1-.23-.1-.23-.1-.22-.1-.23-.1-.22-.1-.23-.1-.22-.11-.22-.1-.22-.12-.22-.1-.22-.12-.22-.11-.22-.12-.22-.11-.21-.12-.22-.12-.21-.12-.21-.12-.22-.13-.2-.12-.22-.13-.2-.13-.22-.12-.2-.13-.21-.13-.2-.14-.21-.13-.2-.14-.21-.13-.2-.14-.2-.14-.2-.14-.2-.14-.2-.14-.2-.15-.2-.14-.19-.15-.19-.15-.2-.14-.18-.15-.2-.16-.18-.15-.19-.15-.19-.16-.18-.15-.19-.16-.18-.16-.18-.15-.18-.16-.18-.17-.18-.16-.18-.16-.18-.16-.17-.17-.18-.17-.17-.16-.17-.17-.17-.17-.17-.17-.17-.17-.16-.17-.17-.18-.16-.17-.17-.18-.16-.17-.16-.18-.16-.18-.16-.18-.15-.17-.16-.18-.15-.19-.16-.18-.15-.18-.15-.18-.15-.19-.14-.18-.15-.19-.15-.19-.14-.18-.14-.2-.14-.18-.14-.2-.14-.18-.14-.2-.13-.18-.14-.2-.13-.2-.13-.18-.13-.2-.13-.2-.13-.19-.13-.2-.12-.2-.13-.2-.12-.19-.12-.2-.12-.2-.12-.2-.11-.2-.12-.2-.11-.2-.12-.2-.1-.2-.12-.2-.1-.21-.11-.2-.11-.21-.1-.2-.1-.21-.11-.2-.1-.21-.1-.2-.1-.21-.1-.21-.09-.21-.1-.2-.09-.22-.09-.2-.09-.21-.08-.21-.1-.21-.08-.21-.08-.21-.08-.21-.08-.21-.08-.21-.08-.21-.08-.22-.08-.2-.07-.22-.07-.21-.08-.21-.07-.22-.07-.2-.06-.22-.07-.21-.06-.22-.07-.2-.06-.22-.06-.21-.06-.22-.06-.21-.06-.21-.05-.22-.06-.21-.05-.21-.05-.22-.05-.21-.05-.22-.05-.2-.05-.22-.04-.22-.05-.21-.04-.21-.04-.22-.04-.21-.04-.21-.04-.22-.03-.2-.04-.22-.03-.22-.04-.2-.03-.22-.03-.21-.03-.22-.02-.2-.03-.22-.03-.21-.02-.21-.02-.22-.02-.2-.02-.22-.02-.21-.02-.21-.02-.21-.01-.21-.02-.21-.01-.21-.01-.21-.02-.21v-.21l-.01-.2-.01-.22v-.2l-.01-.21V64.03l-.01-.22V62.8l.01-.21v-.2l.01-.21.01-.2.01-.2.01-.21.01-.2.01-.2.02-.21.01-.2.02-.2.01-.2.02-.2.02-.2.02-.2.02-.2.02-.2.02-.2.02-.2.03-.2.02-.2.03-.19.03-.2.02-.19.03-.2.03-.19.03-.2.03-.19.04-.19.03-.2.03-.18.04-.2.03-.19.04-.19.04-.19.04-.19.03-.19.04-.18.05-.2.04-.18.04-.19.04-.18.05-.19.04-.18.05-.19.04-.18.05-.19.05-.18.05-.18.05-.18.05-.18.05-.19.05-.18.05-.17.05-.18.06-.18.05-.18.06-.18.05-.17.06-.18.06-.18.05-.17.06-.18.06-.17.06-.17.06-.18.06-.17.06-.17.07-.17.06-.17.06-.17.06-.17.07-.17.06-.17.07-.16.07-.17.06-.17.07-.16.07-.17.07-.16.07-.17.06-.16.07-.16.07-.17.08-.16.07-.16.07-.16.07-.16.07-.16.08-.16.07-.15.08-.16.07-.16.08-.16.07-.15.08-.16.07-.15.08-.16.08-.15.08-.15.07-.16.08-.15.08-.15.08-.15.08-.15.08-.15.08-.15.08-.15.08-.15.09-.14.08-.15.08-.15.08-.14.09-.15.08-.14.08-.15.09-.14.08-.14.09-.15.08-.14.09-.14.08-.14.09-.14.09-.14.08-.14.09-.14.09-.14.08-.14.1-.13.08-.14.09-.14.09-.13.08-.14.1-.13.08-.14.1-.13.08-.14.1-.13.08-.13.1-.14.08-.13.1-.13.09-.13.09-.13.09-.13.1-.13.08-.13.1-.13.09-.13.1-.12.09-.13.09-.13.1-.13.09-.12.09-.13.1-.12.09-.13.1-.12.09-.13.1-.12.09-.12.1-.13.09-.12.1-.12.1-.12.09-.12.1-.12.09-.13.1-.12.1-.12.09-.12.1-.11.1-.12.1-.12.09-.12.1-.12.1-.12.1-.11.1-.12.1-.12.09-.11.1-.12.1-.11.1-.12.1-.11.1-.12.1-.11.1-.12.1-.11.1-.11.1-.12.1-.11.1-.11.1-.11.1-.12.1-.1.1-.12.1-.11.11-.11.1-.11.1-.11.1-.11.11-.11.1-.11.1-.11.1-.11.11-.11.1-.1.11-.12.1-.1.1-.11.11-.11.1-.1.11-.12.1-.1.11-.1.11-.12.1-.1.11-.1.1-.11.11-.11.11-.1.1-.11.12-.1.1-.11.11-.1.1-.1.12-.11.1-.1.11-.11.11-.1.11-.1.11-.11.1-.1.12-.1.1-.11.12-.1.11-.1.11-.1.11-.1.11-.11.11-.1.12-.1.1-.1.12-.1.11-.1.12-.1.11-.1.11-.1.12-.1.11-.1.12-.1.11-.1.12-.1.11-.1.12-.1.11-.1.12-.1.12-.1.11-.1.12-.1.12-.1.12-.1.12-.1.11-.09.12-.1.12-.1.12-.09.12-.1.12-.1.12-.09.13-.1.12-.1.12-.09.12-.1.12-.09.13-.1.12-.09.13-.1.12-.09.12-.1.13-.09.13-.1.12-.09.13-.09.12-.1.13-.09.13-.09.13-.1.13-.08.13-.1.12-.09.13-.09.14-.1.13-.08.13-.1.13-.09.13-.09.13-.09.14-.09.13-.09.13-.09.14-.09.13-.08.14-.1.14-.08.13-.1.14-.08.14-.09.13-.08.14-.1.14-.08.14-.09.14-.08.14-.09.14-.08.14-.09.15-.08.14-.09.14-.08.14-.09.15-.08.14-.09.15-.08.14-.08.15-.08.15-.09.14-.08.15-.08.15-.08.15-.08.15-.08.15-.08.15-.08.15-.08.15-.08.15-.08.16-.07.15-.08.16-.08.15-.08.15-.07.16-.08.16-.07.15-.08.16-.07.16-.08.16-.07.16-.07.16-.08.16-.07.16-.07.16-.07.16-.07.16-.07.17-.07.16-.07.16-.07.17-.07.17-.06.16-.07.17-.07.17-.06.16-.07.17-.06.17-.07.17-.06.17-.06.17-.07.17-.06.17-.06.18-.06.17-.06.17-.06.18-.06.17-.05.18-.06.17-.06.18-.05.18-.06.18-.05.17-.06.18-.05.18-.05.18-.06.18-.05.18-.05.19-.05.18-.05.18-.04.18-.05.19-.05.18-.04.19-.05.18-.04.19-.05.19-.04.18-.04.2-.04.18-.04.19-.04.19-.04.19-.04.19-.03.19-.04.19-.04.2-.03.18-.03.2-.04.19-.03.2-.03.19-.03.2-.03.19-.03.2-.02.2-.03.19-.02.2-.03.2-.02.19-.02.2-.03.2-.02.2-.02.2-.01.2-.02.2-.02.2-.01.2-.02.2-.01.2-.01.2-.02h.21l.2-.02h.2l.21-.01h.2l.21-.01H63.12l.2-.01h1.04l.21.01h.21l.2.01.22.01.2.01.22.01.2.01.22.02.2.01.22.02.2.01.22.02.2.02.22.02.21.02.21.02.21.03.22.02.2.03.22.02.21.03.22.03.2.03.22.03.21.04.22.03.21.04.21.04.22.03.21.04.21.05.22.04.21.04.21.05.22.04.21.05.21.05.22.05.21.05.22.05.2.06.22.05.22.06.2.06.22.06.22.06.2.06.22.06.21.07.22.06.2.07.22.07.21.07.22.07.2.07.22.08.21.07.21.08.21.08.21.08.22.08.2.08.22.08.2.09.22.09.2.08.21.1.21.08.21.1.2.09.22.1.2.09.21.1.2.1.21.1.2.1.21.1.21.1.2.1.2.12.21.1.2.11.2.11.21.12.2.11.2.12.2.11.2.12.2.12.2.12.2.12.2.12.2.13.2.13.19.12.2.13.19.13.2.13.19.14.19.13.2.13.18.14.2.14.18.14.2.14.18.14.19.14.19.15.18.15.19.14.18.15.19.15.18.15.18.15.18.16.18.15.18.16.18.16.18.16.18.16.17.16.18.16.17.16.18.17.17.17.17.16.17.17.17.17.17.17.17.17.16.18.17.17.16.18.17.18.16.17.16.18.16.19.16.18.16.18.16.18.15.19.16.19.15.18.15.2.15.18.15.2.15.18.15.2.15.2.14.19.15.2.14.2.14.19.14.2.14.2.14.2.14.2.13.2.14.21.13.2.13.21.13.21.13.2.13.22.13.2.12.22.12.21.13.21.12.22.12.21.12.22.11.22.12.21.11.22.11.22.12.22.1.22.11.22.11.23.1.22.11.22.1.23.1.22.1.23.1.23.1.23.1.22.09.23.09.23.09.23.09.23.09.24.08.23.09.23.08.24.08.23.08.24.08.23.08.24.07.24.07.23.08.24.07.24.07.24.06.24.07.24.06.24.06.24.07.24.05.24.06.25.06.24.05.24.05.25.06.24.05.24.04.25.05.24.04.25.05.25.04.24.04.25.03.24.04.25.04.25.03.25.03.24.03.25.03.25.02.25.03.25.02.25.02.25.02.24.02.25.01.25.02.25.01.25.01.25.01.25v.25l.01.25v.5l.01.23Z" stroke="currentColor" stroke-width="2" /></symbol>
<symbol id="light" viewBox="0 0 24 24" fill="currentColor"><path d="M20.993 13.313a6 6 0 01-7.306-7.306 7 7 0 107.306 7.306z"></path><path fill-rule="evenodd" d="M4.5 8.25a.5.5 0 01.5.5v1.5a.5.5 0 01-1 0v-1.5a.5.5 0 01.5-.5z" clip-rule="evenodd"></path><path fill-rule="evenodd" d="M3.25 9.5a.5.5 0 01.5-.5h1.5a.5.5 0 010 1h-1.5a.5.5 0 01-.5-.5zM7.5 3a.5.5 0 01.5.5v2a.5.5 0 01-1 0v-2a.5.5 0 01.5-.5z" clip-rule="evenodd"></path><path fill-rule="evenodd" d="M6 4.5a.5.5 0 01.5-.5h2a.5.5 0 010 1h-2a.5.5 0 01-.5-.5z" clip-rule="evenodd"></path></symbol>
<symbol id="dark" viewBox="0 0 24 24" fill="currentColor"><path d="M12 16.5A4.505 4.505 0 017.5 12c0-2.481 2.019-4.5 4.5-4.5s4.5 2.019 4.5 4.5-2.019 4.5-4.5 4.5z"></path><path fill-rule="evenodd" d="M12 3a.5.5 0 01.5.5v2a.5.5 0 01-1 0v-2A.5.5 0 0112 3zM18 12a.5.5 0 01.5-.5h2a.5.5 0 010 1h-2a.5.5 0 01-.5-.5zM3 12a.5.5 0 01.5-.5h2a.5.5 0 010 1h-2A.5.5 0 013 12zM12 18a.5.5 0 01.5.5v2a.5.5 0 01-1 0v-2a.5.5 0 01.5-.5zM18.354 5.646a.5.5 0 010 .708l-1.5 1.5a.5.5 0 01-.708-.708l1.5-1.5a.5.5 0 01.708 0zM7.854 16.146a.5.5 0 010 .708l-1.5 1.5a.5.5 0 01-.708-.708l1.5-1.5a.5.5 0 01.708 0zM5.646 5.646a.5.5 0 01.708 0l1.5 1.5a.5.5 0 11-.708.708l-1.5-1.5a.5.5 0 010-.708zM16.146 16.146a.5.5 0 01.708 0l1.5 1.5a.5.5 0 01-.708.708l-1.5-1.5a.5.5 0 010-.708z" clip-rule="evenodd"></path></symbol>
<symbol id="BTC" viewBox="0 0 24 24" fill="currentColor"><path fill-rule="evenodd" d="M13.425 6.432c1.983.19 3.538.778 3.71 2.528.117 1.276-.438 2.035-1.355 2.463 1.481.359 2.382 1.202 2.196 3.072-.227 2.343-2.035 2.952-4.62 3.08l.004 2.42-1.522.002-.004-2.42c-.166-.002-.34 0-.519.003-.238.003-.484.006-.731-.001l.004 2.42-1.52.001-.004-2.42-3.044-.058.256-1.768s1.15.024 1.129.012c.423-.002.549-.293.58-.485l-.008-3.878.012-2.76c-.046-.288-.248-.634-.87-.644.033-.03-1.115.001-1.115.001L6 6.38l3.12-.005-.004-2.37 1.571-.002.004 2.37c.304-.008.603-.005.906-.003l.3.002-.005-2.37L13.422 4l.003 2.432zm-2.92 4.46l.076.002c.926.04 3.67.155 3.673-1.457-.004-1.532-2.339-1.482-3.423-1.46-.129.003-.24.006-.327.005v2.91zm.129 4.75l-.134-.005v-2.91c.097.002.218 0 .359-.002 1.282-.015 4.145-.05 4.132 1.494.014 1.597-3.218 1.468-4.357 1.423z" clip-rule="evenodd"></path></symbol>
<symbol id="sats" viewBox="0 0 30 30" fill="none"><path d="M8 10H22" stroke="currentColor" stroke-width="2"/><path d="M15 7V4" stroke="currentColor" stroke-width="2"/><path d="M15 26V23" stroke="currentColor" stroke-width="2"/><path d="M8 15H22" stroke="currentColor" stroke-width="2"/><path d="M8 20H22" stroke="currentColor" stroke-width="2"/></symbol>
<symbol id="show" viewBox="0 0 24 24" fill="currentColor"><path d="M12 14a2 2 0 100-4 2 2 0 000 4z"></path><path fill-rule="evenodd" d="M21 12c0 2.761-4.03 5-9 5s-9-2.239-9-5 4.03-5 9-5 9 2.239 9 5zm-5 0a4 4 0 11-8 0 4 4 0 018 0z" clip-rule="evenodd"></path></symbol>
<symbol id="hide" viewBox="0 0 24 24" fill="currentColor"><path d="M14.33 7.17C13.588 7.058 12.807 7 12 7c-4.97 0-9 2.239-9 5 0 1.44 1.096 2.738 2.85 3.65l2.362-2.362a4 4 0 015.076-5.076l1.043-1.043zM11.23 15.926a4 4 0 004.695-4.695l2.648-2.647C20.078 9.478 21 10.68 21 12c0 2.761-4.03 5-9 5-.598 0-1.183-.032-1.749-.094l.98-.98zM17.793 5.207a1 1 0 111.414 1.414L6.48 19.35a1 1 0 11-1.414-1.414L17.793 5.207z"></path></symbol>
<symbol id="wallet" fill="none" viewBox="0 0 24 24" stroke="currentColor"><path d="M15 17.5h3.005a1.5 1.5 0 001.5-1.5V8a1.5 1.5 0 00-1.5-1.5H15A1.5 1.5 0 0116.5 8v8a1.5 1.5 0 01-1.5 1.5z"></path><rect width="12" height="11" x="4.5" y="6.5" rx="1.5"></rect><circle cx="8.75" cy="11.75" r="1.25"></circle></symbol>
<symbol id="gear" fill="none" viewBox="0 0 24 24" stroke="currentColor"><path d="M17.3 10.453l1.927.315a.326.326 0 01.273.322v1.793a.326.326 0 01-.27.321l-1.93.339c-.111.387-.265.76-.459 1.111l1.141 1.584a.326.326 0 01-.034.422l-1.268 1.268a.326.326 0 01-.418.037l-1.6-1.123a5.482 5.482 0 01-1.118.468l-.34 1.921a.326.326 0 01-.322.269H11.09a.325.325 0 01-.321-.272l-.319-1.911a5.5 5.5 0 01-1.123-.465l-1.588 1.113a.326.326 0 01-.418-.037L6.052 16.66a.327.327 0 01-.035-.42l1.123-1.57a5.497 5.497 0 01-.47-1.129l-1.901-.337a.326.326 0 01-.269-.321V11.09c0-.16.115-.296.273-.322l1.901-.317c.115-.393.272-.77.47-1.128l-1.11-1.586a.326.326 0 01.037-.417L7.34 6.052a.326.326 0 01.42-.034l1.575 1.125c.354-.194.73-.348 1.121-.46l.312-1.91a.326.326 0 01.322-.273h1.793c.159 0 .294.114.322.27l.336 1.92c.389.112.764.268 1.12.465l1.578-1.135a.326.326 0 01.422.033l1.268 1.268a.326.326 0 01.036.418L16.84 9.342c.193.352.348.724.46 1.11zM9.716 12a2.283 2.283 0 104.566 0 2.283 2.283 0 00-4.566 0z" clip-rule="evenodd"></path></symbol>
<symbol id="grid" fill="none" viewBox="0 0 24 24" stroke="currentColor"><path stroke-linecap="round" stroke-linejoin="round" d="M5.5 9.5v-3a1 1 0 011-1h3a1 1 0 011 1v3a1 1 0 01-1 1h-3a1 1 0 01-1-1zM13.5 9.5v-3a1 1 0 011-1h3a1 1 0 011 1v3a1 1 0 01-1 1h-3a1 1 0 01-1-1zM13.5 17.5v-3a1 1 0 011-1h3a1 1 0 011 1v3a1 1 0 01-1 1h-3a1 1 0 01-1-1zM5.5 17.5v-3a1 1 0 011-1h3a1 1 0 011 1v3a1 1 0 01-1 1h-3a1 1 0 01-1-1z"></path></symbol>
<symbol id="joining" fill="currentColor" viewBox="0 0 16 16"><path d="M8 9.5a2 2 0 1 0 0-4 2 2 0 0 0 0 4z" /><path d="M9.5 2c-.9 0-1.75.216-2.501.6A5 5 0 0 1 13 7.5a6.5 6.5 0 1 1-13 0 .5.5 0 0 1 1 0 5.5 5.5 0 0 0 8.001 4.9A5 5 0 0 1 3 7.5a6.5 6.5 0 0 1 13 0 .5.5 0 0 1-1 0A5.5 5.5 0 0 0 9.5 2zM8 3.5a4 4 0 1 0 0 8 4 4 0 0 0 0-8z" /></symbol>
<symbol id="welcome" aria-hidden="true" focusable="false" data-prefix="fas" data-icon="door-open" class="svg-inline--fa fa-door-open fa-w-20" role="img" xmlns="http://www.w3.org/2000/svg" viewBox="0 0 640 512"><path fill="currentColor" d="M624 448h-80V113.45C544 86.19 522.47 64 496 64H384v64h96v384h144c8.84 0 16-7.16 16-16v-32c0-8.84-7.16-16-16-16zM312.24 1.01l-192 49.74C105.99 54.44 96 67.7 96 82.92V448H16c-8.84 0-16 7.16-16 16v32c0 8.84 7.16 16 16 16h336V33.18c0-21.58-19.56-37.41-39.76-32.17zM264 288c-13.25 0-24-14.33-24-32s10.75-32 24-32 24 14.33 24 32-10.75 32-24 32z"></path></symbol>
<symbol id="collab" aria-hidden="true" focusable="false" data-prefix="fas" data-icon="compress-arrows-alt" class="svg-inline--fa fa-compress-arrows-alt fa-w-16" role="img" xmlns="http://www.w3.org/2000/svg" viewBox="0 0 512 512"><path fill="currentColor" d="M200 288H88c-21.4 0-32.1 25.8-17 41l32.9 31-99.2 99.3c-6.2 6.2-6.2 16.4 0 22.6l25.4 25.4c6.2 6.2 16.4 6.2 22.6 0L152 408l31.1 33c15.1 15.1 40.9 4.4 40.9-17V312c0-13.3-10.7-24-24-24zm112-64h112c21.4 0 32.1-25.9 17-41l-33-31 99.3-99.3c6.2-6.2 6.2-16.4 0-22.6L481.9 4.7c-6.2-6.2-16.4-6.2-22.6 0L360 104l-31.1-33C313.8 55.9 288 66.6 288 88v112c0 13.3 10.7 24 24 24zm96 136l33-31.1c15.1-15.1 4.4-40.9-17-40.9H312c-13.3 0-24 10.7-24 24v112c0 21.4 25.9 32.1 41 17l31-32.9 99.3 99.3c6.2 6.2 16.4 6.2 22.6 0l25.4-25.4c6.2-6.2 6.2-16.4 0-22.6L408 360zM183 71.1L152 104 52.7 4.7c-6.2-6.2-16.4-6.2-22.6 0L4.7 30.1c-6.2 6.2-6.2 16.4 0 22.6L104 152l-33 31.1C55.9 198.2 66.6 224 88 224h112c13.3 0 24-10.7 24-24V88c0-21.3-25.9-32-41-16.9z"></path></symbol>
<symbol id="key" xmlns="http://www.w3.org/2000/svg" viewBox="0 0 24 24" fill="currentColor" data-v-4fa90e7f=""><path fill-rule="evenodd" d="M18.865 7.374c.74 2.968-1.163 5.998-4.25 6.767a6.01 6.01 0 01-1.155.172l-3.435 5.471a2 2 0 01-1.21.877l-1.974.492a1 1 0 01-1.212-.728l-.445-1.786a2 2 0 01.246-1.547l3.157-5.028a5.338 5.338 0 01-.9-1.903c-.74-2.968 1.162-5.998 4.249-6.768 3.087-.77 6.189 1.013 6.929 3.98zm-4.627 1.324c.685-.171 1.108-.844.944-1.504-.165-.66-.854-1.055-1.54-.884-.686.17-1.109.844-.944 1.503.164.66.854 1.056 1.54.885z" clip-rule="evenodd"></path></symbol>
<symbol id="handshake" aria-hidden="true" focusable="false" data-prefix="fas" data-icon="handshake-slash" class="svg-inline--fa fa-handshake-slash fa-w-20" role="img" xmlns="http://www.w3.org/2000/svg" viewBox="0 0 640 512"><path fill="currentColor" d="M0,128.21V384H64a32,32,0,0,0,32-32V184L23.83,128.21ZM48,320.1a16,16,0,1,1-16,16A16,16,0,0,1,48,320.1Zm80,31.81h18.3l90.5,81.89a64,64,0,0,0,90-9.3l.2-.2,17.91,15.5a37.16,37.16,0,0,0,52.29-5.39l8.8-10.82L128,208.72Zm416-223.7V352.1a32,32,0,0,0,32,32h64V128.21ZM592,352.1a16,16,0,1,1,16-16A16,16,0,0,1,592,352.1ZM303.33,202.67l59.58-54.57a16,16,0,0,1,21.59,23.61L358.41,195.6,504,313.8a73.08,73.08,0,0,1,7.91,7.7V128L457.3,73.41A31.76,31.76,0,0,0,434.7,64H348.8a31.93,31.93,0,0,0-21.6,8.41l-88.07,80.64-25.64-19.81L289.09,64H205.3a32,32,0,0,0-22.6,9.41L162.36,93.72,45.47,3.38A16,16,0,0,0,23,6.19L3.38,31.46A16,16,0,0,0,6.19,53.91L594.53,508.63A16,16,0,0,0,617,505.82l19.65-25.27a16,16,0,0,0-2.82-22.45Z"></path></symbol>
<symbol id="shield-outline" fill="none" viewBox="0 0 24 24" stroke="currentColor"><path stroke-linejoin="round" d="M5.5 7c2 0 6.5-3 6.5-3s4.5 3 6.5 3v4.5C18.5 18 12 20 12 20s-6.5-2-6.5-8.5V7z"></path></symbol>
<symbol id="shield-filled" viewBox="0 0 24 24" fill="currentColor"><path d="M5 7c0-.276.225-.499.498-.535 2.149-.28 5.282-2.186 6.224-2.785a.516.516 0 01.556 0c.942.599 4.075 2.504 6.224 2.785.273.036.498.259.498.535v4.75c0 6.5-7 8.75-7 8.75s-7-2.25-7-8.75V7z"></path></symbol>
<symbol id="wand" viewBox="0 0 24 24" fill="currentColor"><path fill-rule="evenodd" d="M7.999 20l7-7.003a2.822 2.822 0 00-3.99-3.993l-7.007 6.997a2.827 2.827 0 103.997 4zM11 11l2 2 1-1a1.414 1.414 0 10-2-2l-1 1z" clip-rule="evenodd"></path><path d="M6.759 4.897c.066-.247.416-.247.482 0L7.6 6.225a.25.25 0 00.176.176l1.328.358c.247.066.247.416 0 .482L7.775 7.6a.25.25 0 00-.176.176L7.24 9.103c-.066.247-.416.247-.482 0L6.4 7.775a.25.25 0 00-.176-.176l-1.329-.358c-.246-.066-.246-.416 0-.482L6.225 6.4a.25.25 0 00.176-.176l.358-1.328zM16.759 3.897c.066-.247.416-.247.482 0l.358 1.328a.25.25 0 00.176.176l1.328.358c.247.066.247.416 0 .482l-1.328.358a.25.25 0 00-.176.176l-.358 1.328c-.066.247-.416.247-.482 0L16.4 6.775a.25.25 0 00-.177-.176l-1.328-.358c-.246-.066-.246-.416 0-.482l1.328-.358a.25.25 0 00.177-.176l.358-1.328zM17.759 12.897c.066-.247.416-.247.482 0l.358 1.328a.25.25 0 00.176.176l1.328.358c.247.066.247.416 0 .482l-1.328.358a.25.25 0 00-.176.176l-.358 1.328c-.066.247-.416.247-.482 0l-.358-1.328a.25.25 0 00-.177-.176l-1.328-.358c-.246-.066-.246-.416 0-.482l1.328-.358a.25.25 0 00.177-.176l.358-1.328z"></path></symbol>
<symbol id="console" viewBox="0 0 24 24" fill="currentColor"><path fill-rule="evenodd" d="M3.22 4.47a.75.75 0 011.06 0l7 7a.75.75 0 010 1.06l-7 7a.75.75 0 01-1.06-1.06L9.69 12 3.22 5.53a.75.75 0 010-1.06zM9.25 19a.75.75 0 01.75-.75h10.25a.75.75 0 010 1.5H10a.75.75 0 01-.75-.75z" clip-rule="evenodd"></path></symbol>
<symbol id="checkmark" viewBox="0 0 24 24" fill="currentColor"><path fill-rule="evenodd" d="M18.381 5.354a.75.75 0 01.265 1.027l-7.087 12a.75.75 0 01-1.164.16L5.48 13.838a.75.75 0 011.038-1.084l4.23 4.051 6.605-11.185a.75.75 0 011.027-.265z" clip-rule="evenodd"></path></symbol>
<symbol id="caret-up" viewBox="0 0 24 24" fill="currentColor"><path fill-rule="evenodd" d="M12.248 8.237a.25.25 0 00-.354 0L5.53 14.601a.75.75 0 11-1.06-1.06l6.363-6.364a1.75 1.75 0 012.475 0l6.364 6.364a.75.75 0 01-1.06 1.06l-6.364-6.364z" clip-rule="evenodd"></path></symbol>
<symbol id="caret-down" viewBox="0 0 24 24" fill="currentColor"><path fill-rule="evenodd" d="M4.47 9.4a.75.75 0 011.06 0l6.364 6.364a.25.25 0 00.354 0L18.612 9.4a.75.75 0 011.06 1.06l-6.364 6.364a1.75 1.75 0 01-2.475 0L4.47 10.46a.75.75 0 010-1.06z" clip-rule="evenodd"></path></symbol>
<symbol id="mnemonic" xmlns="http://www.w3.org/2000/svg" viewBox="0 0 24 24" fill="currentColor"><path fill-rule="evenodd" d="M5 6.5A1.5 1.5 0 016.5 5h11A1.5 1.5 0 0119 6.5v11a1.5 1.5 0 01-1.5 1.5h-11A1.5 1.5 0 015 17.5v-11zm1.5 0H9V8H6.5V6.5zM9 9.667H6.5v1.5H9v-1.5zm-2.5 3.166H9v1.5H6.5v-1.5zM9 16H6.5v1.5H9V16zm1.75-9.5h2.5V8h-2.5V6.5zm2.5 3.167h-2.5v1.5h2.5v-1.5zm-2.5 3.166h2.5v1.5h-2.5v-1.5zM13.25 16h-2.5v1.5h2.5V16zM15 6.5h2.5V8H15V6.5zm2.5 3.167H15v1.5h2.5v-1.5zM15 12.833h2.5v1.5H15v-1.5zM17.5 16H15v1.5h2.5V16z" clip-rule="evenodd"></path></symbol>
<symbol id="globe" viewBox="0 0 24 24" fill="currentColor"><path fill-rule="evenodd" d="M10.51 6.617c-.518 1.341-.855 3.245-.855 5.385 0 2.14.337 4.044.856 5.385.26.673.552 1.166.838 1.478.285.312.506.385.651.385.145 0 .366-.073.652-.385.285-.312.577-.805.837-1.478.52-1.341.856-3.245.856-5.385 0-2.14-.337-4.044-.856-5.385-.26-.673-.552-1.166-.838-1.478-.285-.312-.506-.385-.651-.385-.145 0-.366.073-.651.385-.286.312-.578.805-.838 1.478zm-.268-2.49c.455-.499 1.048-.873 1.758-.873s1.303.374 1.758.872c.455.497.83 1.175 1.13 1.95.601 1.553.957 3.649.957 5.926s-.356 4.373-.957 5.926c-.3.774-.675 1.453-1.13 1.95-.455.497-1.048.872-1.758.872s-1.303-.375-1.758-.872c-.455-.497-.83-1.175-1.13-1.95-.601-1.553-.957-3.649-.957-5.926s.356-4.373.957-5.926c.3-.775.675-1.453 1.13-1.95z" clip-rule="evenodd"></path><path fill-rule="evenodd" d="M12 4.746a7.25 7.25 0 100 14.5 7.25 7.25 0 000-14.5zm-8.75 7.25a8.75 8.75 0 1117.5 0 8.75 8.75 0 01-17.5 0z" clip-rule="evenodd"></path><path fill-rule="evenodd" d="M3.25 11.99a.75.75 0 01.75-.75l16 .012a.75.75 0 110 1.5l-16-.011a.75.75 0 01-.75-.75z" clip-rule="evenodd"></path></symbol>
<symbol id="sweep" viewBox="0 0 24 24" fill="none"><path d="M5.5 19.5L18.5 19.5L18.5 12.5C18.5 11.9696 18.2893 11.4609 17.9142 11.0858C17.5391 10.7107 17.0304 10.5 16.5 10.5L13.5 10.5L13.5 7C13.5 6.60217 13.342 6.22064 13.0607 5.93934C12.7794 5.65804 12.3978 5.5 12 5.5C11.6022 5.5 11.2206 5.65804 10.9393 5.93934C10.658 6.22064 10.5 6.60217 10.5 7L10.5 10.5L7.5 10.5C6.96957 10.5 6.46086 10.7107 6.08579 11.0858C5.71071 11.4609 5.5 11.9696 5.5 12.5L5.5 19.5Z" stroke="currentColor"/><path d="M16 19L16 18M18 13.5L6 13.5L18 13.5ZM8 19L8 17L8 19ZM10.5 19L10.5 15.5L10.5 19Z" stroke="currentColor" stroke-linecap="round" stroke-linejoin="round"/></symbol>
<symbol id="node" viewBox="0 0 24 24" fill="none" stroke="currentColor"><path stroke-linecap="round" d="M13.5 7l3.5 3.5M7 13.5l3.5 3.5M10.5 7L7 10.5M17 13.5L13.5 17"></path><circle cx="12" cy="5.5" r="2"></circle><circle cx="12" cy="18.5" r="2"></circle><circle cx="5.5" cy="12" r="2"></circle><circle cx="18.5" cy="12" r="2"></circle><circle cx="12" cy="5.5" r=".5"></circle><circle cx="12" cy="18.5" r=".5"></circle><circle cx="5.5" cy="12" r=".5"></circle><circle cx="18.5" cy="12" r=".5"></circle></symbol>
<symbol id="receive" fill="none" viewBox="0 0 24 24" stroke="currentColor"><path stroke-linecap="round" stroke-linejoin="round" d="M5 15.747V18a1 1 0 001 1h12a1 1 0 001-1v-2.253M12.202 13.5V5M15.546 11.15l-3.344 3.266-3.344-3.266"></path></symbol>
<symbol id="send" fill="none" viewBox="0 0 24 24" stroke="currentColor"><path stroke-linecap="round" stroke-linejoin="round" d="M5 15.747V18a1 1 0 001 1h12a1 1 0 001-1v-2.253M12.202 5.917v8.5M15.546 8.267L12.202 5 8.858 8.267"></path></symbol>
</svg>
