<svg width="830" height="415" viewBox="0 0 830 415" fill="none" xmlns="http://www.w3.org/2000/svg">
<path d="M348.779 344H346.563L352.972 326.545H355.154L361.563 344H359.347L354.131 329.307H353.995L348.779 344ZM349.597 337.182H358.529V339.057H349.597V337.182ZM376.588 330.909V332.614H369.532V330.909H376.588ZM371.645 344V329.102C371.645 328.352 371.821 327.727 372.174 327.227C372.526 326.727 372.983 326.352 373.546 326.102C374.108 325.852 374.702 325.727 375.327 325.727C375.821 325.727 376.225 325.767 376.537 325.847C376.85 325.926 377.083 326 377.236 326.068L376.657 327.807C376.554 327.773 376.412 327.73 376.23 327.679C376.054 327.628 375.821 327.602 375.532 327.602C374.867 327.602 374.387 327.77 374.091 328.105C373.801 328.44 373.657 328.932 373.657 329.58V344H371.645ZM379.407 344V330.909H381.35V332.886H381.487C381.725 332.239 382.157 331.713 382.782 331.31C383.407 330.906 384.112 330.705 384.896 330.705C385.044 330.705 385.228 330.707 385.45 330.713C385.672 330.719 385.839 330.727 385.953 330.739V332.784C385.885 332.767 385.728 332.741 385.484 332.707C385.245 332.668 384.993 332.648 384.725 332.648C384.089 332.648 383.521 332.781 383.021 333.048C382.527 333.31 382.135 333.673 381.845 334.139C381.561 334.599 381.419 335.125 381.419 335.716V344H379.407ZM388.337 344V330.909H390.348V344H388.337ZM389.36 328.727C388.968 328.727 388.63 328.594 388.346 328.327C388.067 328.06 387.928 327.739 387.928 327.364C387.928 326.989 388.067 326.668 388.346 326.401C388.63 326.134 388.968 326 389.36 326C389.752 326 390.087 326.134 390.365 326.401C390.65 326.668 390.792 326.989 390.792 327.364C390.792 327.739 390.65 328.06 390.365 328.327C390.087 328.594 389.752 328.727 389.36 328.727ZM399.521 344.273C398.26 344.273 397.172 343.994 396.257 343.438C395.348 342.875 394.646 342.091 394.152 341.085C393.663 340.074 393.419 338.898 393.419 337.557C393.419 336.216 393.663 335.034 394.152 334.011C394.646 332.983 395.333 332.182 396.214 331.608C397.1 331.028 398.135 330.739 399.316 330.739C399.998 330.739 400.672 330.852 401.336 331.08C402.001 331.307 402.606 331.676 403.152 332.188C403.697 332.693 404.132 333.364 404.456 334.199C404.779 335.034 404.941 336.062 404.941 337.284V338.136H394.85V336.398H402.896C402.896 335.659 402.748 335 402.453 334.42C402.163 333.841 401.748 333.384 401.208 333.048C400.674 332.713 400.044 332.545 399.316 332.545C398.515 332.545 397.822 332.744 397.237 333.142C396.657 333.534 396.211 334.045 395.899 334.676C395.586 335.307 395.43 335.983 395.43 336.705V337.864C395.43 338.852 395.6 339.69 395.941 340.378C396.288 341.06 396.768 341.58 397.382 341.938C397.995 342.29 398.708 342.466 399.521 342.466C400.049 342.466 400.527 342.392 400.953 342.244C401.385 342.091 401.757 341.864 402.069 341.562C402.382 341.256 402.623 340.875 402.794 340.42L404.737 340.966C404.532 341.625 404.189 342.205 403.706 342.705C403.223 343.199 402.626 343.585 401.916 343.864C401.206 344.136 400.407 344.273 399.521 344.273ZM410.012 336.125V344H408.001V330.909H409.944V332.955H410.115C410.422 332.29 410.887 331.756 411.512 331.352C412.137 330.943 412.944 330.739 413.933 330.739C414.819 330.739 415.595 330.92 416.26 331.284C416.924 331.642 417.441 332.188 417.811 332.92C418.18 333.648 418.365 334.568 418.365 335.682V344H416.353V335.818C416.353 334.79 416.086 333.989 415.552 333.415C415.018 332.835 414.285 332.545 413.353 332.545C412.711 332.545 412.137 332.685 411.632 332.963C411.132 333.241 410.737 333.648 410.447 334.182C410.157 334.716 410.012 335.364 410.012 336.125ZM426.983 344.273C425.892 344.273 424.929 343.997 424.094 343.446C423.259 342.889 422.605 342.105 422.134 341.094C421.662 340.077 421.426 338.875 421.426 337.489C421.426 336.114 421.662 334.92 422.134 333.909C422.605 332.898 423.262 332.116 424.103 331.565C424.944 331.014 425.915 330.739 427.017 330.739C427.87 330.739 428.543 330.881 429.037 331.165C429.537 331.443 429.918 331.761 430.179 332.119C430.446 332.472 430.654 332.761 430.801 332.989H430.972V326.545H432.983V344H431.04V341.989H430.801C430.654 342.227 430.444 342.528 430.171 342.892C429.898 343.25 429.509 343.571 429.003 343.855C428.498 344.134 427.824 344.273 426.983 344.273ZM427.256 342.466C428.063 342.466 428.745 342.256 429.301 341.835C429.858 341.409 430.282 340.821 430.571 340.071C430.861 339.315 431.006 338.443 431.006 337.455C431.006 336.477 430.864 335.622 430.58 334.889C430.296 334.151 429.875 333.577 429.319 333.168C428.762 332.753 428.074 332.545 427.256 332.545C426.404 332.545 425.694 332.764 425.125 333.202C424.563 333.634 424.14 334.222 423.855 334.966C423.577 335.705 423.438 336.534 423.438 337.455C423.438 338.386 423.58 339.233 423.864 339.994C424.154 340.75 424.58 341.352 425.142 341.801C425.711 342.244 426.415 342.466 427.256 342.466ZM438.958 326.545V344H436.946V326.545H438.958ZM443.937 348.909C443.596 348.909 443.292 348.881 443.025 348.824C442.758 348.773 442.574 348.722 442.471 348.67L442.983 346.898C443.471 347.023 443.903 347.068 444.278 347.034C444.653 347 444.985 346.832 445.275 346.531C445.571 346.236 445.841 345.756 446.085 345.091L446.46 344.068L441.619 330.909H443.801L447.414 341.341H447.551L451.164 330.909H453.346L447.789 345.909C447.539 346.585 447.23 347.145 446.86 347.588C446.491 348.037 446.062 348.369 445.574 348.585C445.091 348.801 444.545 348.909 443.937 348.909ZM474.478 326.545H476.592V338.102C476.592 339.295 476.311 340.361 475.748 341.298C475.191 342.23 474.404 342.966 473.387 343.506C472.37 344.04 471.177 344.307 469.808 344.307C468.439 344.307 467.245 344.04 466.228 343.506C465.211 342.966 464.422 342.23 463.859 341.298C463.302 340.361 463.024 339.295 463.024 338.102V326.545H465.137V337.932C465.137 338.784 465.325 339.543 465.7 340.207C466.075 340.866 466.609 341.386 467.302 341.767C468.001 342.142 468.836 342.33 469.808 342.33C470.779 342.33 471.615 342.142 472.314 341.767C473.012 341.386 473.547 340.866 473.916 340.207C474.291 339.543 474.478 338.784 474.478 337.932V326.545ZM482.926 326.545V344H480.813V326.545H482.926ZM341.069 354.909V356.614H334.012V354.909H341.069ZM336.126 368V353.102C336.126 352.352 336.302 351.727 336.654 351.227C337.006 350.727 337.464 350.352 338.026 350.102C338.589 349.852 339.183 349.727 339.808 349.727C340.302 349.727 340.705 349.767 341.018 349.847C341.33 349.926 341.563 350 341.717 350.068L341.137 351.807C341.035 351.773 340.893 351.73 340.711 351.679C340.535 351.628 340.302 351.602 340.012 351.602C339.347 351.602 338.867 351.77 338.572 352.105C338.282 352.44 338.137 352.932 338.137 353.58V368H336.126ZM348.667 368.273C347.485 368.273 346.448 367.991 345.556 367.429C344.67 366.866 343.977 366.08 343.477 365.068C342.982 364.057 342.735 362.875 342.735 361.523C342.735 360.159 342.982 358.969 343.477 357.952C343.977 356.935 344.67 356.145 345.556 355.582C346.448 355.02 347.485 354.739 348.667 354.739C349.849 354.739 350.883 355.02 351.769 355.582C352.661 356.145 353.354 356.935 353.849 357.952C354.349 358.969 354.599 360.159 354.599 361.523C354.599 362.875 354.349 364.057 353.849 365.068C353.354 366.08 352.661 366.866 351.769 367.429C350.883 367.991 349.849 368.273 348.667 368.273ZM348.667 366.466C349.565 366.466 350.303 366.236 350.883 365.776C351.462 365.315 351.891 364.71 352.17 363.96C352.448 363.21 352.587 362.398 352.587 361.523C352.587 360.648 352.448 359.832 352.17 359.077C351.891 358.321 351.462 357.71 350.883 357.244C350.303 356.778 349.565 356.545 348.667 356.545C347.769 356.545 347.031 356.778 346.451 357.244C345.871 357.71 345.442 358.321 345.164 359.077C344.886 359.832 344.746 360.648 344.746 361.523C344.746 362.398 344.886 363.21 345.164 363.96C345.442 364.71 345.871 365.315 346.451 365.776C347.031 366.236 347.769 366.466 348.667 366.466ZM357.669 368V354.909H359.612V356.886H359.749C359.987 356.239 360.419 355.713 361.044 355.31C361.669 354.906 362.374 354.705 363.158 354.705C363.305 354.705 363.49 354.707 363.712 354.713C363.933 354.719 364.101 354.727 364.214 354.739V356.784C364.146 356.767 363.99 356.741 363.746 356.707C363.507 356.668 363.254 356.648 362.987 356.648C362.351 356.648 361.783 356.781 361.283 357.048C360.788 357.31 360.396 357.673 360.107 358.139C359.822 358.599 359.68 359.125 359.68 359.716V368H357.669ZM380.303 350.545H382.417V363.023C382.417 364.136 382.212 365.082 381.803 365.861C381.394 366.639 380.817 367.23 380.073 367.634C379.329 368.037 378.451 368.239 377.44 368.239C376.485 368.239 375.636 368.065 374.891 367.719C374.147 367.366 373.562 366.866 373.136 366.219C372.71 365.571 372.496 364.801 372.496 363.909H374.576C374.576 364.403 374.698 364.835 374.942 365.205C375.192 365.568 375.533 365.852 375.965 366.057C376.397 366.261 376.888 366.364 377.44 366.364C378.048 366.364 378.565 366.236 378.991 365.98C379.417 365.724 379.741 365.349 379.962 364.855C380.19 364.355 380.303 363.744 380.303 363.023V350.545ZM391.698 368.273C390.516 368.273 389.479 367.991 388.587 367.429C387.701 366.866 387.008 366.08 386.508 365.068C386.013 364.057 385.766 362.875 385.766 361.523C385.766 360.159 386.013 358.969 386.508 357.952C387.008 356.935 387.701 356.145 388.587 355.582C389.479 355.02 390.516 354.739 391.698 354.739C392.88 354.739 393.914 355.02 394.8 355.582C395.692 356.145 396.386 356.935 396.88 357.952C397.38 358.969 397.63 360.159 397.63 361.523C397.63 362.875 397.38 364.057 396.88 365.068C396.386 366.08 395.692 366.866 394.8 367.429C393.914 367.991 392.88 368.273 391.698 368.273ZM391.698 366.466C392.596 366.466 393.335 366.236 393.914 365.776C394.494 365.315 394.923 364.71 395.201 363.96C395.479 363.21 395.619 362.398 395.619 361.523C395.619 360.648 395.479 359.832 395.201 359.077C394.923 358.321 394.494 357.71 393.914 357.244C393.335 356.778 392.596 356.545 391.698 356.545C390.8 356.545 390.062 356.778 389.482 357.244C388.903 357.71 388.474 358.321 388.195 359.077C387.917 359.832 387.778 360.648 387.778 361.523C387.778 362.398 387.917 363.21 388.195 363.96C388.474 364.71 388.903 365.315 389.482 365.776C390.062 366.236 390.8 366.466 391.698 366.466ZM400.7 368V354.909H402.712V368H400.7ZM401.723 352.727C401.331 352.727 400.993 352.594 400.709 352.327C400.43 352.06 400.291 351.739 400.291 351.364C400.291 350.989 400.43 350.668 400.709 350.401C400.993 350.134 401.331 350 401.723 350C402.115 350 402.45 350.134 402.729 350.401C403.013 350.668 403.155 350.989 403.155 351.364C403.155 351.739 403.013 352.06 402.729 352.327C402.45 352.594 402.115 352.727 401.723 352.727ZM408.407 360.125V368H406.396V354.909H408.339V356.955H408.509C408.816 356.29 409.282 355.756 409.907 355.352C410.532 354.943 411.339 354.739 412.327 354.739C413.214 354.739 413.989 354.92 414.654 355.284C415.319 355.642 415.836 356.188 416.205 356.92C416.575 357.648 416.759 358.568 416.759 359.682V368H414.748V359.818C414.748 358.79 414.481 357.989 413.947 357.415C413.413 356.835 412.68 356.545 411.748 356.545C411.106 356.545 410.532 356.685 410.026 356.963C409.526 357.241 409.131 357.648 408.842 358.182C408.552 358.716 408.407 359.364 408.407 360.125ZM420.707 350.545H423.23L429.162 365.034H429.366L435.298 350.545H437.821V368H435.844V354.739H435.673L430.219 368H428.31L422.855 354.739H422.685V368H420.707V350.545ZM445.638 368.307C444.809 368.307 444.056 368.151 443.38 367.838C442.704 367.52 442.167 367.062 441.769 366.466C441.371 365.864 441.173 365.136 441.173 364.284C441.173 363.534 441.32 362.926 441.616 362.46C441.911 361.989 442.306 361.619 442.8 361.352C443.295 361.085 443.84 360.886 444.437 360.756C445.039 360.619 445.644 360.511 446.252 360.432C447.048 360.33 447.692 360.253 448.187 360.202C448.687 360.145 449.05 360.051 449.278 359.92C449.511 359.79 449.627 359.562 449.627 359.239V359.17C449.627 358.33 449.397 357.676 448.937 357.21C448.482 356.744 447.792 356.511 446.866 356.511C445.906 356.511 445.153 356.722 444.607 357.142C444.062 357.562 443.678 358.011 443.457 358.489L441.548 357.807C441.888 357.011 442.343 356.392 442.911 355.949C443.485 355.5 444.11 355.187 444.786 355.011C445.468 354.83 446.138 354.739 446.798 354.739C447.218 354.739 447.701 354.79 448.246 354.892C448.798 354.989 449.329 355.19 449.84 355.497C450.357 355.804 450.786 356.267 451.127 356.886C451.468 357.506 451.638 358.335 451.638 359.375V368H449.627V366.227H449.525C449.388 366.511 449.161 366.815 448.843 367.139C448.525 367.463 448.102 367.739 447.573 367.966C447.045 368.193 446.4 368.307 445.638 368.307ZM445.945 366.5C446.741 366.5 447.411 366.344 447.957 366.031C448.508 365.719 448.923 365.315 449.201 364.821C449.485 364.327 449.627 363.807 449.627 363.261V361.42C449.542 361.523 449.354 361.616 449.065 361.702C448.781 361.781 448.451 361.852 448.076 361.915C447.707 361.972 447.346 362.023 446.994 362.068C446.647 362.108 446.366 362.142 446.15 362.17C445.627 362.239 445.138 362.349 444.684 362.503C444.235 362.651 443.871 362.875 443.593 363.176C443.32 363.472 443.184 363.875 443.184 364.386C443.184 365.085 443.442 365.614 443.96 365.972C444.482 366.324 445.144 366.5 445.945 366.5ZM455.31 368V354.909H457.253V356.886H457.389C457.628 356.239 458.06 355.713 458.685 355.31C459.31 354.906 460.014 354.705 460.798 354.705C460.946 354.705 461.131 354.707 461.352 354.713C461.574 354.719 461.741 354.727 461.855 354.739V356.784C461.787 356.767 461.631 356.741 461.386 356.707C461.148 356.668 460.895 356.648 460.628 356.648C459.991 356.648 459.423 356.781 458.923 357.048C458.429 357.31 458.037 357.673 457.747 358.139C457.463 358.599 457.321 359.125 457.321 359.716V368H455.31ZM466.114 363.227L466.08 360.739H466.489L472.217 354.909H474.705L468.603 361.08H468.433L466.114 363.227ZM464.239 368V350.545H466.251V368H464.239ZM472.558 368L467.444 361.523L468.876 360.125L475.114 368H472.558ZM482.244 368.273C480.982 368.273 479.894 367.994 478.979 367.438C478.07 366.875 477.369 366.091 476.874 365.085C476.386 364.074 476.141 362.898 476.141 361.557C476.141 360.216 476.386 359.034 476.874 358.011C477.369 356.983 478.056 356.182 478.937 355.608C479.823 355.028 480.857 354.739 482.039 354.739C482.721 354.739 483.394 354.852 484.059 355.08C484.724 355.307 485.329 355.676 485.874 356.188C486.42 356.693 486.854 357.364 487.178 358.199C487.502 359.034 487.664 360.062 487.664 361.284V362.136H477.573V360.398H485.619C485.619 359.659 485.471 359 485.175 358.42C484.886 357.841 484.471 357.384 483.931 357.048C483.397 356.713 482.766 356.545 482.039 356.545C481.238 356.545 480.545 356.744 479.96 357.142C479.38 357.534 478.934 358.045 478.621 358.676C478.309 359.307 478.153 359.983 478.153 360.705V361.864C478.153 362.852 478.323 363.69 478.664 364.378C479.011 365.06 479.491 365.58 480.104 365.938C480.718 366.29 481.431 366.466 482.244 366.466C482.772 366.466 483.249 366.392 483.675 366.244C484.107 366.091 484.479 365.864 484.792 365.562C485.104 365.256 485.346 364.875 485.516 364.42L487.46 364.966C487.255 365.625 486.911 366.205 486.428 366.705C485.945 367.199 485.349 367.585 484.638 367.864C483.928 368.136 483.13 368.273 482.244 368.273ZM496.417 354.909V356.614H489.633V354.909H496.417ZM491.61 351.773H493.621V364.25C493.621 364.818 493.704 365.244 493.869 365.528C494.039 365.807 494.255 365.994 494.516 366.091C494.783 366.182 495.065 366.227 495.36 366.227C495.582 366.227 495.763 366.216 495.906 366.193C496.048 366.165 496.161 366.142 496.246 366.125L496.656 367.932C496.519 367.983 496.329 368.034 496.085 368.085C495.84 368.142 495.531 368.17 495.156 368.17C494.587 368.17 494.031 368.048 493.485 367.804C492.945 367.56 492.496 367.188 492.138 366.688C491.786 366.188 491.61 365.557 491.61 364.795V351.773Z" fill="#888888"/>
<path d="M378.967 257.48V288.152C378.967 293.672 377.431 297.992 374.359 301.112C371.335 304.184 367.111 305.72 361.687 305.72C357.799 305.72 354.631 305 352.183 303.56C349.735 302.12 348.031 300.104 347.071 297.512C346.111 294.872 345.943 291.824 346.567 288.368L353.983 287C353.407 291.128 353.719 294.176 354.919 296.144C356.119 298.064 358.375 299.024 361.687 299.024C365.287 299.024 367.759 297.992 369.103 295.928C370.495 293.816 371.191 290.744 371.191 286.712V257.48H378.967ZM407.507 281.888C407.507 279.488 406.835 277.64 405.491 276.344C404.195 275 402.395 274.328 400.091 274.328C397.931 274.328 396.083 274.832 394.547 275.84C393.011 276.848 391.883 278.48 391.163 280.736L384.683 278C385.595 275.072 387.371 272.72 390.011 270.944C392.699 269.168 396.155 268.28 400.379 268.28C403.259 268.28 405.803 268.76 408.011 269.72C410.219 270.632 411.947 272.024 413.195 273.896C414.491 275.768 415.139 278.168 415.139 281.096V297.152C415.139 298.928 416.027 299.816 417.803 299.816C418.667 299.816 419.507 299.696 420.323 299.456L419.891 304.784C418.787 305.312 417.395 305.576 415.715 305.576C414.179 305.576 412.787 305.312 411.539 304.784C410.339 304.208 409.379 303.368 408.659 302.264C407.987 301.112 407.651 299.696 407.651 298.016V297.512L409.235 297.44C408.803 299.312 407.915 300.872 406.571 302.12C405.227 303.32 403.667 304.232 401.891 304.856C400.115 305.432 398.315 305.72 396.491 305.72C394.235 305.72 392.195 305.36 390.371 304.64C388.595 303.92 387.179 302.84 386.123 301.4C385.115 299.912 384.611 298.088 384.611 295.928C384.611 293.24 385.475 291.032 387.203 289.304C388.979 287.576 391.475 286.4 394.691 285.776L408.659 283.04L408.587 288.44L398.435 290.528C396.419 290.912 394.907 291.464 393.899 292.184C392.891 292.904 392.387 293.96 392.387 295.352C392.387 296.696 392.891 297.776 393.899 298.592C394.955 299.36 396.347 299.744 398.075 299.744C399.275 299.744 400.427 299.6 401.531 299.312C402.683 299.024 403.715 298.568 404.627 297.944C405.539 297.272 406.235 296.432 406.715 295.424C407.243 294.368 407.507 293.12 407.507 291.68V281.888ZM424.161 305V269H431.001L431.361 275.048C432.609 272.744 434.265 271.04 436.329 269.936C438.441 268.832 440.673 268.28 443.025 268.28C445.617 268.28 447.993 268.88 450.153 270.08C452.361 271.232 454.017 272.984 455.121 275.336C455.889 273.752 456.945 272.432 458.289 271.376C459.633 270.32 461.121 269.552 462.753 269.072C464.385 268.544 465.993 268.28 467.577 268.28C469.881 268.28 472.041 268.76 474.057 269.72C476.073 270.68 477.705 272.144 478.953 274.112C480.201 276.08 480.825 278.6 480.825 281.672V305H473.121V282.896C473.121 279.968 472.425 277.856 471.033 276.56C469.641 275.264 467.865 274.616 465.705 274.616C464.025 274.616 462.465 275.024 461.025 275.84C459.633 276.656 458.505 277.88 457.641 279.512C456.777 281.096 456.345 283.064 456.345 285.416V305H448.641V282.896C448.641 279.968 447.945 277.856 446.553 276.56C445.161 275.264 443.385 274.616 441.225 274.616C439.785 274.616 438.345 275 436.905 275.768C435.465 276.536 434.265 277.736 433.305 279.368C432.345 281 431.865 283.16 431.865 285.848V305H424.161Z" fill="black"/>
<path fill-rule="evenodd" clip-rule="evenodd" d="M505 134L504.998 134.45L504.994 134.9L504.986 135.35L504.976 135.8L504.962 136.249L504.945 136.699L504.925 137.149L504.902 137.598L504.877 138.047L504.848 138.496L504.816 138.945L504.781 139.393L504.743 139.841L504.701 140.289L504.657 140.737L504.61 141.184L504.56 141.631L504.507 142.077L504.451 142.523L504.391 142.969L504.329 143.414L504.264 143.859L504.196 144.303L504.125 144.747L504.05 145.19L503.973 145.632L503.893 146.074L503.81 146.515L503.724 146.956L503.635 147.396L503.543 147.835L503.448 148.274L503.35 148.711L503.249 149.149L503.145 149.585L503.038 150.02L502.929 150.455L502.816 150.889L502.701 151.322L502.582 151.754L502.461 152.185L502.337 152.615L502.21 153.045L502.08 153.473L501.948 153.9L501.812 154.327L501.674 154.752L501.533 155.176L501.389 155.599L501.242 156.021L501.093 156.442L500.94 156.862L500.785 157.281L500.627 157.698L500.467 158.114L500.303 158.529L500.137 158.943L499.969 159.356L499.797 159.767L499.623 160.177L499.446 160.586L499.266 160.993L499.084 161.399L498.899 161.803L498.712 162.207L498.522 162.608L498.329 163.009L498.134 163.408L497.936 163.805L497.736 164.201L497.533 164.595L497.327 164.988L497.119 165.38L496.908 165.769L496.695 166.158L496.48 166.544L496.262 166.929L496.041 167.312L495.818 167.694L495.593 168.074L495.365 168.453L495.135 168.829L494.902 169.204L494.668 169.577L494.43 169.949L494.191 170.319L493.949 170.687L493.705 171.053L493.458 171.417L493.209 171.779L492.958 172.14L492.705 172.499L492.449 172.856L492.192 173.211L491.932 173.564L491.67 173.915L491.406 174.265L491.139 174.612L490.871 174.957L490.6 175.301L490.328 175.642L490.053 175.982L489.776 176.319L489.497 176.654L489.216 176.988L488.934 177.319L488.649 177.648L488.362 177.975L488.073 178.301L487.783 178.624L487.49 178.944L487.196 179.263L486.899 179.58L486.601 179.894L486.301 180.207L485.999 180.517L485.696 180.825L485.39 181.13L485.083 181.434L484.774 181.735L484.464 182.035L484.152 182.331L483.838 182.626L483.522 182.919L483.205 183.209L482.886 183.497L482.565 183.782L482.243 184.066L481.92 184.347L481.595 184.626L481.268 184.902L480.94 185.176L480.61 185.448L480.279 185.718L479.946 185.985L479.612 186.25L479.277 186.512L478.94 186.772L478.602 187.03L478.262 187.285L477.921 187.538L477.579 187.789L477.236 188.037L476.891 188.283L476.545 188.526L476.198 188.767L475.85 189.006L475.5 189.242L475.149 189.476L474.798 189.707L474.445 189.936L474.091 190.163L473.735 190.387L473.379 190.609L473.022 190.828L472.664 191.045L472.304 191.259L471.944 191.471L471.583 191.68L471.221 191.887L470.858 192.092L470.494 192.294L470.129 192.493L469.763 192.69L469.396 192.885L469.029 193.077L468.661 193.267L468.292 193.454L467.922 193.639L467.552 193.821L467.18 194.001L466.808 194.179L466.436 194.353L466.063 194.526L465.689 194.696L465.314 194.863L464.939 195.029L464.563 195.191L464.187 195.351L463.81 195.509L463.433 195.664L463.055 195.817L462.677 195.967L462.298 196.115L461.919 196.26L461.539 196.403L461.159 196.544L460.779 196.682L460.398 196.818L460.017 196.951L459.635 197.081L459.253 197.21L458.871 197.336L458.489 197.459L458.106 197.58L457.723 197.699L457.34 197.815L456.957 197.929L456.573 198.04L456.19 198.149L455.806 198.256L455.422 198.36L455.038 198.462L454.653 198.561L454.269 198.658L453.885 198.753L453.501 198.845L453.116 198.935L452.732 199.023L452.347 199.108L451.963 199.191L451.579 199.272L451.194 199.35L450.81 199.427L450.426 199.5L450.042 199.572L449.658 199.641L449.275 199.708L448.891 199.772L448.508 199.835L448.124 199.895L447.741 199.952L447.359 200.008L446.976 200.061L446.594 200.112L446.212 200.161L445.83 200.208L445.448 200.252L445.067 200.294L444.686 200.335L444.306 200.372L443.926 200.408L443.546 200.442L443.167 200.473L442.788 200.502L442.409 200.53L442.031 200.555L441.653 200.578L441.276 200.598L440.899 200.617L440.523 200.634L440.147 200.648L439.772 200.661L439.397 200.671L439.023 200.68L438.649 200.686L438.276 200.691L437.903 200.693L437.531 200.694L437.16 200.692L436.789 200.688L436.419 200.683L436.049 200.675L435.68 200.666L435.312 200.655L434.944 200.642L434.577 200.626L434.211 200.609L433.846 200.591L433.481 200.57L433.117 200.547L432.753 200.523L432.39 200.496L432.028 200.468L431.667 200.438L431.307 200.407L430.947 200.373L430.588 200.338L430.23 200.301L429.873 200.262L429.516 200.221L429.161 200.179L428.806 200.135L428.452 200.09L428.099 200.042L427.746 199.993L427.395 199.943L427.044 199.89L426.694 199.836L426.346 199.781L425.998 199.723L425.651 199.665L425.304 199.604L424.959 199.542L424.615 199.479L424.271 199.414L423.929 199.347L423.587 199.279L423.247 199.209L422.907 199.138L422.568 199.066L422.23 198.992L421.894 198.916L421.558 198.839L421.223 198.761L420.889 198.681L420.556 198.6L420.224 198.517L419.893 198.433L419.563 198.348L419.234 198.261L418.906 198.173L418.579 198.084L418.253 197.993L417.928 197.901L417.605 197.808L417.282 197.713L416.96 197.617L416.639 197.52L416.319 197.422L416 197.323L415.683 197.222L415.366 197.12L415.05 197.017L414.736 196.912L414.422 196.807L414.109 196.7L413.798 196.592L413.487 196.484L413.178 196.374L412.87 196.262L412.562 196.15L412.256 196.037L411.951 195.923L411.647 195.807L411.343 195.691L411.041 195.573L410.74 195.455L410.44 195.335L410.141 195.215L409.844 195.093L409.547 194.971L409.251 194.847L408.956 194.723L408.663 194.598L408.37 194.471L408.078 194.344L407.788 194.216L407.498 194.087L407.21 193.957L406.923 193.827L406.636 193.695L406.351 193.563L406.067 193.429L405.783 193.295L405.501 193.16L405.22 193.025L404.94 192.888L404.661 192.751L404.383 192.613L404.105 192.474L403.829 192.334L403.554 192.194L403.28 192.053L403.007 191.911L402.735 191.768L402.464 191.625L402.194 191.481L401.925 191.337L401.657 191.191L401.39 191.045L401.124 190.899L400.859 190.751L400.595 190.603L400.332 190.455L400.07 190.306L399.808 190.156L399.548 190.005L399.289 189.854L399.031 189.703L398.773 189.55L398.517 189.398L398.261 189.244L398.007 189.09L397.753 188.936L397.5 188.781L397.249 188.625L396.998 188.469L396.748 188.313L396.499 188.155L396.25 187.998L396.003 187.84L395.757 187.681L395.511 187.522L395.267 187.362L395.023 187.202L394.78 187.041L394.538 186.88L394.297 186.719L394.057 186.557L393.817 186.395L393.579 186.232L393.341 186.068L393.104 185.905L392.868 185.741L392.632 185.576L392.398 185.411L392.164 185.246L391.931 185.08L391.699 184.914L391.468 184.747L391.237 184.58L391.007 184.413L390.778 184.245L390.55 184.077L390.323 183.908L390.096 183.739L389.87 183.57L389.645 183.4L389.42 183.23L389.196 183.06L388.973 182.889L388.751 182.718L388.529 182.547L388.308 182.375L388.088 182.203L387.868 182.031L387.649 181.858L387.431 181.685L387.213 181.511L386.996 181.337L386.78 181.163L386.564 180.989L386.349 180.814L386.135 180.639L385.921 180.463L385.708 180.288L385.496 180.112L385.284 179.935L385.073 179.758L384.862 179.581L384.652 179.404L384.442 179.226L384.234 179.048L384.025 178.87L383.817 178.691L383.61 178.512L383.404 178.333L383.198 178.153L382.992 177.973L382.787 177.793L382.583 177.613L382.379 177.432L382.175 177.25L381.972 177.069L381.77 176.887L381.568 176.705L381.367 176.522L381.166 176.339L380.965 176.156L380.766 175.973L380.566 175.789L380.367 175.605L380.169 175.42L379.971 175.235L379.773 175.05L379.576 174.865L379.379 174.679L379.183 174.492L378.987 174.306L378.792 174.119L378.597 173.932L378.403 173.744L378.209 173.556L378.015 173.368L377.822 173.179L377.629 172.99L377.437 172.8L377.245 172.61L377.053 172.42L376.862 172.229L376.671 172.038L376.481 171.847L376.291 171.655L376.101 171.463L375.912 171.27L375.723 171.077L375.534 170.884L375.346 170.69L375.158 170.496L374.971 170.301L374.784 170.106L374.597 169.91L374.41 169.714L374.224 169.518L374.039 169.321L373.853 169.124L373.668 168.926L373.484 168.728L373.299 168.529L373.115 168.33L372.932 168.13L372.748 167.93L372.565 167.729L372.382 167.528L372.2 167.327L372.018 167.124L371.836 166.922L371.655 166.719L371.474 166.515L371.293 166.311L371.113 166.106L370.933 165.901L370.753 165.695L370.574 165.489L370.394 165.282L370.216 165.074L370.037 164.866L369.859 164.657L369.681 164.448L369.504 164.238L369.326 164.028L369.149 163.817L368.973 163.606L368.797 163.393L368.621 163.181L368.445 162.967L368.27 162.753L368.095 162.538L367.92 162.323L367.746 162.107L367.572 161.891L367.398 161.673L367.225 161.455L367.052 161.237L366.879 161.017L366.707 160.797L366.535 160.577L366.364 160.355L366.192 160.133L366.022 159.911L365.851 159.687L365.681 159.463L365.511 159.238L365.342 159.012L365.173 158.786L365.004 158.559L364.836 158.331L364.668 158.102L364.5 157.873L364.333 157.643L364.166 157.412L364 157.18L363.834 156.947L363.668 156.714L363.503 156.48L363.338 156.245L363.174 156.009L363.01 155.773L362.846 155.535L362.683 155.297L362.521 155.058L362.359 154.818L362.197 154.577L362.036 154.336L361.875 154.093L361.714 153.85L361.555 153.606L361.395 153.361L361.236 153.115L361.078 152.868L360.92 152.62L360.763 152.371L360.606 152.122L360.449 151.871L360.294 151.62L360.138 151.368L359.984 151.115L359.829 150.861L359.676 150.605L359.523 150.35L359.37 150.093L359.218 149.835L359.067 149.576L358.916 149.316L358.766 149.055L358.617 148.794L358.468 148.531L358.319 148.267L358.172 148.003L358.025 147.737L357.879 147.471L357.733 147.203L357.588 146.934L357.444 146.665L357.3 146.394L357.157 146.123L357.015 145.85L356.874 145.577L356.733 145.302L356.593 145.027L356.454 144.75L356.315 144.472L356.178 144.194L356.041 143.914L355.905 143.633L355.769 143.352L355.635 143.069L355.501 142.785L355.368 142.5L355.236 142.214L355.105 141.928L354.975 141.64L354.846 141.351L354.717 141.061L354.59 140.769L354.463 140.477L354.337 140.184L354.212 139.89L354.088 139.595L353.965 139.298L353.843 139.001L353.722 138.703L353.602 138.403L353.483 138.103L353.366 137.801L353.249 137.498L353.133 137.195L353.018 136.89L352.904 136.584L352.791 136.277L352.68 135.969L352.569 135.661L352.46 135.351L352.351 135.04L352.244 134.728L352.138 134.414L352.033 134.1L351.929 133.785L351.827 133.469L351.726 133.152L351.625 132.833L351.527 132.514L351.429 132.194L351.332 131.872L351.237 131.55L351.143 131.226L351.051 130.902L350.96 130.576L350.87 130.25L350.781 129.923L350.693 129.594L350.607 129.265L350.523 128.934L350.44 128.603L350.358 128.27L350.277 127.937L350.198 127.602L350.121 127.267L350.044 126.931L349.97 126.593L349.896 126.255L349.824 125.916L349.754 125.576L349.685 125.234L349.618 124.892L349.552 124.549L349.488 124.205L349.425 123.861L349.364 123.515L349.305 123.168L349.247 122.821L349.19 122.472L349.136 122.123L349.082 121.773L349.031 121.422L348.981 121.07L348.933 120.717L348.887 120.363L348.842 120.009L348.799 119.654L348.757 119.298L348.718 118.941L348.68 118.583L348.644 118.224L348.609 117.865L348.577 117.505L348.546 117.144L348.517 116.783L348.49 116.42L348.465 116.057L348.441 115.693L348.419 115.329L348.4 114.963L348.382 114.598L348.366 114.231L348.351 113.864L348.339 113.496L348.329 113.127L348.321 112.758L348.314 112.388L348.31 112.017L348.307 111.646L348.307 111.274L348.308 110.902L348.312 110.529L348.317 110.156L348.324 109.782L348.334 109.407L348.346 109.032L348.359 108.657L348.375 108.28L348.393 107.904L348.412 107.527L348.434 107.149L348.458 106.771L348.485 106.393L348.513 106.014L348.543 105.635L348.576 105.255L348.61 104.876L348.647 104.495L348.686 104.115L348.727 103.734L348.771 103.352L348.816 102.971L348.864 102.589L348.914 102.207L348.967 101.824L349.021 101.441L349.078 101.059L349.137 100.675L349.198 100.292L349.261 99.9086L349.327 99.5249L349.395 99.1411L349.466 98.7572L349.538 98.3731L349.613 97.989L349.69 97.6048L349.77 97.2205L349.852 96.8361L349.936 96.4517L350.023 96.0673L350.111 95.6829L350.203 95.2985L350.296 94.9142L350.392 94.5299L350.491 94.1457L350.591 93.7616L350.694 93.3775L350.8 92.9936L350.908 92.6099L351.018 92.2263L351.131 91.8429L351.246 91.4596L351.363 91.0766L351.483 90.6938L351.605 90.3113L351.73 89.9291L351.857 89.5471L351.987 89.1654L352.119 88.7841L352.253 88.4031L352.39 88.0224L352.529 87.6422L352.671 87.2623L352.815 86.8829L352.962 86.5039L353.111 86.1253L353.263 85.7473L353.417 85.3697L353.573 84.9926L353.732 84.6161L353.894 84.2401L354.058 83.8647L354.224 83.4899L354.393 83.1158L354.564 82.7422L354.738 82.3693L354.914 81.9971L355.093 81.6255L355.274 81.2547L355.457 80.8846L355.643 80.5152L355.832 80.1467L356.023 79.7789L356.217 79.4119L356.412 79.0458L356.611 78.6805L356.812 78.316L357.015 77.9525L357.221 77.5899L357.429 77.2282L357.64 76.8675L357.853 76.5077L358.069 76.1489L358.287 75.7912L358.507 75.4345L358.73 75.0788L358.955 74.7242L359.183 74.3707L359.413 74.0183L359.646 73.667L359.881 73.3169L360.118 72.968L360.358 72.6202L360.601 72.2737L360.845 71.9284L361.092 71.5844L361.342 71.2416L361.594 70.9002L361.848 70.56L362.105 70.2212L362.364 69.8837L362.625 69.5476L362.889 69.2129L363.155 68.8797L363.423 68.5478L363.694 68.2174L363.967 67.8885L364.242 67.5611L364.52 67.2352L364.8 66.9108L365.082 66.588L365.367 66.2668L365.653 65.9471L365.943 65.6291L366.234 65.3127L366.528 64.9979L366.823 64.6848L367.122 64.3734L367.422 64.0638L367.724 63.7558L368.029 63.4496L368.336 63.1451L368.645 62.8425L368.956 62.5416L369.27 62.2426L369.585 61.9454L369.903 61.6501L370.223 61.3566L370.545 61.0651L370.869 60.7754L371.195 60.4877L371.524 60.202L371.854 59.9182L372.186 59.6364L372.521 59.3566L372.857 59.0789L373.196 58.8032L373.536 58.5295L373.879 58.2579L374.223 57.9885L374.569 57.7211L374.918 57.4559L375.268 57.1928L375.62 56.9318L375.974 56.6731L376.33 56.4165L376.688 56.1622L377.048 55.9101L377.41 55.6602L377.773 55.4126L378.138 55.1673L378.505 54.9243L378.874 54.6836L379.245 54.4452L379.617 54.2092L379.991 53.9755L380.367 53.7442L380.745 53.5153L381.124 53.2888L381.505 53.0647L381.888 52.843L382.272 52.6238L382.658 52.4071L383.045 52.1928L383.434 51.981L383.825 51.7718L384.217 51.565L384.611 51.3608L385.006 51.1591L385.402 50.96L385.801 50.7635L386.2 50.5696L386.601 50.3782L387.004 50.1895L387.408 50.0034L387.813 49.82L388.22 49.6391L388.628 49.461L389.037 49.2855L389.448 49.1127L389.86 48.9427L390.273 48.7753L390.687 48.6106L391.103 48.4487L391.52 48.2896L391.938 48.1331L392.357 47.9795L392.777 47.8286L393.199 47.6805L393.622 47.5352L394.045 47.3928L394.47 47.2531L394.896 47.1163L395.323 46.9822L395.751 46.8511L396.179 46.7228L396.609 46.5973L397.04 46.4748L397.472 46.3551L397.904 46.2382L398.338 46.1243L398.772 46.0133L399.207 45.9052L399.643 45.8L400.08 45.6978L400.517 45.5985L400.955 45.5021L401.394 45.4086L401.834 45.3181L402.274 45.2306L402.715 45.1461L403.157 45.0645L403.599 44.9859L404.042 44.9102L404.485 44.8376L404.929 44.7679L405.373 44.7013L405.818 44.6376L406.264 44.5769L406.709 44.5193L407.156 44.4647L407.602 44.4131L408.049 44.3645L408.497 44.3189L408.944 44.2764L409.393 44.2369L409.841 44.2004L410.289 44.167L410.738 44.1366L411.187 44.1092L411.637 44.0849L412.086 44.0636L412.536 44.0454L412.985 44.0302L413.435 44.0181L413.885 44.009L414.335 44.003L414.785 44L415.235 44.0001L415.685 44.0032L416.135 44.0094L416.585 44.0186L417.035 44.0308L417.484 44.0461L417.934 44.0645L418.383 44.0859L418.833 44.1104L419.282 44.1379L419.73 44.1684L420.179 44.202L420.627 44.2386L421.075 44.2782L421.523 44.3209L421.971 44.3666L422.418 44.4153L422.864 44.467L423.31 44.5218L423.756 44.5796L424.202 44.6404L424.646 44.7042L425.091 44.7709L425.535 44.8407L425.978 44.9135L426.421 44.9893L426.863 45.068L427.304 45.1498L427.745 45.2344L428.186 45.3221L428.625 45.4127L429.064 45.5063L429.502 45.6028L429.94 45.7023L430.376 45.8046L430.812 45.91L431.247 46.0182L431.682 46.1293L432.115 46.2434L432.548 46.3603L432.979 46.4801L433.41 46.6028L433.84 46.7284L434.268 46.8568L434.696 46.9881L435.123 47.1223L435.549 47.2592L435.973 47.399L436.397 47.5416L436.82 47.6871L437.241 47.8353L437.662 47.9863L438.081 48.14L438.499 48.2966L438.916 48.4559L439.331 48.6179L439.746 48.7827L440.159 48.9502L440.571 49.1204L440.981 49.2933L441.39 49.4689L441.798 49.6471L442.205 49.828L442.61 50.0116L443.014 50.1978L443.417 50.3867L443.818 50.5781L444.217 50.7722L444.615 50.9688L445.012 51.168L445.407 51.3698L445.801 51.5741L446.193 51.781L446.583 51.9904L446.972 52.2023L447.36 52.4166L447.745 52.6335L448.129 52.8528L448.512 53.0746L448.893 53.2988L449.272 53.5254L449.649 53.7544L450.025 53.9858L450.399 54.2196L450.772 54.4557L451.142 54.6942L451.511 54.935L451.878 55.1782L452.243 55.4236L452.606 55.6713L452.968 55.9212L453.328 56.1734L453.685 56.4279L454.041 56.6845L454.395 56.9434L454.748 57.2044L455.098 57.4676L455.446 57.7329L455.792 58.0004L456.137 58.27L456.479 58.5416L456.82 58.8154L457.158 59.0912L457.494 59.369L457.829 59.6489L458.161 59.9308L458.491 60.2146L458.819 60.5005L459.145 60.7883L459.469 61.078L459.791 61.3696L460.111 61.6632L460.429 61.9586L460.744 62.2558L461.057 62.5549L461.369 62.8559L461.678 63.1586L461.984 63.4631L462.289 63.7694L462.592 64.0775L462.892 64.3872L463.19 64.6987L463.486 65.0119L463.779 65.3267L464.07 65.6432L464.359 65.9613L464.646 66.281L464.93 66.6023L465.213 66.9252L465.493 67.2496L465.77 67.5756L466.045 67.9031L466.318 68.2321L466.589 68.5625L466.857 68.8944L467.123 69.2278L467.387 69.5625L467.648 69.8987L467.907 70.2362L468.163 70.5751L468.417 70.9153L468.669 71.2568L468.919 71.5996L469.166 71.9437L469.41 72.2891L469.652 72.6357L469.892 72.9834L470.13 73.3324L470.364 73.6826L470.597 74.0339L470.827 74.3863L471.055 74.7399L471.28 75.0946L471.503 75.4503L471.723 75.8071L471.941 76.1649L472.157 76.5237L472.37 76.8835L472.58 77.2443L472.788 77.606L472.994 77.9686L473.197 78.3322L473.398 78.6967L473.596 79.062L473.792 79.4282L473.985 79.7952L474.176 80.163L474.365 80.5316L474.551 80.901L474.734 81.2711L474.915 81.642L475.094 82.0136L475.27 82.3858L475.444 82.7588L475.615 83.1324L475.784 83.5066L475.95 83.8814L476.114 84.2568L476.275 84.6328L476.434 85.0094L476.59 85.3864L476.744 85.764L476.895 86.1421L477.045 86.5207L477.191 86.8997L477.335 87.2792L477.477 87.659L477.616 88.0393L477.753 88.42L477.887 88.801L478.019 89.1823L478.149 89.564L478.276 89.946L478.4 90.3283L478.522 90.7108L478.642 91.0936L478.759 91.4767L478.874 91.8599L478.987 92.2433L479.097 92.6269L479.205 93.0107L479.31 93.3946L479.413 93.7786L479.514 94.1628L479.612 94.547L479.708 94.9313L479.801 95.3156L479.893 95.7L479.981 96.0844L480.068 96.4688L480.152 96.8532L480.234 97.2375L480.313 97.6218L480.39 98.006L480.465 98.3902L480.538 98.7742L480.608 99.1582L480.676 99.542L480.741 99.9256L480.805 100.309L480.866 100.692L480.925 101.076L480.981 101.458L481.036 101.841L481.088 102.224L481.138 102.606L481.186 102.988L481.231 103.369L481.274 103.75L481.315 104.131L481.354 104.512L481.391 104.892L481.426 105.272L481.458 105.652L481.489 106.031L481.517 106.41L481.543 106.788L481.567 107.166L481.589 107.544L481.608 107.921L481.626 108.297L481.641 108.673L481.655 109.049L481.666 109.424L481.676 109.798L481.683 110.172L481.689 110.546L481.692 110.919L481.693 111.291L481.693 111.663L481.69 112.034L481.686 112.404L481.679 112.774L481.671 113.143L481.66 113.512L481.648 113.88L481.634 114.247L481.618 114.614L481.6 114.98L481.58 115.345L481.558 115.709L481.534 116.073L481.509 116.436L481.482 116.799L481.453 117.16L481.422 117.521L481.389 117.881L481.355 118.24L481.318 118.599L481.28 118.956L481.241 119.313L481.199 119.669L481.156 120.025L481.111 120.379L481.065 120.733L481.017 121.085L480.967 121.437L480.915 121.788L480.862 122.138L480.807 122.488L480.751 122.836L480.693 123.184L480.633 123.53L480.572 123.876L480.509 124.221L480.445 124.565L480.379 124.908L480.312 125.25L480.243 125.591L480.172 125.931L480.1 126.27L480.027 126.608L479.952 126.946L479.876 127.282L479.798 127.617L479.719 127.952L479.639 128.285L479.557 128.617L479.473 128.949L479.389 129.279L479.303 129.609L479.215 129.937L479.127 130.265L479.036 130.591L478.945 130.916L478.852 131.241L478.758 131.564L478.663 131.886L478.567 132.208L478.469 132.528L478.37 132.847L478.27 133.166L478.169 133.483L478.066 133.799L477.962 134.114L477.857 134.428L477.751 134.741L477.644 135.053L477.536 135.364L477.426 135.674L477.315 135.983L477.204 136.291L477.091 136.598L476.977 136.904L476.862 137.208L476.746 137.512L476.629 137.814L476.511 138.116L476.392 138.416L476.272 138.716L476.151 139.014L476.029 139.312L475.906 139.608L475.782 139.903L475.657 140.197L475.532 140.49L475.405 140.782L475.277 141.073L475.149 141.363L475.019 141.652L474.889 141.94L474.758 142.227L474.626 142.513L474.493 142.798L474.359 143.081L474.225 143.364L474.089 143.646L473.953 143.927L473.816 144.206L473.679 144.485L473.54 144.762L473.401 145.039L473.261 145.314L473.12 145.589L472.979 145.862L472.836 146.135L472.693 146.406L472.55 146.677L472.406 146.946L472.261 147.215L472.115 147.482L471.969 147.749L471.822 148.015L471.674 148.279L471.526 148.543L471.377 148.805L471.227 149.067L471.077 149.328L470.926 149.587L470.775 149.846L470.623 150.104L470.471 150.361L470.317 150.617L470.164 150.872L470.01 151.126L469.855 151.379L469.699 151.631L469.544 151.883L469.387 152.133L469.23 152.382L469.073 152.631L468.915 152.879L468.757 153.126L468.598 153.371L468.438 153.617L468.278 153.861L468.118 154.104L467.957 154.346L467.796 154.588L467.634 154.829L467.472 155.069L467.309 155.308L467.146 155.546L466.983 155.783L466.819 156.02L466.655 156.255L466.49 156.49L466.325 156.724L466.159 156.958L465.993 157.19L465.827 157.422L465.66 157.653L465.493 157.883L465.325 158.112L465.157 158.341L464.989 158.569L464.82 158.796L464.651 159.022L464.481 159.248L464.312 159.473L464.141 159.697L463.971 159.92L463.8 160.143L463.629 160.365L463.457 160.587L463.285 160.807L463.113 161.027L462.94 161.246L462.767 161.465L462.594 161.683L462.42 161.9L462.246 162.117L462.072 162.333L461.897 162.548L461.722 162.763L461.547 162.977L461.372 163.19L461.196 163.403L461.019 163.615L460.843 163.827L460.666 164.037L460.489 164.248L460.311 164.458L460.133 164.667L459.955 164.875L459.776 165.083L459.598 165.291L459.419 165.498L459.239 165.704L459.059 165.91L458.879 166.115L458.699 166.32L458.518 166.524L458.337 166.728L458.156 166.931L457.974 167.133L457.792 167.336L457.609 167.537L457.427 167.738L457.244 167.939L457.06 168.139L456.877 168.339L456.693 168.538L456.508 168.737L456.324 168.935L456.139 169.133L455.953 169.33L455.767 169.527L455.581 169.723L455.395 169.919L455.208 170.115L455.021 170.31L454.834 170.504L454.646 170.699L454.458 170.893L454.269 171.086L454.08 171.279L453.891 171.472L453.701 171.664L453.511 171.856L453.32 172.047L453.13 172.238L452.938 172.429L452.747 172.619L452.555 172.809L452.362 172.998L452.17 173.187L451.976 173.376L451.783 173.564L451.589 173.752L451.394 173.94L451.199 174.127L451.004 174.314L450.808 174.501L450.612 174.687L450.415 174.873L450.218 175.058L450.02 175.244L449.822 175.428L449.624 175.613L449.425 175.797L449.226 175.981L449.026 176.164L448.825 176.348L448.624 176.53L448.423 176.713L448.221 176.895L448.019 177.077L447.816 177.258L447.612 177.44L447.408 177.621L447.204 177.801L446.999 177.981L446.793 178.161L446.587 178.341L446.381 178.52L446.173 178.699L445.966 178.878L445.757 179.056L445.548 179.234L445.339 179.412L445.129 179.589L444.918 179.766L444.707 179.943L444.495 180.119L444.282 180.295L444.069 180.471L443.855 180.647L443.641 180.822L443.426 180.997L443.21 181.171L442.994 181.345L442.777 181.519L442.559 181.692L442.341 181.865L442.122 182.038L441.903 182.211L441.682 182.383L441.461 182.555L441.239 182.726L441.017 182.897L440.794 183.068L440.57 183.238L440.345 183.408L440.12 183.578L439.894 183.747L439.667 183.916L439.44 184.084L439.211 184.252L438.982 184.42L438.753 184.587L438.522 184.754L438.291 184.921L438.058 185.087L437.826 185.253L437.592 185.418L437.357 185.583L437.122 185.748L436.886 185.912L436.649 186.076L436.411 186.239L436.172 186.402L435.933 186.564L435.692 186.726L435.451 186.888L435.209 187.049L434.966 187.209L434.722 187.369L434.478 187.529L434.232 187.688L433.986 187.847L433.738 188.005L433.49 188.162L433.241 188.32L432.991 188.476L432.74 188.632L432.488 188.788L432.236 188.943L431.982 189.097L431.727 189.251L431.472 189.404L431.215 189.557L430.958 189.709L430.7 189.861L430.44 190.012L430.18 190.162L429.919 190.312L429.657 190.461L429.393 190.61L429.129 190.758L428.864 190.905L428.598 191.052L428.331 191.198L428.063 191.343L427.794 191.488L427.524 191.631L427.253 191.775L426.981 191.917L426.708 192.059L426.433 192.2L426.158 192.34L425.882 192.48L425.605 192.619L425.327 192.757L425.048 192.894L424.768 193.031L424.486 193.166L424.204 193.301L423.921 193.435L423.636 193.568L423.351 193.701L423.065 193.832L422.777 193.963L422.489 194.093L422.199 194.222L421.909 194.35L421.617 194.477L421.324 194.603L421.031 194.728L420.736 194.853L420.44 194.976L420.143 195.099L419.845 195.22L419.546 195.34L419.246 195.46L418.945 195.578L418.643 195.696L418.34 195.812L418.036 195.928L417.73 196.042L417.424 196.155L417.117 196.267L416.808 196.378L416.499 196.488L416.188 196.597L415.877 196.705L415.564 196.812L415.251 196.917L414.936 197.021L414.62 197.124L414.303 197.226L413.986 197.327L413.667 197.427L413.347 197.525L413.026 197.622L412.704 197.718L412.381 197.812L412.057 197.905L411.732 197.997L411.406 198.088L411.079 198.177L410.751 198.265L410.422 198.352L410.092 198.437L409.761 198.521L409.429 198.604L409.096 198.685L408.762 198.764L408.427 198.843L408.091 198.92L407.755 198.995L407.417 199.069L407.078 199.142L406.738 199.213L406.398 199.282L406.056 199.35L405.713 199.417L405.37 199.482L405.026 199.545L404.68 199.607L404.334 199.667L403.987 199.726L403.639 199.783L403.29 199.839L402.94 199.893L402.59 199.945L402.238 199.995L401.886 200.044L401.533 200.092L401.178 200.137L400.824 200.181L400.468 200.223L400.111 200.264L399.754 200.302L399.396 200.339L399.037 200.375L398.677 200.408L398.317 200.44L397.955 200.47L397.593 200.498L397.231 200.524L396.867 200.548L396.503 200.571L396.138 200.591L395.773 200.61L395.406 200.627L395.039 200.642L394.672 200.655L394.303 200.667L393.934 200.676L393.565 200.683L393.194 200.689L392.824 200.692L392.452 200.694L392.08 200.693L391.707 200.691L391.334 200.686L390.961 200.68L390.586 200.671L390.211 200.66L389.836 200.648L389.46 200.633L389.084 200.616L388.707 200.598L388.33 200.577L387.952 200.554L387.574 200.528L387.195 200.501L386.816 200.472L386.437 200.44L386.057 200.407L385.677 200.371L385.297 200.333L384.916 200.293L384.535 200.25L384.153 200.206L383.771 200.159L383.389 200.11L383.007 200.059L382.624 200.005L382.242 199.95L381.859 199.892L381.475 199.832L381.092 199.769L380.708 199.705L380.325 199.638L379.941 199.569L379.557 199.497L379.173 199.423L378.789 199.347L378.404 199.269L378.02 199.188L377.636 199.105L377.251 199.019L376.867 198.932L376.482 198.841L376.098 198.749L375.714 198.654L375.329 198.557L374.945 198.457L374.561 198.355L374.177 198.251L373.793 198.144L373.41 198.035L373.026 197.924L372.643 197.81L372.26 197.693L371.877 197.575L371.494 197.454L371.112 197.33L370.73 197.204L370.348 197.076L369.966 196.945L369.585 196.812L369.204 196.676L368.824 196.538L368.444 196.397L368.064 196.254L367.685 196.109L367.306 195.961L366.928 195.81L366.55 195.657L366.173 195.502L365.796 195.344L365.42 195.184L365.044 195.021L364.669 194.856L364.295 194.688L363.921 194.518L363.548 194.346L363.175 194.171L362.803 193.993L362.432 193.813L362.062 193.631L361.692 193.446L361.323 193.259L360.955 193.069L360.587 192.876L360.221 192.682L359.855 192.484L359.49 192.285L359.126 192.083L358.763 191.878L358.401 191.671L358.04 191.461L357.68 191.249L357.32 191.035L356.962 190.818L356.605 190.599L356.249 190.377L355.894 190.153L355.54 189.926L355.187 189.697L354.835 189.466L354.484 189.232L354.135 188.995L353.786 188.757L353.439 188.516L353.093 188.272L352.749 188.026L352.405 187.778L352.063 187.527L351.723 187.274L351.383 187.018L351.045 186.761L350.708 186.5L350.373 186.238L350.039 185.973L349.706 185.706L349.375 185.436L349.046 185.164L348.718 184.89L348.391 184.613L348.066 184.334L347.742 184.053L347.42 183.77L347.1 183.484L346.781 183.196L346.464 182.906L346.148 182.613L345.834 182.318L345.522 182.021L345.212 181.722L344.903 181.421L344.596 181.117L344.291 180.811L343.987 180.503L343.685 180.193L343.386 179.88L343.087 179.566L342.791 179.249L342.497 178.93L342.204 178.609L341.914 178.286L341.625 177.961L341.339 177.634L341.054 177.304L340.771 176.973L340.49 176.64L340.212 176.304L339.935 175.967L339.66 175.627L339.388 175.285L339.117 174.942L338.849 174.597L338.583 174.249L338.318 173.9L338.057 173.548L337.797 173.195L337.539 172.84L337.284 172.483L337.031 172.124L336.78 171.763L336.531 171.401L336.285 171.036L336.04 170.67L335.799 170.302L335.559 169.932L335.322 169.561L335.087 169.188L334.855 168.813L334.625 168.436L334.397 168.057L334.172 167.677L333.949 167.295L333.729 166.912L333.511 166.527L333.295 166.14L333.082 165.752L332.872 165.362L332.664 164.971L332.458 164.578L332.255 164.183L332.055 163.787L331.857 163.39L331.662 162.991L331.47 162.591L331.28 162.189L331.092 161.786L330.908 161.381L330.726 160.975L330.546 160.567L330.369 160.159L330.195 159.749L330.024 159.337L329.855 158.925L329.689 158.511L329.526 158.096L329.366 157.68L329.208 157.262L329.053 156.843L328.901 156.424L328.751 156.003L328.605 155.58L328.461 155.157L328.32 154.733L328.182 154.308L328.046 153.881L327.914 153.454L327.784 153.026L327.657 152.596L327.533 152.166L327.412 151.735L327.294 151.303L327.179 150.87L327.066 150.436L326.957 150.001L326.85 149.565L326.747 149.129L326.646 148.692L326.548 148.254L326.453 147.816L326.361 147.376L326.272 146.936L326.186 146.496L326.103 146.054L326.023 145.612L325.946 145.17L325.872 144.727L325.801 144.283L325.733 143.839L325.668 143.394L325.606 142.949L325.547 142.504L325.491 142.058L325.438 141.611L325.388 141.164L325.341 140.717L325.297 140.269L325.256 139.822L325.218 139.373L325.183 138.925L325.151 138.476L325.122 138.027L325.096 137.578L325.074 137.129L325.054 136.679L325.037 136.23L325.024 135.78L325.013 135.33L325.006 134.88L325.001 134.43L325 133.98L325.002 133.53L325.006 133.08L325.014 132.63L325.025 132.18L325.039 131.73L325.056 131.281L325.076 130.831L325.099 130.382L325.125 129.933L325.154 129.484L325.186 129.035L325.221 128.587L325.259 128.139L325.3 127.691L325.345 127.243L325.392 126.796L325.442 126.349L325.496 125.903L325.552 125.457L325.611 125.011L325.674 124.566L325.739 124.121L325.807 123.677L325.879 123.234L325.953 122.791L326.03 122.348L326.111 121.906L326.194 121.465L326.28 121.025L326.369 120.585L326.462 120.145L326.557 119.707L326.655 119.269L326.756 118.832L326.86 118.396L326.966 117.96L327.076 117.526L327.189 117.092L327.304 116.659L327.423 116.227L327.544 115.796L327.668 115.366L327.795 114.936L327.925 114.508L328.058 114.081L328.194 113.654L328.332 113.229L328.473 112.805L328.618 112.382L328.764 111.96L328.914 111.539L329.067 111.119L329.222 110.701L329.38 110.283L329.54 109.867L329.704 109.452L329.87 109.038L330.039 108.626L330.211 108.215L330.385 107.805L330.562 107.396L330.742 106.989L330.924 106.583L331.109 106.179L331.296 105.775L331.487 105.374L331.679 104.973L331.875 104.575L332.073 104.177L332.273 103.781L332.477 103.387L332.682 102.994L332.89 102.603L333.101 102.213L333.314 101.825L333.53 101.439L333.748 101.054L333.969 100.67L334.192 100.289L334.417 99.9089L334.645 99.5306L334.875 99.154L335.108 98.7791L335.343 98.406L335.58 98.0346L335.82 97.6649L336.062 97.2971L336.306 96.931L336.553 96.5668L336.802 96.2044L337.053 95.8438L337.306 95.4851L337.562 95.1283L337.82 94.7733L338.08 94.4203L338.342 94.0691L338.606 93.7199L338.873 93.3727L339.141 93.0274L339.412 92.684L339.685 92.3427L339.959 92.0034L340.236 91.666L340.515 91.3307L340.796 90.9974L341.079 90.6662L341.364 90.3371L341.651 90.01L341.94 89.685L342.23 89.3621L342.523 89.0413L342.817 88.7227L343.114 88.4062L343.412 88.0918L343.712 87.7796L344.014 87.4695L344.318 87.1616L344.623 86.8559L344.93 86.5525L345.239 86.2512L345.55 85.9521L345.862 85.6553L346.176 85.3607L346.492 85.0684L346.809 84.7783L347.128 84.4905L347.449 84.2049L347.771 83.9216L348.095 83.6407L348.42 83.362L348.747 83.0856L349.075 82.8116L349.405 82.5399L349.736 82.2705L350.069 82.0034L350.403 81.7387L350.738 81.4763L351.075 81.2163L351.413 80.9587L351.753 80.7034L352.094 80.4505L352.436 80.2L352.779 79.9519L353.124 79.7062L353.47 79.4628L353.817 79.2219L354.166 78.9834L354.515 78.7473L354.866 78.5136L355.218 78.2823L355.571 78.0535L355.925 77.8271L356.28 77.6031L356.637 77.3816L356.994 77.1625L357.352 76.9458L357.712 76.7316L358.072 76.5199L358.433 76.3106L358.795 76.1037L359.159 75.8993L359.523 75.6974L359.888 75.4979L360.253 75.3009L360.62 75.1063L360.987 74.9143L361.356 74.7246L361.725 74.5375L362.094 74.3528L362.465 74.1706L362.836 73.9908L363.208 73.8136L363.581 73.6387L363.954 73.4664L364.328 73.2965L364.702 73.1291L365.078 72.9641L365.453 72.8017L365.83 72.6416L366.206 72.4841L366.584 72.329L366.962 72.1763L367.34 72.0261L367.719 71.8784L368.098 71.7331L368.478 71.5903L368.858 71.4499L369.238 71.312L369.619 71.1765L370 71.0434L370.382 70.9128L370.764 70.7846L371.146 70.6588L371.528 70.5354L371.911 70.4145L372.294 70.296L372.677 70.1799L373.06 70.0662L373.444 69.9549L373.827 69.846L374.211 69.7395L374.595 69.6354L374.979 69.5337L375.364 69.4343L375.748 69.3373L376.132 69.2427L376.517 69.1504L376.901 69.0605L377.285 68.973L377.67 68.8877L378.054 68.8048L378.438 68.7243L378.823 68.646L379.207 68.5701L379.591 68.4965L379.975 68.4251L380.359 68.3561L380.742 68.2894L381.126 68.2249L381.509 68.1627L381.893 68.1027L382.276 68.0451L382.658 67.9896L383.041 67.9364L383.423 67.8854L383.805 67.8367L384.187 67.7901L384.568 67.7458L384.95 67.7036L385.33 67.6636L385.711 67.6258L386.091 67.5902L386.471 67.5567L386.85 67.5254L387.229 67.4962L387.608 67.4692L387.986 67.4442L388.363 67.4214L388.741 67.4007L389.117 67.382L389.494 67.3654L389.869 67.3509L390.245 67.3385L390.62 67.3281L390.994 67.3197L391.367 67.3134L391.741 67.3091L392.113 67.3067L392.485 67.3064L392.857 67.3081L393.227 67.3117L393.598 67.3173L393.967 67.3248L394.336 67.3343L394.704 67.3457L395.072 67.359L395.439 67.3742L395.805 67.3913L396.171 67.4103L396.535 67.4312L396.9 67.4539L397.263 67.4784L397.626 67.5048L397.988 67.533L398.349 67.563L398.709 67.5948L399.069 67.6284L399.428 67.6638L399.786 67.7009L400.143 67.7398L400.499 67.7804L400.855 67.8227L401.21 67.8667L401.564 67.9125L401.917 67.9599L402.269 68.009L402.621 68.0597L402.971 68.1121L403.321 68.1661L403.67 68.2218L404.018 68.2791L404.365 68.3379L404.711 68.3984L405.056 68.4604L405.4 68.5239L405.744 68.5891L406.086 68.6557L406.428 68.7239L406.768 68.7936L407.108 68.8647L407.447 68.9374L407.785 69.0115L408.121 69.0871L408.457 69.1641L408.792 69.2426L409.126 69.3224L409.459 69.4037L409.791 69.4864L410.121 69.5704L410.451 69.6558L410.78 69.7426L411.108 69.8307L411.435 69.9201L411.761 70.0108L412.086 70.1029L412.41 70.1962L412.733 70.2908L413.054 70.3867L413.375 70.4838L413.695 70.5822L414.014 70.6818L414.331 70.7826L414.648 70.8846L414.964 70.9878L415.278 71.0922L415.592 71.1977L415.904 71.3044L416.216 71.4123L416.526 71.5212L416.836 71.6313L417.144 71.7425L417.451 71.8547L417.758 71.9681L418.063 72.0825L418.367 72.1979L418.67 72.3144L418.972 72.432L419.273 72.5505L419.573 72.6701L419.872 72.7907L420.17 72.9122L420.466 73.0347L420.762 73.1582L421.057 73.2826L421.35 73.408L421.643 73.5343L421.935 73.6615L422.225 73.7896L422.514 73.9186L422.803 74.0485L423.09 74.1792L423.377 74.3108L423.662 74.4433L423.946 74.5766L424.229 74.7107L424.511 74.8457L424.793 74.9814L425.073 75.118L425.352 75.2553L425.63 75.3935L425.907 75.5323L426.183 75.672L426.458 75.8124L426.732 75.9535L427.005 76.0953L427.277 76.2379L427.548 76.3812L427.818 76.5252L428.087 76.6698L428.355 76.8152L428.622 76.9612L428.888 77.1079L429.153 77.2552L429.417 77.4032L429.68 77.5518L429.942 77.701L430.203 77.8509L430.463 78.0013L430.723 78.1524L430.981 78.304L431.238 78.4563L431.495 78.6091L431.75 78.7625L432.005 78.9164L432.258 79.0709L432.511 79.226L432.763 79.3816L433.013 79.5377L433.263 79.6944L433.512 79.8515L433.76 80.0092L434.008 80.1674L434.254 80.326L434.5 80.4852L434.744 80.6449L434.988 80.805L435.231 80.9656L435.473 81.1267L435.714 81.2882L435.954 81.4502L436.193 81.6126L436.432 81.7755L436.67 81.9388L436.907 82.1025L437.143 82.2667L437.378 82.4312L437.613 82.5962L437.846 82.7616L438.079 82.9275L438.311 83.0937L438.543 83.2603L438.773 83.4273L439.003 83.5947L439.232 83.7625L439.46 83.9307L439.687 84.0992L439.914 84.2681L440.14 84.4374L440.365 84.607L440.59 84.7771L440.814 84.9474L441.037 85.1182L441.259 85.2892L441.481 85.4607L441.702 85.6324L441.922 85.8046L442.142 85.977L442.361 86.1498L442.579 86.323L442.796 86.4965L443.013 86.6703L443.23 86.8444L443.445 87.0189L443.66 87.1937L443.874 87.3689L444.088 87.5443L444.301 87.7201L444.514 87.8962L444.725 88.0726L444.937 88.2494L445.147 88.4265L445.357 88.6039L445.567 88.7816L445.776 88.9596L445.984 89.138L446.192 89.3167L446.399 89.4956L446.605 89.675L446.812 89.8546L447.017 90.0346L447.222 90.2148L447.426 90.3954L447.63 90.5763L447.834 90.7576L448.037 90.9391L448.239 91.121L448.441 91.3032L448.642 91.4858L448.843 91.6687L449.043 91.8519L449.243 92.0354L449.443 92.2192L449.642 92.4034L449.84 92.588L450.038 92.7729L450.236 92.9581L450.433 93.1436L450.629 93.3295L450.825 93.5158L451.021 93.7024L451.217 93.8893L451.411 94.0766L451.606 94.2643L451.8 94.4523L451.994 94.6407L452.187 94.8295L452.379 95.0186L452.572 95.2081L452.764 95.398L452.955 95.5883L453.147 95.7789L453.337 95.97L453.528 96.1614L453.718 96.3532L453.908 96.5455L454.097 96.7381L454.286 96.9311L454.474 97.1246L454.662 97.3184L454.85 97.5127L455.038 97.7074L455.225 97.9026L455.412 98.0982L455.598 98.2942L455.784 98.4906L455.97 98.6875L456.155 98.8849L456.34 99.0827L456.525 99.281L456.709 99.4797L456.893 99.6789L457.077 99.8786L457.26 100.079L457.443 100.279L457.626 100.481L457.808 100.682L457.99 100.884L458.172 101.087L458.353 101.29L458.534 101.494L458.715 101.698L458.895 101.903L459.075 102.108L459.255 102.314L459.434 102.521L459.614 102.727L459.792 102.935L459.971 103.143L460.149 103.352L460.327 103.561L460.504 103.771L460.682 103.981L460.858 104.192L461.035 104.404L461.211 104.616L461.387 104.829L461.563 105.042L461.738 105.256L461.913 105.471L462.088 105.686L462.262 105.902L462.436 106.119L462.609 106.336L462.783 106.554L462.956 106.773L463.128 106.992L463.3 107.212L463.472 107.433L463.644 107.654L463.815 107.876L463.986 108.099L464.157 108.323L464.327 108.547L464.496 108.772L464.666 108.998L464.835 109.224L465.004 109.451L465.172 109.679L465.34 109.908L465.507 110.137L465.675 110.368L465.841 110.599L466.008 110.83L466.174 111.063L466.339 111.296L466.504 111.53L466.669 111.765L466.833 112.001L466.997 112.238L467.161 112.475L467.324 112.714L467.486 112.953L467.649 113.193L467.81 113.433L467.972 113.675L468.132 113.918L468.293 114.161L468.453 114.405L468.612 114.65L468.771 114.896L468.929 115.143L469.087 115.391L469.244 115.64L469.401 115.889L469.558 116.14L469.713 116.391L469.869 116.643L470.023 116.897L470.177 117.151L470.331 117.406L470.484 117.662L470.637 117.919L470.788 118.177L470.94 118.436L471.09 118.695L471.241 118.956L471.39 119.218L471.539 119.481L471.687 119.744L471.835 120.009L471.982 120.275L472.128 120.541L472.273 120.809L472.418 121.077L472.563 121.347L472.706 121.618L472.849 121.889L472.991 122.162L473.133 122.435L473.273 122.71L473.413 122.986L473.552 123.262L473.691 123.54L473.828 123.819L473.965 124.098L474.101 124.379L474.237 124.661L474.371 124.944L474.505 125.227L474.637 125.512L474.769 125.798L474.901 126.085L475.031 126.373L475.16 126.662L475.289 126.952L475.416 127.243L475.543 127.536L475.668 127.829L475.793 128.123L475.917 128.418L476.04 128.715L476.162 129.012L476.283 129.311L476.403 129.61L476.522 129.911L476.64 130.212L476.757 130.515L476.872 130.819L476.987 131.124L477.101 131.429L477.214 131.736L477.325 132.044L477.436 132.353L477.545 132.663L477.654 132.974L477.761 133.286L477.867 133.599L477.971 133.914L478.075 134.229L478.178 134.545L478.279 134.862L478.379 135.181L478.478 135.5L478.575 135.821L478.672 136.142L478.767 136.464L478.861 136.788L478.953 137.112L479.044 137.438L479.134 137.764L479.223 138.092L479.31 138.421L479.396 138.75L479.481 139.081L479.564 139.412L479.646 139.745L479.726 140.078L479.805 140.412L479.883 140.748L479.959 141.084L480.034 141.422L480.107 141.76L480.179 142.099L480.249 142.44L480.318 142.781L480.385 143.123L480.451 143.466L480.515 143.81L480.577 144.155L480.638 144.5L480.698 144.847L480.756 145.195L480.812 145.543L480.867 145.893L480.92 146.243L480.971 146.594L481.021 146.946L481.069 147.299L481.115 147.652L481.16 148.007L481.203 148.362L481.244 148.718L481.284 149.075L481.322 149.433L481.358 149.792L481.392 150.151L481.425 150.511L481.455 150.872L481.484 151.233L481.511 151.596L481.537 151.959L481.56 152.323L481.582 152.687L481.601 153.053L481.619 153.419L481.635 153.785L481.649 154.153L481.661 154.521L481.671 154.889L481.68 155.259L481.686 155.629L481.69 155.999L481.693 156.37L481.693 156.742L481.692 157.114L481.688 157.487L481.683 157.861L481.675 158.235L481.666 158.609L481.654 158.985L481.64 159.36L481.624 159.736L481.607 160.113L481.587 160.49L481.565 160.867L481.541 161.245L481.514 161.624L481.486 162.003L481.455 162.382L481.423 162.761L481.388 163.141L481.351 163.522L481.312 163.902L481.271 164.283L481.227 164.665L481.181 165.046L481.134 165.428L481.083 165.81L481.031 166.193L480.977 166.576L480.92 166.958L480.861 167.342L480.799 167.725L480.736 168.108L480.67 168.492L480.602 168.876L480.531 169.26L480.459 169.644L480.384 170.028L480.306 170.412L480.227 170.797L480.145 171.181L480.06 171.565L479.974 171.95L479.885 172.334L479.793 172.718L479.699 173.103L479.603 173.487L479.505 173.871L479.404 174.255L479.301 174.639L479.195 175.023L479.087 175.407L478.977 175.791L478.864 176.174L478.749 176.557L478.632 176.94L478.512 177.323L478.389 177.706L478.264 178.088L478.137 178.47L478.007 178.851L477.875 179.233L477.741 179.614L477.604 179.994L477.464 180.375L477.322 180.754L477.178 181.134L477.031 181.513L476.882 181.891L476.73 182.269L476.576 182.647L476.42 183.024L476.261 183.401L476.099 183.776L475.935 184.152L475.769 184.527L475.6 184.901L475.428 185.274L475.254 185.647L475.078 186.019L474.899 186.391L474.718 186.762L474.534 187.132L474.348 187.501L474.16 187.87L473.968 188.237L473.775 188.604L473.579 188.97L473.38 189.336L473.179 189.7L472.976 190.064L472.77 190.426L472.562 190.788L472.351 191.148L472.138 191.508L471.922 191.867L471.704 192.225L471.483 192.581L471.26 192.937L471.035 193.291L470.807 193.645L470.576 193.997L470.344 194.348L470.109 194.699L469.871 195.047L469.631 195.395L469.389 195.742L469.144 196.087L468.897 196.431L468.647 196.773L468.395 197.115L468.141 197.455L467.884 197.794L467.625 198.131L467.363 198.467L467.1 198.802L466.833 199.135L466.565 199.467L466.294 199.797L466.021 200.126L465.746 200.453L465.468 200.779L465.188 201.103L464.905 201.426L464.621 201.747L464.334 202.067L464.045 202.385L463.753 202.701L463.459 203.016L463.163 203.329L462.865 203.64L462.565 203.95L462.262 204.258L461.957 204.564L461.65 204.868L461.341 205.171L461.03 205.472L460.716 205.771L460.401 206.068L460.083 206.363L459.763 206.656L459.441 206.948L459.116 207.237L458.79 207.525L458.462 207.811L458.131 208.094L457.799 208.376L457.464 208.656L457.128 208.933L456.789 209.209L456.449 209.483L456.106 209.754L455.762 210.023L455.415 210.291L455.067 210.556L454.716 210.819L454.364 211.08L454.01 211.338L453.654 211.595L453.296 211.849L452.936 212.101L452.574 212.351L452.211 212.598L451.845 212.843L451.478 213.086L451.109 213.327L450.739 213.565L450.366 213.801L449.992 214.035L449.616 214.266L449.238 214.495L448.859 214.721L448.478 214.945L448.095 215.167L447.711 215.386L447.325 215.602L446.938 215.817L446.549 216.028L446.158 216.237L445.766 216.444L445.372 216.648L444.977 216.85L444.58 217.049L444.182 217.245L443.782 217.439L443.381 217.63L442.978 217.819L442.574 218.005L442.169 218.188L441.762 218.369L441.354 218.547L440.945 218.722L440.534 218.895L440.122 219.065L439.709 219.232L439.294 219.397L438.879 219.558L438.462 219.717L438.044 219.874L437.624 220.027L437.204 220.178L436.782 220.326L436.36 220.471L435.936 220.613L435.511 220.753L435.085 220.89L434.658 221.024L434.23 221.155L433.801 221.283L433.372 221.408L432.941 221.531L432.509 221.65L432.077 221.767L431.643 221.881L431.209 221.991L430.774 222.099L430.338 222.204L429.901 222.307L429.463 222.406L429.025 222.502L428.586 222.595L428.147 222.686L427.706 222.773L427.265 222.858L426.824 222.939L426.381 223.017L425.939 223.093L425.495 223.166L425.051 223.235L424.607 223.302L424.162 223.365L423.717 223.426L423.271 223.483L422.825 223.538L422.378 223.589L421.931 223.638L421.483 223.683L421.036 223.725L420.588 223.765L420.139 223.801L419.691 223.834L419.242 223.865L418.793 223.892L418.343 223.916L417.894 223.937L417.444 223.955L416.995 223.97L416.545 223.982L416.095 223.991L415.645 223.997L415.195 224L414.745 224L414.295 223.997L413.845 223.99L413.395 223.981L412.945 223.968L412.496 223.953L412.046 223.935L411.597 223.913L411.147 223.888L410.698 223.861L410.25 223.83L409.801 223.796L409.353 223.76L408.905 223.72L408.457 223.677L408.01 223.631L407.563 223.582L407.116 223.531L406.67 223.476L406.224 223.418L405.779 223.357L405.334 223.293L404.889 223.226L404.446 223.156L404.002 223.083L403.56 223.007L403.117 222.928L402.676 222.846L402.235 222.762L401.795 222.674L401.355 222.583L400.916 222.489L400.478 222.393L400.041 222.293L399.604 222.191L399.168 222.085L398.733 221.977L398.299 221.866L397.866 221.751L397.433 221.634L397.002 221.514L396.571 221.392L396.141 221.266L395.713 221.137L395.285 221.006L394.858 220.872L394.432 220.735L394.008 220.595L393.584 220.452L393.162 220.306L392.74 220.158L392.32 220.007L391.901 219.853L391.483 219.696L391.066 219.537L390.65 219.375L390.236 219.21L389.823 219.042L389.411 218.872L389.001 218.699L388.591 218.523L388.183 218.345L387.777 218.164L387.372 217.98L386.968 217.794L386.566 217.605L386.165 217.413L385.765 217.219L385.367 217.022L384.971 216.823L384.575 216.621L384.182 216.417L383.79 216.21L383.399 216L383.011 215.788L382.623 215.574L382.238 215.357L381.854 215.137L381.471 214.915L381.09 214.691L380.711 214.464L380.334 214.235L379.958 214.004L379.584 213.77L379.212 213.534L378.841 213.295L378.473 213.054L378.106 212.811L377.741 212.565L377.377 212.318L377.016 212.068L376.656 211.815L376.299 211.561L375.943 211.304L375.589 211.045L375.237 210.784L374.887 210.521L374.539 210.255L374.192 209.988L373.848 209.718L373.506 209.446L373.165 209.172L372.827 208.896L372.491 208.619L372.157 208.339L371.824 208.057L371.494 207.773L371.166 207.487L370.84 207.199L370.516 206.909L370.195 206.617L369.875 206.324L369.557 206.028L369.242 205.731L368.929 205.432L368.618 205.131L368.309 204.828L368.002 204.523L367.697 204.217L367.395 203.909L367.095 203.599L366.797 203.287L366.501 202.974L366.208 202.659L365.917 202.343L365.628 202.024L365.341 201.705L365.057 201.383L364.775 201.06L364.495 200.736L364.218 200.41L363.942 200.082L363.67 199.753L363.399 199.423L363.131 199.091L362.865 198.757L362.602 198.422L362.34 198.086L362.082 197.749L361.825 197.41L361.571 197.069L361.32 196.728L361.07 196.385L360.823 196.041L360.579 195.695L360.337 195.349L360.097 195.001L359.86 194.652L359.625 194.302L359.393 193.95L359.163 193.598L358.935 193.244L358.71 192.89L358.487 192.534L358.267 192.177L358.049 191.819L357.834 191.46L357.621 191.1L357.41 190.74L357.202 190.378L356.997 190.015L356.794 189.652L356.593 189.287L356.395 188.922L356.199 188.555L356.006 188.188L355.815 187.821L355.627 187.452L355.441 187.082L355.258 186.712L355.077 186.341L354.898 185.97L354.722 185.598L354.549 185.225L354.378 184.851L354.209 184.477L354.043 184.102L353.879 183.726L353.718 183.35L353.559 182.974L353.403 182.597L353.249 182.219L353.098 181.841L352.949 181.462L352.802 181.083L352.658 180.704L352.517 180.324L352.378 179.944L352.241 179.563L352.107 179.182L351.975 178.801L351.846 178.419L351.719 178.037L351.594 177.655L351.472 177.272L351.353 176.889L351.235 176.506L351.12 176.123L351.008 175.74L350.898 175.356L350.79 174.972L350.685 174.588L350.582 174.204L350.482 173.82L350.384 173.436L350.288 173.052L350.194 172.667L350.103 172.283L350.015 171.898L349.928 171.514L349.844 171.13L349.763 170.745L349.683 170.361L349.606 169.977L349.532 169.593L349.459 169.209L349.389 168.825L349.321 168.441L349.256 168.057L349.192 167.674L349.131 167.291L349.073 166.907L349.016 166.525L348.962 166.142L348.91 165.759L348.86 165.377L348.812 164.995L348.767 164.614L348.724 164.233L348.683 163.852L348.644 163.471L348.607 163.091L348.573 162.711L348.54 162.331L348.51 161.952L348.482 161.573L348.456 161.195L348.432 160.817L348.411 160.44L348.391 160.063L348.373 159.686L348.358 159.31L348.344 158.935L348.333 158.559L348.324 158.185L348.316 157.811L348.311 157.438L348.308 157.065L348.307 156.693L348.307 156.321L348.31 155.95L348.315 155.579L348.321 155.209L348.33 154.84L348.34 154.472L348.353 154.104L348.367 153.736L348.383 153.37L348.401 153.004L348.421 152.639L348.443 152.274L348.467 151.911L348.492 151.548L348.52 151.185L348.549 150.824L348.58 150.463L348.612 150.103L348.647 149.744L348.683 149.385L348.721 149.028L348.761 148.671L348.803 148.315L348.846 147.959L348.891 147.605L348.937 147.252L348.986 146.899L349.036 146.547L349.087 146.196L349.14 145.846L349.195 145.497L349.252 145.148L349.31 144.801L349.37 144.454L349.431 144.109L349.494 143.764L349.558 143.42L349.624 143.077L349.691 142.735L349.76 142.394L349.831 142.054L349.903 141.715L349.976 141.377L350.051 141.039L350.127 140.703L350.205 140.368L350.284 140.034L350.365 139.7L350.447 139.368L350.53 139.036L350.615 138.706L350.701 138.377L350.789 138.048L350.877 137.721L350.968 137.395L351.059 137.069L351.152 136.745L351.246 136.421L351.341 136.099L351.438 135.778L351.535 135.458L351.634 135.138L351.735 134.82L351.836 134.503L351.939 134.187L352.042 133.872L352.147 133.558L352.254 133.245L352.361 132.933L352.469 132.622L352.579 132.312L352.689 132.003L352.801 131.695L352.914 131.389L353.028 131.083L353.143 130.778L353.259 130.475L353.376 130.172L353.494 129.871L353.613 129.57L353.733 129.271L353.854 128.972L353.976 128.675L354.099 128.379L354.223 128.084L354.348 127.79L354.474 127.497L354.601 127.205L354.728 126.914L354.857 126.624L354.987 126.335L355.117 126.047L355.248 125.76L355.38 125.474L355.513 125.19L355.647 124.906L355.781 124.623L355.917 124.342L356.053 124.061L356.19 123.781L356.328 123.503L356.466 123.225L356.605 122.949L356.745 122.673L356.886 122.399L357.028 122.125L357.17 121.853L357.313 121.581L357.457 121.311L357.601 121.042L357.746 120.773L357.892 120.506L358.038 120.239L358.185 119.974L358.333 119.709L358.481 119.446L358.63 119.183L358.779 118.921L358.93 118.661L359.08 118.401L359.232 118.142L359.384 117.884L359.536 117.628L359.689 117.372L359.843 117.117L359.997 116.863L360.152 116.61L360.307 116.357L360.463 116.106L360.62 115.856L360.777 115.606L360.934 115.358L361.092 115.11L361.25 114.863L361.409 114.618L361.569 114.373L361.729 114.128L361.889 113.885L362.05 113.643L362.211 113.401L362.373 113.161L362.535 112.921L362.698 112.682L362.861 112.444L363.024 112.206L363.188 111.97L363.353 111.734L363.518 111.499L363.683 111.265L363.848 111.032L364.014 110.799L364.181 110.568L364.348 110.337L364.515 110.107L364.682 109.877L364.85 109.649L365.019 109.421L365.188 109.194L365.357 108.968L365.526 108.742L365.696 108.517L365.866 108.293L366.037 108.07L366.208 107.847L366.379 107.625L366.551 107.404L366.722 107.183L366.895 106.963L367.067 106.744L367.24 106.525L367.414 106.307L367.587 106.09L367.761 105.874L367.936 105.658L368.11 105.442L368.285 105.228L368.461 105.014L368.636 104.8L368.812 104.588L368.988 104.376L369.165 104.164L369.342 103.953L369.519 103.743L369.697 103.533L369.875 103.324L370.053 103.115L370.231 102.907L370.41 102.7L370.589 102.493L370.769 102.287L370.949 102.081L371.129 101.876L371.309 101.671L371.49 101.467L371.671 101.263L371.853 101.06L372.034 100.857L372.216 100.655L372.399 100.454L372.581 100.253L372.764 100.052L372.948 99.852L373.132 99.6524L373.316 99.4532L373.5 99.2545L373.685 99.0563L373.87 98.8586L374.055 98.6613L374.241 98.4644L374.427 98.268L374.613 98.0721L374.8 97.8766L374.987 97.6815L375.175 97.4868L375.363 97.2926L375.551 97.0988L375.739 96.9054L375.928 96.7124L376.118 96.5198L376.307 96.3277L376.497 96.1359L376.688 95.9445L376.879 95.7535L377.07 95.5629L377.262 95.3727L377.454 95.1829L377.646 94.9934L377.839 94.8043L378.032 94.6156L378.226 94.4273L378.42 94.2393L378.615 94.0517L378.809 93.8644L379.005 93.6775L379.201 93.4909L379.397 93.3047L379.594 93.1189L379.791 92.9334L379.988 92.7482L380.186 92.5634L380.385 92.3789L380.584 92.1947L380.783 92.0109L380.983 91.8274L381.184 91.6443L381.385 91.4614L381.586 91.2789L381.788 91.0968L381.99 90.9149L382.193 90.7334L382.397 90.5522L382.601 90.3713L382.805 90.1908L383.01 90.0106L383.216 89.8306L383.422 89.6511L383.629 89.4718L383.836 89.2928L384.044 89.1142L384.252 88.9359L384.461 88.7579L384.671 88.5802L384.881 88.4029L385.091 88.2258L385.303 88.0491L385.515 87.8727L385.727 87.6967L385.94 87.5209L386.154 87.3455L386.369 87.1704L386.584 86.9956L386.799 86.8212L387.016 86.6471L387.233 86.4733L387.45 86.2999L387.669 86.1268L387.888 85.954L388.107 85.7816L388.328 85.6095L388.549 85.4378L388.77 85.2664L388.993 85.0954L389.216 84.9247L389.44 84.7544L389.665 84.5844L389.89 84.4148L390.116 84.2456L390.343 84.0767L390.57 83.9082L390.799 83.7401L391.028 83.5724L391.258 83.405L391.488 83.2381L391.72 83.0715L391.952 82.9054L392.185 82.7396L392.419 82.5742L392.653 82.4093L392.889 82.2448L393.125 82.0807L393.362 81.917L393.6 81.7537L393.838 81.5909L394.078 81.4286L394.318 81.2666L394.56 81.1052L394.802 80.9442L395.045 80.7836L395.288 80.6236L395.533 80.464L395.779 80.3049L396.025 80.1463L396.272 79.9882L396.521 79.8306L396.77 79.6735L397.02 79.5169L397.271 79.3608L397.523 79.2053L397.776 79.0503L398.029 78.8959L398.284 78.742L398.539 78.5887L398.796 78.436L399.053 78.2838L399.312 78.1322L399.571 77.9812L399.832 77.8309L400.093 77.6811L400.355 77.5319L400.618 77.3834L400.882 77.2355L401.148 77.0883L401.414 76.9417L401.681 76.7958L401.949 76.6505L402.218 76.5059L402.488 76.3621L402.759 76.2189L403.031 76.0764L403.305 75.9346L403.579 75.7936L403.854 75.6533L404.13 75.5138L404.407 75.375L404.685 75.237L404.965 75.0998L405.245 74.9633L405.526 74.8277L405.808 74.6928L406.092 74.5588L406.376 74.4256L406.662 74.2933L406.948 74.1617L407.235 74.0311L407.524 73.9013L407.814 73.7725L408.104 73.6445L408.396 73.5174L408.689 73.3912L408.982 73.266L409.277 73.1417L409.573 73.0183L409.87 72.8959L410.168 72.7745L410.467 72.6541L410.767 72.5347L411.068 72.4163L411.37 72.2989L411.674 72.1825L411.978 72.0672L412.283 71.9529L412.589 71.8397L412.897 71.7276L413.205 71.6166L413.515 71.5066L413.825 71.3978L414.137 71.2901L414.45 71.1836L414.763 71.0782L415.078 70.974L415.394 70.871L415.711 70.7691L416.029 70.6685L416.347 70.569L416.667 70.4708L416.988 70.3739L417.31 70.2782L417.633 70.1837L417.957 70.0905L418.282 69.9987L418.608 69.9081L418.935 69.8189L419.263 69.7309L419.592 69.6443L419.923 69.5591L420.254 69.4753L420.586 69.3928L420.919 69.3117L421.253 69.232L421.588 69.1538L421.923 69.0769L422.26 69.0015L422.598 68.9276L422.937 68.8552L423.277 68.7842L423.618 68.7147L423.959 68.6467L424.302 68.5803L424.645 68.5154L424.99 68.452L425.335 68.3902L425.681 68.33L426.028 68.2713L426.377 68.2143L426.725 68.1589L427.075 68.105L427.426 68.0529L427.778 68.0023L428.13 67.9535L428.483 67.9063L428.837 67.8608L429.192 67.817L429.548 67.7749L429.905 67.7345L430.262 67.6959L430.62 67.659L430.979 67.6238L431.339 67.5905L431.699 67.5589L432.061 67.5291L432.423 67.5012L432.785 67.475L433.149 67.4507L433.513 67.4283L433.878 67.4077L434.244 67.3889L434.61 67.3721L434.977 67.3571L435.345 67.3441L435.713 67.3329L436.082 67.3237L436.452 67.3164L436.822 67.3111L437.193 67.3077L437.564 67.3064L437.936 67.3069L438.309 67.3095L438.682 67.3141L439.056 67.3207L439.43 67.3294L439.805 67.34L440.181 67.3527L440.556 67.3675L440.933 67.3844L441.31 67.4033L441.687 67.4243L442.065 67.4474L442.443 67.4726L442.821 67.5L443.2 67.5295L443.58 67.5611L443.96 67.5948L444.34 67.6308L444.72 67.6688L445.101 67.7091L445.482 67.7515L445.864 67.7962L446.246 67.843L446.628 67.8921L447.01 67.9434L447.393 67.9969L447.775 68.0526L448.158 68.1106L448.542 68.1708L448.925 68.2334L449.309 68.2981L449.692 68.3652L450.076 68.4345L450.46 68.5061L450.844 68.5801L451.229 68.6563L451.613 68.7349L451.997 68.8157L452.382 68.8989L452.766 68.9845L453.15 69.0724L453.535 69.1626L453.919 69.2552L454.303 69.3501L454.688 69.4474L455.072 69.5471L455.456 69.6491L455.84 69.7536L456.224 69.8604L456.607 69.9696L456.991 70.0812L457.374 70.1952L457.757 70.3117L458.14 70.4305L458.523 70.5517L458.905 70.6754L459.287 70.8015L459.669 70.93L460.051 71.061L460.432 71.1944L460.812 71.3302L461.193 71.4685L461.573 71.6092L461.953 71.7523L462.332 71.8979L462.71 72.046L463.089 72.1965L463.467 72.3495L463.844 72.5049L464.221 72.6628L464.597 72.8232L464.972 72.986L465.347 73.1513L465.722 73.319L466.096 73.4892L466.469 73.6619L466.841 73.837L467.213 74.0146L467.584 74.1947L467.955 74.3773L468.325 74.5623L468.693 74.7498L469.062 74.9397L469.429 75.1321L469.795 75.327L470.161 75.5243L470.526 75.7241L470.89 75.9264L471.253 76.1311L471.615 76.3383L471.976 76.5479L472.336 76.76L472.695 76.9745L473.054 77.1915L473.411 77.4109L473.767 77.6328L474.122 77.8571L474.476 78.0838L474.829 78.313L475.181 78.5446L475.531 78.7786L475.881 79.015L476.229 79.2539L476.576 79.4951L476.922 79.7388L477.266 79.9848L477.61 80.2332L477.952 80.4841L478.292 80.7373L478.632 80.9929L478.97 81.2508L479.307 81.5111L479.642 81.7738L479.976 82.0388L480.308 82.3062L480.639 82.5759L480.969 82.848L481.297 83.1223L481.623 83.399L481.949 83.678L482.272 83.9593L482.594 84.2428L482.914 84.5287L483.233 84.8168L483.55 85.1072L483.866 85.3998L484.179 85.6947L484.492 85.9918L484.802 86.2912L485.111 86.5928L485.418 86.8965L485.723 87.2025L486.026 87.5107L486.328 87.821L486.628 88.1335L486.926 88.4482L487.222 88.765L487.516 89.0839L487.809 89.405L488.099 89.7282L488.388 90.0534L488.674 90.3808L488.959 90.7102L489.241 91.0417L489.522 91.3753L489.801 91.7108L490.077 92.0484L490.352 92.3881L490.624 92.7297L490.895 93.0733L491.163 93.4188L491.429 93.7663L491.693 94.1158L491.955 94.4672L492.215 94.8205L492.472 95.1757L492.728 95.5328L492.981 95.8918L493.231 96.2526L493.48 96.6152L493.726 96.9797L493.97 97.346L494.212 97.7141L494.451 98.084L494.689 98.4556L494.923 98.829L495.156 99.2041L495.385 99.5809L495.613 99.9594L495.838 100.34L496.061 100.721L496.281 101.105L496.499 101.49L496.714 101.877L496.927 102.265L497.138 102.655L497.345 103.047L497.551 103.44L497.753 103.834L497.954 104.23L498.151 104.628L498.346 105.027L498.539 105.427L498.729 105.829L498.916 106.232L499.101 106.637L499.282 107.043L499.462 107.451L499.638 107.859L499.812 108.269L499.984 108.681L500.152 109.093L500.318 109.507L500.481 109.922L500.641 110.339L500.799 110.756L500.954 111.175L501.106 111.595L501.255 112.016L501.402 112.438L501.545 112.861L501.686 113.286L501.824 113.711L501.96 114.138L502.092 114.565L502.222 114.993L502.348 115.423L502.472 115.853L502.593 116.284L502.711 116.717L502.826 117.15L502.939 117.584L503.048 118.018L503.154 118.454L503.258 118.89L503.359 119.327L503.456 119.765L503.551 120.204L503.643 120.643L503.731 121.083L503.817 121.524L503.9 121.965L503.98 122.407L504.057 122.85L504.131 123.293L504.202 123.736L504.27 124.181L504.335 124.625L504.397 125.07L504.456 125.516L504.512 125.962L504.565 126.409L504.614 126.855L504.661 127.303L504.705 127.75L504.746 128.198L504.784 128.646L504.819 129.095L504.85 129.544L504.879 129.993L504.905 130.442L504.927 130.891L504.947 131.341L504.963 131.79L504.977 132.24L504.987 132.69L504.994 133.14L504.999 133.59L505 134Z" stroke="black" stroke-width="4"/>
</svg>
